<?xml version="1.0" encoding="utf-8"?>
<!-- Generator: Adobe Illustrator 27.5.0, SVG Export Plug-In . SVG Version: 6.00 Build 0)  -->
<svg version="1.1" xmlns="http://www.w3.org/2000/svg" xmlns:xlink="http://www.w3.org/1999/xlink" x="0px" y="0px"
	 viewBox="0 0 500 500" style="enable-background:new 0 0 500 500;" xml:space="preserve">
<g id="BACKGROUND">
	<rect style="fill:#F0FFF8;" width="500" height="500"/>
</g>
<g id="OBJECTS">
	<path style="fill:#CEE8DC;" d="M347,220c0-24-23-40-45-42c-40-4-72,28-88,61c6-40-21-83-63-88c-41-5-74,28-86,64c0-24-14-61-43-52
		c-8.684,2.895-15.913,8.073-22,14.621V500h500V165.75C445.202,142.498,368.086,160.577,347,220z"/>
	<path style="fill:#687828;" d="M398.664,278.433c18.579-28.306,17.068-80.093-7.321-104.038c4.288,8.594,4.681,19.339,6.003,28.768
		c1.741,12.417,3.891,22.54,0.976,35.035c-6.019-15.02-15.03-35.186-33.333-50.619c5.422,18.552,24.201,38.696,22.478,58.411
		c-8.525-16.973-22.211-32.473-37.122-44.016c6.735,9.107,12.413,17.39,17.492,27.649c5.766,11.649,17.213,26.057,15.945,39.772
		C390.12,273.985,391.026,280.804,398.664,278.433z"/>
	<g>
		<path style="fill:#8BBAA5;" d="M365.385,250c-83.164-7.336-166.737-8.754-250.737,9.246C60.668,270.872,31.085,261.649,0,259.851
			V500h500V246.712C472.349,256.787,419.17,254.745,365.385,250z"/>
		<path style="fill:#92C4AE;" d="M350,434c-64,11-125,20-182,48c-11.476,5.569-22.746,11.576-33.761,18H500v-65.018
			C450.038,434.608,400.98,425.177,350,434z"/>
		<path style="fill:#92C4AE;" d="M472,285c-74-11-145-17-220-5c-83,14-165,27-233,81c-26,21-11,58,15,69c102,40,205-22,295-70
			c53.914-27.414,111.169-47.296,171-42.13v-35.48C491.132,285.797,481.312,286.433,472,285z"/>
	</g>
	<g>
		<path style="opacity:0.5;fill:#81AD9A;" d="M448.754,377.602c0,0-16.691-0.263-38.793-1.767
			c-14.828-1.01-28.599-5.043-43.452-6.467c-16.109-1.544-33.055-3.569-49.29-2.913c5.284,4.636,7.456,11.711,11.851,17.284
			c5.958,7.553,14.051,13.389,20.329,20.692c4.586,5.336,14.216,15.108,16.867,21.104c-46.068,9.521-93.479,9.869-140.276,8.852
			c-28.307-0.615-55.739-1.263-83.489-7.715c-36.44-8.473-77.448-25.089-82.228-67.995c-4.849-43.529,45.345-62.994,78.493-75.036
			c58.665-21.312,132.079-34.978,191.83-15.278c36.094,11.9,71.556,31.75,95.607,57.769
			C445.413,346.912,451.678,363.577,448.754,377.602z"/>
		<g>
			<path style="fill:#687828;" d="M458.726,371.564c0,0-16.691-0.262-38.793-1.767c-14.828-1.01-28.599-5.043-43.452-6.467
				c-16.109-1.545-33.055-3.569-49.29-2.913c5.284,4.636,7.456,11.711,11.851,17.284c5.957,7.553,14.051,13.389,20.329,20.692
				c4.586,5.336,14.216,15.108,16.867,21.104c-46.068,9.521-93.479,9.869-140.276,8.852c-28.307-0.615-55.739-1.264-83.489-7.716
				c-36.44-8.473-77.448-25.089-82.228-67.995c-4.85-43.529,45.345-62.994,78.493-75.036
				c58.665-21.312,132.079-34.978,191.83-15.278c36.094,11.9,71.556,31.75,95.607,57.769
				C455.384,340.874,461.65,357.539,458.726,371.564z"/>
			<g>
				<g>
					<g>
						<path style="fill:#7E9130;" d="M129.91,385.914c16.853-7.748,33.861-15.158,51.017-22.209
							c17.115-7.034,34.373-13.72,51.76-20.052s34.902-12.311,52.532-17.932c17.63-5.621,35.373-10.884,53.217-15.783
							c17.844-4.899,35.787-9.436,53.815-13.604c2.223-0.514,4.447-1.022,6.672-1.525c1.806-0.408,1.042-3.184-0.765-2.775
							c-18.131,4.099-36.179,8.564-54.128,13.399c-17.948,4.835-35.798,10.037-53.534,15.601
							c-17.656,5.539-35.199,11.437-52.615,17.688c-17.495,6.28-34.863,12.917-52.087,19.907
							c-17.183,6.973-34.226,14.291-51.112,21.955c-2.077,0.943-4.152,1.891-6.225,2.844
							C126.776,384.201,128.237,386.683,129.91,385.914L129.91,385.914z"/>
					</g>
				</g>
				<g>
					<g>
						<path style="fill:#7E9130;" d="M100.36,319.181c0.279-0.019,0.557-0.039,0.836-0.058c0.075,0.403,0.312,0.482,0.708,0.239
							c0.493,0.078,1.113,0.025,1.612,0.054c1.337,0.075,2.673,0.162,4.01,0.243c2.896,0.176,5.792,0.351,8.688,0.527
							c5.569,0.338,11.138,0.676,16.708,1.014c11.138,0.676,22.277,1.352,33.415,2.028c22.277,1.352,44.554,2.703,66.83,4.055
							c43.299,2.627,86.672,4.918,129.756,10.128c24.205,2.927,48.303,6.827,72.085,12.226c1.804,0.41,2.574-2.365,0.765-2.775
							c-22.235-5.048-44.745-8.776-67.359-11.648c-22.735-2.888-45.572-4.906-68.427-6.559c-22.928-1.659-45.88-2.978-68.826-4.37
							c-23.502-1.426-47.004-2.852-70.506-4.278c-11.695-0.71-23.391-1.419-35.086-2.129c-5.903-0.358-11.807-0.716-17.71-1.075
							c-2.3-0.139-5.238-0.847-7.464-0.041c-1.639,0.594-2.61,2.322-1.604,3.916c0.792,1.254,2.543,1.727,3.603,0.54
							C103.625,319.838,101.597,317.795,100.36,319.181L100.36,319.181z"/>
					</g>
				</g>
				<g>
					<g>
						<path style="fill:#7E9130;" d="M252.534,285.678c8.063,17.144,16.398,34.161,25.007,51.038
							c8.608,16.877,17.488,33.616,26.635,50.208c5.138,9.32,10.361,18.592,15.665,27.818c0.923,1.605,3.411,0.158,2.485-1.453
							c-9.443-16.425-18.626-32.999-27.538-49.718c-8.912-16.719-17.555-33.581-25.925-50.578
							c-4.701-9.547-9.315-19.138-13.844-28.768C254.231,282.55,251.749,284.009,252.534,285.678L252.534,285.678z"/>
					</g>
				</g>
				<g>
					<g>
						<path style="fill:#7E9130;" d="M273.927,323.688c-12.796,22.636-26.169,44.945-40.114,66.893
							c-3.898,6.134-7.84,12.24-11.825,18.318c-1.018,1.553,1.473,2.997,2.485,1.453c14.257-21.746,27.958-43.855,41.076-66.306
							c3.667-6.275,7.287-12.577,10.863-18.904C277.325,323.526,274.839,322.073,273.927,323.688L273.927,323.688z"/>
					</g>
				</g>
			</g>
		</g>
	</g>
	<g>
		<g>
			<path style="fill:#9FAB43;" d="M326.818,313.574c1.238,0.289,2.276,0.54,3.317,0.773c3.688,0.825,7.445,1.305,11.117,2.213
				c3.563,0.881,7.045,2.023,10.506,3.24c1.339,0.471,2.711,0.853,4.083,1.22c1.363,0.365,2.668,0.914,3.794,1.71
				c2.476,1.75,5.291,2.585,8.146,3.372c3.428,0.944,6.882,1.838,10.422,2.139c3.299,0.281,6.639,0.973,9.924,0.407
				c2.574-0.443,5.193-0.534,7.735-1.14c1.851-0.441,3.69-0.924,5.493-1.538c0.721-0.245,1.225-0.813,1.86-1.188
				c3.526-2.085,7.945,0.14,8.349,4.217c0.047,0.479,0.142,0.956,0.248,1.426c0.612,2.726-0.357,5.207-2.697,6.731
				c-1.725,1.124-3.631,2.171-5.671,1.351c-2.671-1.073-5.456-1.261-8.225-1.654c-3.374-0.479-6.774-0.712-10.17-0.982
				c-6.25-0.497-12.548-0.541-18.698-1.986c-0.462-0.109-0.91-0.139-1.108,0.462c-0.183,0.554-0.382,1.032,0.267,1.489
				c4.95,3.484,9.725,7.219,14.875,10.417c1.258,0.781,2.616,1.372,3.955,1.998c0.546,0.256,1.055,0.21,1.637,0.01
				c3.86-1.332,7.595-1.039,10.991,1.284c2.893,1.979,3.486,5.386,1.725,8.454c-0.855,1.49-2.05,2.593-3.609,3.251
				c-2.709,1.143-5.431,1.337-8.153-0.041c-2.388-1.21-4.372-2.953-6.357-4.7c-3.796-3.341-7.403-6.899-11.46-9.939
				c-2.803-2.1-5.759-3.964-8.764-5.755c-0.403-0.24-0.796-0.385-1.285-0.187c-2.081,0.845-4.27,1.143-6.497,1.241
				c-0.45,0.02-1.121-0.071-1.268,0.268c-0.181,0.416,0.454,0.694,0.75,1.01c2.41,2.572,4.808,5.156,7.264,7.683
				c2.666,2.743,5.734,4.999,8.849,7.2c2.438,1.723,4.94,3.35,7.39,5.052c1.973,1.37,3.321,3.176,3.445,5.697
				c0.17,3.463-2.133,5.911-5.616,6.036c-2.714,0.097-4.699-1.364-6.542-3.047c-2.525-2.307-4.208-5.279-6.114-8.073
				c-3.3-4.837-6.491-9.75-10.597-13.985c-2.453-2.53-4.819-5.145-7.323-7.628c-0.787-0.78-1.646-1.3-2.763-1.55
				c-6.327-1.419-12.543-3.249-18.722-5.208c-1.599-0.507-3.202-0.999-4.787-1.547c-1.732-0.599-3.542-0.502-5.316-0.599
				c-6.325-0.347-12.534-1.28-18.608-3.137c-2.206-0.674-4.393-1.346-6.478-2.353c-0.86-0.415-1.843-0.567-2.757-0.879
				c-4.036-1.374-6.345-5.257-5.634-9.464c0.248-1.466,0.692-2.875,1.305-4.23c0.094-0.207,0.206-0.411,0.263-0.629
				c1.288-4.879,4.245-8.775,7.488-12.455c6.349-7.204,13.718-13.266,21.449-18.913c6.637-4.848,13.369-9.546,20.459-13.713
				c0.193-0.114,0.469-0.18,0.46-0.446c-0.009-0.267-0.293-0.326-0.493-0.413c-1.876-0.814-3.839-1.399-5.759-2.089
				c-5.87-2.107-10.972-5.376-15.172-9.954c-2.919-3.182-4.635-7.085-4.556-11.399c0.069-3.768,0.743-7.565,3.194-10.701
				c1.731-2.215,3.782-3.989,6.396-5.22c4.414-2.079,9.08-2.861,13.856-3.179c4.648-0.31,9.309-0.4,13.968-0.314
				c5.337,0.099,10.665,0.439,16.004,0.536c2.519,0.046,5.033,0.423,7.548,0.662c3.389,0.322,6.782,0.616,10.165,0.996
				c2.747,0.308,5.382,1.162,8.063,1.793c6.827,1.606,12.712,5.023,18.101,9.358c4.027,3.239,6.09,7.53,6.327,12.727
				c0.222,4.868-1.393,9.17-3.87,13.224c-2.175,3.559-4.877,6.703-7.715,9.745c-4.432,4.75-9.164,9.169-14.404,13.013
				c-3.043,2.232-6.047,4.514-9.591,5.991c-1.872,0.78-3.514,2.08-5.322,3.043c-5.77,3.075-11.634,5.965-17.471,8.907
				c-3.381,1.704-6.853,3.187-10.42,4.453c-0.934,0.332-1.834,0.771-2.729,1.203c-2.56,1.236-5.109,2.493-7.66,3.747
				C327.408,313.196,327.208,313.338,326.818,313.574z"/>
		</g>
		<g>
			<path style="fill:#BCCA4F;" d="M228.937,344.046c-5.551,0.208-10.977-0.427-16.41-0.965c-9.014-0.892-17.627-3.367-26.113-6.435
				c-5.008-1.811-9.9-3.899-14.826-5.904c-2.665-1.085-5.185-2.486-7.54-4.147c-1.267-0.893-2.623-1.604-4.033-2.212
				c-3.468-1.495-6.369-3.833-9.314-6.12c-5.172-4.017-9.736-8.598-13.663-13.866c-4.538-6.086-7.856-12.796-10.546-19.826
				c-1.806-4.719-2.665-9.699-3.222-14.72c-0.335-3.027-0.568-6.068-0.458-9.108c0.272-7.574,1.177-15.076,2.754-22.496
				c1.184-5.571,2.577-11.085,4.33-16.505c0.905-2.798,2.151-5.44,3.702-7.949c1.181-1.91,2.247-3.892,3.337-5.857
				c1.424-2.568,3.035-5.007,4.831-7.333c2.661-3.445,5.211-6.976,7.912-10.39c3.405-4.305,6.959-8.492,10.361-12.8
				c2.172-2.751,4.553-5.306,6.885-7.913c4.775-5.339,9.894-10.382,14.144-16.178c2.708-3.694,5.169-7.563,7.871-11.264
				c1.166-1.597,1.856-3.499,2.439-5.332c0.369-1.161-0.001-2.684-0.589-3.938c-0.375-0.799-0.73-1.603-1.044-2.428
				c-0.436-1.149-1.218-2.064-2.173-2.801c-1.027-0.794-1.89-1.744-2.654-2.761c-2.154-2.865-4.283-5.75-6.267-8.739
				c-0.824-1.242-1.134-2.659-1.544-4.047c-1.056-3.573-2.24-7.12-2.601-10.856c-0.395-4.083-0.29-8.107,1.258-12.011
				c0.996-2.511,1.926-5.049,2.941-7.555c0.767-1.895,2.141-3.283,3.602-4.59c3.511-3.142,7.288-5.899,11.577-7.927
				c4.714-2.228,9.634-3.753,14.852-3.811c5.747-0.063,11.245,1.157,16.197,4.279c5.521,3.48,10.096,7.923,13.615,13.425
				c0.466,0.729,0.885,0.873,1.651,0.501c3.214-1.563,6.568-2.751,10.096-3.339c3.786-0.631,7.596-1.01,11.446-1.16
				c6.396-0.25,12.652,0.563,18.864,1.932c0.999,0.22,1.984,0.509,2.964,0.805c0.572,0.173,1,0.116,1.445-0.352
				c4.945-5.2,11.138-8.422,17.752-10.855c3.698-1.36,7.624-1.753,11.572-1.937c5.215-0.243,10.201,0.719,15.013,2.608
				c7.341,2.881,12.899,7.847,16.866,14.655c2.314,3.971,3.486,8.262,3.854,12.8c0.728,8.966-1.707,17.229-5.641,25.152
				c-0.623,1.255-0.63,1.254,0.559,1.944c2.952,1.715,5.776,3.636,8.7,5.398c2.23,1.344,3.4,3.54,4.015,6.027
				c0.164,0.661,0.275,1.34,0.353,2.016c0.143,1.234-0.038,2.385-0.581,3.553c-1.621,3.481-2.91,7.102-4.316,10.674
				c-1.677,4.259-3.568,8.432-5.343,12.653c-0.98,2.33-1.883,4.685-3.021,6.957c-1.242,2.477-1.708,5.237-2.216,7.951
				c-1.186,6.326-0.875,12.638,0.398,18.902c1.27,6.246,2.42,12.511,3.407,18.806c1.118,7.13,1.587,14.309,1.257,21.515
				c-0.296,6.453-0.876,12.887-2.654,19.14c-1.318,4.635-3.146,9.082-5.06,13.498c-2.682,6.192-5.568,12.286-8.785,18.216
				c-3.093,5.701-6.215,11.393-10.011,16.672c-1.247,1.734-2.77,3.242-4.198,4.824c-3.126,3.465-6.316,6.871-9.72,10.067
				c-1.595,1.498-3.24,2.947-4.901,4.372c-1.957,1.678-4.302,2.611-6.706,3.462c-8.88,3.142-17.724,6.397-26.884,8.657
				c-6.383,1.574-12.827,2.845-19.362,3.642c-3.755,0.458-7.517,0.831-11.287,1.103C235.01,344.047,231.937,344.163,228.937,344.046
				z"/>
		</g>
		<g>
			<path style="fill:#969E3E;" d="M149.76,207.784c0.854-0.171,1.708-0.342,2.561-0.683c3.074-1.366,6.147-2.561,8.367-4.952
				c0.683-0.512,1.195-1.195,2.049-2.049c5.635-6.147,2.732-15.368,1.708-22.882c-0.171-0.341-0.683-0.512-0.854-0.683
				c0-0.854-0.171-1.537-0.683-2.049c-0.073-0.083-0.146-0.164-0.219-0.247c-0.905,1.038-1.794,2.092-2.65,3.176
				c-3.402,4.308-6.956,8.495-10.361,12.8c-2.7,3.414-5.251,6.945-7.912,10.39c-1.186,1.536-2.289,3.122-3.313,4.761
				C141.742,207.482,145.724,208.552,149.76,207.784z"/>
			<path style="fill:#969E3E;" d="M174.178,170.216c0.683,0.171,1.366,0.171,2.049,0c0.342-0.171,0.342-0.512,0.683-0.683
				c3.927-0.683,7.343-3.757,7.684-7.684c0.171-0.171,0.512-0.512,0.683-0.683c0.22-3.598-0.823-6.975-2.681-9.981
				c-0.504,0.717-1.011,1.432-1.529,2.139c-3.765,5.135-8.213,9.68-12.499,14.363c0.798,0.732,1.718,1.305,2.707,1.676
				C172.129,169.704,173.154,169.704,174.178,170.216z"/>
		</g>
		<g>
			<path style="fill:#D7E6A2;" d="M228.25,344.055c-3.285-0.436-9.457-3.415-13.627-12.331c-4.015-8.586-4.88-19.075-4.177-28.444
				c3.086-41.154,30.953-79.369,72.804-87.415c14.472-2.782,31.069-1.201,41.374,9.334c6.955,7.111,9.993,17.329,10.311,27.27
				c0.526,16.469-4.657,31.029-10.938,45.9c-2.604,6.165-6.118,11.785-10.431,16.91c-1.909,2.268-3.694,4.64-5.651,6.87
				c-0.273,0.311-0.542,0.635-0.859,0.895c-3.339,2.738-6.699,5.448-10.293,7.852c-0.197,0.132-0.419,0.236-0.643,0.317
				c-7.239,2.619-14.474,5.263-21.967,7.086c-6.364,1.549-12.809,2.653-19.346,3.194
				C251.654,341.756,233.915,344.807,228.25,344.055z"/>
		</g>
		<g>
			<path style="fill:#FFFFFF;" d="M212.073,69.292c14.789,0.001,26.728,11.92,26.73,26.684
				c0.002,14.749-11.957,26.633-26.777,26.609c-14.783-0.023-26.712-11.916-26.697-26.615
				C185.344,81.206,197.288,69.291,212.073,69.292z"/>
		</g>
		<g>
			<path style="fill:#BCCA4F;" d="M328.821,216.663c1.394,0.236,2.763,0.517,4.114,0.996c3.096,1.098,5.632,3.027,8.056,5.145
				c3.447,3.01,5.99,6.731,8.309,10.636c2.57,4.329,5.059,8.7,7.276,13.223c2.295,4.68,4.354,9.46,5.787,14.48
				c0.905,3.172,1.493,6.417,1.917,9.699c0.238,1.844,0.4,3.728,1.193,5.476c0.333,0.734,0.215,1.568,0.056,2.358
				c-0.518,2.569-1.312,5.066-2.013,7.586c-0.172,0.619-0.253,1.194-0.021,1.827c0.49,1.338,0.161,2.699,0.034,4.055
				c-0.831,8.79-3.639,17.111-6.048,25.522c-1.609,5.615-3.892,10.988-6.182,16.351c-0.785,1.837-1.24,3.693-1.235,5.754
				c0.011,4.337,0.562,8.622,0.85,12.931c0.334,5,1.001,9.954,1.759,14.902c0.117,0.764,0.369,1.347,1.008,1.866
				c2.374,1.927,3.249,4.404,2.192,6.784c-1.439,3.238-3.329,5.192-7.058,5.185c-2.699-0.005-4.843-1.696-5.576-4.292
				c-0.116-0.409-0.289-0.802-0.428-1.205c-0.712-2.057-0.531-3.991,0.882-5.703c0.405-0.492,0.529-0.98,0.411-1.572
				c-0.896-4.477-1.072-9.024-1.339-13.565c-0.177-3.007-0.487-6.007-0.496-9.023c0-0.076-0.053-0.151-0.133-0.367
				c-0.798,1.053-1.556,2.023-2.282,3.016c-3.188,4.36-6.335,8.749-9.557,13.083c-2.713,3.649-5.545,7.209-8.496,10.669
				c-0.4,0.469-0.511,0.898-0.285,1.471c1.295,3.286-2.072,7.866-5.781,7.866c-2.4,0-4.563-0.541-6.23-2.395
				c-1.592-1.771-2.787-6.025-0.568-8.314c1.045-1.078,2.246-1.849,3.716-2.091c0.779-0.128,1.256-0.547,1.728-1.109
				c4.555-5.424,8.645-11.2,12.844-16.896c2.106-2.857,4.417-5.562,6.633-8.338c0.081-0.101,0.224-0.181,0.14-0.433
				c-0.55,0.302-1.081,0.611-1.626,0.891c-6.212,3.192-12.316,6.598-18.663,9.523c-2.811,1.295-5.622,2.588-8.451,3.84
				c-0.677,0.3-1.178,0.677-1.579,1.326c-2.455,3.973-8.697,4.047-11.157,0.12c-1.268-2.024-1.233-4.181-0.127-6.258
				c1.102-2.07,2.806-3.318,5.242-3.373c0.886-0.02,1.779-0.011,2.607,0.307c0.802,0.308,1.476,0.093,2.203-0.221
				c4.536-1.962,8.937-4.203,13.361-6.399c4.707-2.336,9.541-4.392,14.346-6.514c1.064-0.47,2.094-1.017,3.139-1.531
				c0.314-0.155,0.581-0.341,0.625-0.741c0.311-2.816,1.322-5.47,1.916-8.221c1.831-8.485,4.222-16.828,6.392-25.227
				c1.48-5.728,2.935-11.464,4.493-17.171c0.271-0.991,0.151-1.816-0.314-2.75c-4.09-8.225-8.521-16.272-12.662-24.47
				c-1.59-3.147-3.017-6.375-4.348-9.641c-0.513-1.258-1.315-2.322-2.047-3.436c-2.343-3.568-4.61-7.181-6.204-11.163
				c-1.042-2.604-1.498-5.328-1.089-8.116c0.489-3.329,2.452-5.301,5.827-6.083c0.357-0.083,0.711-0.179,1.067-0.269
				C327.572,216.663,328.197,216.663,328.821,216.663z"/>
		</g>
		<g>
			<path style="fill:#FFFFFF;" d="M299.004,86.778c0-0.109,0-0.219,0-0.328c0.222-0.311,0.449-0.618,0.665-0.933
				c5.83-8.497,13.948-12.609,24.21-11.813c14.882,1.154,25.476,14.168,23.762,28.936c-0.669,5.768-2.543,11.145-6.312,15.722
				c-0.753,0.914-0.786,0.914-1.836,0.373c-5.061-2.606-9.391-6.199-13.388-10.164c-6.203-6.153-12.81-11.825-19.748-17.128
				C304.044,89.673,301.622,88.072,299.004,86.778z"/>
		</g>
		<g>
			<path style="fill:#BCCA4F;" d="M270.658,211.711c0.19,0.055,0.376,0.126,0.569,0.163c4.365,0.834,6.805,3.761,6.966,8.216
				c0.147,4.054-0.859,7.831-2.517,11.478c-1.923,4.229-4.24,8.243-6.645,12.209c-0.566,0.934-0.837,1.99-1.22,2.998
				c-2.788,7.319-6.09,14.406-9.494,21.454c-2.795,5.788-5.403,11.667-8.101,17.503c-0.179,0.387-0.17,0.757-0.094,1.161
				c0.684,3.639,1.721,7.194,2.551,10.798c1.66,7.208,3.349,14.41,5.036,21.612c1.129,4.82,2.352,9.62,3.279,14.483
				c0.576,3.021,1.274,6.011,1.98,9.001c0.249,1.053,0.534,2.1,0.58,3.186c0.035,0.828,0.446,1.294,1.163,1.706
				c3.435,1.973,7.063,3.555,10.596,5.328c4.425,2.22,8.753,4.615,13.087,7.001c2.789,1.535,5.658,2.927,8.488,4.389
				c0.512,0.264,1.004,0.293,1.555,0.084c1.22-0.465,2.494-0.612,3.778-0.362c2.818,0.549,4.292,2.526,5.129,5.064
				c1.009,3.061-0.075,6.343-2.586,8.126c-3.079,2.186-7.359,1.474-9.27-1.745c-0.762-1.283-1.755-1.985-3.005-2.566
				c-3.611-1.678-7.13-3.54-10.627-5.439c-5.949-3.23-11.764-6.696-17.591-10.141c-0.239-0.141-0.484-0.27-0.844-0.301
				c0.702,1.01,1.369,2.045,2.112,3.024c3.839,5.06,7.383,10.318,10.725,15.717c2.038,3.293,4.491,6.299,6.734,9.452
				c0.297,0.417,0.586,0.84,0.876,1.262c0.51,0.743,1.117,1.228,2.07,1.471c3.506,0.892,5.724,4.37,4.79,7.845
				c-0.494,1.84-0.983,3.594-2.455,4.952c-2.171,2.003-5.955,2.572-8.329,1.155c-2.733-1.63-4.273-5.233-3.395-8.163
				c0.248-0.826,0.057-1.397-0.423-2.027c-5.476-7.175-10.5-14.663-15.372-22.257c-1.751-2.729-3.574-5.413-5.369-8.114
				c-0.087-0.131-0.122-0.328-0.406-0.352c-0.109,1.323-0.06,2.65-0.147,3.971c-0.298,4.539-0.477,9.085-0.759,13.625
				c-0.187,3.009-0.533,6.005-1.069,8.975c-0.109,0.602-0.023,1.076,0.348,1.586c1.556,2.137,1.87,4.458,0.938,6.951
				c-0.436,1.166-0.589,2.43-1.311,3.499c-2.024,2.997-6.496,3.651-9.233,1.135c-2.124-1.952-3.558-4.364-3.338-7.445
				c0.058-0.813,0.235-1.602,0.705-2.254c0.777-1.079,1.406-2.286,2.502-3.109c0.334-0.251,0.362-0.615,0.413-0.987
				c0.81-5.888,1.544-11.78,1.911-17.719c0.322-5.192,0.889-10.362,0.874-15.58c-0.006-2.201-0.459-4.223-1.252-6.198
				c-4.66-11.603-7.988-23.599-10.622-35.801c-0.564-2.614-1.209-5.217-1.614-7.857c-0.386-2.523-0.509-5.087-0.742-7.633
				c-0.018-0.197-0.045-0.419,0.024-0.594c0.958-2.442-0.18-4.682-0.667-6.98c-0.348-1.641-0.79-3.263-1.117-4.908
				c-0.281-1.413-0.11-2.764,0.346-4.18c0.517-1.605,0.701-3.337,0.871-5.029c0.389-3.859,1.066-7.662,2.023-11.414
				c1.424-5.585,3.485-10.95,5.77-16.228c2.013-4.65,4.286-9.178,6.661-13.651c2.107-3.967,4.191-7.958,7.067-11.457
				c2.531-3.079,5.384-5.815,8.823-7.839c1.879-1.106,3.913-1.976,6.163-2.109c0.193-0.011,0.382-0.092,0.573-0.141
				C269.633,211.711,270.146,211.711,270.658,211.711z"/>
		</g>
		<path style="fill:#CA835F;" d="M337.101,149.549c-4.349,3.369-9.672,5.17-14.013,8.628c-4.407,3.511-8.071,7.895-12.093,11.796
			c-5.758,5.586-13.239,11.434-21.421,12.728c-10.932,1.73-18.414-5.79-24.995-13.236c-6.318-7.148-11.021-13.782-19.392-18.385
			c17.951,6.213,33.117,12.181,52.62,9.751C311.217,159.16,325.531,156.851,337.101,149.549z"/>
		<path style="fill:#B06540;" d="M267.161,172.314c5.975,6.374,12.883,11.896,22.412,10.388c7.276-1.151,13.994-5.904,19.443-10.87
			C295.158,168.121,280.755,167.694,267.161,172.314z"/>
		<g>
			<path style="fill:#BCCA4F;" d="M137.311,320.738c0.474,0.258,0.716,0.398,0.965,0.524c3.047,1.54,6.14,2.979,9.249,4.391
				c3.736,1.697,7.262,3.787,10.676,6.06c1.848,1.231,3.728,2.402,5.675,3.471c1.461,0.802,2.69,1.921,3.778,3.162
				c1.3,1.481,2.902,2.536,4.566,3.527c2.91,1.734,5.9,3.323,9.006,4.671c3.789,1.645,7.691,3.124,11.754,3.751
				c2.318,0.358,4.715,0.597,7.089,0.774c1.68,0.125,3.349-0.063,5.024-0.016c1.181,0.033,2.285-0.323,3.402-0.692
				c3.227-1.066,6.271,0.539,7.195,3.73c0.086,0.297,0.165,0.615,0.152,0.92c-0.054,1.304-0.015,2.629-0.246,3.904
				c-0.45,2.479-1.996,4.089-4.39,4.861c-2.521,0.813-4.901,0.875-6.984-1.167c-0.643-0.631-1.619-0.809-2.456-1.156
				c-5.84-2.421-11.821-4.445-17.847-6.344c-4.507-1.42-8.978-2.938-13.23-5.028c-0.381-0.187-0.76-0.461-1.095,0.09
				c-0.307,0.505-0.722,0.924-0.161,1.576c2.39,2.78,4.734,5.599,7.108,8.393c1.601,1.884,3.185,3.783,4.965,5.508
				c1.065,1.032,2.208,1.963,3.382,2.863c0.371,0.285,0.742,0.342,1.193,0.289c3.721-0.435,6.994,0.686,9.801,3.066
				c3.943,3.343,2.656,9.517-2.343,11.263c-4.302,1.503-8.196,0.408-11.332-3.406c-2.788-3.391-5.082-7.128-7.521-10.762
				c-3.342-4.978-7.196-9.519-11.524-13.665c-0.326-0.312-0.663-0.543-1.13-0.469c-2.495,0.393-4.929-0.06-7.365-0.508
				c-0.212-0.039-0.486-0.199-0.64,0.013c-0.152,0.209,0.067,0.428,0.177,0.616c2.193,3.722,4.149,7.58,6.443,11.245
				c1.788,2.855,3.978,5.393,6.156,7.945c1.864,2.184,3.812,4.291,5.725,6.431c1.606,1.797,2.395,3.878,2.012,6.352
				c-0.409,2.635-2.548,4.515-5.22,4.608c-2.525,0.089-4.413-1.005-6.009-2.842c-1.848-2.127-2.955-4.639-3.896-7.242
				c-1.643-4.544-3.272-9.092-5.094-13.57c-1.701-4.179-4.1-7.985-6.263-11.917c-0.821-1.493-1.747-2.929-2.629-4.389
				c-0.332-0.549-0.797-0.935-1.377-1.229c-7.313-3.711-14.342-7.913-21.261-12.302c-0.949-0.602-1.958-1.032-3.021-1.364
				c-3.883-1.212-7.775-2.409-11.494-4.073c-4.369-1.955-8.584-4.208-12.481-6.995c-1.294-0.926-2.573-1.867-3.937-2.686
				c-3.535-2.125-4.875-6.682-3.001-10.707c0.517-1.111,1.101-2.19,1.882-3.138c0.694-0.842,1.096-1.866,1.747-2.721
				c2.221-2.916,4.88-5.395,7.865-7.507c7.444-5.268,15.521-9.364,23.93-12.851c6.466-2.681,12.971-5.253,19.611-7.472
				c2.13-0.712,4.286-1.35,6.429-2.022c0.237-0.074,0.564-0.06,0.639-0.345c0.082-0.313-0.245-0.415-0.439-0.557
				c-1.738-1.28-3.63-2.331-5.349-3.643c-2.277-1.739-4.564-3.412-6.504-5.592c-1.981-2.227-3.885-4.49-5.238-7.118
				c-2.782-5.402-3.342-10.907-0.3-16.47c0.955-1.747,1.742-3.577,3.302-4.917c2.433-2.09,5.094-3.595,8.326-4.222
				c5.67-1.1,11.204-0.375,16.738,0.777c6.019,1.253,11.955,2.836,17.86,4.54c7.133,2.058,14.202,4.302,21.164,6.9
				c3.257,1.215,6.486,2.435,9.568,4.054c5.1,2.68,9.813,5.857,13.664,10.197c2.018,2.274,4.127,4.479,5.463,7.265
				c2.394,4.991,2.262,10.019,0.077,15.01c-1.904,4.351-5.062,7.74-8.763,10.612c-9.339,7.247-19.617,12.77-30.829,16.545
				c-1.111,0.374-2.247,0.625-3.408,0.762c-1.057,0.126-2.027,0.553-3.037,0.84c-7.175,2.038-14.503,3.429-21.757,5.133
				c-4.525,1.064-9.143,1.498-13.715,2.241c-3.17,0.515-6.3,1.277-9.447,1.934C138.065,320.504,137.803,320.597,137.311,320.738z"/>
		</g>
		<g>
			<path style="fill:#858F38;" d="M137.026,321.825c-1.904,0.107-3.756,0.532-5.615,0.918c-0.806,0.167-1.61,0.348-2.422,0.478
				c-0.556,0.089-1.158,0.059-1.306-0.621c-0.152-0.694,0.414-0.951,0.945-1.098c3.23-0.891,6.457-1.793,9.701-2.63
				c7.008-1.81,13.949-3.856,20.902-5.861c7.613-2.195,15.376-3.805,23.033-5.829c12.693-3.356,24.37-8.871,34.916-16.707
				c3.712-2.758,6.852-6.072,8.963-10.246c2.634-5.21,2.44-10.327-0.59-15.328c-1.576-2.6-3.576-4.849-5.795-6.903
				c-3.528-3.266-7.449-5.947-11.827-7.975c-8.412-3.895-16.975-7.401-25.87-10.034c-6.699-1.983-13.561-3.352-20.301-5.188
				c-3.154-0.859-6.265-1.844-9.292-3.086c-0.281-0.115-0.58-0.19-1.108-0.361c0.87-0.483,1.585-0.656,2.381-0.512
				c3.328,0.602,6.592,1.483,9.877,2.273c5.631,1.354,11.332,2.409,16.923,3.935c10.994,3,21.661,6.896,31.749,12.2
				c6.536,3.436,11.974,8.238,15.842,14.648c1.181,1.957,2.116,4.009,2.505,6.308c0.438-0.724,0.423-1.541,0.555-2.308
				c2.727-15.753,8.511-30.234,17.938-43.204c0.718-0.989,1.434-1.98,2.166-2.958c0.311-0.415,0.693-0.898,1.261-0.523
				c0.577,0.38,0.246,0.906-0.002,1.358c-1.804,3.293-3.873,6.425-5.853,9.612c-5.738,9.234-9.589,19.226-12.116,29.773
				c-1.782,7.439-2.859,14.948-2.526,22.608c0.191,4.399,0.852,8.749,1.668,13.079c1.104,5.859,2.243,11.704,4.119,17.38
				c1.408,4.259,2.833,8.513,4.166,12.795c2.041,6.558,3.743,13.219,5.947,19.728c0.328,0.967,0.733,1.908,1.093,2.865
				c0.363,0.965,0.222,1.587-0.403,1.846c-0.606,0.251-1.148-0.137-1.542-1.083c-1.949-4.671-3.5-9.477-4.853-14.349
				c-1.725-6.211-3.633-12.365-5.697-18.471c-2.233-6.608-3.588-13.423-4.822-20.27c-0.599-3.324-1.206-6.646-1.476-10.014
				c-0.238-2.971-0.382-5.949-0.29-8.951c-0.332,0.136-0.336,0.458-0.433,0.702c-1.121,2.81-2.776,5.259-4.857,7.451
				c-4.259,4.486-9.377,7.832-14.653,10.928c-10.632,6.241-21.981,10.693-34.024,13.4c-10.222,2.297-20.296,5.175-30.372,8.033
				c-1.964,0.557-3.964,0.984-5.949,1.467c-0.296,0.072-0.603,0.104-0.924,0.363c3.937,0.78,7.543,2.296,11.094,3.959
				c6.058,2.837,11.971,5.933,17.364,9.929c2.202,1.632,4.29,3.389,5.638,5.849c0.103,0.188,0.303,0.348,0.204,0.711
				c-0.498-0.197-0.997-0.365-1.471-0.586c-1.401-0.653-2.665-1.527-3.829-2.535c-3.502-3.034-7.421-5.445-11.459-7.672
				c-6.025-3.323-12.149-6.442-18.624-8.817c-0.278-0.102-0.509-0.242-0.669-0.492c-0.001,0.001,0.018,0.011,0.018,0.011
				L137.026,321.825z"/>
			<path style="fill:#858F38;" d="M293.144,163.481c-8.561,0.184-16.919-1.226-25.211-3.171c-3.925-0.921-7.85-1.847-11.666-3.163
				c-4.448-1.535-8.551-3.699-12.065-6.872c-0.413-0.373-0.665-0.202-1.033-0.007c-2.413,1.28-4.87,2.466-7.57,3.011
				c-0.993,0.201-2.008,0.415-3.038,0.137c-0.481-0.13-0.876-0.328-0.843-0.896c0.031-0.529,0.44-0.695,0.884-0.764
				c4.423-0.685,8.184-2.809,11.71-5.419c1.623-1.201,3.152-2.522,4.647-3.881c0.252-0.229,0.509-0.46,0.793-0.644
				c0.731-0.474,1.52-0.406,2.021,0.142c0.511,0.559,0.499,1.329-0.055,2.018c-0.177,0.22-0.39,0.414-0.604,0.599
				c-1.636,1.414-3.316,2.771-5.131,3.954c-0.788,0.514-0.766,0.507-0.007,1.046c5.529,3.925,11.795,6.015,18.34,7.457
				c4.685,1.032,9.361,2.095,14.117,2.766c6.151,0.867,12.322,1.175,18.532,0.868c8.291-0.411,16.333-2.017,24.14-4.812
				c6.848-2.451,13.374-5.553,19.466-9.561c3.419-2.249,6.923-4.366,10.696-5.999c1.686-0.73,3.423-1.216,5.243-1.408
				c0.801-0.085,1.387,0.316,1.479,0.964c0.112,0.787-0.298,1.289-1.016,1.444c-4.981,1.077-9.19,3.785-13.305,6.547
				c-8.462,5.68-17.595,9.834-27.368,12.61c-5.477,1.556-11.078,2.465-16.767,2.86C297.402,163.455,295.271,163.384,293.144,163.481
				z"/>
			<path style="fill:#858F38;" d="M250.858,283.624c0.797-1.956,1.602-3.921,2.397-5.889c3.652-9.032,7.219-18.098,11.048-27.059
				c2.608-6.102,5.863-11.866,9.017-17.686c0.42-0.774,0.812-1.565,1.264-2.32c0.297-0.497,0.825-1.084,1.335-0.824
				c0.576,0.293,0.394,1.059,0.14,1.62c-1.304,2.878-2.902,5.6-4.46,8.341c-3.633,6.393-6.416,13.173-9.168,19.967
				c-3.253,8.029-6.337,16.13-9.796,24.068c-1.114,2.557-0.797,4.842-0.388,7.312c1.136,6.865,3.011,13.567,4.457,20.364
				c1.95,9.165,4.624,18.144,7.142,27.163c0.595,2.133,1.116,4.286,1.673,6.429c0.109,0.421,0.268,0.906-0.254,1.111
				c-0.581,0.227-0.799-0.29-0.979-0.699c-1.131-2.55-1.965-5.206-2.735-7.881c-2.19-7.608-4.549-15.17-6.322-22.892
				c-1.581-6.884-3.131-13.776-4.615-20.682c-0.59-2.743-0.978-5.529-1.434-8.3c-0.134-0.815-0.16-1.627,0.23-2.418
				c0.258-0.523,0.465-0.654,0.87-0.155C250.412,283.361,250.54,283.568,250.858,283.624z"/>
			<path style="fill:#858F38;" d="M366.73,277.655c0.121,5.391-0.697,10.319-1.465,15.266c-1.357,8.749-4.379,16.959-7.703,25.099
				c-2.243,5.493-4.515,10.978-6.56,16.551c-0.116,0.316-0.269,0.634-0.474,0.896c-0.277,0.353-0.66,0.57-1.123,0.348
				c-0.437-0.209-0.613-0.613-0.536-1.064c0.076-0.444,0.227-0.88,0.389-1.302c2.863-7.479,5.815-14.924,8.926-22.303
				c2.664-6.317,4.323-12.908,5.486-19.646c0.76-4.403,1.288-8.825,1.323-13.293c0.081-10.513-2.434-20.407-7.064-29.82
				c-2.652-5.392-5.552-10.625-9.008-15.549c-1.37-1.952-2.571-4.022-3.844-6.042c-0.196-0.311-0.464-0.692-0.073-0.983
				c0.43-0.321,0.721,0.078,0.994,0.367c0.901,0.955,1.621,2.05,2.398,3.101c5.419,7.322,9.946,15.153,13.436,23.572
				C365.17,260.906,366.877,269.285,366.73,277.655z"/>
			<path style="fill:#858F38;" d="M334.81,331.196c0.211-2.233,0.648-4.435,1.024-6.646c0.838-4.925,1.467-9.883,2.388-14.797
				c1.703-9.083,3.74-18.079,6.829-26.807c0.351-0.99,0.722-1.977,1.16-2.931c0.273-0.595,0.204-1.028-0.184-1.548
				c-2.786-3.74-5.385-7.611-7.947-11.506c-3.177-4.83-5.678-10.039-8.391-15.127c-3.958-7.422-7.005-15.219-9.441-23.26
				c-0.238-0.786-0.455-1.586-0.457-2.42c0-0.192-0.039-0.45,0.203-0.506c0.231-0.054,0.35,0.173,0.423,0.351
				c0.39,0.945,0.81,1.881,1.137,2.847c3.325,9.813,8.085,18.949,13,28.031c3.652,6.747,7.949,13.054,12.388,19.282
				c0.595,0.835,0.596,0.829,1.066-0.079c0.182-0.352,0.366-0.709,0.599-1.027c0.247-0.337,0.635-0.418,0.994-0.23
				c0.334,0.175,0.417,0.528,0.333,0.892c-0.044,0.192-0.12,0.38-0.207,0.558c-3.73,7.692-6.127,15.823-7.95,24.144
				c-1.661,7.58-2.943,15.227-4.098,22.898c-0.407,2.699-1.122,5.336-1.7,8.001c-0.097,0.446-0.099,1.129-0.747,1.039
				C334.642,332.271,334.869,331.626,334.81,331.196z"/>
			<path style="fill:#858F38;" d="M173.566,276.412c-1.544,0.171-3.088,0.337-4.631,0.513c-4.803,0.547-9.638,0.562-14.455,0.879
				c-7.988,0.525-15.624,2.554-22.996,5.577c-10.397,4.263-20.325,9.403-29.186,16.395c-3.591,2.834-7.025,5.866-10.541,8.797
				c-0.35,0.291-0.824,0.904-1.164,0.581c-0.333-0.315,0.238-0.835,0.521-1.197c2.277-2.904,5.084-5.278,7.829-7.704
				c12.399-10.961,26.899-17.967,42.695-22.465c5.095-1.451,10.339-2.1,15.632-2.37c2.894-0.147,5.78-0.383,8.683-0.163
				c2.549,0.193,5.081,0.488,7.597,0.92C173.555,276.255,173.561,276.333,173.566,276.412z"/>
			<path style="fill:#858F38;" d="M314.071,139.718c-1.368-0.266-2.908-0.525-4.428-0.87c-2.049-0.466-4.066-1.057-6.013-1.858
				c-0.365-0.15-0.728-0.332-1.043-0.565c-0.413-0.305-0.669-0.728-0.421-1.258c0.238-0.507,0.7-0.678,1.214-0.561
				c1.189,0.27,2.372,0.569,3.55,0.887c2.358,0.635,4.75,1.11,7.152,1.542c0.195,0.035,0.391,0.075,0.579,0.137
				c0.849,0.281,1.286,0.871,1.159,1.552C315.705,139.345,315.077,139.741,314.071,139.718z"/>
			<path style="fill:#858F38;" d="M334.825,132.153c0.002,0.345-0.26,0.754-0.693,1.011c-2.419,1.434-4.581,3.27-7.106,4.538
				c-0.203,0.102-0.401,0.231-0.617,0.285c-0.649,0.163-1.266,0.131-1.64-0.529c-0.378-0.667-0.119-1.248,0.425-1.649
				c2.331-1.72,4.66-3.448,7.254-4.77c0.413-0.21,0.837-0.354,1.309-0.295C334.402,130.826,334.831,131.315,334.825,132.153z"/>
		</g>
		<circle style="fill:#3B4029;" cx="210.225" cy="104.389" r="17.674"/>
		<path style="fill:#3B4029;" d="M337.101,102.851c0-9.052-7.338-16.39-16.39-16.39c-5.303,0-10.005,2.53-13.001,6.437
			c8.681,6.305,16.635,15.087,25.294,21.769C335.546,111.778,337.101,107,337.101,102.851z"/>
		<path style="fill:#969E3E;" d="M181.636,177.142c-9.032,4.749-10.735,14.585-5.328,19.348c5.629,4.96,13.825,3.442,18.119-2.315
			c3.093-4.148,4.942-12.892-0.343-16.046C190.887,176.222,184.622,175.572,181.636,177.142z"/>
		<path style="fill:#969E3E;" d="M272.358,105.412c-3.237,1.702-3.848,5.228-1.91,6.935c2.018,1.778,4.955,1.234,6.494-0.83
			c1.109-1.487,1.771-4.621-0.123-5.751C275.673,105.082,273.428,104.85,272.358,105.412z"/>
		<path style="fill:#969E3E;" d="M273.356,87.428c-3.809,0.843-5.772,7.098-2.482,8.593c2.784,1.265,6.972,0.199,7.266-3.239
			C278.533,88.181,275.269,87.005,273.356,87.428z"/>
		<path style="fill:#969E3E;" d="M258.956,85.174c-2.191,0.485-3.321,4.083-1.428,4.944c1.602,0.728,4.011,0.114,4.18-1.863
			C261.935,85.607,260.057,84.931,258.956,85.174z"/>
		<path style="fill:#969E3E;" d="M294.671,110.822c-2.191,0.485-3.321,4.083-1.428,4.944c1.602,0.728,4.011,0.114,4.18-1.863
			C297.65,111.254,295.772,110.578,294.671,110.822z"/>
		<path style="fill:#969E3E;" d="M290.775,95.092c-4.62,1.023-7.002,8.61-3.011,10.424c3.377,1.535,8.458,0.241,8.814-3.929
			C297.056,96.004,293.096,94.578,290.775,95.092z"/>
	</g>
	<g>
		<g>
			<path style="fill:#A2D9C0;" d="M45.739,281.272c-5.191,3.066-9.841,6.968-13.833,11.423c-3.987,4.466-7.298,9.505-9.899,14.866
				c-5.26,10.694-7.779,22.712-7.164,34.544c0.644,11.854,4.053,23.482,9.555,33.99c5.472,10.532,12.887,20.046,21.649,28.058
				c8.745,8.066,18.768,14.706,29.4,20.112c10.625,5.455,21.902,9.603,33.396,12.97c11.514,3.341,23.301,5.764,35.162,7.739
				c11.851,2.075,23.805,3.585,35.733,5.285c-12.006-1.024-23.994-2.243-35.957-3.831c-11.944-1.686-23.85-3.866-35.555-6.969
				c-11.711-3.075-23.162-7.266-34.058-12.658c-10.868-5.429-21.139-12.197-30.149-20.44c-8.97-8.283-16.589-18.072-22.141-28.973
				c-5.51-10.89-9.008-22.935-9.33-35.19c-0.35-12.249,2.511-24.514,8.156-35.301C26.403,296.182,34.991,286.835,45.739,281.272z"/>
		</g>
		<g>
			<path style="fill:#A2D9C0;" d="M29.389,416.871c8.209,7.381,16.987,14.02,26.302,19.77c2.37,1.37,4.734,2.744,7.081,4.142
				l7.262,3.801l7.42,3.473l7.582,3.099l7.708,2.771l7.838,2.385l7.939,2.038c2.68,0.533,5.356,1.091,8.033,1.661
				c10.769,1.963,21.734,2.909,32.773,2.924c-10.977,1.234-22.153,0.944-33.147-0.613c-2.738-0.451-5.478-0.913-8.214-1.403
				l-8.127-1.865l-8.006-2.34l-7.873-2.759l-7.695-3.222l-7.513-3.623l-7.286-4.054c-2.361-1.467-4.703-2.961-7.04-4.457
				C45.218,432.397,36.72,425.133,29.389,416.871z"/>
		</g>
		<g>
			<path style="fill:#A2D9C0;" d="M382.784,378.184c6.346,0.592,12.639,1.309,18.934,1.967l9.439,0.944
				c1.575,0.131,3.145,0.306,4.718,0.458l4.721,0.41l4.721,0.417l4.725,0.368l9.459,0.712c6.313,0.447,12.635,0.838,18.987,1.363
				c-6.334,0.724-12.704,0.986-19.071,0.977c-3.185,0.018-6.367-0.11-9.55-0.217c-3.181-0.16-6.357-0.386-9.533-0.633
				c-3.169-0.314-6.338-0.638-9.497-1.039c-3.154-0.447-6.308-0.878-9.442-1.449C395.123,381.361,388.896,379.996,382.784,378.184z"
				/>
		</g>
		<g>
			<path style="fill:#A2D9C0;" d="M390.365,393.969c4.834,0.582,9.599,1.286,14.365,1.934l7.145,0.931
				c1.193,0.13,2.38,0.303,3.57,0.453l3.575,0.406l3.574,0.414l3.58,0.367l7.17,0.714c4.789,0.45,9.589,0.847,14.429,1.381
				c-4.818,0.715-9.681,0.971-14.541,0.957c-2.432,0.016-4.859-0.114-7.288-0.221c-2.426-0.161-4.846-0.387-7.265-0.634
				c-2.411-0.313-4.821-0.635-7.219-1.035c-2.391-0.445-4.783-0.872-7.148-1.439C399.574,397.107,394.895,395.755,390.365,393.969z"
				/>
		</g>
		<g>
			<path style="fill:#A2D9C0;" d="M423.959,274.794c6.492,2.339,12.667,5.607,18.413,9.504c1.417,1.001,2.834,2.008,4.232,3.041
				l4.066,3.267c1.305,1.148,2.582,2.331,3.874,3.496l3.701,3.681l3.478,3.893l3.285,4.055l3.044,4.236
				c0.955,1.452,1.888,2.919,2.81,4.389c3.582,5.947,6.512,12.289,8.496,18.9c-3.141-6.138-6.588-12.037-10.462-17.629
				c-1.009-1.37-2.007-2.744-2.982-4.132l-3.137-4.008l-3.27-3.895l-3.436-3.747l-3.556-3.633c-1.236-1.159-2.488-2.301-3.712-3.477
				l-3.834-3.348c-1.334-1.048-2.65-2.122-3.965-3.201C435.627,282.015,429.921,278.257,423.959,274.794z"/>
		</g>
	</g>
	<g>
		<path style="fill:#687828;" d="M-0.353,334.296c0.079,0.509,0.15,1.023,0.239,1.526c-0.001-0.112-0.001-0.223-0.001-0.335
			C-0.195,335.091-0.274,334.694-0.353,334.296z"/>
		<path style="fill:#687828;" d="M-0.115,335.488c0,0.111,0.001,0.223,0.001,0.335c0.228,1.279,0.482,2.542,0.779,3.779l0.157-4.531
			c-0.241,0.522-0.49,1.048-0.71,1.557C0.035,336.25-0.038,335.867-0.115,335.488z"/>
		<g>
			<g>
				<g>
					<path style="fill:#CEE8DC;" d="M143.387,26.65c3.656-1.313,7.458,0.25,7.039,4.522c-0.654,6.673-10.123,9.16-15.454,8.104
						C134.972,39.276,138.908,28.259,143.387,26.65z"/>
					<path style="fill:#3B4029;" d="M132.03,36.739c-1.448,1.357-1.522,3.631-0.165,5.079s3.631,1.522,5.08,0.165
						c1.448-1.357,1.522-3.631,0.165-5.08C135.753,35.456,133.479,35.382,132.03,36.739z"/>
					<path style="fill:#CEE8DC;" d="M133.077,22.423c-2.545-2.935-6.626-3.432-8.352,0.498c-2.695,6.14,4.345,12.942,9.511,14.631
						C134.236,37.552,136.195,26.018,133.077,22.423z"/>
				</g>
				<path style="fill:none;stroke:#BAD1C6;stroke-miterlimit:10;stroke-dasharray:6;" d="M133.329,47.811
					c-7.802,12.617-18.653,22.86-32.289,28.939c-16.639,7.418-40.091,16.264-46.615,35.211
					c-4.739,13.763,2.239,30.264,14.679,37.567c13.782,8.091,40.897,5.377,48.792-10.702c5.202-10.596,0.592-25.886-8.297-32.63
					c-13.662-10.365-32.947-0.151-41.397,12.221c-12.322,18.041-12.074,31.351-3.809,50.244c5.871,13.421,13.597,26.3,13.785,41.341
					c0.247,19.802-10.024,39.465-29.173,45.397c-0.968,0.916,0.496-0.096,0.836-0.015"/>
			</g>
			<g>
				<g>
					<path style="fill:#CEE8DC;" d="M395.844,40.548c-1.541-3.566-5.282-5.271-8.113-2.045c-4.422,5.04,0.238,13.65,4.654,16.818
						C392.385,55.322,397.732,44.917,395.844,40.548z"/>
					<circle style="fill:#3B4029;" cx="392.654" cy="55.734" r="3.594"/>
					<path style="fill:#CEE8DC;" d="M405.978,45.181c3.882-0.149,7.035,2.488,5.347,6.435c-2.637,6.165-12.415,5.679-17.179,3.064
						C394.146,54.68,401.223,45.364,405.978,45.181z"/>
				</g>
				<path style="fill:none;stroke:#BAD1C6;stroke-miterlimit:10;stroke-dasharray:6;" d="M384.839,67.527
					c-9.179,14.591-13.204,35.18-6.963,51.791c5.939,15.808,26.185,21.375,41.025,13.516c10.394-5.504,16.677-20.875,3.771-27.677
					c-17.655-9.305-33.423,6.872-39.435,21.851c-18.915,47.123,39.959,56.453,70.956,64.288c9.769,2.469,21.08,5.628,29.452,11.185
					c4.309,2.86,12.178,12.826,12.258,12.875"/>
			</g>
		</g>
	</g>
	<g>
		<g>
			<path style="fill:#969E3E;" d="M479.973,488.188c-2.446-40.924-7.139-82.904-6.463-123.947
				c0.474-28.794-2.209-59.333,5.085-87.54c4.15-16.048,11.598-30.917,18.713-45.793c0.9,6.331-1.61,12.344-3.222,18.387
				c-3.998,14.989-6.634,29.078-7.64,44.566c-1.61,24.781-1.45,49.572-1.429,74.396
				C485.049,405.991,482.526,445.317,479.973,488.188z"/>
			<g>
				<path style="fill:none;stroke:#DECCA9;stroke-width:3;stroke-miterlimit:10;" d="M478.404,488.617
					c7.666-7.66,8.437-20.574,9.663-30.596c4.377-35.784,5.799-73.779,3.668-109.726c-4.796-80.921-23.293-165.542-48.055-242.657"
					/>
				<path style="fill:#C2913B;" d="M477.473,186.354c1.106-11.177-7.604-47.475-14.309-66.462
					c-2.021-5.722-4.604-19.357-11.038-21.137c-4.271-1.182-17.347,3.332-17.7,6.708c-0.799,7.642,4.35,24.755,6.623,32.235
					c3.785,12.453,5.233,25.86,9.94,38.012c1.208,3.119,3.429,11.491,6.718,13.319C462.305,191.584,473.227,188.298,477.473,186.354
					z"/>
				<path style="fill:#B87D18;" d="M463.164,119.892c-2.021-5.722-4.604-19.357-11.038-21.137c-1.139-0.315-2.906-0.222-4.888,0.143
					C460.658,119.82,470.561,144.05,465,170c-1.642,6.57-8.675,9.085-13.354,7.562c1.288,3.777,3.295,9.93,6.061,11.467
					c4.598,2.555,15.52-0.73,19.766-2.674C478.579,175.177,469.869,138.879,463.164,119.892z"/>
			</g>
			<g>
				<path style="fill:none;stroke:#DECCA9;stroke-width:2.6176;stroke-miterlimit:10;" d="M469.482,498.74
					c6.334-7.021,6.423-18.308,7.039-27.096c2.199-31.378,1.724-64.55-1.755-95.777c-7.83-70.296-27.767-143.197-52.824-209.275"/>
				<path style="fill:#C2913B;" d="M455.031,235.4c0.459-9.789-8.768-41.025-15.468-57.267c-2.019-4.894-4.885-16.66-10.572-17.92
					c-3.775-0.837-14.966,3.686-15.121,6.644c-0.351,6.695,4.907,21.375,7.225,27.79c3.86,10.681,5.727,22.298,10.377,32.673
					c1.194,2.663,3.506,9.858,6.455,11.302C442.049,240.641,451.418,237.286,455.031,235.4z"/>
				<path style="fill:#B87D18;" d="M439.563,178.133c-1.85-4.485-4.414-14.734-9.205-17.388c8.624,20.373,18.213,40.38,8.642,62.255
					c-1.45,3.384-4.77,3.958-8.152,2.863c0.204,0.487,0.409,0.974,0.625,1.456c1.193,2.663,3.506,9.858,6.455,11.302
					c4.122,2.019,13.491-1.336,17.103-3.222C455.49,225.611,446.262,194.375,439.563,178.133z"/>
			</g>
			<path style="fill:#969E3E;" d="M477.563,481.693c-1.707-12.12-7.055-24.379-10.263-36.129
				c-7.73-28.316-15.171-56.689-22.261-85.158c-4.385-17.608-8.547-35.389-13.381-52.882c-2.044-7.395-5.126-14.73-2.421-21.937
				c21.567,36.902,38.87,72.907,44.194,115.931C476.841,429.077,473.526,457.03,477.563,481.693z"/>
		</g>
		<g>
			<path style="fill:#687828;" d="M-0.341,292.191c0.282-4.451,0.534-8.797,0.634-12.93c0.48-19.817,5.356-39.574,9.878-58.777
				c7.847-33.317,23.409-67.163,38.851-97.742c-26.185,23.541-41.678,57.197-49.27,93.366
				C-0.507,241.469-0.463,266.83-0.341,292.191z"/>
			<path style="fill:#687828;" d="M135.274,159.676c-22.191,9.513-39.611,33.78-54.962,51.156
				c-26.437,29.923-51.356,58.932-68.244,95.281c9.337-31.039,10.593-59.404,27.977-88.857c14.959-25.342,32.6-49.617,49.831-73.453
				c5.365-7.422,13.629-14.419,15.311-23.267c-33.376,24.556-57.177,63.288-76.078,99.639
				c-13.985,26.897-17.747,55.42-27.368,83.183c-0.268-0.809-0.511-1.645-0.733-2.506l-1.185,34.217
				c12.107-26.221,49.949-68.376,70.247-91.503C93.701,216.642,112.835,186.478,135.274,159.676z"/>
		</g>
		<g>
			<defs>
				<rect id="SVGID_1_" width="500" height="500"/>
			</defs>
			<clipPath id="SVGID_00000114782615440583616010000016834579542481285818_">
				<use xlink:href="#SVGID_1_"  style="overflow:visible;"/>
			</clipPath>
			<g style="clip-path:url(#SVGID_00000114782615440583616010000016834579542481285818_);">
				<path style="fill:#969E3E;" d="M39.208,644.443c2.446-40.924,7.139-82.904,6.463-123.947
					c-0.474-28.794,2.209-59.333-5.085-87.54c-4.15-16.049-11.598-30.917-18.713-45.793c-0.9,6.331,1.61,12.344,3.222,18.387
					c3.998,14.989,6.634,29.078,7.64,44.566c1.61,24.781,1.45,49.572,1.429,74.396C34.133,562.246,36.656,601.572,39.208,644.443z"
					/>
				<g>
					<path style="fill:none;stroke:#DECCA9;stroke-width:3;stroke-miterlimit:10;" d="M40.778,644.872
						c-7.666-7.66-8.437-20.574-9.663-30.596c-4.377-35.784-5.799-73.779-3.668-109.726c4.795-80.921,23.293-165.542,48.055-242.657
						"/>
					<path style="fill:#C2913B;" d="M41.709,342.609c-1.106-11.177,7.604-47.475,14.309-66.462
						c2.02-5.721,4.604-19.357,11.038-21.137c4.271-1.182,17.347,3.332,17.7,6.708c0.799,7.642-4.35,24.755-6.623,32.235
						c-3.785,12.453-5.233,25.86-9.94,38.012c-1.208,3.119-3.429,11.491-6.718,13.319C56.877,347.839,45.955,344.553,41.709,342.609
						z"/>
					<path style="fill:#B87D18;" d="M56.018,276.147c2.02-5.721,4.604-19.357,11.038-21.137c1.139-0.315,2.906-0.222,4.888,0.143
						c-13.42,20.922-23.323,45.152-17.762,71.102c1.642,6.57,8.675,9.085,13.354,7.562c-1.288,3.777-3.295,9.93-6.061,11.467
						c-4.598,2.555-15.52-0.73-19.766-2.674C40.603,331.432,49.313,295.134,56.018,276.147z"/>
				</g>
				<g>
					<path style="fill:none;stroke:#DECCA9;stroke-width:2.6176;stroke-miterlimit:10;" d="M49.7,654.995
						c-6.334-7.02-6.424-18.308-7.039-27.096c-2.199-31.378-1.723-64.55,1.755-95.777c7.83-70.296,27.767-143.197,52.824-209.275"/>
					<path style="fill:#C2913B;" d="M64.151,391.655c-0.459-9.789,8.768-41.025,15.468-57.267c2.019-4.894,4.885-16.66,10.572-17.92
						c3.775-0.837,14.965,3.686,15.121,6.644c0.351,6.695-4.907,21.375-7.225,27.79c-3.86,10.681-5.727,22.298-10.377,32.673
						c-1.193,2.663-3.506,9.858-6.455,11.302C77.132,396.896,67.764,393.54,64.151,391.655z"/>
					<path style="fill:#B87D18;" d="M79.619,334.388c1.85-4.485,4.414-14.734,9.205-17.388c-8.624,20.373-18.213,40.38-8.642,62.255
						c1.45,3.384,4.77,3.958,8.152,2.863c-0.204,0.487-0.409,0.974-0.625,1.456c-1.193,2.663-3.506,9.858-6.455,11.302
						c-4.122,2.019-13.491-1.336-17.103-3.222C63.692,381.865,72.92,350.63,79.619,334.388z"/>
				</g>
				<path style="fill:#969E3E;" d="M41.619,637.948c1.707-12.12,7.055-24.378,10.263-36.129
					c7.73-28.316,15.171-56.689,22.261-85.158c4.385-17.608,8.547-35.39,13.381-52.882c2.044-7.395,5.126-14.73,2.421-21.937
					c-21.567,36.902-38.87,72.907-44.194,115.931C42.341,585.332,45.656,613.285,41.619,637.948z"/>
			</g>
			<g style="clip-path:url(#SVGID_00000114782615440583616010000016834579542481285818_);">
				<path style="fill:#806347;" d="M559.987,499.894H314.872c8.918-11.273,13.251-28.434,25.412-36.786
					c9.119-6.264,23.255-8.328,33.837-11.802c12.158-3.991,27.114-8.875,36.492-17.719c8.881-8.375,12.524-20.755,21.914-28.643
					c14.69-12.34,45.88-18.217,64.19-11.312c19.273,7.268,24.365,31.732,36.706,47.081c6.499,8.083,20.153,20.481,16.344,31.607
					C555.815,467.738,557.867,496.232,559.987,499.894z"/>
				<path style="fill:#71583F;" d="M549.766,472.319c3.809-11.126-9.845-23.524-16.344-31.607
					c-12.341-15.349-17.433-39.812-36.706-47.081c-7.294-2.751-16.633-3.467-26.158-2.561c-3.004,1.881-5.614,4.122-7.579,6.929
					c-17,24,27,28,34,48c3,8-7,15-14,15c-33,4-70-8-95,21c-4,5,1,10,3,11c4.136,1.991,7.869,4.314,11.289,6.894h157.719
					C557.867,496.232,555.815,467.738,549.766,472.319z"/>
			</g>
		</g>
	</g>
</g>
</svg>
