<?xml version="1.0" encoding="utf-8"?>
<!-- Generator: Adobe Illustrator 27.5.0, SVG Export Plug-In . SVG Version: 6.00 Build 0)  -->
<svg version="1.1" id="Capa_1" xmlns="http://www.w3.org/2000/svg" xmlns:xlink="http://www.w3.org/1999/xlink" x="0px" y="0px"
	 viewBox="0 0 425.196 425.196" style="enable-background:new 0 0 425.196 425.196;" xml:space="preserve">
<rect y="0" style="fill:#FFFFFF;" width="425.196" height="425.196"/>
<linearGradient id="SVGID_1_" gradientUnits="userSpaceOnUse" x1="216.4871" y1="366.791" x2="216.4871" y2="27.8876">
	<stop  offset="0.1551" style="stop-color:#DBF0FD"/>
	<stop  offset="0.8503" style="stop-color:#8DCFF3"/>
</linearGradient>
<path style="fill:url(#SVGID_1_);" d="M328.506,154.792c0.322-3.222,0.503-6.475,0.503-9.765
	c0-64.693-63.483-117.139-141.794-117.139c-78.312,0-141.795,52.445-141.795,117.139c0,17.63,4.721,34.347,13.167,49.343
	c-20.117,24.882-31.852,54.782-31.852,86.949c0,31.534,11.28,60.888,30.675,85.473h318.154
	c19.395-24.585,30.675-53.938,30.675-85.473C406.239,229.359,375.631,183.313,328.506,154.792z"/>
<g>
	<path style="fill:#605F5F;" d="M141.602,301.464c0,0,11.871-74.732,13.282-74.732c1.414,0,20.835-17.688,20.835-17.688
		s12.361-4.944,15.537-4.944c3.179,0,25.071,9.535,30.722,8.826c5.649-0.705,35.312-30.721,39.197-31.779
		c3.884-1.06,24.72-8.477,31.429-8.477s21.186,12.007,23.659,13.774c2.472,1.766,12.712,34.252,15.537,35.314
		c2.826,1.056,24.012,10.945,26.131,13.418c0.888,1.035,4.462,22.407,8.316,46.895c1.011,6.423,11.181,19.504,12.187,26.044
		c4.313,28.047-0.959,47.878-0.959,47.878L141.602,301.464z"/>
	<path style="fill:#DCDCDC;" d="M159.686,231.663c3.23-3.14,7.301-4.925,11.248-7.017c6.217-3.299,8.231-6.093,10.789-12.443
		c0.306-0.761,1.151-1.551,2.063-1.172c1.924,0.799,3.013,1.167,4.55,2.668c2.646,2.584,2.761,1.142,5.905,0.185
		c4.772-1.45,9.013-0.8,13.725,0.747c4.022,1.319,7.326,2.103,9.768-2.164c-8.46-1.864-23.851-8.366-26.477-8.366
		c-3.176,0-15.537,4.944-15.537,4.944s-19.421,17.688-20.835,17.688c-0.795,0-1.819,10.57-2.559,19.777
		C154.914,241.648,155.676,235.556,159.686,231.663z"/>
	<path style="fill:#DCDCDC;" d="M252.385,193.307c5.646-2.605,12.674-3.199,17.856-6.701c6.76-4.568,19.056-0.752,26.707-1.145
		c7.674-0.395,8.657,1.717,9.405,8.685c1.039,9.651,5.804,11.936,14.48,14.692c1.873,0.592,3.713,1.191,5.509,1.868
		c-3.916-9.945-8.526-23.152-10.079-24.26c-2.473-1.768-16.949-13.774-23.659-13.774s-27.545,7.417-31.429,8.477
		c-2.249,0.613-13.139,10.932-23.009,19.651C243.141,198.961,247.593,195.516,252.385,193.307z"/>
	<polygon style="fill:#DCDCDC;" points="195.082,235.852 219.361,231.379 227.64,224.668 250.713,220.194 227.64,228.023 
		221.72,237.807 	"/>
	<path style="fill:#DCDCDC;" d="M265.251,234.453c4.87,0.164,6.655-8.391,12.014-8.113c2.152,0.112,4.411,3.158,6.73,2.541
		c1.547-0.41,3.991-4.078,5.57-5.128c3.032-2.015,4.269-1.065,7.234,0.09c1.257,0.491,0.901,0.542,2.264,0.546
		c1.113,0.004,2.531-0.612,3.649-0.776c2.315-0.338,4.629-0.977,6.926-0.272c2.132,0.651,3.462,1.744,5.934,1.887
		c3.231,0.184,3.38,0.422,5.03,3.089c1.286,2.072,2.959,3.927,4.46,5.854c3.081,3.958,5.663,8.533,8.66,12.498
		c-3.055-2.618-6.31-4.841-9.211-7.759c-2.239-2.252-4.517-5.57-7.053-7.478c-1.452-1.093-2.306-0.986-4.122-1.171
		c-0.581-0.061-1.904,0.422-2.244,0.242c-0.726-0.382-0.908-1.981-1.593-2.564c-3.148-2.677-5.819-0.63-9.263-0.712
		c-0.112,2.24,0.874,6.637-1.151,8.099c-3.25-2.166,0.312-8.928-5.599-7.855c-3.978,0.725-5.223,6.132-10.008,4.495
		c0.706,3.733-3.136,1.043-4.188,0.517c-1.725-0.866-3.366-1.662-5.438-0.567c-2.198,1.164-4.413,9.017-7.765,5.333L265.251,234.453
		z"/>
	<path style="fill:#DCDCDC;" d="M160.417,251.786c3.116-2.821,3.657-8.958,9.503-8.664c2.452,0.123,4.138,1.208,6.074-0.345
		c1.62-1.301,1.916-4.463,3.977-5.264c2.484-0.962,3.707,1.92,5.605,2.265c1.284,0.234,4.34-1.07,5.856-1.145
		c7.575-0.372,14.093,9.684,19.086,14.555c1.128,1.101,2.277,2.427,3.494,3.375c-2.7-0.32-6.711-3.978-8.959-5.623
		c-2.02-1.481-3.654-3.387-5.779-4.67c-1.251-0.753-4.041-2.328-5.597-1.494c-1.472,0.789-1.127,3.484-2.789,4.521
		c-1.508-1.363,0.166-4.44-1.386-5.569c-0.916-0.667-4.284,0.317-5.598-0.043c-1.916-0.525-3.089-1.958-4.983-0.231
		c-1.306,1.189-0.779,3.156-3.11,3.914c1.086,1.097,2.725,0.627,3.054,2.46c0.188,1.051-1.2,2.305-1.136,2.511
		c0.658,2.165,5.18,0.554,5.223,3.654c-1.867,0.377-4.642,1.77-6.372,1.141c0.944-1.816-0.792-2.949-0.265-4.763
		c-2.542-0.431-3.217-1.65-3.085-4.177c-1.921,0.158-5.876-1.071-7.007-0.335c-2.404,1.568-1.137,3.98-4.691,4.766L160.417,251.786z
		"/>
	<path style="fill:#DCDCDC;" d="M255.981,206.741c0.714-2.391,3.562-4.57,4.975-6.722c1.429-2.182,1.166-3.151,3.692-3.343
		c4.946-0.376,7.429,5.165,11.74,3.364c2.438-1.022,4.774-3.62,7.617-3.09c2.162,0.405,2.798,2.636,4.684,3.919
		c2.761,1.876,2.056,2.386,3.627,5.032c1.845,3.104,5.401,4.796,7.17,8.149c-3.189-1.675-7.304-8.074-10.749-7.64
		c-0.534-1.892-2.516-2.293-3.947-3.367c-1.227-0.923-0.932-1.552-2.266-1.689c-0.817-0.085-2.296,1.104-3.574,0.957
		c0.182,4.658-2.959,6.027-4.008,1.117c-2.02,0.101-3.254-0.373-4.717-1.614c-0.677,3.9-3.701,5.817-3.9,9.685
		c-0.199,3.851,0.952,9.09-4.397,8.672c3.092-1.123,0.899-6.446,1.383-8.959c0.527-2.725,2.354-5.504,2.971-8.066
		c-3.462-0.907-2.654,1.145-5.066,3.243c-1.222,1.063-3.377,2.367-4.954,2.31L255.981,206.741z"/>
	<path style="fill:#6D6D6D;" d="M305.388,196.149c-0.74-2.964-1.006-6.398-3.592-8.406c-3.005-2.329-8.26-2.114-11.302-0.037
		c-0.292,0.198-0.232,0.597,0.095,0.716c3.014,1.122,6.9-0.519,9.46,1.865c1.549,1.443,1.605,4.803,2.293,6.704
		C303.028,198.883,305.889,198.154,305.388,196.149z"/>
	<path style="fill:#6D6D6D;" d="M349.269,233.723c-4.438-2.708-8.123-5.754-12.791-8.091c-3.294-1.65-7.469-1.854-9.447-5.337
		c-2.965-5.212-2.6-8.864-9.084-10.378c-0.545-0.126-0.93,0.664-0.395,0.934c3.65,1.847,5.365,3.199,6.654,7.348
		c0.628,2.022,1.533,4.028,3.091,5.488c5.624,5.27,14.518,7.798,21.119,11.497C349.368,235.717,350.196,234.292,349.269,233.723z"/>
	<path style="fill:#6D6D6D;" d="M307.524,229.583c-0.645-1.296-2.989-2.067-4.021-0.792c-0.267,0.328-0.363,0.845,0,1.162
		c0.247,0.213,0.548,0.452,0.829,0.623c0.347,0.212,0.483,0.596,0.807,0.85C306.478,232.478,308.327,231.2,307.524,229.583z"/>
	<path style="fill:#6D6D6D;" d="M325.31,242.699c-0.265-1.01-1.303-1.789-1.956-2.58c-1.141-1.388-2.369-2.713-3.606-4.015
		c-1.533-1.613-3.94-4.172-6.411-3.954c-0.962,0.086-1.296,1.539-0.241,1.774c2.786,0.632,4.677,2.846,6.54,4.884
		c1.268,1.387,3.143,4.353,5.161,4.562C325.151,243.408,325.391,243.007,325.31,242.699z"/>
	<path style="fill:#6D6D6D;" d="M296.749,234.886c-0.334-1.614-0.781-3.387-1.692-4.774c-0.295-0.448-0.934-0.577-1.33-0.17
		c-1.357,1.392-3.135,2.548-5.155,2.138c-0.56-0.114-0.735,0.621-0.232,0.833c2.031,0.849,3.669,0.09,5.314-0.938
		c0.166,1.311,0.38,2.629,0.898,3.835C295.116,237.129,297.01,236.144,296.749,234.886z"/>
	<path style="fill:#6D6D6D;" d="M277.471,233.124c-0.884-0.453-2.115-0.573-3.052-0.184c-0.975,0.403-1.082,1.158-1.169,2.072
		c-0.063,0.672,0.869,0.855,1.215,0.371c0.03-0.007,0.06-0.004,0.088-0.013c-0.39,0.122,0.278,0.05,0.386,0.044
		c0.503-0.027,0.945,0.248,1.427,0.325c0.644,0.104,1.265-0.058,1.616-0.657C278.362,234.436,278.162,233.481,277.471,233.124z"/>
	<path style="fill:#6D6D6D;" d="M291.438,202.754c-1.968-2.781-4.351-7.867-8.02-8.712c-2.141-0.494-4.112,1.519-5.681,2.607
		c-3.631,2.515-5.113-1.854-8.149-2.406c-0.436-0.079-0.86,0.35-0.602,0.78c1.663,2.724,5.578,5.969,8.982,4.264
		c3.087-1.544,6.419-5.472,9.276-1.439c1.313,1.856,2.044,3.81,3.898,5.2C291.313,203.179,291.559,202.926,291.438,202.754z"/>
	<path style="fill:#6D6D6D;" d="M244.195,217.638c-7.26,1.19-14.864,3.913-21.972,5.959c-1.419,0.408-2.765,1.213-3.911,2.129
		c-3.276,2.618-6.259,3.311-10.206,4.395c-0.405,0.111-0.422,0.734,0,0.835c4.116,0.984,7.41-0.023,10.586-2.762
		c3.748-3.236,8.459-3.415,13.048-4.34c4.367-0.885,9.048-3.114,12.713-5.607C244.778,218.028,244.568,217.575,244.195,217.638z"/>
	<path style="fill:#6D6D6D;" d="M213.949,249.115c-5.886-4.004-12.028-7.752-17.69-12.068c-1.94-1.479-4.417-3.916-7.06-2.482
		c-4.325,2.34-7.268-1.376-10.853-0.232c-3.637,1.16-4.895,5.418-8.325,7.084c-0.346,0.166-0.138,0.628,0.179,0.659
		c1.765,0.164,2.687,0.534,3.676-1.227c3.947-7.024,7.621-3.354,13.084-3.31c3.507,0.028,6.516,0.046,9.921,2.412
		c5.259,3.655,10.438,7.85,16.235,10.589C214.077,250.996,214.835,249.72,213.949,249.115z"/>
	<path style="fill:#6D6D6D;" d="M183.659,252.59c-0.157-0.717-0.689-1.47-0.593-2.202c0.106-0.816-0.723-1.33-1.403-1.405
		c-1.532-0.163-1.106-0.927-0.88-2.01c0.095-0.455-0.128-0.878-0.577-1.018c-0.509-0.156-0.96-0.062-1.474,0.024
		c-0.496,0.086-0.483,0.892,0,0.987c0.024-0.003,0.042,0.009,0.065,0.009c-0.4,0.753-0.601,1.727-0.357,2.428
		c0.337,0.967,0.97,1.575,1.8,1.966c0.077,0.678,0.285,1.335,0.5,2.024C181.322,255.263,184.077,254.495,183.659,252.59z"/>
	<path style="fill:#6D6D6D;" d="M263.275,204.225c-1.276,3.155-2.897,7.21-2.738,10.66c0.054,1.182,1.83,1.514,2.124,0.285
		c0.423-1.772,0.752-3.5,1.36-5.229c0.624-1.773,1.382-3.519,1.572-5.401C265.74,203.103,263.73,203.101,263.275,204.225z"/>
	<polygon style="fill:#DCDCDC;" points="372.93,296.078 337.023,290.127 295.178,300.637 332.708,283.488 342.654,283.068 
		345.234,251.836 355.361,282.532 366.248,282.071 	"/>
	<path style="fill:#6D6D6D;" d="M359.486,301.047c-3.315-3.878-10.893-4.238-15.643-4.888c-4.704-0.642-9.646-0.056-13.066,3.479
		c-0.327,0.338-0.003,1.04,0.492,0.845c5.064-1.988,9.444-1.996,14.664-0.438c4.081,1.219,8.698,4.485,13.012,3.049
		C359.859,302.789,360.096,301.761,359.486,301.047z"/>
</g>
<g>
	<path style="fill:#936037;" d="M114.628,232.771h-12.844c0,0,3.53,88.854,0,105.397c4.456,0,7.812,0,12.844,0
		C110.403,324.314,114.628,232.771,114.628,232.771z"/>
	<path style="fill:#95B340;" d="M151.619,202.89c-0.335-2.458-1.921-4.417-4.023-5.358c1.67-1.023,2.674-2.966,2.395-5.038
		c-0.233-1.724-1.301-3.126-2.738-3.859c4.15-3.534,6.484-9.29,5.658-15.414c-0.944-7.011-5.751-12.464-11.749-14.186
		c1.167-1.43,1.776-3.311,1.509-5.288c-0.373-2.781-2.355-4.938-4.874-5.683c0.182-0.596,0.25-1.234,0.163-1.892
		c-0.33-2.434-2.561-4.142-4.986-3.812c-0.23,0.031-0.447,0.096-0.662,0.159c0.874-2.536,1.188-5.348,0.798-8.24
		c-1.064-7.883-7.008-13.789-14.042-14.639c0.113-0.856,0.125-1.736,0.004-2.632c-0.462-3.421-2.609-6.194-5.486-7.599
		c0.682-1.244,1.005-2.696,0.801-4.209c-0.507-3.749-3.945-6.378-7.681-5.869c-3.735,0.508-6.353,3.961-5.849,7.711
		c0.204,1.512,0.9,2.826,1.887,3.843c-0.18,0.159-0.348,0.328-0.516,0.5c-0.897-0.436-1.89-0.699-2.952-0.699
		c-3.769,0-6.826,3.068-6.826,6.852c0,1.528,0.515,2.926,1.36,4.066c-2.665,1.78-4.423,4.814-4.423,8.268
		c0,0.905,0.16,1.765,0.387,2.599c-6.873,1.776-11.988,8.439-11.988,16.407c0,2.918,0.687,5.663,1.892,8.059
		c-0.221-0.035-0.445-0.069-0.676-0.069c-2.447,0-4.431,1.992-4.431,4.449c0,0.664,0.154,1.285,0.413,1.852
		c-2.395,1.079-4.071,3.483-4.071,6.288c0,1.995,0.856,3.778,2.203,5.039c-5.714,2.512-9.746,8.563-9.746,15.638
		c0,6.179,3.082,11.569,7.667,14.513c-1.325,0.92-2.197,2.453-2.197,4.193c0,2.09,1.254,3.881,3.046,4.669
		c-1.955,1.218-3.27,3.374-3.27,5.852c0,3.323,2.342,6.094,5.458,6.751c-2.14,2.139-3.428,4.847-3.428,7.8
		c0,6.061,5.394,11.111,12.553,12.256c-0.356,0.834-0.555,1.75-0.555,2.714c0,3.811,3.077,6.9,6.875,6.9
		c1.86,0,3.539-0.747,4.777-1.953c-0.065,0.322-0.1,0.657-0.1,0.998c0,2.819,2.275,5.102,5.081,5.102
		c0,3.811,3.077,6.901,6.873,6.901c3.796,0,6.875-3.091,6.875-6.901c0-0.06-0.015-0.115-0.018-0.174
		c0.403,0.103,0.817,0.174,1.251,0.174c2.807,0,5.082-2.283,5.082-5.102c0-0.122-0.027-0.238-0.036-0.361
		c1.435,0.47,2.957,0.728,4.534,0.728c8.635,0,15.634-7.56,15.634-16.887c0-2.241-0.414-4.376-1.148-6.333
		c8.246-1.376,14.132-7.708,13.23-14.39c-0.396-2.926-2.034-5.436-4.439-7.268C150.112,209.245,152.064,206.183,151.619,202.89z"/>
	<path style="fill:#C7D5C5;" d="M114.077,252.463c-1.662-1.518-3.551-3.221-4.111-5.52c-0.727-2.974,0.112-5.076-3.402-4.955
		c-7.874,0.274-11.04-7.395-7.156-12.644c-2.806-2.478-4.328-5.192-4.405-9.373c-0.085-4.293,4.882-5.907,2.431-9.318
		c-3.671-5.107-0.45-10.843,4.148-13.801c-4.979-1.713-9.654-3.502-10.994-9.376c-0.831-3.655,1.254-6.415,4.138-7.87
		c-2.604-4.477-7.24-13.531-0.595-14.81c1.155-0.222,2.603-4.959,3.482-5.942c1.528-1.711,3.253-3.475,5.377-4.475
		c3.052-1.438,6.006-2.297,9.142-2.559c-2.826-3.838-3.555-9.065-1.361-13.286c-3.103-0.538-6.386-1.773-7.234-4.86
		c-0.696-2.531,0.405-3.13-1.843-4.852c-1.213-0.927-2.312-2.418-2.884-3.835c-1.771-4.403-1.66-9.41-0.372-14.219
		c-3.371,0.418-5.988,3.271-5.988,6.766c0,1.528,0.515,2.926,1.36,4.066c-2.665,1.78-4.423,4.814-4.423,8.268
		c0,0.905,0.16,1.765,0.387,2.599c-6.873,1.776-11.988,8.439-11.988,16.407c0,2.918,0.687,5.663,1.892,8.059
		c-0.221-0.035-0.445-0.069-0.676-0.069c-2.447,0-4.431,1.992-4.431,4.449c0,0.664,0.154,1.285,0.413,1.852
		c-2.395,1.079-4.071,3.483-4.071,6.288c0,1.995,0.856,3.778,2.203,5.039c-5.714,2.512-9.746,8.563-9.746,15.638
		c0,6.179,3.082,11.569,7.667,14.513c-1.325,0.92-2.197,2.453-2.197,4.193c0,2.09,1.254,3.881,3.046,4.669
		c-1.955,1.218-3.27,3.374-3.27,5.852c0,3.323,2.342,6.094,5.458,6.751c-2.14,2.139-3.428,4.847-3.428,7.8
		c0,6.061,5.394,11.111,12.553,12.256c-0.356,0.834-0.555,1.75-0.555,2.714c0,3.811,3.077,6.9,6.875,6.9
		c1.86,0,3.539-0.747,4.777-1.953c-0.065,0.322-0.1,0.657-0.1,0.998c0,2.819,2.275,5.102,5.081,5.102
		c0,3.811,3.077,6.901,6.873,6.901c3.796,0,6.875-3.091,6.875-6.901c0-0.06-0.015-0.115-0.018-0.174
		c0.403,0.103,0.817,0.174,1.251,0.174c2.631,0,4.77-2.015,5.031-4.59C117.352,254.726,115.554,253.813,114.077,252.463z"/>
	<path style="fill:#A6BA3D;" d="M126.906,251.827c11.58,5.413,12.944-12.722,9.765-19.804c3.82-0.374,6.815-2.08,8.849-5.071
		c2.776-4.083,1.34-5.9,0.927-9.856c-0.402-3.865,2.123-5.722,2.568-9.693c0.411-3.646-1.319-7.252-3.19-10.182
		c3.883-2.739,1.054-6.575,1.537-9.615c0.212-1.332,1.843-3.2,2.23-4.729c0.466-1.834,0.264-4.124,0.453-6.016
		c0.413-4.143,0.632-6.704-1.848-10.182c-2.102-2.946-4.946-4.184-5.659-7.044c-1.14-4.589,0.206-6.302-3.7-9.986
		c-1.712-1.613-1.903-0.38-3.125-2.869c-0.803-1.637-0.657-4.222-0.939-6.015c-0.606-3.863-1.974-6.833-4.048-10.171
		c-0.934-1.499-1.562-3.375-3.009-4.51c-1.971-1.548-3.003-0.548-4.974-1.517c-0.45-0.221-1.729-0.042-2.244-0.071
		c0.038-3.177-4.21-10.443-7.865-9.717c0.273-2.047,2.263-7.3-0.063-8.628c-3.521-2.012-5.585,3.681-6.486,5.922
		c-3.11,7.727-0.941,11.949,5.818,15.363c-3.25,6.692,4.171,8.718,4.709,13.212c0.236,1.979-1.81,5.43-1.284,7.982
		c0.631,3.06,3.402,4.665,5.054,6.954c-5.739,3.021-12.048,4.294-17.537,8.307c-6.776,4.952-6.227,11.538,0.788,15.28
		c-3.742,0.163-5.815,5.351-4.409,8.795c1.648,4.043,6.863,2.889,8.617,5.646c2.247,3.528-2.568,6.933-3.721,9.637
		c-1.92,4.497,0.294,6.2,1.849,10.191c1.382,3.537,1.081,1.458-0.346,5.078c-0.813,2.066-2.719,2.403-1.271,5.067
		c0.93,1.711,3.429,1.21,4.055,2.42c1.234,2.385-0.285,3.256-0.831,5.46c-1.42,5.712,0.077,4.285,4.524,6.479
		c4.288,2.115,2.803,4.042,4.964,7.507c1.208,1.936,3.166,2.921,5.217,3.598L126.906,251.827z"/>
</g>
<g>
	<path style="fill:#936037;" d="M170.506,220.227h-15.936c0,0,4.38,74.468,0,88.333c5.529,0,9.694,0,15.936,0
		C165.266,296.95,170.506,220.227,170.506,220.227z"/>
	<path style="fill:#95B340;" d="M216.394,183.844c-0.413-2.99-2.385-5.376-4.989-6.523c2.071-1.245,3.317-3.61,2.97-6.133
		c-0.29-2.1-1.614-3.806-3.397-4.698c5.149-4.303,8.045-11.31,7.02-18.767c-1.174-8.536-7.135-15.174-14.576-17.271
		c1.448-1.741,2.205-4.033,1.874-6.438c-0.467-3.386-2.923-6.012-6.048-6.92c0.227-0.725,0.31-1.501,0.2-2.303
		c-0.407-2.963-3.176-5.04-6.185-4.639c-0.283,0.036-0.553,0.116-0.82,0.193c1.086-3.089,1.473-6.512,0.989-10.035
		c-1.318-9.596-8.692-16.786-17.417-17.82c0.14-1.043,0.155-2.116,0.005-3.207c-0.573-4.165-3.235-7.543-6.805-9.252
		c0.844-1.512,1.245-3.281,0.991-5.123c-0.626-4.566-4.893-7.766-9.526-7.148c-4.634,0.618-7.883,4.822-7.254,9.387
		c0.253,1.841,1.118,3.442,2.339,4.68c-0.222,0.193-0.432,0.399-0.641,0.609c-1.112-0.53-2.344-0.852-3.661-0.852
		c-4.676,0-8.468,3.735-8.468,8.342c0,1.862,0.64,3.562,1.685,4.95c-3.304,2.167-5.487,5.861-5.487,10.064
		c0,1.104,0.199,2.152,0.479,3.166c-8.525,2.163-14.87,10.277-14.87,19.977c0,3.553,0.853,6.894,2.347,9.81
		c-0.274-0.041-0.551-0.083-0.839-0.083c-3.036,0-5.496,2.426-5.496,5.416c0,0.807,0.191,1.566,0.512,2.254
		c-2.972,1.314-5.049,4.242-5.049,7.657c0,2.43,1.06,4.6,2.733,6.135c-7.088,3.058-12.092,10.425-12.092,19.039
		c0,7.523,3.825,14.085,9.514,17.667c-1.645,1.123-2.725,2.988-2.725,5.107c0,2.546,1.554,4.724,3.778,5.684
		c-2.427,1.482-4.055,4.107-4.055,7.124c0,4.047,2.905,7.421,6.768,8.218c-2.653,2.605-4.251,5.902-4.251,9.496
		c0,7.381,6.69,13.53,15.571,14.923c-0.441,1.014-0.689,2.129-0.689,3.305c0,4.64,3.818,8.401,8.529,8.401
		c2.306,0,4.392-0.912,5.927-2.377c-0.08,0.392-0.125,0.8-0.125,1.215c0,3.431,2.821,6.212,6.304,6.212c0,4.64,3.817,8.4,8.525,8.4
		c4.711,0,8.529-3.76,8.529-8.4c0-0.073-0.019-0.14-0.021-0.213c0.499,0.124,1.014,0.213,1.552,0.213
		c3.481,0,6.304-2.781,6.304-6.212c0-0.149-0.035-0.29-0.045-0.438c1.78,0.57,3.667,0.886,5.623,0.886
		c10.71,0,19.393-9.206,19.393-20.562c0-2.728-0.513-5.327-1.422-7.709c10.227-1.676,17.53-9.383,16.412-17.519
		c-0.491-3.563-2.521-6.618-5.508-8.85C214.526,191.581,216.945,187.855,216.394,183.844z"/>
	<path style="fill:#C7D5C5;" d="M169.823,244.201c-2.061-1.848-4.404-3.923-5.1-6.721c-0.899-3.621,0.141-6.181-4.219-6.032
		c-9.771,0.333-13.694-9.003-8.877-15.395c-3.482-3.015-5.369-6.32-5.467-11.41c-0.101-5.227,6.058-7.193,3.018-11.346
		c-4.554-6.216-0.557-13.202,5.145-16.803c-6.175-2.084-11.977-4.262-13.637-11.415c-1.032-4.45,1.555-7.808,5.134-9.581
		c-3.229-5.449-8.982-16.473-0.739-18.03c1.434-0.273,3.23-6.04,4.318-7.235c1.897-2.085,4.038-4.232,6.672-5.449
		c3.785-1.751,7.454-2.797,11.34-3.115c-3.504-4.673-4.407-11.037-1.686-16.176c-3.851-0.655-7.921-2.16-8.974-5.917
		c-0.863-3.083,0.503-3.812-2.288-5.908c-1.505-1.129-2.868-2.943-3.576-4.667c-2.198-5.361-2.061-11.456-0.463-17.312
		c-4.181,0.509-7.428,3.983-7.428,8.238c0,1.862,0.64,3.562,1.685,4.95c-3.304,2.167-5.487,5.861-5.487,10.064
		c0,1.104,0.199,2.152,0.479,3.166c-8.525,2.163-14.87,10.277-14.87,19.977c0,3.553,0.853,6.894,2.347,9.81
		c-0.274-0.041-0.551-0.083-0.839-0.083c-3.036,0-5.496,2.426-5.496,5.416c0,0.807,0.191,1.566,0.512,2.254
		c-2.972,1.314-5.049,4.242-5.049,7.657c0,2.43,1.06,4.6,2.733,6.135c-7.088,3.058-12.092,10.425-12.092,19.039
		c0,7.523,3.825,14.085,9.514,17.667c-1.645,1.123-2.725,2.988-2.725,5.107c0,2.546,1.554,4.724,3.778,5.684
		c-2.427,1.482-4.055,4.107-4.055,7.124c0,4.047,2.905,7.421,6.768,8.218c-2.653,2.605-4.251,5.902-4.251,9.496
		c0,7.381,6.69,13.53,15.571,14.923c-0.441,1.014-0.689,2.129-0.689,3.305c0,4.64,3.818,8.401,8.529,8.401
		c2.306,0,4.392-0.912,5.927-2.377c-0.08,0.392-0.125,0.8-0.125,1.215c0,3.431,2.821,6.212,6.304,6.212c0,4.64,3.817,8.4,8.525,8.4
		c4.711,0,8.529-3.76,8.529-8.4c0-0.073-0.019-0.14-0.021-0.213c0.499,0.124,1.014,0.213,1.552,0.213
		c3.266,0,5.916-2.456,6.238-5.588C173.888,246.956,171.655,245.844,169.823,244.201z"/>
	<path style="fill:#A6BA3D;" d="M185.737,243.425c14.366,6.589,16.057-15.487,12.114-24.112c4.737-0.456,8.453-2.53,10.977-6.174
		c3.442-4.97,1.662-7.184,1.15-12c-0.5-4.706,2.632-6.965,3.187-11.801c0.508-4.439-1.638-8.83-3.959-12.397
		c4.818-3.334,1.308-8.004,1.907-11.706c0.262-1.621,2.288-3.896,2.767-5.758c0.577-2.233,0.326-5.02,0.561-7.325
		c0.513-5.043,0.782-8.16-2.294-12.396c-2.606-3.585-6.139-5.093-7.02-8.575c-1.416-5.587,0.257-7.674-4.588-12.157
		c-2.128-1.968-2.363-0.464-3.878-3.494c-0.999-1.994-0.814-5.141-1.165-7.323c-0.754-4.703-2.449-8.318-5.023-12.383
		c-1.154-1.823-1.936-4.108-3.73-5.49c-2.446-1.886-3.726-0.669-6.169-1.846c-0.561-0.271-2.144-0.052-2.786-0.087
		c0.047-3.869-5.222-12.718-9.757-11.832c0.339-2.49,2.809-8.886-0.078-10.504c-4.369-2.45-6.926,4.481-8.044,7.209
		c-3.862,9.409-1.169,14.55,7.213,18.706c-4.027,8.147,5.178,10.614,5.844,16.085c0.292,2.411-2.243,6.613-1.592,9.719
		c0.784,3.726,4.219,5.681,6.268,8.467c-7.115,3.678-14.944,5.228-21.751,10.11c-8.408,6.031-7.728,14.05,0.974,18.605
		c-4.642,0.198-7.211,6.513-5.469,10.709c2.043,4.921,8.515,3.515,10.692,6.874c2.784,4.296-3.189,8.441-4.62,11.732
		c-2.38,5.476,0.365,7.547,2.298,12.409c1.71,4.305,1.337,1.773-0.432,6.182c-1.008,2.515-3.374,2.925-1.579,6.17
		c1.152,2.081,4.255,1.472,5.034,2.947c1.531,2.902-0.353,3.963-1.034,6.645c-1.76,6.955,0.097,5.217,5.613,7.889
		c5.318,2.575,3.477,4.921,6.157,9.14c1.497,2.356,3.93,3.556,6.474,4.381L185.737,243.425z"/>
</g>
<path style="fill:#69943B;" d="M356.827,339.694c-2.007-1.141-3.813-3.243-5.965-4.395c-2.083-1.116-7.229-4.379-7.432-5.03
	c0.109,0-1.387-4.96-3.542-6.111c-2.084-1.114-2.559-7.619-4.063-9.884c-1.59-2.393-1.104-5.879-3.15-7.842
	c-1.084-1.045-2.208-0.886-3.439-1.312c-1.106-0.388-1.772-0.824-2.807-1.34c-2.715-1.338-3.764-2.288-5.997,0.721
	c-1.046,1.409-2.498,3.878-3.947,5.207c-0.681-0.779-1.33-2.946-1.899-3.812c-0.605-0.917-1.418-1.309-1.849-2.343
	c0.239-1.467,0.557-2.915,0.678-4.091c0.341-3.216,0.483-5.558-1.963-6.822c-1.023-0.53-2.425,0.08-3.25-0.596
	c-0.736-0.6-1.442-3.051-2.051-3.983c-0.681-1.028-1.652-1.351-2.012-2.721c-0.32-1.233,0.598-3.226,0.036-4.233
	c-1.464-2.626-5.282-1.158-7.192-0.355c-4.164,1.749-3.155,0.552-4.61-3.62c-1.189-3.402-2.915-3.836-5.235-4.808
	c-0.449-5.451-3.839-13.204-6.821-15.537c-2.591-2.034-4.293-1.588-5.792-4.779c-0.627-1.328-0.194-2.707-1.089-4.039
	c-1.431-2.133-3.396-1.818-5.281-2.435c-5.217-1.698-10.04-4.542-15.249-6.322c-2.212-0.754-5.138-1.796-7.333-0.211
	c-2.308,1.667-1.288,4.712-3.103,7.124c-2.565,3.417-5.5-0.337-8.763,0.632c-2.298,0.679-1.729,1.796-2.854,3.261
	c-1.64,2.133-0.654,1.747-3.315,2.401c-3.399,0.836-5.664,0.456-8.014,4.432c-2.559,4.337-1.701,5.9-5.956,3.012
	c-1.954-1.321-5.886-3.815-8.107-1.215c-0.85,1.006-0.273,3.432-0.906,4.736c-0.705,1.453-1.862,1.59-2.85,2.589
	c-0.891,0.898-2.227,3.479-3.181,3.987c-1.072,0.565-2.501-0.425-3.763-0.06c-3.01,0.861-3.376,3.514-3.716,7.172
	c-0.127,1.344-0.097,3.028-0.159,4.721c-0.71,1.06-1.704,1.312-2.584,2.197c-0.83,0.845-2.04,3.116-2.973,3.839
	c-1.322-1.815-2.391-4.893-3.24-6.7c-1.82-3.861-3.204-3.03-6.533-2.145c-1.269,0.343-4.409,4.03-5.73,4.209
	c-1.476,0.204-1.419,4.193-2.868,5.116c-2.723,1.734-7.288,1.01-9.6,3.327c-2.185,2.192-3.579,10.591-6.154,11.371
	c-2.661,0.807-4.546,8.16-4.426,8.189c-0.371,0.677-5.825-4.783-8.399-4.004c-2.662,0.804-2.285,4.263-4.781,5.084
	c-3.666-4.013-10.169,0.163-8.66,6.649c1.033,9.851,6.766,8.107,12.686,9.105c2.284,0.378,4.534,0.685,6.836,0.957
	c1.348,0.166,5.133,2.535,6.476,2.724c1.777,0.249,3.44-0.991,4.806,0.667c2.744,3.327,0.783,1.79,5.396,1.842
	c2.469,0.035,5.316-1.404,8.147-0.681c3.039,0.771,5.655,3.768,8.696,4.489c3.289,0.78,5.409-2.022,8.136-0.934
	c1.292,0.513,2.358,2.46,3.528,3.335c1.369,1.021,2.276,0.776,3.576,1.543c1.261,0.731,2.739,3.231,3.933,3.358
	c1.178,0.13,1.767-2.18,3.22-1.893c1.185,0.236,1.882,2.53,3.029,2.95c1.654,0.602,2.264-0.313,3.628-0.775
	c1.157-0.385,2.531-1.407,3.885-1.867c0.87,2.049,2.366,3.779,4.273,5.098c0.137,2.503,0.131,5.249,1.344,6.308
	c1.349,1.174,6.019-2.102,7.129-3.534c0.023-0.028,0.04-0.071,0.063-0.1c0.759,0.019,1.535-0.009,2.322-0.09
	c0.499,0.505,1.135,0.849,1.823,1.043c1.434,1.337,3.041,2.138,4.727,2.491c1.466,1.497,3.4,2.724,5.891,3.493
	c3.315,1.017,6.425,0.548,9.168-0.851c0.486,0.238,0.992,0.457,1.538,0.635c0.774,0.252,1.498,0.397,2.187,0.471
	c0.702,0.991,1.513,1.829,2.436,2.435c2.296,3.034,5.606,4.815,8.999,4.735c1.701,0.844,3.775,1.285,6.285,1.161
	c5.912-0.293,13.71-7.245,14.472-13.997c1.569,0.173,2.979,1.979,4.25,2.706c1.095,0.629,1.465,1.522,2.992,1.291
	c1.058-0.164,2.055-2.022,3.116-2.018c1.3,0.002,1.41,2.097,2.446,2.187c1.051,0.096,2.755-1.803,3.969-2.217
	c1.253-0.437,1.994-0.068,3.349-0.712c1.159-0.548,2.408-2.039,3.612-2.26c2.538-0.469,3.882,2.31,6.848,2.204
	c2.745-0.092,5.513-2.224,8.263-2.367c2.566-0.135,4.769,1.6,6.9,1.995c3.984,0.754,2.94-2.1,5.877-4.494
	c1.46-1.19,5.862-1.457,7.432-1.37c1.19,0.072,2.296,0.84,3.483,0.933c2.03,0.159,4.052-0.9,6.087-0.832
	c5.266,0.158,9.901,2.833,12.489-5.477C362.478,340.79,359.223,341.053,356.827,339.694z"/>
<path style="fill:#69943B;" d="M229.193,325.382c-1.553-0.492-3.128-1.71-4.785-2.192c-1.6-0.462-5.641-1.969-5.889-2.411
	c0.077-0.013-1.76-3.339-3.417-3.823c-1.602-0.459-3.003-5.066-4.399-6.455c-1.478-1.458-1.72-4.053-3.436-5.133
	c-0.914-0.573-1.649-0.274-2.559-0.385c-0.815-0.094-1.338-0.298-2.13-0.5c-2.072-0.522-2.939-1.033-3.964,1.499
	c-0.481,1.186-1.063,3.205-1.827,4.401c-0.593-0.454-1.392-1.905-1.923-2.434c-0.564-0.565-1.181-0.714-1.644-1.383
	c-0.079-1.102-0.104-2.196-0.216-3.063c-0.298-2.371-0.586-4.084-2.46-4.596c-0.783-0.211-1.638,0.457-2.312,0.105
	c-0.6-0.31-1.483-1.96-2.057-2.535c-0.63-0.627-1.345-0.701-1.813-1.633c-0.423-0.835-0.125-2.419-0.677-3.056
	c-1.426-1.65-3.783,0.036-4.95,0.923c-2.546,1.946-2.059,0.917-3.737-1.853c-1.371-2.256-2.619-2.285-4.357-2.607
	c-1.204-3.851-4.791-8.883-7.207-10.078c-2.101-1.038-3.184-0.438-4.731-2.491c-0.645-0.86-0.577-1.92-1.405-2.733
	c-1.326-1.301-2.612-0.756-3.995-0.891c-3.833-0.368-7.584-1.626-11.422-2.059c-1.632-0.182-3.799-0.452-5.027,1.048
	c-1.297,1.581-0.104,3.607-0.94,5.641c-1.181,2.881-3.798,0.658-5.859,1.889c-1.452,0.866-0.883,1.578-1.404,2.819
	c-0.768,1.803-0.156,1.364-1.861,2.271c-2.175,1.159-3.78,1.256-4.725,4.506c-1.027,3.542-0.183,4.529-3.555,3.147
	c-1.55-0.635-4.637-1.79-5.72,0.452c-0.415,0.863,0.381,2.512,0.165,3.559c-0.239,1.162-1.004,1.45-1.513,2.329
	c-0.458,0.8-0.942,2.878-1.507,3.396c-0.637,0.58-1.773,0.104-2.572,0.572c-1.907,1.117-1.719,3.085-1.347,5.776
	c0.136,0.989,0.434,2.199,0.67,3.426c-0.309,0.879-0.942,1.224-1.396,2.008c-0.426,0.744-0.874,2.576-1.391,3.253
	c-1.2-1.094-2.434-3.133-3.312-4.295c-1.876-2.486-2.679-1.662-4.798-0.476c-0.809,0.454-2.338,3.621-3.207,3.967
	c-0.971,0.39-0.274,3.256-1.109,4.158c-1.567,1.692-4.794,1.92-5.986,3.966c-1.124,1.94-0.687,8.222-2.31,9.205
	c-1.681,1.015-1.749,6.621-1.663,6.62c-0.141,0.552-4.753-2.495-6.378-1.511c-1.679,1.016-0.852,3.449-2.417,4.446
	c-3.154-2.29-6.894,1.782-4.796,6.208c2.329,6.928,5.944,4.735,10.138,4.48c1.617-0.096,3.199-0.248,4.811-0.426
	c0.943-0.1,3.914,0.99,4.858,0.902c1.248-0.109,2.178-1.278,3.382-0.308c2.415,1.949,0.828,1.161,3.975,0.448
	c1.688-0.381,3.388-1.884,5.433-1.827c2.198,0.059,4.472,1.787,6.663,1.806c2.368,0.027,3.347-2.334,5.382-2.001
	c0.967,0.16,2.012,1.389,2.953,1.827c1.1,0.509,1.677,0.182,2.689,0.526c0.979,0.322,2.398,1.881,3.231,1.777
	c0.824-0.101,0.841-1.86,1.88-1.895c0.843-0.022,1.699,1.518,2.547,1.634c1.228,0.16,1.491-0.596,2.344-1.153
	c1.353-0.875,2.854-3.493,4.754-1.893c1.477,1.245,1.591,6.255,3.285,7.207c1.112,0.626,3.749-2.499,4.275-3.715
	c1.182-2.748,0.459-8.792,1.487-11.829c0.125,0.137,0.243,0.285,0.387,0.363c0.766,0.432,2.236-0.905,3.264-2.18
	c2.547,0.45,5.752,2.012,7.677,0.275c2.308-2.074,4.172-0.098,7.527,1.608c2.029,1.028,4.394-1.032,6.453-1.992
	c1.158,0.847,2.715,1.644,3.262,1.1c0.107-0.098,0.172-0.249,0.249-0.392c1.562,2.339,2.329,7.632,3.965,9.695
	c0.721,0.908,3.674,2.958,4.474,2.17c1.217-1.195,0.17-5.472,1.138-6.859c1.247-1.796,3.119,0.08,4.466,0.516
	c0.853,0.274,1.25,0.857,2.252,0.44c0.694-0.293,1.067-1.796,1.788-1.969c0.887-0.207,1.304,1.282,2.024,1.181
	c0.733-0.107,1.58-1.755,2.336-2.247c0.781-0.52,1.347-0.375,2.164-1.061c0.694-0.585,1.302-1.863,2.085-2.224
	c1.652-0.747,3.022,1.031,5.023,0.471c1.852-0.518,3.387-2.504,5.237-3.059c1.723-0.516,3.508,0.374,5.024,0.307
	c2.839-0.108,1.657-1.996,3.259-4.195c0.797-1.101,3.749-2.012,4.833-2.204c0.822-0.147,1.7,0.228,2.526,0.099
	c1.408-0.216,2.609-1.312,4.003-1.596c3.612-0.747,7.209,0.423,7.599-5.985C233.222,325.245,231.05,325.964,229.193,325.382z"/>
<path style="fill:#7F9F3D;" d="M43.816,362.571c0,14.771,77.697,26.745,173.542,26.745c95.844,0,173.541-11.974,173.541-26.745
	c0-14.771-77.697-26.746-173.541-26.746C121.513,335.826,43.816,347.8,43.816,362.571z"/>
<path style="fill:#69943B;" d="M260.867,357.475c0,2.003,9.73,3.626,21.733,3.626c12.003,0,21.733-1.623,21.733-3.626
	c0-2.002-9.73-3.625-21.733-3.625C270.597,353.85,260.867,355.473,260.867,357.475z"/>
<path style="fill:#69943B;" d="M282.6,353.221c0,2.003,9.73,3.625,21.734,3.625c12.002,0,21.733-1.623,21.733-3.625
	c0-2.002-9.731-3.625-21.733-3.625C292.331,349.596,282.6,351.219,282.6,353.221z"/>
<path style="fill:#69943B;" d="M193.89,359.561c0,2.002,9.73,3.626,21.734,3.626c12.003,0,21.733-1.623,21.733-3.626
	c0-2.003-9.73-3.625-21.733-3.625C203.62,355.936,193.89,357.559,193.89,359.561z"/>
<path style="fill:#69943B;" d="M188.127,347.707c0,1.275,4.847,2.309,10.825,2.309s10.825-1.034,10.825-2.309
	c0-1.275-4.846-2.309-10.825-2.309S188.127,346.432,188.127,347.707z"/>
<g>
	<path style="fill:#23292B;" d="M178.512,171.52c-5.942-0.283-9.904-8.378-9.904-8.378s2.659-2.566,7.051-5.243
		c0.411-0.251,2.004,0.18,2.004,0.18s0.188-1.441,0.665-1.692c1.407-0.738,2.937-1.448,4.569-2.076
		c0.383-0.148,2.053,3.273,2.053,3.273s-0.489-3.838-0.288-3.905c0.403-0.133,0.812-0.261,1.225-0.382
		c0.141-0.042,0.832,1.387,0.832,1.387s0.162-1.665,0.45-1.738c4.652-1.18,9.881-1.499,15.327-0.001
		c0.339,0.094,0.636,2.117,0.636,2.117s0.882-1.654,1.132-1.567c4.953,1.715,8.744,4.842,11.634,8.808
		c0.164,0.226-0.173,1.154-0.173,1.154s0.814-0.238,0.892-0.122c2.329,3.491,4.02,7.556,5.233,11.84
		c0.086,0.303-2.824,1.913-2.824,1.913s3.156-0.693,3.195-0.54c0.121,0.469,0.236,0.941,0.347,1.414
		c0.051,0.219-1.373,0.839-1.325,1.06c0.054,0.242,1.58,0.083,1.631,0.325c3.56,16.908,0.787,35.417,0.787,35.415l-24.773-44.854
		C198.887,169.907,184.455,171.804,178.512,171.52z"/>
	<path style="fill:#C6C6C6;" d="M315.331,348.496c0.468,3.727-4.208,5.579-5.233,1.234c-1.024-4.345-7.854-27.154-11.213-37.702
		c-20.369-6.246-27.456-22.741-27.456-22.741s31.631-43.001,34.313-30.625c4.452,20.54-2.188,35.197-2.188,35.197
		s5.227,8.343,6.907,13.002C312.14,311.522,314.737,343.762,315.331,348.496z"/>
	<path style="fill:#23292B;" d="M308.705,344.603c0.675,2.369,1.171,4.185,1.394,5.128c1.025,4.345,5.701,2.493,5.233-1.234
		c-0.113-0.902-0.299-2.809-0.538-5.33L308.705,344.603z"/>
	<path style="fill:#EDEDED;" d="M305.363,268.718c0,0,0,0,0,0.011c-1.664,6.112-5.172,11.637-9.542,14.941
		c-1.358,1.03-3.871,1.89-7.222,2.603c-2.524,0.543-5.523,0.996-8.863,1.369h-0.011c-2.66,0.283-5.512,0.532-8.535,0.736
		c-3.135,0.204-6.429,0.351-9.813,0.464c-3.034,0.102-6.135,0.159-9.271,0.192c-2.117,0.012-4.233,0.012-6.373,0
		c-0.011,0-0.011,0-0.011,0c-13.21-0.068-26.261-0.713-35.418-1.709c0,0,0,0-0.012,0c-1.347-0.159-2.603-0.306-3.758-0.476
		c-4.55-0.634-7.64-1.381-8.557-2.207c-1.291-1.619-2.411-4.03-3.384-7.018c-0.329-1.02-0.645-2.106-0.939-3.249
		c-0.476-1.788-0.895-3.713-1.29-5.773c-0.17-0.895-0.329-1.811-0.498-2.751c-0.622-3.758-1.143-7.833-1.585-12.077
		c-0.091-0.895-0.17-1.8-0.26-2.706c-0.34-3.69-0.623-7.47-0.849-11.24c-0.068-1.279-0.147-2.569-0.215-3.837
		c-0.17-3.452-0.305-6.871-0.408-10.165c-0.045-1.369-0.079-2.716-0.113-4.04c-0.057-2.264-0.09-4.449-0.125-6.52
		c-0.011-0.951-0.022-1.879-0.033-2.773c-0.023-2.366-0.035-4.562-0.035-6.531c0-1.325,0-2.569,0.012-3.69
		c0-1.041,0.011-1.981,0.011-2.818c0.034-2.672,0.068-4.199,0.068-4.199s-1.483,1.855-4.188,3.373
		c-0.781,0.441-1.675,0.86-2.66,1.177c0,0,0,0-0.011,0c-2.49,0.849-5.603,1.166-9.236,0.102c0,0-0.306,0.226-0.838,0.6
		c-1.812,1.313-6.169,4.46-9.338,6.758c-4.098,2.954-12.078-4.211-10.776-6.373c0.453-0.759,3.724-5.807,8.603-12.044
		c0.758-0.962,1.551-1.947,2.377-2.943c1.358-1.664,2.818-3.384,4.358-5.082c0.814-0.917,1.663-1.845,2.546-2.75
		c2.331-2.457,4.799-4.834,7.335-6.973c0.769-0.657,1.55-1.29,2.343-1.901c3.283-2.536,6.656-4.619,9.972-5.897
		c0.917-0.362,1.845-0.657,2.75-0.872c1.393-0.363,2.773-0.543,4.132-0.543c1.686,0,3.294,0.407,4.811,1.166
		c1.177,0.577,2.309,1.358,3.396,2.309c2.898,2.535,5.467,6.282,7.697,10.594c0.951,1.788,1.822,3.679,2.648,5.626
		c0.623,1.471,1.212,2.965,1.766,4.471c0.838,2.275,1.607,4.55,2.309,6.792c1.302,4.211,2.377,8.263,3.192,11.715c0,0,0,0,0,0.012
		c0.679,2.807,1.188,5.218,1.539,6.984c0.396,2.014,0.6,3.203,0.6,3.203l3.521,3.95l4.199,4.709l2.716,3.044
		c0,0,0.68,0.068,1.913,0.204c1.596,0.181,4.12,0.486,7.278,0.916c2.886,0.396,6.305,0.906,10.017,1.54
		c2.083,0.351,4.267,0.736,6.508,1.166c2.706,0.52,5.49,1.098,8.286,1.732c2.377,0.544,4.765,1.132,7.108,1.754
		c3.984,1.075,7.855,2.275,11.376,3.61c1.686,0.645,3.282,1.314,4.776,2.026c2.604,1.211,4.89,2.536,6.735,3.951
		c0.724,0.554,1.392,1.143,2.015,1.754c1.766,1.732,3.135,3.679,4.12,5.75c0.871,1.789,1.46,3.69,1.811,5.626
		C306.778,260.523,306.461,264.745,305.363,268.718z"/>
	<path style="fill:#23292B;" d="M156.373,193.502c-2.896,3.956-4.751,6.831-5.087,7.39c-1.3,2.167,6.677,9.329,10.776,6.37
		c1.297-0.937,2.793-2.015,4.23-3.053C168.308,202.754,160.208,195.193,156.373,193.502z"/>
	<path style="fill:#D8D8D8;" d="M194.097,217.747c-0.634,11.557-1.121,23.159-3.984,34.32c-2.49-25.921-1.777-56.811-1.777-56.811
		s-6.067,7.583-16.095,4.652c0,0-6.079,4.392-10.176,7.357c-2.185,1.573-5.445,0.271-7.844-1.607c2.105,0.034,4.2-0.294,6.237-1.144
		c5.241-2.218,7.867-7.934,13.481-9.349c4.663-1.166,8.263-1.291,11.931-4.697c0.52-0.487,0.996-1.03,1.415-1.608
		c0.951-1.29,1.686-2.795,2.252-4.369c0.464-1.256,0.838-2.558,1.155-3.837c0.543,1.97,0.849,3.917,1.053,5.886
		c0.204,2.015,0.306,4.052,0.498,6.135c0.091,1.098,0.204,2.218,0.362,3.35C193.621,203.361,194.515,210.322,194.097,217.747z"/>
	<path style="fill:#EDEDED;" d="M202.682,161.864c2.814-3.108,9.019-6.185,10.361-5.347c1.341,0.839,0.658,9.282-5.2,12.077
		c-3.232,1.542-6.788,1.298-6.788,1.298S199.868,164.972,202.682,161.864z"/>
	<path style="fill:#FFFFFF;" d="M212.693,156.402c-1.838-0.294-7.391,2.568-10.011,5.461c-1.113,1.23-1.596,2.741-1.778,4.121
		C203.491,161.647,207.885,158.129,212.693,156.402z"/>
	<path style="fill:#F8BAA0;" d="M212.904,157.121c1.148,0.716-0.514,8.049-3.453,9.99c-2.149,1.42-6.087,2.151-7.503,1.154
		C206.908,165.222,211.756,156.402,212.904,157.121z"/>
	<path style="fill:#EDEDED;" d="M288.215,284.848c-5.943,2.909-22.367,5.241-39.787,6.294l-8.297,0.396
		c-6.588,0.227-13.119,0.26-19.062,0.057h-0.011c-2.92-0.102-5.716-0.26-8.297-0.487c-5.535,2.456-19.311,8.977-19.288,13.029
		c0.034,5.071,8.659,22.207,11.364,27.04c2.355,4.2-1.438,6.215-3.928,2.241c-1.901-3.033-19.004-25.015-19.4-31.398
		c-0.272-4.403,7.674-15.157,12.598-21.382c0.011-0.011,0.023-0.022,0.034-0.022c0.057-0.079,0.113-0.158,0.17-0.226l0.011-0.012
		c-0.271-1.573-0.532-3.135-0.781-4.697c-0.192-1.233-0.362-2.456-0.533-3.69c12.961-0.713,25.786-2.988,38.825-3.113
		c12.032-0.124,24.042,0.397,36.052-0.384h0.011c2.038-0.136,4.075-0.306,6.112-0.521c0.057-0.011,0.125-0.011,0.181-0.022
		c9.146-0.985,19.344-3.181,25.604-10.414c0.555-0.646,1.075-1.325,1.573-2.026C303.326,264.802,299.511,279.313,288.215,284.848z"
		/>
	<path style="fill:#23292B;" d="M202.368,326.485c-1.274,1.171-2.738,2.199-4.148,3.129c1.33,1.832,2.316,3.193,2.694,3.797
		c2.489,3.976,6.285,1.957,3.932-2.241C204.253,330.115,203.376,328.467,202.368,326.485z"/>
	<path style="fill:#EDEDED;" d="M236.645,281.621c-0.521,3.78-1.245,8.41-2.105,13.482c-0.159,0.939-0.317,1.901-0.487,2.863
		c-0.464,2.694-0.951,5.49-1.449,8.331c-0.181,0.962-0.351,1.947-0.532,2.92c-0.329,1.834-0.668,3.679-1.008,5.524
		c-0.169,0.928-0.339,1.868-0.509,2.796c-0.6,3.237-1.2,6.452-1.789,9.565c-0.192,0.996-0.374,1.969-0.555,2.932
		c-0.396,2.071-0.77,4.086-1.143,6.01c-0.159,0.86-0.317,1.698-0.476,2.513c-0.328,1.687-0.634,3.294-0.928,4.799
		c-0.249,1.358-0.498,2.626-0.724,3.815c-0.929,4.833-1.574,8.161-1.721,9.078c-0.657,3.984-5.977,3.962-5.728,0
		c0.068-1.007,0.408-4.89,0.883-10.47c0.068-0.951,0.159-1.958,0.238-3c1.369-16.798,3.384-44.926,2.592-60.399
		C220.074,260.308,239.316,262.243,236.645,281.621z"/>
	<path style="fill:#EDEDED;" d="M224.973,316.676c0.397-9.069,0.322-18.576-3.591-26.561c0.038,23.91-3.662,62.584-3.887,66.13
		c-0.119,1.877,1.016,2.859,2.309,2.961C223.284,345.231,224.344,331.026,224.973,316.676z"/>
	<path style="fill:#23292B;" d="M224.445,349.737c-0.557,3.434-1.105,5.769-1.226,6.509c-0.653,3.988-5.975,3.961-5.724,0
		c0.048-0.751,0.252-3.082,0.542-6.509H224.445z"/>
	<path style="fill:#EDEDED;" d="M289.313,293.235c-0.928,1.392-1.517,2.174-1.517,2.174s0.43,1.37,1.03,3.396
		c0.476,1.562,1.042,3.509,1.585,5.501c0.329,1.188,0.646,2.4,0.917,3.555c0.475,1.936,0.849,3.712,0.996,4.98
		c0.034,0.238,0.045,0.532,0.045,0.872c0.011,0.962-0.068,2.332-0.204,3.996c-0.181,2.196-0.463,4.913-0.815,7.867
		c-0.148,1.223-0.306,2.502-0.464,3.792c-0.238,1.868-0.487,3.769-0.736,5.671c-0.169,1.324-0.351,2.626-0.532,3.916
		c-0.294,2.185-0.577,4.29-0.849,6.215c-0.192,1.358-0.362,2.637-0.521,3.792c-0.362,2.615-0.634,4.595-0.735,5.524
		c-0.397,3.735-5.377,4.46-5.377,0c0-4.471-1.415-28.23-2.264-39.266c-10.651-6.225-16.175-14.772-18.936-20.861
		c-0.713-1.574-1.245-2.989-1.63-4.154c-0.713-2.117-0.94-3.418-0.94-3.418s7.436-4.415,15.994-8.807
		c4.403-2.275,9.112-4.527,13.244-6.18c7.504-2.977,13.141-3.961,11.794,0.679C296.818,281.35,291.826,289.489,289.313,293.235z"/>
	<path style="fill:#23292B;" d="M281.959,349.171c0.113,2.46,0.18,4.341,0.18,5.311c0,4.465,4.977,3.734,5.376,0
		c0.097-0.905,0.353-2.803,0.699-5.311H281.959z"/>
	<path style="fill:#030404;" d="M157.665,198.204c-0.111,1.219,0.458,2.268,0.458,2.268s0.747-0.929,0.858-2.148
		c0.047-0.517-0.158-1.53-0.521-1.563C158.096,196.727,157.707,197.744,157.665,198.204z"/>
	<path style="fill:#23292B;" d="M179.82,178.807c0,0.742-0.602,1.344-1.344,1.344s-1.344-0.602-1.344-1.344s0.602-1.344,1.344-1.344
		S179.82,178.065,179.82,178.807z"/>
	<path style="fill:#D6D6D6;" d="M201.948,168.265c-0.001,0,2.914,1.551,5.232,0.62c0.222-0.089,0.443-0.186,0.663-0.291
		c3.622-1.728,5.259-5.608,5.668-8.521C211.127,164.465,207.142,167.82,201.948,168.265z"/>
	<path style="fill:#3B4449;" d="M181.476,199.807c-2.49,0.849-5.603,1.166-9.236,0.102c0,0-0.306,0.226-0.838,0.6
		c-1.46-1.075-2.785-2.252-3.871-3.328c-1.834-1.8-5.773-5.15-7.641-8.331c0.758-0.962,1.551-1.947,2.377-2.943
		c2.422,1.732,4.584,5.116,6.339,6.746c2.196,2.049,4.539,4.098,7.289,5.354C177.729,198.845,179.653,199.117,181.476,199.807z"/>
	<path style="fill:#3B4449;" d="M188.946,199.467c-0.226,0-0.453,0-0.679-0.011c0.034-2.672,0.068-4.199,0.068-4.199
		s-1.483,1.855-4.188,3.373c-4.245-1.427-8.501-4.482-11.161-7.301c-2.241-2.355-3.542-5.071-4.935-7.991
		c-0.407-0.837-0.962-1.663-1.426-2.513c0.814-0.917,1.663-1.845,2.546-2.75c2.048,2.105,3.43,6.112,4.731,7.934
		c3.905,5.49,9.667,7.256,15.553,9.701C191.357,196.501,191.244,199.411,188.946,199.467z"/>
	<path style="fill:#3B4449;" d="M192.24,192.676c-1.845-0.895-3.486-2.252-4.958-3.815c-1.97-2.071-3.656-4.494-5.229-6.633
		c-2.298-3.124-4.324-7.29-5.546-11.127c0.769-0.657,1.55-1.29,2.343-1.901c2.807,1.878,3.77,6.236,5.558,8.885
		c1.517,2.23,3.248,4.449,5.127,6.407c0.045,0.046,0.091,0.102,0.136,0.147c0.657,0.68,1.358,1.302,2.071,1.902
		C191.946,188.556,192.048,190.593,192.24,192.676z"/>
	<path style="fill:#3B4449;" d="M195.828,184.266c-6.316-5.309-8.365-13.277-7.006-20.962c0.917-0.362,1.845-0.657,2.75-0.872
		C191.674,168.974,192.483,178.595,195.828,184.266z"/>
	<path style="fill:#3B4449;" d="M214.255,181.583c-3.056,3.984-6.383,7.742-9.564,11.127c-4.143,4.414-9.972,11.511-16.447,13.254
		c0-1.325,0-2.569,0.012-3.69c2.015-1.539,4.12-2.977,5.931-4.799c3.023-3.011,5.988-6.123,8.704-9.406
		c1.11-1.336,2.162-2.739,3.192-4.166c-0.43-0.011-0.872-0.136-1.324-0.453c-3.6-2.513-5.173-6.248-5.229-10.606
		c-0.023-2.32-0.147-6.961,0.985-9.79c-0.988,9.458,8.104,17.262,8.104,17.262c0.997-1.449,1.992-2.909,2.988-4.358
		C212.558,177.746,213.429,179.636,214.255,181.583z"/>
	<path style="fill:#3B4449;" d="M218.331,192.846c-1.539,1.834-3.113,3.622-4.765,5.241c-3.384,3.316-7.29,5.987-10.787,9.168
		c-3.837,3.498-8.964,8.286-14.466,8.014c-0.011-0.951-0.022-1.879-0.033-2.773c6.463-3.056,10.912-8.524,16.243-13.368
		c4.278-3.871,7.47-8.954,11.5-13.074C216.859,188.329,217.628,190.604,218.331,192.846z"/>
	<path style="fill:#3B4449;" d="M223.062,211.557c-4.245,4.255-9.032,7.923-14.624,10.165c-5.025,2.003-13.458,5.15-19.888,4.108
		c-0.045-1.369-0.079-2.716-0.113-4.04c7.301-0.566,14.681-2.751,20.963-6.69c4.663-2.932,8.546-6.554,12.123-10.526
		C222.202,207.38,222.711,209.79,223.062,211.557z"/>
	<path style="fill:#3B4449;" d="M231.382,223.419c-3.317,2.694-6.814,5.172-10.47,7.176c-4.936,2.716-9.961,4.131-15.281,5.829
		c-3.238,1.041-11.399,4.459-16.458,3.407c-0.068-1.279-0.147-2.569-0.215-3.837c6.328-0.022,11.953-3.712,17.952-5.558
		c7.867-2.434,14.081-6.882,20.273-11.727L231.382,223.419z"/>
	<path style="fill:#3B4449;" d="M243.29,227.584c-1.415,1.426-2.796,2.875-4.199,4.302c-0.396,0.69-0.714,1.233-0.883,1.471
		c-1.562,2.185-3.147,4.37-4.89,6.418c-4.392,5.139-8.92,10.244-14.229,14.466c-4.946,3.95-10.232,7.199-15.79,10.21
		c-3.43,1.857-7.075,3.758-10.934,4.154c-0.17-0.895-0.329-1.811-0.498-2.751c10.323-5.388,20.046-11.658,28.366-19.9
		c-9.055,4.29-19.933,8.06-29.95,7.822c-0.091-0.895-0.17-1.8-0.26-2.706c4.199-1.63,8.783-2.513,13.005-3.905
		c5.954-1.97,11.976-4.234,17.443-7.357c6.124-3.498,10.844-8.264,15.541-13.142C237.607,226.848,240.131,227.154,243.29,227.584z"
		/>
	<path style="fill:#3B4449;" d="M259.815,230.29c-1.199,1.777-2.434,3.542-3.701,5.275c-5.683,7.81-11.738,15.507-18.824,22.128
		c-6.769,6.316-13.967,12.01-22.491,15.733c-5.784,2.536-13.492,5.026-20.204,4.2c-0.329-1.02-0.645-2.106-0.939-3.249
		c7.493-1.867,14.839-2.784,21.88-6.701c7.708-4.279,14.352-10.278,20.329-16.708c6.372-6.836,12.122-14.183,17.442-21.846
		C255.39,229.475,257.574,229.859,259.815,230.29z"/>
	<path style="fill:#3B4449;" d="M208.483,293.077c-1.563,0.758-3.26,1.618-4.947,2.535c-3.339-1.607-6.35-4.199-8.093-7.006
		c-0.51-0.815,0.531-1.924,1.358-1.358C200.56,289.805,204.239,291.82,208.483,293.077z"/>
	<path style="fill:#3B4449;" d="M197.221,299.505c-1.098,0.815-2.026,1.619-2.671,2.389c-1.89-1.404-3.486-3.067-4.392-4.562
		c-0.373-0.622,0.261-1.607,1.007-1.313c2.14,0.849,3.871,2.309,5.886,3.396C197.107,299.449,197.164,299.472,197.221,299.505z"/>
	<path style="fill:#3B4449;" d="M195.489,311.425c-0.34-0.091-0.679-0.204-0.985-0.306c-2.185-0.736-4.38-1.653-6.022-3.305
		c-0.373-0.385-0.113-1.155,0.464-1.109c1.822,0.113,3.542,0.724,5.297,1.155v0.011
		C194.561,308.946,194.991,310.146,195.489,311.425z"/>
	<path style="fill:#3B4449;" d="M198.952,319.45c-2.445-0.136-5.026-0.917-6.158-2.648c-0.362-0.555,0.136-1.109,0.68-1.177
		c1.233-0.159,2.513,0.011,3.78,0.068v0.011C197.797,316.96,198.364,318.216,198.952,319.45z"/>
	<path style="fill:#3B4449;" d="M201.85,325.494c-0.996,0.193-1.97,0.283-2.66,0.329c-1.132,0.09-2.468,0.17-3.724,0
		c-0.6-0.837-1.234-1.721-1.879-2.637c1.901-0.408,4.041-0.17,5.942-0.6c0.249-0.056,0.51-0.136,0.781-0.227
		C200.843,323.457,201.364,324.51,201.85,325.494z"/>
	<path style="fill:#3B4449;" d="M225.665,343.356c-0.249,1.358-0.498,2.626-0.724,3.815c-2.321-0.102-4.675-0.634-6.565-1.392
		c0.068-0.951,0.159-1.958,0.238-3c2.094,0.136,4.154,0.713,6.27,0.645C225.145,343.413,225.405,343.39,225.665,343.356z"/>
	<path style="fill:#3B4449;" d="M227.069,336.044c-0.159,0.86-0.317,1.698-0.476,2.513c-1.585,0.102-3.181,0.125-4.72-0.272
		c-0.656-0.169-0.634-1.132,0-1.313C223.548,336.508,225.326,336.293,227.069,336.044z"/>
	<path style="fill:#3B4449;" d="M228.767,327.102c-0.192,0.996-0.374,1.969-0.555,2.932c-1.403-0.045-2.808-0.102-4.2-0.339
		c-1.12-0.181-1.12-2.061,0-2.242C225.597,327.192,227.171,327.147,228.767,327.102z"/>
	<path style="fill:#3B4449;" d="M231.064,314.741c-0.169,0.928-0.339,1.868-0.509,2.796c-1.63-0.238-3.26-0.475-4.822-0.94
		c-1.211-0.362-0.905-2.026,0.283-2.117C227.703,314.356,229.389,314.606,231.064,314.741z"/>
	<path style="fill:#3B4449;" d="M232.604,306.297c-0.181,0.962-0.351,1.947-0.532,2.92c-2.989-0.362-5.965-1.324-7.539-2.105
		c-0.69-0.351-0.283-1.245,0.351-1.313C227.477,305.528,230.012,306.286,232.604,306.297z"/>
	<path style="fill:#3B4449;" d="M234.54,295.103c-0.159,0.939-0.317,1.901-0.487,2.863c-0.476-0.045-0.951-0.091-1.393-0.136
		c-1.97-0.181-3.905-0.396-5.694-1.29c-0.872-0.441-0.373-1.642,0.464-1.71c2.332-0.169,4.687,0.25,7.018,0.272H234.54z"/>
	<path style="fill:#3B4449;" d="M220.526,291.571c-2.727-0.102-5.342-0.25-7.765-0.464c-0.124,0.057-0.26,0.113-0.396,0.17
		c-0.396-0.261-0.781-0.521-1.154-0.77c-2.388-1.63-4.913-3.43-6.52-5.852c-0.272-0.408,0.238-0.793,0.611-0.611
		c2.524,1.188,4.551,3.237,7.017,4.561c2.525,1.37,5.275,1.494,7.833,2.648C220.311,291.333,220.447,291.435,220.526,291.571z"/>
	<path style="fill:#3B4449;" d="M275.209,233.776c-2.049,7.074-7.663,13.843-11.862,19.639c-4.46,6.18-9.124,12.225-14.24,17.884
		c-5.354,5.897-13.741,15.1-22.524,14.319c-0.657-0.057-0.906-1.098-0.17-1.222c5.037-0.838,9.632-5.694,13.051-9.18
		c3.169-3.226,6.169-6.61,9.01-10.13c1.563-1.936,3.113-3.882,4.641-5.852c-5.411,5.704-11.172,10.889-18.348,14.409
		c-6.678,3.271-14.918,8.75-22.616,7.81c-0.725-0.091-1.03-1.223-0.192-1.381c4.72-0.872,8.75-3.441,12.836-5.807
		c3.6-2.082,7.471-3.633,10.958-5.932c7.153-4.697,12.756-10.877,18.133-17.465c4.98-6.112,9.768-12.349,14.217-18.846
		C270.478,232.565,272.866,233.153,275.209,233.776z"/>
	<path style="fill:#3B4449;" d="M291.362,239.413c-3.962,8.806-8.309,17.42-14.342,25.026c-0.928,1.177-1.867,2.344-2.829,3.509
		c-4.788,5.806-9.972,11.432-15.756,16.198c-1.891,1.551-4.019,3.35-6.328,4.89c-1.188,0.804-2.411,1.528-3.679,2.105l-8.297,0.396
		c0.057-0.192,0.204-0.351,0.418-0.408c1.777-0.486,3.498-1.2,5.173-2.094c0,0,0,0,0.011,0c5.897-3.158,11.105-8.455,15.485-13.13
		c2.252-2.411,4.505-4.879,6.667-7.414h0.011c3.136-3.679,6.101-7.505,8.625-11.557c3.893-6.236,7.074-12.847,10.063-19.548
		C288.272,238.032,289.868,238.7,291.362,239.413z"/>
	<path style="fill:#3B4449;" d="M305.363,268.718c0,0,0,0,0,0.011c-2.365,4.562-5.377,8.478-9.983,12.225
		c-2.241,1.822-4.483,3.633-6.781,5.32c-4.822,3.509-9.938,6.429-15.983,7.606c-0.746,0.147-1.301-0.917-0.543-1.29
		c2.672-1.324,5.207-3.034,7.652-4.947h0.011c4.177-3.26,8.082-7.074,11.93-10.402c3.204-2.785,6.792-5.852,8.693-9.746
		c1.562-3.215,2.366-6.701,4.086-9.837c0.373-0.679,0.962-1.053,1.596-1.166C306.778,260.523,306.461,264.745,305.363,268.718z"/>
	<path style="fill:#3B4449;" d="M287.796,295.409c0,0,0.43,1.37,1.03,3.396c-1.71,0.736-3.441,1.46-5.264,1.766
		c-2.92,0.487-7.119,0.272-8.263-2.977c-0.102-0.283,0.102-0.6,0.374-0.668c1.834-0.487,3.735-0.17,5.625-0.611
		c1.777-0.419,3.463-1.064,5.15-1.766c0.882-0.362,1.857-0.872,2.864-1.313C288.385,294.627,287.796,295.409,287.796,295.409z"/>
	<path style="fill:#3B4449;" d="M291.328,307.86c-0.294,0.011-0.577,0.022-0.849,0.022c-3.283,0.034-6.486-0.51-9.361-2.174
		c-0.6-0.35-0.362-1.37,0.362-1.335c2.683,0.114,5.399,0.351,8.07,0.079c0.272-0.022,0.566-0.079,0.86-0.147
		C290.739,305.494,291.056,306.705,291.328,307.86z"/>
	<path style="fill:#3B4449;" d="M292.369,313.711c0.011,0.962-0.068,2.332-0.204,3.996c-0.169-0.023-0.328-0.034-0.475-0.057
		c-3.147-0.407-5.467-1.347-8.128-2.988c-0.872-0.532-0.306-2.083,0.713-1.698C286.698,313.892,289.799,313.745,292.369,313.711z"/>
	<path style="fill:#3B4449;" d="M291.351,325.574c-0.148,1.223-0.306,2.502-0.464,3.792c-2.23-0.453-3.656-1.268-5.456-2.626
		c-1.167-0.872-0.17-2.75,1.155-1.992C287.943,325.517,289.618,325.63,291.351,325.574z"/>
	<path style="fill:#3B4449;" d="M290.15,335.037c-0.169,1.324-0.351,2.626-0.532,3.916c-0.532-0.249-1.064-0.521-1.562-0.713
		c-1.188-0.487-2.399-0.905-3.486-1.584c-0.905-0.555-0.634-2.332,0.589-2.173C286.54,334.663,288.441,334.674,290.15,335.037z"/>
	<path style="fill:#3B4449;" d="M288.77,345.167c-0.192,1.358-0.362,2.637-0.521,3.792c-1.585-0.317-3.067-1.335-4.313-2.286
		c-1.109-0.849-0.521-2.773,1.008-2.377C286.132,344.612,287.524,344.759,288.77,345.167z"/>
	<path style="fill:#EDEDED;" d="M313.871,288.108h-1.872c0,0,2.005-20.092-7.48-29.056c-2.261-2.137-4.021-2.755-4.021-2.755
		s0.069-8.052,4.029-4.812C315.851,260.753,313.871,288.108,313.871,288.108z"/>
	<path style="fill:#EDEDED;" d="M312.736,288.108c-0.544-5.205-0.477-10.629-0.752-15.847c-0.279-5.3-3.516-13.016-9.288-14.709
		c0.546,0.388,1.158,0.872,1.822,1.5c9.485,8.964,7.48,29.056,7.48,29.056H312.736z"/>
	<path style="fill:#23292B;" d="M316.96,290.311c-1.44-2.656-2.895-3.276-3.846-3.038c-0.953,0.238-1.961,1.476-1.979,4.499
		c-0.019,3.02,0.368,5.473,0.861,5.478c0.221,0.004,0.426-0.485,0.586-1.291c0.344,2.066,0.775,3.483,1.145,3.557
		c0.364,0.071,0.578-1.182,0.603-3.13c0.67,1.954,1.3,3.206,1.64,3.12c0.395-0.098,0.287-1.965-0.205-4.549
		c1.206,2.405,2.28,3.943,2.628,3.658c0.305-0.249-0.026-1.837-0.77-3.973c0.539,0.663,0.963,1.017,1.161,0.908
		C319.217,295.311,318.4,292.965,316.96,290.311z"/>
	<path style="fill:#3B4449;" d="M304.232,250.868c-4.675,7.052-10.199,13.413-15.688,19.831c-0.317,0.362-0.623,0.736-0.939,1.098
		c-5.071,5.909-10.267,11.772-16.413,16.583c-0.113,0.09-0.227,0.181-0.34,0.271c-2.886,2.241-6.282,4.573-9.915,5.705
		c-0.713-1.574-1.245-2.989-1.63-4.154c0.702-0.453,1.392-0.906,2.071-1.358c3.803-2.501,7.459-5.082,10.821-8.558
		c0.735-0.758,1.448-1.527,2.162-2.309c3.758-4.108,7.255-8.444,10.821-12.722c5.229-6.293,10.572-12.632,14.704-19.729
		c0.079-0.136,0.158-0.271,0.226-0.407C301.877,246.849,303.247,248.796,304.232,250.868z"/>
	<path style="fill:#DEDEDE;" d="M285.554,324.461c0.456-4.481,1.275-9.82-0.258-14.169c-1.626-4.609-5.522-6.331-9.7-8.143
		c-7.057-3.059-11.444-7.927-16.657-13.105c1.512,5.111,6.55,17.759,20.936,26.17c0.58,7.539,1.424,21.015,1.901,30.224
		C282.852,338.171,284.906,330.836,285.554,324.461z"/>
	<path style="fill:#EDEDED;" d="M221.376,291.594h-0.317c-0.181-0.011-0.362-0.011-0.532-0.022c-2.727-0.102-5.342-0.25-7.765-0.464
		c-0.124,0.057-0.26,0.113-0.396,0.17c-1.075,0.487-2.411,1.098-3.871,1.8h-0.011c-1.563,0.758-3.26,1.618-4.947,2.535
		c-2.286,1.234-4.527,2.581-6.316,3.894c-1.098,0.815-2.026,1.619-2.671,2.389c-0.691,0.803-1.075,1.55-1.075,2.241
		c0.011,0.905,0.283,2.184,0.77,3.724v0.011c0.317,1.076,0.747,2.275,1.245,3.555v0.011c0.521,1.347,1.121,2.796,1.766,4.256v0.011
		c0.543,1.257,1.109,2.513,1.698,3.746c0.453,0.996,0.906,1.97,1.358,2.909c0.532,1.098,1.053,2.151,1.54,3.135
		c1.222,2.422,2.298,4.46,2.988,5.682c2.355,4.2-1.438,6.215-3.928,2.241c-0.611-0.973-2.773-3.882-5.444-7.595
		c-0.6-0.837-1.234-1.721-1.879-2.637c-5.422-7.64-11.84-17.284-12.078-21.166c-0.272-4.403,7.674-15.157,12.598-21.382
		c0.011-0.011,0.023-0.022,0.034-0.022c0.113-0.113,0.17-0.181,0.17-0.226c0-0.012,0-0.012,0-0.012
		c-0.272-1.573-0.533-3.135-0.77-4.697c-0.192-1.233-2.422-14.885-2.592-16.108c1.302-0.067,5.795,14.817,13.651,22.344
		C210.781,287.858,220.719,285.832,221.376,291.594z"/>
</g>
</svg>
