<?xml version="1.0" encoding="utf-8"?>
<!-- Generator: Adobe Illustrator 27.5.0, SVG Export Plug-In . SVG Version: 6.00 Build 0)  -->
<svg version="1.1" id="Layer_1" xmlns="http://www.w3.org/2000/svg" xmlns:xlink="http://www.w3.org/1999/xlink" x="0px" y="0px"
	 viewBox="0 0 450 450" style="enable-background:new 0 0 450 450;" xml:space="preserve">
<rect style="fill:#C7C7C7;" width="450" height="450"/>
<g>
	<g>
		<g>
			<g>
				<polygon style="fill:#231F20;" points="74.208,255.116 75.34,255.116 86.893,314.672 85.738,324.556 85.424,324.977 
					73.861,255.717 				"/>
			</g>
			<g>
				<polygon style="fill:#231F20;" points="185.08,255.116 183.949,255.116 172.395,314.672 173.55,324.556 173.864,324.977 
					185.427,255.717 				"/>
				<g>
					<g>
						<path style="fill:#332E2E;" d="M147.3,374.376l4.07-47.617h-43.492l3.22,47.43c0,0,13.59,6.856,18.527,6.84
							C134.345,381.014,147.3,374.376,147.3,374.376z"/>
						<path style="fill:#262626;" d="M184.22,255.116l-8.832-3.487l-13.488-6.403l-14.98-7.751l-19.177,104.686l1.9,28.023
							c0,0,1.387,13.062,4.138,26.081c1.964,9.297,5.767,16.299,11.13,17.939c4.714,1.441,11.785-0.125,17.163-1.39
							c6.305-1.482,11.969-4.071,11.969-4.071l-2.218-44.834l2.218-50.664L184.22,255.116z"/>
						<path style="fill:#262626;" d="M74.939,255.116l8.832-3.487l13.488-6.403l14.979-7.751l19.177,104.686l-1.9,28.023
							c0,0-1.388,13.062-4.138,26.081c-1.964,9.297-5.767,16.299-11.131,17.939c-4.714,1.441-11.785-0.125-17.163-1.39
							c-6.305-1.482-11.969-4.071-11.969-4.071l2.218-44.834l-2.218-50.664L74.939,255.116z"/>
						<polygon style="fill:#262626;" points="185.08,255.116 190.811,258.273 190.811,266.059 198.435,325.575 202.471,401.156 
							181.844,402.018 177.362,342.161 173.55,324.556 174.904,313.244 						"/>
					</g>
				</g>
			</g>
			<g>
				<g>
					<rect x="111.292" y="250.433" style="fill:#FFFFFF;" width="36.66" height="38.756"/>
					<path style="fill:#A7A9AC;" d="M147.614,235.866c0,0-3.274,4.744-8.184,8.76c-4.177,3.416-8.884,5.807-9.807,6.263
						c-0.924-0.456-5.632-2.848-9.808-6.263c-4.909-4.015-8.184-8.76-8.184-8.76s-1.202,8.559,0,17.519
						c0.952,7.095,4.075,17.523,4.075,17.523l13.917-19.704l13.915,19.704c0,0,3.123-10.427,4.076-17.523
						C148.815,244.425,147.614,235.866,147.614,235.866z"/>
					<g>
						<g>
							<polygon style="fill:#0E65A0;" points="134.352,250.433 124.894,250.433 121.693,256.401 126.642,266.008 132.604,266.008 
								137.554,256.401 							"/>
						</g>
						<path style="fill:#03466B;" d="M135.857,259.692l1.697-3.292l-3.202-5.968h-4.493c-0.094,0.047-0.175,0.087-0.235,0.121
							c-0.06-0.033-0.143-0.074-0.237-0.121h-4.493l-3.202,5.968l1.694,3.292l6.237-8.829L135.857,259.692z"/>
						<polygon style="fill:#0E65A0;" points="132.604,266.008 126.642,266.008 121.693,302.107 137.554,302.107 						"/>
					</g>
					<polygon style="fill:#03466B;" points="132.816,267.551 132.604,266.008 126.642,266.008 126.43,267.551 					"/>
					<polygon style="fill:#332E2E;" points="147.3,299.195 151.369,251.578 129.624,295.924 107.877,251.578 111.097,299.008 
						129.624,341.648 					"/>
					<g>
						<polygon style="fill:#414042;" points="129.726,341.648 148.167,245.174 163.592,260.311 157.774,263.221 165.631,271.665 
													"/>
						<polygon style="fill:#414042;" points="129.624,341.648 111.079,245.174 95.651,260.311 101.473,263.221 93.613,271.665 
													"/>
					</g>
					<g>
						<path style="fill:#231F20;" d="M131.811,306.316c0,1.21-0.979,2.189-2.187,2.189c-1.21,0-2.189-0.979-2.189-2.189
							c0-1.208,0.979-2.187,2.189-2.187C130.832,304.13,131.811,305.109,131.811,306.316z"/>
						<g>
							<path style="fill:#414042;" d="M129.227,307.121c0,0.222-0.182,0.406-0.405,0.406c-0.223,0-0.403-0.184-0.403-0.406
								c0-0.222,0.18-0.404,0.403-0.404C129.046,306.717,129.227,306.899,129.227,307.121z"/>
							<path style="fill:#414042;" d="M130.827,307.121c0,0.222-0.182,0.406-0.405,0.406c-0.222,0-0.403-0.184-0.403-0.406
								c0-0.222,0.182-0.404,0.403-0.404C130.645,306.717,130.827,306.899,130.827,307.121z"/>
							<path style="fill:#414042;" d="M130.422,305.916c-0.222,0-0.405-0.18-0.405-0.402c0-0.222,0.183-0.404,0.405-0.404
								c0.223,0,0.405,0.182,0.405,0.404C130.827,305.736,130.645,305.916,130.422,305.916z"/>
							<path style="fill:#414042;" d="M128.822,305.916c-0.223,0-0.403-0.18-0.403-0.402c0-0.222,0.18-0.404,0.403-0.404
								c0.223,0,0.405,0.182,0.405,0.404C129.227,305.736,129.046,305.916,128.822,305.916z"/>
						</g>
						<g>
							<path style="fill:#231F20;" d="M131.811,322.026c0,1.206-0.979,2.19-2.187,2.19c-1.211,0-2.189-0.984-2.189-2.19
								c0-1.21,0.979-2.189,2.189-2.189C130.832,319.838,131.811,320.817,131.811,322.026z"/>
							<g>
								<path style="fill:#414042;" d="M129.227,322.829c0,0.224-0.182,0.404-0.405,0.404c-0.223,0-0.403-0.18-0.403-0.404
									c0-0.224,0.18-0.402,0.403-0.402C129.046,322.427,129.227,322.605,129.227,322.829z"/>
								<path style="fill:#414042;" d="M130.827,322.829c0,0.224-0.182,0.404-0.405,0.404c-0.222,0-0.405-0.18-0.405-0.404
									c0-0.224,0.183-0.402,0.405-0.402C130.645,322.427,130.827,322.605,130.827,322.829z"/>
								<path style="fill:#414042;" d="M130.422,321.628c-0.222,0-0.405-0.182-0.405-0.406c0-0.222,0.183-0.404,0.405-0.404
									c0.223,0,0.405,0.182,0.405,0.404C130.827,321.446,130.645,321.628,130.422,321.628z"/>
								<path style="fill:#414042;" d="M128.822,321.628c-0.223,0-0.403-0.182-0.403-0.406c0-0.222,0.18-0.404,0.403-0.404
									c0.223,0,0.405,0.182,0.405,0.404C129.227,321.446,129.046,321.628,128.822,321.628z"/>
							</g>
						</g>
					</g>
					<path style="fill:#FFFFFF;" d="M147.614,235.866c0,0-3.274,4.571-8.184,8.441c-4.177,3.29-8.884,5.596-9.807,6.036
						c-0.924-0.441-5.632-2.746-9.808-6.036c-4.909-3.87-8.184-8.441-8.184-8.441s-1.202,8.249,0,16.881
						c0.952,6.84,4.075,16.883,4.075,16.883l13.917-18.986l13.915,18.986c0,0,3.123-10.043,4.076-16.883
						C148.815,244.115,147.614,235.866,147.614,235.866z"/>
				</g>
			</g>
			<g>
				<g>
					<path style="fill:#FFFFFF;" d="M158.073,301.244h9.489l1.233-1.233c0.317-0.318,0.327-0.823,0.022-1.127l-4.682-4.685
						c-0.306-0.304-0.81-0.296-1.128,0.023l-5.403,5.403c-0.318,0.316-0.327,0.82-0.021,1.126L158.073,301.244z"/>
					<path style="fill:#D1D3D4;" d="M165.703,300.55l-4.513-4.515l-3.586,3.591c-0.318,0.316-0.327,0.82-0.021,1.126l0.49,0.493
						h7.87C165.971,300.997,165.892,300.742,165.703,300.55z"/>
					<path style="fill:#FFFFFF;" d="M164.861,300.55l-5.09-5.089c-0.333-0.332-0.87-0.332-1.201,0l-3.998,3.998v1.785h10.53
						C165.128,300.997,165.05,300.742,164.861,300.55z"/>
				</g>
				<rect x="153.232" y="299.127" style="fill:#414042;" width="17.147" height="4.61"/>
			</g>
		</g>
		<path style="fill:#231F20;" d="M84.997,321.563l16.837,11.805l20.424,3.323c0,0,0.829,15.98-2.732,19.306
			c-2.205,2.059-8.548,0.909-11.402,0.783c-2.476-0.109-9.899,0.495-9.899,0.495l-7.011,8.067l-3.952-5.984L84.997,321.563z"/>
		<path style="fill:#EFC995;" d="M99.949,334.485c1.391-1.369,3.588-4.738,4.153-6.606c0.395-1.304-0.541-4.272,0.145-5.449
			c0.125-0.213,0.466-0.475,0.803-0.646c0.208-0.106,0.415-0.177,0.568-0.179c0.632-0.01,1.784,0.763,2.202,1.236
			c0.805,0.909,1.735,3.283,1.85,4.493c0.144,1.514-1.934,4.619-1.215,5.959c0.369,0.686,2.124,1.022,2.89,1.168
			c2.307,0.439,7.321-1.181,9.393-0.075c0.61,0.325,1.569,1.617,1.52,2.306c-0.045,0.631-1.402,1.323-1.676,1.893
			c-0.076,0.157-0.135,0.515-0.12,0.689c0.045,0.513,0.795,1.428,0.703,1.935c-0.111,0.612-1.335,1.336-1.612,1.893
			c-0.093,0.188-0.187,0.607-0.181,0.816c0.015,0.536,0.691,1.537,0.579,2.061c-0.117,0.543-1.103,1.251-1.426,1.703
			c-0.139,0.195-0.467,0.579-0.496,0.816c-0.06,0.486,0.695,1.397,0.579,1.872c-0.183,0.754-1.461,1.907-2.175,2.21
			c-3.82,1.618-12.601,1.257-16.593,0.129c-0.589-0.166-1.525-1.034-2.077-1.299c-2.051-0.983-8.594-2.989-8.594-2.989l8.252-12.402
			C97.42,336.018,99.422,335.004,99.949,334.485z"/>
		<path style="fill:#D3A56E;" d="M94.872,348.153c0.005-0.014,2.977-8,3.797-10.029c0.859-2.124,1.883-4.298,1.883-4.298
			c-0.381,0.493-0.586,0.587-0.91,0.906c-0.527,0.519-2.223,1.285-2.223,1.285l-3.782,5.684l-2.399,7.081
			c-0.686-0.226-1.343-0.439-1.901-0.617l-0.17,0.255c0,0,5.093,1.562,7.7,2.605c-0.233-0.167-0.453-0.316-0.631-0.402
			C95.767,350.397,94.599,348.971,94.872,348.153z"/>
		<g>
			<path style="fill:#D3A56E;" d="M106.296,322.054c0.805,0.909,1.735,3.283,1.85,4.493c0.144,1.514-1.934,4.619-1.214,5.959
				c0.216,0.401,2.057,3.097,5.825,2.022c-0.022-0.03-3.467-0.134-4.301-1.235c-0.794-1.048,1.359-4.445,1.215-5.959
				c-0.115-1.21-1.045-3.583-1.85-4.493c-0.378-0.426-1.347-1.091-1.998-1.211C106.015,321.779,106.183,321.928,106.296,322.054z"/>
			<path style="fill:#D3A56E;" d="M122.258,336.691c0.049-0.689-0.962-1.899-1.52-2.306c-0.521-0.379-1.307-0.317-1.664-0.379
				c0.499,0.535,1.619,1.156,1.615,2.53c-0.002,0.633-1.357,1.587-1.631,2.157c-0.076,0.157-0.135,0.515-0.12,0.689
				c0.045,0.513,0.608,1.227,0.517,1.734c-0.11,0.612-1.174,1.372-1.451,1.929c-0.094,0.188-0.187,0.607-0.181,0.816
				c0.015,0.536,0.717,0.807,0.604,1.331c-0.117,0.543-1.103,1.251-1.426,1.703c-0.139,0.195-0.467,0.579-0.496,0.816
				c-0.06,0.486,0.695,1.397,0.579,1.872c-0.183,0.753-1.461,1.907-2.175,2.21c-3.715,1.573-12.107,1.273-16.239,0.219
				c0.414,0.301,0.844,0.606,1.169,0.698c3.993,1.128,12.773,1.488,16.593-0.129c0.714-0.302,1.992-1.456,2.175-2.21
				c0.116-0.475-0.639-1.386-0.579-1.872c0.029-0.238,0.357-0.621,0.496-0.816c0.324-0.452,1.309-1.16,1.426-1.703
				c0.113-0.523-0.564-1.525-0.579-2.061c-0.006-0.21,0.088-0.628,0.181-0.816c0.277-0.557,1.502-1.281,1.612-1.893
				c0.091-0.507-0.658-1.422-0.703-1.935c-0.015-0.174,0.044-0.531,0.12-0.689C120.857,338.014,122.214,337.322,122.258,336.691z"/>
		</g>
		<path style="fill:#F7E6D0;" d="M104.201,326.839c0,0,1.151-0.014,1.621-0.364c0.47-0.35-0.439-4.461-1.348-4.405
			C103.565,322.126,104.201,326.839,104.201,326.839z"/>
		<path style="fill:#EFD0AF;" d="M118.438,336.06c0.071,0.42,0.075,0.77-1.206,0.985c-1.281,0.216-3.363,0.215-3.433-0.205
			c-0.071-0.421,1.896-1.101,3.178-1.316C118.257,335.307,118.368,335.639,118.438,336.06z"/>
		<path style="fill:#EFD0AF;" d="M117.454,340.792c0.023,0.426-0.012,0.773-1.309,0.844c-1.298,0.071-3.365-0.163-3.388-0.589
			c-0.024-0.426,2.008-0.882,3.305-0.952C117.358,340.024,117.431,340.365,117.454,340.792z"/>
		<path style="fill:#EFD0AF;" d="M117.129,345.394c-0.033,0.426-0.114,0.766-1.409,0.664c-1.296-0.101-3.314-0.606-3.281-1.031
			c0.033-0.426,2.106-0.609,3.401-0.507C117.136,344.622,117.163,344.969,117.129,345.394z"/>
		<path style="fill:#EFD0AF;" d="M114.519,349.819c-0.025,0.321-0.077,0.577-0.847,0.517c-0.77-0.061-1.964-0.415-1.939-0.735
			c0.025-0.32,1.26-0.484,2.03-0.423C114.532,349.238,114.544,349.499,114.519,349.819z"/>
		<path style="fill:#262626;" d="M74.215,255.117l-6.847,3.274v7.788l-13.266,38.814l-3.662,10.786l0.375,13.184l19.64,16.35
			l19.414,11.962c0,0,3.337-9.651,4.688-12.782c1.334-3.093,6.049-12.116,6.049-12.116l-15.776-6.148l-7.376-7.445l6.112-11.728
			L74.215,255.117z"/>
		<g>
			<path style="fill:#231F20;" d="M131.914,354.79c0,1.206-0.979,2.19-2.187,2.19c-1.21,0-2.189-0.984-2.189-2.19
				c0-1.21,0.979-2.189,2.189-2.189C130.934,352.602,131.914,353.581,131.914,354.79z"/>
			<g>
				<path style="fill:#414042;" d="M129.33,355.593c0,0.224-0.182,0.404-0.405,0.404c-0.223,0-0.403-0.18-0.403-0.404
					c0-0.224,0.18-0.402,0.403-0.402C129.148,355.191,129.33,355.369,129.33,355.593z"/>
				<path style="fill:#414042;" d="M130.93,355.593c0,0.224-0.182,0.404-0.405,0.404c-0.221,0-0.405-0.18-0.405-0.404
					c0-0.224,0.183-0.402,0.405-0.402C130.748,355.191,130.93,355.369,130.93,355.593z"/>
				<path style="fill:#414042;" d="M130.524,354.392c-0.221,0-0.405-0.182-0.405-0.406c0-0.222,0.183-0.404,0.405-0.404
					c0.223,0,0.405,0.182,0.405,0.404C130.93,354.21,130.748,354.392,130.524,354.392z"/>
				<path style="fill:#414042;" d="M128.925,354.392c-0.223,0-0.403-0.182-0.403-0.406c0-0.222,0.18-0.404,0.403-0.404
					c0.223,0,0.405,0.182,0.405,0.404C129.33,354.21,129.148,354.392,128.925,354.392z"/>
			</g>
		</g>
		<g>
			<path style="fill:#414042;" d="M86.918,352.881c-0.212,0.372-0.688,0.502-1.06,0.289c-0.373-0.213-0.501-0.69-0.288-1.061
				c0.214-0.373,0.688-0.502,1.061-0.288C87.003,352.034,87.132,352.508,86.918,352.881z"/>
			<path style="fill:#414042;" d="M88.616,353.853c-0.213,0.372-0.688,0.502-1.06,0.288c-0.373-0.213-0.501-0.69-0.288-1.061
				c0.214-0.372,0.688-0.502,1.061-0.288C88.7,353.006,88.829,353.481,88.616,353.853z"/>
			<path style="fill:#414042;" d="M85.221,351.909c-0.213,0.371-0.688,0.503-1.06,0.288c-0.373-0.213-0.501-0.69-0.287-1.061
				c0.213-0.372,0.687-0.502,1.061-0.288C85.306,351.062,85.435,351.536,85.221,351.909z"/>
			<g>
				<path style="fill:#231F20;" d="M86.918,352.987c-0.212,0.372-0.688,0.503-1.06,0.289c-0.373-0.213-0.501-0.69-0.288-1.061
					c0.214-0.373,0.688-0.502,1.061-0.288C87.003,352.14,87.132,352.615,86.918,352.987z"/>
				<g>
					<path style="fill:#414042;" d="M85.981,352.778c-0.04,0.07-0.127,0.093-0.196,0.053c-0.069-0.039-0.093-0.127-0.053-0.196
						c0.039-0.069,0.126-0.092,0.195-0.052C85.996,352.623,86.021,352.71,85.981,352.778z"/>
					<path style="fill:#414042;" d="M86.474,353.061c-0.04,0.069-0.128,0.093-0.196,0.054c-0.068-0.039-0.093-0.128-0.053-0.197
						c0.039-0.069,0.127-0.092,0.196-0.053C86.489,352.905,86.513,352.992,86.474,353.061z"/>
					<path style="fill:#414042;" d="M86.561,352.619c-0.068-0.039-0.092-0.127-0.053-0.196c0.039-0.068,0.128-0.093,0.196-0.053
						c0.069,0.039,0.093,0.128,0.054,0.196C86.718,352.635,86.63,352.659,86.561,352.619z"/>
					<path style="fill:#414042;" d="M86.068,352.337c-0.069-0.039-0.093-0.127-0.053-0.196c0.039-0.068,0.127-0.093,0.196-0.053
						c0.069,0.039,0.093,0.128,0.053,0.196C86.225,352.353,86.137,352.376,86.068,352.337z"/>
				</g>
			</g>
			<g>
				<path style="fill:#231F20;" d="M88.616,353.96c-0.213,0.372-0.688,0.502-1.06,0.288c-0.373-0.213-0.501-0.69-0.288-1.061
					c0.214-0.372,0.688-0.502,1.061-0.288C88.7,353.112,88.829,353.588,88.616,353.96z"/>
				<g>
					<path style="fill:#414042;" d="M87.679,353.751c-0.04,0.069-0.128,0.093-0.197,0.052c-0.069-0.038-0.093-0.126-0.053-0.195
						c0.039-0.069,0.126-0.093,0.195-0.052C87.693,353.595,87.717,353.682,87.679,353.751z"/>
					<path style="fill:#414042;" d="M88.171,354.033c-0.04,0.069-0.127,0.093-0.196,0.053c-0.068-0.039-0.093-0.127-0.054-0.197
						c0.04-0.068,0.127-0.091,0.196-0.052C88.186,353.878,88.211,353.964,88.171,354.033z"/>
					<path style="fill:#414042;" d="M88.258,353.592c-0.068-0.039-0.093-0.128-0.053-0.196c0.039-0.069,0.128-0.094,0.196-0.054
						c0.069,0.039,0.093,0.128,0.054,0.197C88.415,353.608,88.327,353.631,88.258,353.592z"/>
					<path style="fill:#414042;" d="M87.766,353.31c-0.069-0.039-0.093-0.128-0.053-0.196c0.039-0.069,0.127-0.093,0.196-0.054
						c0.069,0.039,0.092,0.128,0.053,0.197C87.922,353.326,87.834,353.349,87.766,353.31z"/>
				</g>
			</g>
			<g>
				<path style="fill:#231F20;" d="M85.221,352.015c-0.213,0.371-0.688,0.503-1.06,0.288c-0.373-0.213-0.501-0.69-0.287-1.061
					c0.213-0.372,0.687-0.502,1.061-0.288C85.306,351.168,85.435,351.643,85.221,352.015z"/>
				<g>
					<path style="fill:#414042;" d="M84.284,351.806c-0.04,0.069-0.128,0.093-0.196,0.053c-0.069-0.039-0.093-0.127-0.053-0.196
						c0.04-0.069,0.127-0.093,0.195-0.053C84.298,351.65,84.323,351.737,84.284,351.806z"/>
					<path style="fill:#414042;" d="M84.776,352.089c-0.039,0.069-0.127,0.093-0.196,0.053c-0.069-0.039-0.093-0.127-0.054-0.197
						c0.039-0.068,0.127-0.091,0.196-0.052C84.792,351.933,84.816,352.02,84.776,352.089z"/>
					<path style="fill:#414042;" d="M84.863,351.647c-0.068-0.039-0.093-0.127-0.053-0.196c0.039-0.069,0.128-0.094,0.196-0.053
						c0.069,0.039,0.093,0.127,0.053,0.196C85.02,351.663,84.932,351.687,84.863,351.647z"/>
					<path style="fill:#414042;" d="M84.371,351.365c-0.069-0.039-0.093-0.127-0.053-0.196c0.039-0.069,0.127-0.093,0.196-0.053
						c0.069,0.039,0.093,0.127,0.053,0.196C84.527,351.381,84.44,351.404,84.371,351.365z"/>
				</g>
			</g>
		</g>
		<path style="fill:#231F20;" d="M130.163,339.238c0,0-3.115,11.459-3.276,15.781c-0.157,4.2,2.635,15.325,2.635,15.325l0.067-0.768
			c0,0-2.277-10.495-2.042-14.558C127.754,351.458,130.163,339.238,130.163,339.238L130.163,339.238z"/>
	</g>
</g>
<g>
	<g>
		<g>
			<g>
				<polygon style="fill:#4C4C4C;" points="267.086,254.751 268.217,254.751 279.771,314.308 278.616,324.191 278.301,324.613 
					266.738,255.353 				"/>
			</g>
			<g>
				<polygon style="fill:#4C4C4C;" points="377.958,254.751 376.827,254.751 365.273,314.308 366.427,324.191 366.741,324.613 
					378.305,255.353 				"/>
				<g>
					<g>
						<path style="fill:#332E2E;" d="M340.178,374.011l4.07-47.617h-43.492l3.22,47.43c0,0,13.59,6.856,18.526,6.84
							C327.223,380.65,340.178,374.011,340.178,374.011z"/>
						<path style="fill:#7C7C7C;" d="M377.098,254.751l-8.832-3.487l-13.488-6.403l-14.979-7.751l-19.176,104.686l1.9,28.023
							c0,0,1.387,13.062,4.138,26.081c1.963,9.297,5.767,16.299,11.13,17.939c4.715,1.441,11.785-0.125,17.162-1.39
							c6.305-1.482,11.969-4.071,11.969-4.071l-2.217-44.834l2.217-50.664L377.098,254.751z"/>
						<path style="fill:#7C7C7C;" d="M267.816,254.751l8.832-3.487l13.487-6.403l14.98-7.751l19.177,104.686l-1.9,28.023
							c0,0-1.388,13.062-4.138,26.081c-1.965,9.297-5.768,16.299-11.131,17.939c-4.714,1.441-11.785-0.125-17.163-1.39
							c-6.305-1.482-11.969-4.071-11.969-4.071l2.218-44.834l-2.218-50.664L267.816,254.751z"/>
						<polygon style="fill:#7C7C7C;" points="377.958,254.751 383.689,257.908 383.689,265.694 391.313,325.211 395.348,400.792 
							374.722,401.654 370.239,341.796 366.427,324.191 367.781,312.88 						"/>
						<polygon style="fill:#7C7C7C;" points="267.092,254.751 261.362,257.908 261.362,265.694 253.738,325.211 249.702,400.792 
							270.328,401.654 274.811,341.796 278.623,324.191 277.269,312.88 						"/>
					</g>
				</g>
			</g>
			<g>
				<g>
					<rect x="304.17" y="250.068" style="fill:#FFFFFF;" width="36.66" height="38.756"/>
					<path style="fill:#A7A9AC;" d="M340.492,235.502c0,0-3.274,4.744-8.184,8.76c-4.176,3.416-8.884,5.807-9.807,6.263
						c-0.924-0.456-5.631-2.848-9.808-6.263c-4.909-4.015-8.183-8.76-8.183-8.76s-1.203,8.559,0,17.519
						c0.952,7.095,4.075,17.523,4.075,17.523l13.916-19.704l13.915,19.704c0,0,3.124-10.427,4.076-17.523
						C341.693,244.06,340.492,235.502,340.492,235.502z"/>
					<g>
						<g>
							<polygon style="fill:#A52929;" points="327.23,250.068 317.773,250.068 314.57,256.036 319.519,265.644 325.482,265.644 
								330.432,256.036 							"/>
						</g>
						<path style="fill:#660E0E;" d="M328.735,259.328l1.697-3.292l-3.202-5.968h-4.493c-0.094,0.047-0.175,0.087-0.236,0.12
							c-0.059-0.033-0.142-0.073-0.236-0.12h-4.492l-3.203,5.968l1.695,3.292l6.236-8.829L328.735,259.328z"/>
						<polygon style="fill:#A52929;" points="325.482,265.644 319.519,265.644 314.57,301.743 330.432,301.743 						"/>
						<g>
							<polygon style="fill:#680000;" points="326.165,270.725 325.772,267.861 324.536,269.097 							"/>
							<polygon style="fill:#680000;" points="318.153,275.481 317.713,278.682 318.383,279.351 320.434,277.301 318.384,275.25 
								318.208,275.074 318.208,275.075 318.383,275.25 							"/>
							<polygon style="fill:#680000;" points="320.434,260.893 320.435,260.893 318.384,258.843 316.816,260.411 317.842,262.402 
								318.384,262.944 							"/>
							<polygon style="fill:#680000;" points="324.537,256.791 326.587,254.74 324.536,256.791 322.485,254.741 320.435,252.691 
								322.485,254.742 320.435,256.792 322.484,258.843 321.801,259.526 322.485,258.843 324.536,256.792 326.587,258.843 
								324.536,260.894 326.587,262.945 327.127,262.405 328.154,260.41 326.587,258.843 							"/>
							<polygon style="fill:#680000;" points="324.536,277.301 326.586,279.351 327.256,278.681 326.817,275.481 326.586,275.25 
															"/>
							<polygon style="fill:#680000;" points="320.433,285.503 318.383,283.453 316.85,284.986 316.725,285.896 318.383,287.555 
								320.433,285.503 							"/>
							<polygon style="fill:#680000;" points="319.197,267.861 318.804,270.726 320.434,269.097 							"/>
							<polygon style="fill:#680000;" points="324.536,281.401 326.586,279.351 324.535,281.401 322.484,279.351 320.434,277.301 
								322.484,279.351 320.434,281.401 322.484,283.453 321.8,284.136 322.484,283.452 324.535,281.401 326.586,283.454 
								324.535,285.504 326.586,287.555 328.245,285.896 328.121,284.987 326.586,283.453 							"/>
							
								<rect x="316.934" y="255.342" transform="matrix(0.7071 -0.7071 0.7071 0.7071 -88.326 300.354)" style="opacity:0.5;fill:#680000;" width="2.9" height="2.9"/>
							
								<rect x="316.934" y="255.342" transform="matrix(0.7071 -0.7071 0.7071 0.7071 -88.326 300.354)" style="opacity:0.5;fill:#680000;" width="2.9" height="2.9"/>
							
								<rect x="321.035" y="251.24" transform="matrix(0.7071 -0.7071 0.7071 0.7071 -84.2236 302.0539)" style="opacity:0.5;fill:#680000;" width="2.901" height="2.9"/>
							
								<rect x="321.035" y="251.24" transform="matrix(0.7071 -0.7071 0.7071 0.7071 -84.2236 302.0539)" style="opacity:0.5;fill:#680000;" width="2.901" height="2.9"/>
							
								<rect x="325.35" y="268.759" transform="matrix(0.7071 -0.7072 0.7072 0.7071 -95.5607 309.1386)" style="opacity:0.5;fill:#680000;" width="0" height="2.304"/>
							<polygon style="fill:#680000;" points="322.485,262.945 320.435,264.996 322.485,267.046 324.535,264.996 324.536,264.996 
								324.537,264.995 							"/>
							
								<rect x="321.46" y="264.571" transform="matrix(0.7071 -0.7071 0.7071 0.7071 -93.9518 305.2223)" style="opacity:0.5;fill:#680000;" width="0.001" height="2.899"/>
							
								<rect x="325.024" y="264.793" transform="matrix(0.7071 -0.7071 0.7071 0.7071 -92.5279 307.5856)" style="opacity:0.5;fill:#680000;" width="0.002" height="1.381"/>
							<polygon style="opacity:0.5;fill:#680000;" points="325.513,265.971 325.466,265.628 326.759,263.117 326.587,262.945 
								324.537,264.995 							"/>
							<polygon style="opacity:0.5;fill:#680000;" points="325.513,265.971 325.466,265.628 326.759,263.117 326.587,262.945 
								324.537,264.995 							"/>
							<polygon style="opacity:0.5;fill:#680000;" points="320.435,260.893 320.434,260.893 322.485,262.945 324.536,260.894 
								322.485,258.843 321.801,259.526 320.435,260.893 							"/>
							<polygon style="opacity:0.5;fill:#680000;" points="320.435,260.893 320.434,260.893 322.485,262.945 324.536,260.894 
								322.485,258.843 321.801,259.526 320.435,260.893 							"/>
							<polygon style="opacity:0.5;fill:#680000;" points="320.435,260.893 321.801,259.526 320.435,260.893 							"/>
							<polygon style="opacity:0.5;fill:#680000;" points="320.435,260.893 321.801,259.526 320.435,260.893 							"/>
							<polygon style="opacity:0.5;fill:#680000;" points="320.435,260.893 321.801,259.526 320.435,260.893 							"/>
							<polygon style="opacity:0.5;fill:#680000;" points="320.435,264.996 320.435,264.996 318.384,262.944 318.211,263.118 
								319.503,265.628 319.456,265.973 320.434,264.996 							"/>
							<polygon style="opacity:0.5;fill:#680000;" points="320.435,264.996 320.435,264.996 318.384,262.944 318.211,263.118 
								319.503,265.628 319.456,265.973 320.434,264.996 							"/>
							
								<rect x="325.137" y="255.341" transform="matrix(0.7072 -0.707 0.707 0.7072 -85.9334 306.0643)" style="opacity:0.5;fill:#680000;" width="2.9" height="2.901"/>
							
								<rect x="325.137" y="255.341" transform="matrix(0.7072 -0.707 0.707 0.7072 -85.9334 306.0643)" style="opacity:0.5;fill:#680000;" width="2.9" height="2.901"/>
							<polygon style="opacity:0.5;fill:#680000;" points="318.383,275.25 318.208,275.075 318.153,275.481 							"/>
							<polygon style="opacity:0.5;fill:#680000;" points="317.501,280.233 317.219,282.289 318.383,283.453 320.434,281.401 
								318.383,279.351 							"/>
							<polygon style="opacity:0.5;fill:#680000;" points="317.501,280.233 317.219,282.289 318.383,283.453 320.434,281.401 
								318.383,279.351 							"/>
							<polygon style="opacity:0.5;fill:#680000;" points="324.536,269.097 325.772,267.861 324.536,269.097 							"/>
							<rect x="322.061" y="266.021" style="opacity:0.5;fill:#680000;" width="2.899" height="0.001"/>
							<rect x="322.485" y="267.046" style="opacity:0.5;fill:#680000;" width="0.001" height="0.001"/>
							<rect x="322.485" y="267.046" style="opacity:0.5;fill:#680000;" width="0.001" height="0.001"/>
							<rect x="323.511" y="266.622" style="opacity:0.5;fill:#680000;" width="0" height="2.9"/>
							<rect x="323.511" y="266.622" style="opacity:0.5;fill:#680000;" width="0" height="2.9"/>
							<rect x="323.511" y="266.622" style="opacity:0.5;fill:#680000;" width="0" height="2.9"/>
							<polygon style="fill:#680000;" points="324.536,273.198 322.485,271.148 321.118,272.515 320.435,273.198 320.435,273.198 
								320.434,273.199 322.485,275.25 							"/>
							<polygon style="opacity:0.5;fill:#680000;" points="320.435,273.198 321.118,272.515 320.435,273.198 							"/>
							
								<rect x="319.815" y="267.604" transform="matrix(0.7071 -0.7071 0.7071 0.7071 -96.1709 304.7809)" style="opacity:0.5;fill:#680000;" width="0.001" height="1.749"/>
							<rect x="319.945" y="264.793" style="opacity:0.5;fill:#680000;" width="0.001" height="1.383"/>
							<rect x="319.945" y="264.793" style="opacity:0.5;fill:#680000;" width="0.001" height="1.383"/>
							<rect x="319.945" y="264.793" style="opacity:0.5;fill:#680000;" width="0.001" height="1.383"/>
							<polygon style="opacity:0.5;fill:#680000;" points="324.536,273.198 322.485,271.147 322.485,271.148 							"/>
							<polygon style="opacity:0.5;fill:#680000;" points="326.586,275.25 326.761,275.074 326.266,271.467 324.536,273.198 							
								"/>
							<polygon style="opacity:0.5;fill:#680000;" points="326.586,275.25 326.761,275.074 326.266,271.467 324.536,273.198 							
								"/>
							<polygon style="opacity:0.5;fill:#680000;" points="324.536,273.198 326.266,271.467 326.266,271.467 							"/>
							<polygon style="opacity:0.5;fill:#680000;" points="324.536,273.198 326.266,271.467 326.266,271.467 							"/>
							<polygon style="opacity:0.5;fill:#680000;" points="324.536,273.198 326.266,271.467 326.266,271.467 							"/>
							
								<rect x="321.035" y="275.851" transform="matrix(0.7071 -0.7071 0.7071 0.7071 -101.6282 309.2404)" style="opacity:0.5;fill:#680000;" width="2.9" height="2.9"/>
							
								<rect x="321.035" y="275.851" transform="matrix(0.7071 -0.7071 0.7071 0.7071 -101.6282 309.2404)" style="opacity:0.5;fill:#680000;" width="2.9" height="2.9"/>
							<rect x="319.619" y="268.759" style="opacity:0.5;fill:#680000;" width="0.001" height="2.305"/>
							<rect x="318.344" y="272.332" style="opacity:0.5;fill:#680000;" width="2.449" height="0.001"/>
							<polygon style="opacity:0.5;fill:#680000;" points="322.485,271.148 322.485,271.147 321.118,272.515 							"/>
							<rect x="320.435" y="269.097" style="opacity:0.5;fill:#680000;" width="0" height="0"/>
							<rect x="320.435" y="269.097" style="opacity:0.5;fill:#680000;" width="0" height="0"/>
							
								<rect x="322.061" y="270.122" transform="matrix(0.7071 -0.7071 0.7071 0.7071 -96.252 307.8633)" style="opacity:0.5;fill:#680000;" width="2.9" height="0"/>
							
								<rect x="322.061" y="270.122" transform="matrix(0.7071 -0.7071 0.7071 0.7071 -96.252 307.8633)" style="opacity:0.5;fill:#680000;" width="2.9" height="0"/>
							
								<rect x="322.061" y="270.122" transform="matrix(0.7071 -0.7071 0.7071 0.7071 -96.252 307.8633)" style="opacity:0.5;fill:#680000;" width="2.9" height="0"/>
							<rect x="321.46" y="266.622" style="opacity:0.5;fill:#680000;" width="0" height="2.899"/>
							<rect x="321.46" y="266.622" style="opacity:0.5;fill:#680000;" width="0" height="2.899"/>
							<rect x="321.46" y="266.622" style="opacity:0.5;fill:#680000;" width="0" height="2.899"/>
							
								<rect x="321.46" y="268.672" transform="matrix(0.7071 -0.7071 0.7071 0.7071 -96.8517 306.4228)" style="opacity:0.5;fill:#680000;" width="0" height="2.9"/>
							
								<rect x="321.46" y="268.672" transform="matrix(0.7071 -0.7071 0.7071 0.7071 -96.8517 306.4228)" style="opacity:0.5;fill:#680000;" width="0" height="2.9"/>
							
								<rect x="321.46" y="268.672" transform="matrix(0.7071 -0.7071 0.7071 0.7071 -96.8517 306.4228)" style="opacity:0.5;fill:#680000;" width="0" height="2.9"/>
							
								<rect x="321.036" y="267.647" transform="matrix(0.7071 -0.7071 0.7071 0.7071 -95.8265 306.8474)" style="opacity:0.5;fill:#680000;" width="2.9" height="2.9"/>
							
								<rect x="321.036" y="267.647" transform="matrix(0.7071 -0.7071 0.7071 0.7071 -95.8265 306.8474)" style="opacity:0.5;fill:#680000;" width="2.9" height="2.9"/>
							
								<rect x="321.036" y="267.647" transform="matrix(0.7071 -0.7071 0.7071 0.7071 -95.8265 306.8474)" style="opacity:0.5;fill:#680000;" width="2.9" height="2.9"/>
							
								<rect x="321.036" y="267.647" transform="matrix(0.7071 -0.7071 0.7071 0.7071 -95.8265 306.8474)" style="opacity:0.5;fill:#680000;" width="2.9" height="2.9"/>
							<polygon style="opacity:0.5;fill:#680000;" points="320.434,273.199 318.703,271.467 318.208,275.074 318.384,275.25 							
								"/>
							<polygon style="opacity:0.5;fill:#680000;" points="320.434,273.199 318.703,271.467 318.208,275.074 318.384,275.25 							
								"/>
							
								<rect x="321.035" y="288.155" transform="matrix(0.7073 -0.707 0.707 0.7073 -110.3333 312.7596)" style="fill:#680000;" width="2.9" height="2.9"/>
							
								<rect x="325.136" y="288.155" transform="matrix(0.7071 -0.7071 0.7071 0.7071 -109.1269 315.7549)" style="opacity:0.5;fill:#680000;" width="2.9" height="2.9"/>
							
								<rect x="325.136" y="288.155" transform="matrix(0.7071 -0.7071 0.7071 0.7071 -109.1269 315.7549)" style="opacity:0.5;fill:#680000;" width="2.9" height="2.9"/>
							
								<rect x="321.034" y="292.257" transform="matrix(0.7071 -0.7071 0.7071 0.7071 -113.2289 314.045)" style="opacity:0.5;fill:#680000;" width="2.9" height="2.9"/>
							
								<rect x="321.034" y="292.257" transform="matrix(0.7071 -0.7071 0.7071 0.7071 -113.2289 314.045)" style="opacity:0.5;fill:#680000;" width="2.9" height="2.9"/>
							<polygon style="opacity:0.5;fill:#680000;" points="320.433,285.503 320.433,285.503 322.484,287.555 324.535,285.504 
								322.484,283.452 321.8,284.136 320.434,285.503 							"/>
							<polygon style="opacity:0.5;fill:#680000;" points="320.433,285.503 320.433,285.503 322.484,287.555 324.535,285.504 
								322.484,283.452 321.8,284.136 320.434,285.503 							"/>
							<polygon style="opacity:0.5;fill:#680000;" points="320.434,285.503 321.8,284.136 320.433,285.503 							"/>
							<polygon style="opacity:0.5;fill:#680000;" points="320.434,285.503 321.8,284.136 320.433,285.503 							"/>
							<polygon style="opacity:0.5;fill:#680000;" points="320.434,285.503 321.8,284.136 320.433,285.503 							"/>
							
								<rect x="316.933" y="288.155" transform="matrix(0.7071 -0.7071 0.7071 0.7071 -111.5297 309.9542)" style="opacity:0.5;fill:#680000;" width="2.9" height="2.9"/>
							
								<rect x="316.933" y="288.155" transform="matrix(0.7071 -0.7071 0.7071 0.7071 -111.5297 309.9542)" style="opacity:0.5;fill:#680000;" width="2.9" height="2.9"/>
							<polygon style="opacity:0.5;fill:#680000;" points="316.332,289.605 316.332,289.605 318.383,287.555 							"/>
							<polygon style="opacity:0.5;fill:#680000;" points="316.332,289.605 316.332,289.605 318.383,287.555 							"/>
							<polygon style="opacity:0.5;fill:#680000;" points="326.586,283.453 327.751,282.289 327.469,280.233 326.586,279.351 
								324.536,281.401 							"/>
							<polygon style="opacity:0.5;fill:#680000;" points="326.586,283.453 327.751,282.289 327.469,280.233 326.586,279.351 
								324.536,281.401 							"/>
						</g>
					</g>
					<polygon style="fill:#660E0E;" points="325.693,267.187 325.482,265.644 319.519,265.644 319.307,267.187 					"/>
					<polygon style="fill:#332E2E;" points="340.178,298.831 344.247,251.213 322.501,295.56 300.755,251.213 303.975,298.643 
						322.501,341.284 					"/>
					<g>
						<polygon style="fill:#969696;" points="322.501,341.284 341.045,244.81 356.469,259.947 350.652,262.857 358.509,271.3 						
							"/>
						<polygon style="fill:#969696;" points="322.501,341.284 303.957,244.81 288.528,259.947 294.35,262.857 286.491,271.3 						
							"/>
					</g>
					<g>
						<path style="fill:#4C4C4C;" d="M324.689,306.242c0,1.21-0.98,2.19-2.188,2.19c-1.21,0-2.189-0.981-2.189-2.19
							c0-1.208,0.979-2.19,2.189-2.19C323.709,304.052,324.689,305.034,324.689,306.242z"/>
						<path style="fill:#4C4C4C;" d="M324.689,321.95c0,1.21-0.98,2.19-2.188,2.19c-1.21,0-2.189-0.981-2.189-2.19
							c0-1.208,0.979-2.189,2.189-2.189C323.709,319.762,324.689,320.742,324.689,321.95z"/>
						<path style="fill:#6D6E71;" d="M324.689,305.952c0,1.21-0.98,2.188-2.188,2.188c-1.21,0-2.189-0.979-2.189-2.188
							c0-1.208,0.979-2.187,2.189-2.187C323.709,303.765,324.689,304.744,324.689,305.952z"/>
						<g>
							<path style="fill:#4C4C4C;" d="M322.105,306.756c0,0.222-0.182,0.406-0.405,0.406c-0.224,0-0.404-0.184-0.404-0.406
								c0-0.222,0.18-0.404,0.404-0.404C321.923,306.353,322.105,306.534,322.105,306.756z"/>
							<path style="fill:#4C4C4C;" d="M323.705,306.756c0,0.222-0.182,0.406-0.405,0.406c-0.222,0-0.404-0.184-0.404-0.406
								c0-0.222,0.182-0.404,0.404-0.404C323.523,306.353,323.705,306.534,323.705,306.756z"/>
							<path style="fill:#4C4C4C;" d="M323.3,305.552c-0.222,0-0.406-0.18-0.406-0.402c0-0.222,0.184-0.404,0.406-0.404
								c0.223,0,0.405,0.182,0.405,0.404C323.705,305.372,323.523,305.552,323.3,305.552z"/>
							<path style="fill:#4C4C4C;" d="M321.701,305.552c-0.224,0-0.404-0.18-0.404-0.402c0-0.222,0.18-0.404,0.404-0.404
								c0.223,0,0.405,0.182,0.405,0.404C322.105,305.372,321.923,305.552,321.701,305.552z"/>
						</g>
						<g>
							<path style="fill:#6D6E71;" d="M324.689,321.662c0,1.206-0.98,2.19-2.188,2.19c-1.21,0-2.189-0.984-2.189-2.19
								c0-1.21,0.979-2.189,2.189-2.189C323.709,319.473,324.689,320.452,324.689,321.662z"/>
							<g>
								<path style="fill:#4C4C4C;" d="M322.105,322.464c0,0.224-0.182,0.404-0.405,0.404c-0.224,0-0.404-0.18-0.404-0.404
									c0-0.224,0.18-0.402,0.404-0.402C321.923,322.062,322.105,322.241,322.105,322.464z"/>
								<path style="fill:#4C4C4C;" d="M323.705,322.464c0,0.224-0.182,0.404-0.405,0.404c-0.222,0-0.406-0.18-0.406-0.404
									c0-0.224,0.184-0.402,0.406-0.402C323.523,322.062,323.705,322.241,323.705,322.464z"/>
								<path style="fill:#4C4C4C;" d="M323.3,321.263c-0.222,0-0.406-0.182-0.406-0.405c0-0.222,0.184-0.404,0.406-0.404
									c0.223,0,0.405,0.182,0.405,0.404C323.705,321.082,323.523,321.263,323.3,321.263z"/>
								<path style="fill:#4C4C4C;" d="M321.701,321.263c-0.224,0-0.404-0.182-0.404-0.405c0-0.222,0.18-0.404,0.404-0.404
									c0.223,0,0.405,0.182,0.405,0.404C322.105,321.082,321.923,321.263,321.701,321.263z"/>
							</g>
						</g>
					</g>
					<path style="fill:#FFFFFF;" d="M340.492,235.502c0,0-3.274,4.571-8.184,8.441c-4.176,3.29-8.884,5.596-9.807,6.036
						c-0.924-0.441-5.631-2.746-9.808-6.036c-4.909-3.87-8.183-8.441-8.183-8.441s-1.203,8.249,0,16.881
						c0.952,6.84,4.075,16.883,4.075,16.883l13.916-18.986l13.915,18.986c0,0,3.124-10.043,4.076-16.883
						C341.693,243.751,340.492,235.502,340.492,235.502z"/>
				</g>
			</g>
			<g>
				<g>
					<path style="fill:#FFFFFF;" d="M350.951,300.879h9.488l1.232-1.232c0.318-0.318,0.327-0.823,0.023-1.128l-4.682-4.685
						c-0.306-0.304-0.81-0.295-1.129,0.023l-5.403,5.403c-0.317,0.316-0.327,0.82-0.021,1.126L350.951,300.879z"/>
					<path style="fill:#D1D3D4;" d="M358.581,300.185l-4.513-4.515l-3.587,3.591c-0.317,0.316-0.327,0.82-0.021,1.126l0.491,0.493
						h7.87C358.849,300.633,358.77,300.378,358.581,300.185z"/>
					<path style="fill:#FFFFFF;" d="M357.739,300.185l-5.089-5.089c-0.333-0.332-0.871-0.332-1.202,0l-3.998,3.998v1.785h10.53
						C358.006,300.633,357.927,300.378,357.739,300.185z"/>
				</g>
				<rect x="346.111" y="298.762" style="fill:#969696;" width="17.147" height="4.61"/>
			</g>
		</g>
		<g>
			<path style="fill:#333333;" d="M324.791,354.426c0,1.206-0.979,2.19-2.187,2.19c-1.21,0-2.189-0.984-2.189-2.19
				c0-1.21,0.978-2.189,2.189-2.189C323.812,352.237,324.791,353.216,324.791,354.426z"/>
			<g>
				<path d="M322.207,355.228c0,0.224-0.182,0.404-0.405,0.404c-0.223,0-0.403-0.18-0.403-0.404c0-0.224,0.18-0.402,0.403-0.402
					C322.026,354.826,322.207,355.005,322.207,355.228z"/>
				<path d="M323.807,355.228c0,0.224-0.182,0.404-0.405,0.404c-0.221,0-0.405-0.18-0.405-0.404c0-0.224,0.184-0.402,0.405-0.402
					C323.625,354.826,323.807,355.005,323.807,355.228z"/>
				<path d="M323.402,354.027c-0.221,0-0.405-0.182-0.405-0.406c0-0.222,0.184-0.404,0.405-0.404c0.223,0,0.405,0.182,0.405,0.404
					C323.807,353.846,323.625,354.027,323.402,354.027z"/>
				<path d="M321.803,354.027c-0.223,0-0.403-0.182-0.403-0.406c0-0.222,0.18-0.404,0.403-0.404c0.223,0,0.405,0.182,0.405,0.404
					C322.207,353.846,322.026,354.027,321.803,354.027z"/>
			</g>
		</g>
		<path style="fill:#4C4C4C;" d="M322.985,338.742c0,0-3.115,11.459-3.276,15.781c-0.157,4.2,2.688,15.231,2.688,15.231l0.045-0.853
			c0,0-2.307-10.316-2.072-14.379C320.577,350.963,322.985,338.742,322.985,338.742L322.985,338.742z"/>
	</g>
</g>
<g>
	<g>
		<g>
			<g>
				<polygon style="fill:#231F20;" points="267.087,51.705 268.218,51.705 279.772,111.261 278.617,121.145 278.302,121.566 
					266.739,52.306 				"/>
			</g>
			<g>
				<polygon style="fill:#231F20;" points="377.96,51.705 376.827,51.705 365.274,111.261 366.428,121.145 366.742,121.566 
					378.306,52.306 				"/>
				<g>
					<g>
						<path style="fill:#332E2E;" d="M340.179,170.965l4.069-47.617h-43.492l3.22,47.43c0,0,13.589,6.856,18.526,6.84
							C327.224,177.603,340.179,170.965,340.179,170.965z"/>
						<path style="fill:#262626;" d="M377.099,51.705l-8.832-3.487l-13.488-6.403l-14.979-7.751L320.623,138.75l1.9,28.023
							c0,0,1.387,13.063,4.138,26.081c1.963,9.297,5.767,16.299,11.13,17.939c4.715,1.441,11.785-0.125,17.163-1.39
							c6.305-1.482,11.969-4.071,11.969-4.071l-2.217-44.834l2.217-50.664L377.099,51.705z"/>
						<path style="fill:#262626;" d="M267.817,51.705l8.832-3.487l13.487-6.403l14.98-7.751l19.177,104.686l-1.9,28.023
							c0,0-1.388,13.063-4.138,26.081c-1.965,9.297-5.768,16.299-11.131,17.939c-4.714,1.441-11.784-0.125-17.163-1.39
							c-6.305-1.482-11.969-4.071-11.969-4.071l2.218-44.834l-2.218-50.664L267.817,51.705z"/>
						<g>
							<path style="fill:#332E2E;" d="M320.818,119.921v58.535c-0.419,2.753-0.924,5.816-1.513,8.992v-75.786L320.818,119.921z"/>
							<path style="fill:#332E2E;" d="M317.396,101.24v95.054c-0.444,1.587-0.949,3.084-1.513,4.472V92.981L317.396,101.24z"/>
							<path style="fill:#332E2E;" d="M313.974,82.56v122.097c-0.477,0.801-0.981,1.542-1.513,2.212V74.301L313.974,82.56z"/>
							<path style="fill:#332E2E;" d="M310.553,63.885V208.85c-0.488,0.416-0.989,0.792-1.513,1.101V55.625L310.553,63.885z"/>
							<g>
								<path style="fill:#332E2E;" d="M300.288,211.283c-0.501-0.041-1.005-0.089-1.513-0.151V37.351l1.513-0.783V211.283z"/>
								<path style="fill:#332E2E;" d="M303.71,211.353c-0.495,0.025-0.998,0.038-1.513,0.029V35.581l1.513-0.783V211.353z"/>
								<path style="fill:#332E2E;" d="M296.867,210.857c-0.506-0.082-1.011-0.168-1.513-0.262V39.122l1.513-0.783V210.857z"/>
								<path style="fill:#332E2E;" d="M293.446,40.109v170.102c-0.511-0.108-1.017-0.218-1.513-0.33V40.892L293.446,40.109z"/>
								<path style="fill:#332E2E;" d="M307.131,45.204V210.8c-0.009,0.003-0.019,0.008-0.029,0.011
									c-0.471,0.144-0.97,0.25-1.484,0.337V36.945L307.131,45.204z"/>
							</g>
							<path style="fill:#332E2E;" d="M286.603,43.5v165.027c-0.518-0.155-1.022-0.313-1.513-0.472V44.218L286.603,43.5z"/>
							<polygon style="fill:#332E2E;" points="279.759,46.749 279.759,150.71 278.247,116.162 278.247,47.467 							"/>
							<path style="fill:#332E2E;" d="M279.759,206.111c-0.695-0.283-1.22-0.509-1.512-0.637v-5.708l1.512-30.573V206.111z"/>
							<path style="fill:#332E2E;" d="M290.024,41.876v167.565c-0.027-0.007-0.057-0.013-0.084-0.02
								c-0.482-0.113-0.957-0.235-1.429-0.359V42.594L290.024,41.876z"/>
							<path style="fill:#332E2E;" d="M283.181,45.124V207.41c-0.535-0.189-1.043-0.374-1.513-0.551V45.842L283.181,45.124z"/>
							<polygon style="fill:#332E2E;" points="276.338,48.35 276.338,100.526 274.825,91.883 274.825,48.947 							"/>
							<polygon style="fill:#332E2E;" points="272.917,49.701 272.917,80.98 271.404,72.338 271.404,50.298 							"/>
							<polygon style="fill:#332E2E;" points="269.496,61.439 267.983,52.797 267.983,51.649 269.496,51.052 							"/>
						</g>
						<g>
							<path style="fill:#332E2E;" d="M324.068,119.905v58.535c0.42,2.753,0.924,5.816,1.513,8.992v-75.786L324.068,119.905z"/>
							<polygon style="fill:#332E2E;" points="320.646,147.531 320.646,156.222 322.159,166.004 322.159,141.061 							"/>
							<path style="fill:#332E2E;" d="M327.489,101.225v95.054c0.444,1.587,0.949,3.084,1.513,4.472V92.965L327.489,101.225z"/>
							<path style="fill:#332E2E;" d="M330.911,82.544v122.097c0.477,0.801,0.981,1.542,1.513,2.212V74.285L330.911,82.544z"/>
							<path style="fill:#332E2E;" d="M334.332,63.869v144.965c0.488,0.416,0.989,0.792,1.513,1.101V55.609L334.332,63.869z"/>
							<g>
								<path style="fill:#332E2E;" d="M344.597,211.267c0.501-0.041,1.005-0.089,1.513-0.151V37.335l-1.513-0.783V211.267z"/>
								<path style="fill:#332E2E;" d="M341.175,211.337c0.495,0.025,0.998,0.038,1.513,0.029V35.565l-1.513-0.783V211.337z"/>
								<path style="fill:#332E2E;" d="M348.019,210.841c0.506-0.082,1.011-0.168,1.513-0.262V39.106l-1.513-0.783V210.841z"/>
								<path style="fill:#332E2E;" d="M351.44,40.093v170.102c0.511-0.108,1.017-0.218,1.513-0.33V40.876L351.44,40.093z"/>
								<path style="fill:#332E2E;" d="M337.754,45.189v165.596c0.009,0.003,0.019,0.008,0.029,0.011
									c0.471,0.144,0.97,0.25,1.484,0.337V36.929L337.754,45.189z"/>
							</g>
							<path style="fill:#332E2E;" d="M358.282,43.484v165.027c0.518-0.155,1.022-0.312,1.513-0.471V44.202L358.282,43.484z"/>
							<polygon style="fill:#332E2E;" points="365.126,46.733 365.126,150.695 366.638,116.146 366.638,47.451 							"/>
							<path style="fill:#332E2E;" d="M365.126,206.095c0.695-0.283,1.22-0.509,1.512-0.637v-5.708l-1.512-30.573V206.095z"/>
							<path style="fill:#332E2E;" d="M354.861,41.86v167.565c0.027-0.007,0.057-0.013,0.084-0.02
								c0.482-0.113,0.957-0.235,1.429-0.359V42.578L354.861,41.86z"/>
							<path style="fill:#332E2E;" d="M361.704,45.109v162.286c0.535-0.189,1.043-0.374,1.513-0.551V45.827L361.704,45.109z"/>
							<polygon style="fill:#332E2E;" points="368.547,48.334 368.547,100.51 370.06,91.868 370.06,48.932 							"/>
							<polygon style="fill:#332E2E;" points="371.969,49.685 371.969,80.964 373.482,72.322 373.482,50.283 							"/>
							<polygon style="fill:#332E2E;" points="375.39,61.423 376.903,52.781 376.903,51.633 375.39,51.036 							"/>
						</g>
						<polygon style="fill:#262626;" points="377.96,51.705 383.69,54.862 383.69,62.648 391.314,122.164 395.349,197.745 
							374.723,198.607 370.24,138.75 366.428,121.145 367.782,109.833 						"/>
						<g>
							<polygon style="fill:#332E2E;" points="366.413,121.14 366.63,122.145 366.63,119.321 							"/>
							<polygon style="fill:#332E2E;" points="368.539,105.415 368.539,130.961 370.052,137.949 370.052,96.774 							"/>
							<polygon style="fill:#332E2E;" points="371.961,85.871 371.961,161.934 373.474,182.135 373.474,77.229 							"/>
							<polygon style="fill:#332E2E;" points="378.804,52.174 378.804,198.43 380.317,198.367 380.317,53.007 							"/>
							<polygon style="fill:#332E2E;" points="387.159,198.081 387.159,89.853 385.646,78.042 385.646,198.145 							"/>
							<polygon style="fill:#332E2E;" points="375.382,66.331 375.382,198.573 376.895,198.51 376.895,57.69 							"/>
							<polygon style="fill:#332E2E;" points="382.225,54.058 382.225,198.288 383.738,198.225 383.738,63.147 383.674,62.643 
								383.674,54.857 							"/>
							<polygon style="fill:#332E2E;" points="390.581,197.938 390.581,116.564 389.068,104.754 389.068,198.002 							"/>
							<polygon style="fill:#332E2E;" points="394.002,197.796 394.002,172.808 392.489,144.472 392.489,197.859 							"/>
						</g>
						<polygon style="fill:#262626;" points="267.093,51.705 261.363,54.862 261.363,62.648 253.738,122.164 249.703,197.745 
							270.329,198.607 274.812,138.75 278.624,121.145 277.27,109.833 						"/>
					</g>
				</g>
			</g>
			<g>
				<g>
					<rect x="304.171" y="47.022" style="fill:#FFFFFF;" width="36.66" height="38.756"/>
					<path style="fill:#A7A9AC;" d="M340.493,32.455c0,0-3.274,4.744-8.184,8.76c-4.176,3.416-8.884,5.807-9.807,6.263
						c-0.924-0.456-5.631-2.848-9.808-6.263c-4.909-4.015-8.183-8.76-8.183-8.76s-1.203,8.559,0,17.519
						c0.952,7.096,4.075,17.523,4.075,17.523l13.916-19.704l13.915,19.704c0,0,3.124-10.427,4.076-17.523
						C341.694,41.014,340.493,32.455,340.493,32.455z"/>
					<g>
						<g>
							<polygon style="fill:#515151;" points="327.231,47.022 317.774,47.022 314.571,52.99 319.52,62.597 325.483,62.597 
								330.433,52.99 							"/>
						</g>
						<path style="fill:#363636;" d="M328.736,56.281l1.697-3.292l-3.203-5.968h-4.493c-0.094,0.047-0.175,0.087-0.236,0.121
							c-0.059-0.033-0.143-0.073-0.236-0.121h-4.492l-3.202,5.968l1.695,3.292l6.236-8.829L328.736,56.281z"/>
						<polygon style="fill:#515151;" points="325.483,62.597 319.52,62.597 314.571,98.696 330.433,98.696 						"/>
					</g>
					<polygon style="fill:#363636;" points="325.694,64.141 325.483,62.597 319.52,62.597 319.308,64.141 					"/>
					<polygon style="fill:#332E2E;" points="340.179,95.784 344.248,48.167 322.502,92.513 300.756,48.167 303.976,95.597 
						322.502,138.238 					"/>
					<g>
						<polygon style="fill:#414042;" points="322.502,138.238 341.046,41.764 356.47,56.9 350.653,59.811 358.51,68.254 						"/>
						<polygon style="fill:#414042;" points="322.502,138.238 303.958,41.764 288.529,56.9 294.351,59.811 286.492,68.254 						"/>
					</g>
					<g>
						<path style="fill:#014D77;" d="M324.69,103.196c0,1.21-0.98,2.19-2.188,2.19c-1.21,0-2.189-0.981-2.189-2.19
							c0-1.208,0.979-2.19,2.189-2.19C323.71,101.006,324.69,101.988,324.69,103.196z"/>
						<path style="fill:#231F20;" d="M324.69,103.196c0,1.21-0.98,2.19-2.188,2.19c-1.21,0-2.189-0.981-2.189-2.19
							c0-1.208,0.979-2.19,2.189-2.19C323.71,101.006,324.69,101.988,324.69,103.196z"/>
						<path style="fill:#231F20;" d="M324.69,118.904c0,1.21-0.98,2.19-2.188,2.19c-1.21,0-2.189-0.981-2.189-2.19
							c0-1.208,0.979-2.189,2.189-2.189C323.71,116.715,324.69,117.696,324.69,118.904z"/>
						<path style="fill:#6D6E71;" d="M324.69,102.906c0,1.21-0.98,2.189-2.188,2.189c-1.21,0-2.189-0.979-2.189-2.189
							c0-1.208,0.979-2.187,2.189-2.187C323.71,100.719,324.69,101.698,324.69,102.906z"/>
						<g>
							<path style="fill:#231F20;" d="M322.106,103.71c0,0.222-0.182,0.406-0.405,0.406c-0.224,0-0.404-0.184-0.404-0.406
								c0-0.222,0.18-0.404,0.404-0.404C321.924,103.306,322.106,103.488,322.106,103.71z"/>
							<path style="fill:#231F20;" d="M323.706,103.71c0,0.222-0.182,0.406-0.405,0.406c-0.222,0-0.404-0.184-0.404-0.406
								c0-0.222,0.182-0.404,0.404-0.404C323.524,103.306,323.706,103.488,323.706,103.71z"/>
							<path style="fill:#231F20;" d="M323.301,102.506c-0.222,0-0.406-0.18-0.406-0.402s0.184-0.404,0.406-0.404
								c0.223,0,0.405,0.182,0.405,0.404S323.524,102.506,323.301,102.506z"/>
							<path style="fill:#231F20;" d="M321.701,102.506c-0.224,0-0.404-0.18-0.404-0.402s0.18-0.404,0.404-0.404
								c0.223,0,0.405,0.182,0.405,0.404S321.924,102.506,321.701,102.506z"/>
						</g>
						<g>
							<path style="fill:#6D6E71;" d="M324.69,118.616c0,1.206-0.98,2.19-2.188,2.19c-1.21,0-2.189-0.984-2.189-2.19
								c0-1.21,0.979-2.188,2.189-2.188C323.71,116.427,324.69,117.406,324.69,118.616z"/>
							<g>
								<path style="fill:#231F20;" d="M322.106,119.418c0,0.224-0.182,0.404-0.405,0.404c-0.224,0-0.404-0.18-0.404-0.404
									c0-0.224,0.18-0.402,0.404-0.402C321.924,119.016,322.106,119.194,322.106,119.418z"/>
								<path style="fill:#231F20;" d="M323.706,119.418c0,0.224-0.182,0.404-0.405,0.404c-0.222,0-0.406-0.18-0.406-0.404
									c0-0.224,0.184-0.402,0.406-0.402C323.524,119.016,323.706,119.194,323.706,119.418z"/>
								<path style="fill:#231F20;" d="M323.301,118.217c-0.222,0-0.406-0.182-0.406-0.406c0-0.222,0.184-0.404,0.406-0.404
									c0.223,0,0.405,0.182,0.405,0.404C323.706,118.035,323.524,118.217,323.301,118.217z"/>
								<path style="fill:#231F20;" d="M321.701,118.217c-0.224,0-0.404-0.182-0.404-0.406c0-0.222,0.18-0.404,0.404-0.404
									c0.223,0,0.405,0.182,0.405,0.404C322.106,118.035,321.924,118.217,321.701,118.217z"/>
							</g>
						</g>
					</g>
					<path style="fill:#FFFFFF;" d="M340.493,32.455c0,0-3.274,4.571-8.184,8.441c-4.176,3.29-8.884,5.595-9.807,6.036
						c-0.924-0.441-5.631-2.746-9.808-6.036c-4.909-3.87-8.183-8.441-8.183-8.441s-1.203,8.249,0,16.881
						c0.952,6.84,4.075,16.883,4.075,16.883l13.916-18.986l13.915,18.986c0,0,3.124-10.043,4.076-16.883
						C341.694,40.704,340.493,32.455,340.493,32.455z"/>
				</g>
			</g>
			<g>
				<g>
					<path style="fill:#FFFFFF;" d="M350.952,97.833h9.488l1.232-1.232c0.318-0.318,0.327-0.823,0.023-1.128l-4.682-4.685
						c-0.306-0.304-0.81-0.296-1.128,0.023l-5.403,5.403c-0.317,0.316-0.327,0.82-0.021,1.126L350.952,97.833z"/>
					<path style="fill:#D1D3D4;" d="M358.582,97.139l-4.514-4.515l-3.587,3.59c-0.317,0.316-0.327,0.82-0.021,1.126l0.491,0.493
						h7.87C358.85,97.586,358.771,97.331,358.582,97.139z"/>
					<path style="fill:#FFFFFF;" d="M357.74,97.139l-5.09-5.089c-0.333-0.332-0.87-0.332-1.202,0l-3.998,3.998v1.785h10.53
						C358.007,97.586,357.928,97.331,357.74,97.139z"/>
				</g>
				<rect x="346.111" y="95.716" style="fill:#414042;" width="17.147" height="4.61"/>
			</g>
		</g>
		<g>
			<polygon style="fill:#332E2E;" points="278.637,121.14 278.419,122.145 278.419,119.321 			"/>
			<polygon style="fill:#332E2E;" points="276.511,105.415 276.511,130.961 274.998,137.949 274.998,96.774 			"/>
			<polygon style="fill:#332E2E;" points="273.089,85.871 273.089,161.934 271.576,182.135 271.576,77.229 			"/>
			<polygon style="fill:#332E2E;" points="266.246,52.174 266.246,198.43 264.733,198.367 264.733,53.007 			"/>
			<polygon style="fill:#332E2E;" points="257.89,198.081 257.89,89.853 259.403,78.042 259.403,198.145 			"/>
			<polygon style="fill:#332E2E;" points="269.668,66.331 269.668,198.573 268.155,198.51 268.155,57.69 			"/>
			<polygon style="fill:#332E2E;" points="262.825,54.058 262.825,198.288 261.311,198.225 261.311,63.147 261.376,62.643 
				261.376,54.857 			"/>
			<polygon style="fill:#332E2E;" points="254.468,197.938 254.468,116.564 255.981,104.754 255.981,198.002 			"/>
			<polygon style="fill:#332E2E;" points="251.047,197.796 251.047,172.808 252.56,144.472 252.56,197.859 			"/>
		</g>
		<g>
			<path style="fill:#231F20;" d="M324.792,151.38c0,1.206-0.979,2.19-2.187,2.19c-1.211,0-2.189-0.984-2.189-2.19
				c0-1.21,0.978-2.189,2.189-2.189C323.813,149.191,324.792,150.17,324.792,151.38z"/>
			<g>
				<path style="fill:#414042;" d="M322.208,152.182c0,0.224-0.182,0.404-0.405,0.404c-0.223,0-0.403-0.18-0.403-0.404
					c0-0.224,0.18-0.402,0.403-0.402C322.027,151.78,322.208,151.958,322.208,152.182z"/>
				<path style="fill:#414042;" d="M323.808,152.182c0,0.224-0.182,0.404-0.405,0.404c-0.221,0-0.405-0.18-0.405-0.404
					c0-0.224,0.184-0.402,0.405-0.402C323.626,151.78,323.808,151.958,323.808,152.182z"/>
				<path style="fill:#414042;" d="M323.403,150.981c-0.221,0-0.405-0.182-0.405-0.406c0-0.222,0.184-0.404,0.405-0.404
					c0.223,0,0.405,0.182,0.405,0.404C323.808,150.799,323.626,150.981,323.403,150.981z"/>
				<path style="fill:#414042;" d="M321.804,150.981c-0.223,0-0.403-0.182-0.403-0.406c0-0.222,0.18-0.404,0.403-0.404
					c0.223,0,0.405,0.182,0.405,0.404C322.208,150.799,322.027,150.981,321.804,150.981z"/>
			</g>
		</g>
		<path style="fill:#231F20;" d="M322.988,135.757c0,0-3.115,11.459-3.276,15.781c-0.157,4.2,2.584,15.913,2.584,15.913l0.119-1.223
			c0,0-2.277-10.629-2.042-14.691C320.579,147.978,322.988,135.757,322.988,135.757L322.988,135.757z"/>
	</g>
</g>
<g>
	<g>
		<g>
			<g>
				<g>
					<polygon style="fill:#090E19;" points="74.377,51.704 75.507,51.704 87.062,111.261 85.907,121.145 85.592,121.566 
						74.029,52.306 					"/>
				</g>
			</g>
			<g>
				<polygon style="fill:#090E19;" points="185.249,51.704 184.117,51.704 172.563,111.261 173.718,121.145 174.032,121.566 
					185.595,52.306 				"/>
				<g>
					<g>
						<path style="fill:#404F77;" d="M147.468,170.964l4.07-47.617h-43.492l3.22,47.43c0,0,13.589,6.856,18.526,6.84
							C134.513,177.603,147.468,170.964,147.468,170.964z"/>
						<path style="fill:#10172A;" d="M184.388,51.704l-8.832-3.487l-13.488-6.403l-14.979-7.751l-19.176,104.686l1.9,28.023
							c0,0,1.387,13.063,4.138,26.081c1.963,9.297,5.767,16.299,11.13,17.938c4.714,1.441,11.785-0.125,17.162-1.39
							c6.305-1.482,11.969-4.071,11.969-4.071l-2.217-44.834l2.217-50.664L184.388,51.704z"/>
						<path style="fill:#10172A;" d="M75.107,51.704l8.832-3.487l13.487-6.403l14.98-7.751l19.177,104.686l-1.9,28.023
							c0,0-1.388,13.063-4.138,26.081c-1.965,9.297-5.768,16.299-11.131,17.938c-4.714,1.441-11.785-0.125-17.163-1.39
							c-6.305-1.482-11.969-4.071-11.969-4.071l2.218-44.834l-2.218-50.664L75.107,51.704z"/>
						<polygon style="fill:#10172A;" points="185.249,51.704 190.979,54.862 190.979,62.647 198.604,122.164 202.639,197.745 
							182.013,198.607 177.53,138.749 173.718,121.145 175.072,109.833 						"/>
						<polygon style="fill:#10172A;" points="74.383,51.704 68.652,54.862 68.652,62.647 61.028,122.164 56.993,197.745 
							77.619,198.607 82.102,138.749 85.914,121.145 84.56,109.833 						"/>
					</g>
				</g>
			</g>
			<g>
				<g>
					<rect x="111.461" y="47.021" style="fill:#C2CDE9;" width="36.66" height="38.756"/>
					<path style="fill:#9AAACC;" d="M147.783,32.455c0,0-3.274,4.744-8.185,8.76c-4.176,3.416-8.884,5.807-9.807,6.263
						c-0.924-0.456-5.631-2.848-9.808-6.263c-4.909-4.015-8.183-8.76-8.183-8.76s-1.203,8.559,0,17.519
						c0.952,7.096,4.075,17.523,4.075,17.523l13.916-19.704l13.915,19.704c0,0,3.124-10.427,4.077-17.523
						C148.984,41.013,147.783,32.455,147.783,32.455z"/>
					<g>
						<polygon style="fill:#B23F36;" points="132.772,62.597 126.81,62.597 121.861,98.696 137.723,98.696 						"/>
						<g>
							<g>
								<polygon style="fill:#B23F36;" points="134.52,47.021 125.063,47.021 121.861,52.989 126.81,62.597 132.772,62.597 
									137.723,52.989 								"/>
							</g>
						</g>
						<g>
							<defs>
								<polygon id="SVGID_1_" points="137.723,52.989 134.52,47.021 125.063,47.021 121.861,52.989 126.81,62.597 121.861,98.696 
									137.723,98.696 132.772,62.597 								"/>
							</defs>
							<clipPath id="SVGID_00000127039678690199517310000015354649527019009675_">
								<use xlink:href="#SVGID_1_"  style="overflow:visible;"/>
							</clipPath>
							<g style="clip-path:url(#SVGID_00000127039678690199517310000015354649527019009675_);">
								<g>
									
										<rect x="113.126" y="52.281" transform="matrix(0.7073 -0.7069 0.7069 0.7073 0.8074 107.6144)" style="fill:#A06868;" width="34.477" height="1.103"/>
									<polygon style="fill:#A03333;" points="118.858,65.703 118.565,65.412 142.944,41.033 143.236,41.325 									"/>
									
										<rect x="112.59" y="52.089" transform="matrix(0.7077 -0.7065 0.7065 0.7077 1.0003 107.0095)" style="fill:#A03333;" width="34.476" height="0.414"/>
								</g>
								<g>
									
										<rect x="113.126" y="58.602" transform="matrix(0.7073 -0.7069 0.7069 0.7073 -3.6608 109.4644)" style="fill:#A06868;" width="34.477" height="1.103"/>
									<polygon style="fill:#A03333;" points="118.858,72.024 118.565,71.733 142.944,47.354 143.236,47.646 									"/>
									
										<rect x="112.59" y="58.41" transform="matrix(0.7077 -0.7065 0.7065 0.7077 -3.4655 108.8571)" style="fill:#A03333;" width="34.476" height="0.414"/>
								</g>
								<g>
									
										<rect x="113.127" y="64.923" transform="matrix(0.7075 -0.7067 0.7067 0.7075 -8.141 111.2789)" style="fill:#A06868;" width="34.476" height="1.103"/>
									
										<rect x="113.662" y="65.804" transform="matrix(0.7065 -0.7077 0.7077 0.7065 -8.2972 112.014)" style="fill:#A03333;" width="34.477" height="0.413"/>
									
										<rect x="112.59" y="64.731" transform="matrix(0.7077 -0.7065 0.7065 0.7077 -7.9313 110.7047)" style="fill:#A03333;" width="34.476" height="0.414"/>
								</g>
								<g>
									
										<rect x="113.126" y="71.244" transform="matrix(0.7073 -0.7069 0.7069 0.7073 -12.5975 113.1644)" style="fill:#A06868;" width="34.477" height="1.103"/>
									
										<rect x="113.663" y="72.125" transform="matrix(0.7065 -0.7077 0.7077 0.7065 -12.7708 113.8693)" style="fill:#A03333;" width="34.477" height="0.413"/>
									
										<rect x="112.59" y="71.052" transform="matrix(0.7076 -0.7066 0.7066 0.7076 -12.3903 112.5766)" style="fill:#A03333;" width="34.476" height="0.414"/>
								</g>
								<g>
									
										<rect x="113.126" y="77.565" transform="matrix(0.7073 -0.7069 0.7069 0.7073 -17.0657 115.0144)" style="fill:#A06868;" width="34.477" height="1.103"/>
									
										<rect x="113.663" y="78.446" transform="matrix(0.7065 -0.7077 0.7077 0.7065 -17.2442 115.7245)" style="fill:#A03333;" width="34.477" height="0.413"/>
									
										<rect x="112.59" y="77.373" transform="matrix(0.7076 -0.7066 0.7066 0.7076 -16.8569 114.425)" style="fill:#A03333;" width="34.476" height="0.414"/>
								</g>
								<g>
									
										<rect x="113.126" y="83.886" transform="matrix(0.7073 -0.7069 0.7069 0.7073 -21.5339 116.8643)" style="fill:#A06868;" width="34.477" height="1.103"/>
									
										<rect x="113.663" y="84.767" transform="matrix(0.7065 -0.7077 0.7077 0.7065 -21.7177 117.5797)" style="fill:#A03333;" width="34.477" height="0.413"/>
									
										<rect x="112.59" y="83.694" transform="matrix(0.7076 -0.7066 0.7066 0.7076 -21.3235 116.2733)" style="fill:#A03333;" width="34.476" height="0.414"/>
								</g>
							</g>
						</g>
						<path style="fill:#561E1A;" d="M136.025,56.281l1.697-3.292l-3.202-5.968h-4.493c-0.094,0.047-0.175,0.087-0.236,0.121
							c-0.059-0.033-0.142-0.074-0.236-0.121h-4.493l-3.202,5.968l1.695,3.292l6.236-8.829L136.025,56.281z"/>
					</g>
					<polygon style="fill:#561E1A;" points="132.984,64.14 132.772,62.597 126.81,62.597 126.598,64.14 					"/>
					<polygon style="fill:#404F77;" points="147.468,95.784 151.538,48.167 129.792,92.513 108.046,48.167 111.266,95.597 
						129.792,138.237 					"/>
					<g>
						<g>
							<polygon style="fill:#1F2847;" points="129.792,138.237 148.335,41.763 163.76,56.9 157.943,59.81 165.8,68.254 							"/>
							<polygon style="fill:#1F2847;" points="129.792,138.237 111.247,41.763 95.819,56.9 101.641,59.81 93.782,68.254 							"/>
						</g>
					</g>
					<g>
						<path style="fill:#014D77;" d="M131.979,103.196c0,1.21-0.98,2.19-2.188,2.19c-1.21,0-2.188-0.981-2.188-2.19
							c0-1.208,0.979-2.19,2.188-2.19C131,101.005,131.979,101.988,131.979,103.196z"/>
						<path style="fill:#05080F;" d="M131.979,103.196c0,1.21-0.98,2.19-2.188,2.19c-1.21,0-2.188-0.981-2.188-2.19
							c0-1.208,0.979-2.19,2.188-2.19C131,101.005,131.979,101.988,131.979,103.196z"/>
						<path style="fill:#05080F;" d="M131.979,118.904c0,1.21-0.98,2.19-2.188,2.19c-1.21,0-2.188-0.981-2.188-2.19
							c0-1.208,0.979-2.189,2.188-2.189C131,116.715,131.979,117.696,131.979,118.904z"/>
						<path style="fill:#10172A;" d="M131.979,102.905c0,1.21-0.98,2.188-2.188,2.188c-1.21,0-2.188-0.979-2.188-2.188
							c0-1.208,0.979-2.187,2.188-2.187C131,100.718,131.979,101.697,131.979,102.905z"/>
						<g>
							<path style="fill:#05080F;" d="M129.396,103.71c0,0.222-0.182,0.405-0.405,0.405c-0.224,0-0.404-0.184-0.404-0.405
								c0-0.222,0.18-0.404,0.404-0.404C129.214,103.306,129.396,103.487,129.396,103.71z"/>
							<path style="fill:#05080F;" d="M130.995,103.71c0,0.222-0.182,0.405-0.405,0.405c-0.222,0-0.404-0.184-0.404-0.405
								c0-0.222,0.182-0.404,0.404-0.404C130.814,103.306,130.995,103.487,130.995,103.71z"/>
							<path style="fill:#05080F;" d="M130.591,102.505c-0.222,0-0.406-0.18-0.406-0.402s0.184-0.404,0.406-0.404
								c0.223,0,0.405,0.182,0.405,0.404S130.814,102.505,130.591,102.505z"/>
							<path style="fill:#05080F;" d="M128.991,102.505c-0.224,0-0.404-0.18-0.404-0.402s0.18-0.404,0.404-0.404
								c0.223,0,0.405,0.182,0.405,0.404S129.214,102.505,128.991,102.505z"/>
						</g>
						<g>
							<path style="fill:#10172A;" d="M131.979,118.615c0,1.206-0.98,2.19-2.188,2.19c-1.21,0-2.188-0.984-2.188-2.19
								c0-1.21,0.979-2.189,2.188-2.189C131,116.427,131.979,117.406,131.979,118.615z"/>
							<g>
								<path style="fill:#05080F;" d="M129.396,119.418c0,0.224-0.182,0.404-0.405,0.404c-0.224,0-0.404-0.18-0.404-0.404
									c0-0.224,0.18-0.402,0.404-0.402C129.214,119.016,129.396,119.194,129.396,119.418z"/>
								<path style="fill:#05080F;" d="M130.995,119.418c0,0.224-0.182,0.404-0.405,0.404c-0.222,0-0.406-0.18-0.406-0.404
									c0-0.224,0.184-0.402,0.406-0.402C130.814,119.016,130.995,119.194,130.995,119.418z"/>
								<path style="fill:#05080F;" d="M130.591,118.217c-0.222,0-0.406-0.182-0.406-0.406c0-0.222,0.184-0.404,0.406-0.404
									c0.223,0,0.405,0.182,0.405,0.404C130.995,118.035,130.814,118.217,130.591,118.217z"/>
								<path style="fill:#05080F;" d="M128.991,118.217c-0.224,0-0.404-0.182-0.404-0.406c0-0.222,0.18-0.404,0.404-0.404
									c0.223,0,0.405,0.182,0.405,0.404C129.396,118.035,129.214,118.217,128.991,118.217z"/>
							</g>
						</g>
					</g>
					<path style="fill:#C2CDE9;" d="M147.783,32.455c0,0-3.274,4.571-8.185,8.441c-4.176,3.29-8.884,5.595-9.807,6.036
						c-0.924-0.441-5.631-2.746-9.808-6.036c-4.909-3.87-8.183-8.441-8.183-8.441s-1.203,8.249,0,16.881
						c0.952,6.84,4.075,16.883,4.075,16.883l13.916-18.986l13.915,18.986c0,0,3.124-10.043,4.077-16.883
						C148.984,40.704,147.783,32.455,147.783,32.455z"/>
				</g>
			</g>
			<g>
				<g>
					<path style="fill:#FFFFFF;" d="M158.242,97.832h9.489l1.232-1.232c0.318-0.318,0.327-0.823,0.023-1.127l-4.682-4.685
						c-0.306-0.304-0.81-0.296-1.128,0.023l-5.403,5.403c-0.317,0.316-0.327,0.82-0.021,1.126L158.242,97.832z"/>
					<path style="fill:#D1D3D4;" d="M165.872,97.138l-4.514-4.515l-3.587,3.591c-0.317,0.316-0.327,0.82-0.021,1.126l0.491,0.493
						h7.87C166.139,97.586,166.061,97.331,165.872,97.138z"/>
					<path style="fill:#FFFFFF;" d="M165.029,97.138l-5.089-5.089c-0.333-0.332-0.871-0.332-1.202,0l-3.998,3.998v1.785h10.53
						C165.297,97.586,165.218,97.331,165.029,97.138z"/>
				</g>
				<rect x="153.401" y="95.716" style="fill:#1F2847;" width="17.147" height="4.61"/>
			</g>
		</g>
		<g>
			<path style="fill:#05080F;" d="M132.082,151.379c0,1.206-0.979,2.19-2.187,2.19c-1.211,0-2.189-0.984-2.189-2.19
				c0-1.21,0.978-2.189,2.189-2.189C131.103,149.191,132.082,150.169,132.082,151.379z"/>
			<g>
				<path style="fill:#10172A;" d="M129.498,152.182c0,0.224-0.182,0.404-0.405,0.404c-0.223,0-0.403-0.18-0.403-0.404
					c0-0.224,0.18-0.402,0.403-0.402C129.316,151.779,129.498,151.958,129.498,152.182z"/>
				<path style="fill:#10172A;" d="M131.098,152.182c0,0.224-0.182,0.404-0.405,0.404c-0.221,0-0.405-0.18-0.405-0.404
					c0-0.224,0.184-0.402,0.405-0.402C130.916,151.779,131.098,151.958,131.098,152.182z"/>
				<path style="fill:#10172A;" d="M130.693,150.981c-0.221,0-0.405-0.182-0.405-0.406c0-0.222,0.184-0.404,0.405-0.404
					c0.223,0,0.405,0.182,0.405,0.404C131.098,150.799,130.916,150.981,130.693,150.981z"/>
				<path style="fill:#10172A;" d="M129.093,150.981c-0.223,0-0.403-0.182-0.403-0.406c0-0.222,0.18-0.404,0.403-0.404
					c0.223,0,0.405,0.182,0.405,0.404C129.498,150.799,129.316,150.981,129.093,150.981z"/>
			</g>
		</g>
		<path style="fill:#090E19;" d="M130.322,135.481c0,0-3.115,11.459-3.276,15.781c-0.157,4.2,2.635,15.325,2.635,15.325l0.067-0.769
			c0,0-2.277-10.495-2.042-14.557C127.913,147.702,130.322,135.481,130.322,135.481L130.322,135.481z"/>
	</g>
</g>
</svg>
