<?xml version="1.0" encoding="utf-8"?>
<!-- Generator: Adobe Illustrator 27.5.0, SVG Export Plug-In . SVG Version: 6.00 Build 0)  -->
<svg version="1.1" id="BASE" xmlns="http://www.w3.org/2000/svg" xmlns:xlink="http://www.w3.org/1999/xlink" x="0px" y="0px"
	 viewBox="0 0 1975 2279" style="enable-background:new 0 0 1975 2279;" xml:space="preserve">
<g>
	<path style="fill:#FADAAB;" d="M1719.775,1071.91c-22.52-54.907-50.294-108.719-91.223-151.704
		c-157.755-165.654-387.15-100.193-506.677,56.968c-1.351-3.811-2.777-7.595-4.075-11.425
		c-43.214-127.357-56.781-262.297-58.151-396.185c-1.098-103.877,39.65-252.886-22.886-343.653
		c-20.693-29.966-51.162-50.842-85.468-62.582c-40.016-13.704-85.285-15.029-126.306-4.157
		c-219.357,58.197-343.287,348.769-364.62,554.011c-12.659,121.578-5.593,245.283,21.011,364.631
		c-41.631,7.266-81.975,24.785-116.241,49.653c-63.738,46.256-108.336,114.959-138.472,187.719
		c-73.192,176.715-64.512,385.448,23.1,555.476c10.544,20.461,24.66,42.299,47.136,47.262c17.405,3.844,35.288-3.701,50.475-13.033
		c62.786-38.579,98.568-105.755,118.927-178.195c59.031,170.048,190.109,314.227,354.51,387.883
		c21.005,9.411,45.663,17.668,66.325,7.523c15.999-7.856,25.267-24.911,31.312-41.679c15.802-43.831,16.003-89.857,6.635-135.301
		c-2.561-22.509-7.139-44.519-13.542-65.11c-23.703-76.228-71.649-141.304-114.541-207.527
		c-16.616-25.654-31.883-51.787-45.26-78.63c4.727,5.074,9.481,10.121,14.307,15.093c0.508,0.523,1.029,1.03,1.539,1.55
		c0.457,0.469,0.925,0.927,1.384,1.396c93.03,120.565,260.767,201.774,400.576,234.908c0.542,0.129,1.089,0.265,1.63,0.392
		c1.184,0.278,2.36,0.542,3.54,0.814c0.925,0.213,1.847,0.42,2.77,0.629c1.085,0.244,2.185,0.446,3.272,0.687
		c6.391,1.424,12.802,2.8,19.261,4.042c86.793,16.719,195.33,15.44,276.138-28.641c3.714-2.028,7.261-4.203,10.733-6.442
		c0.703-0.454,1.414-0.899,2.108-1.361c3.25-2.166,6.389-4.426,9.427-6.77c0.699-0.54,1.381-1.093,2.069-1.641
		c3.065-2.444,6.058-4.947,8.906-7.565c0.224-0.205,0.432-0.422,0.653-0.628c2.741-2.547,5.364-5.185,7.909-7.883
		c0.514-0.544,1.039-1.081,1.545-1.632c2.576-2.804,5.049-5.685,7.425-8.636c0.452-0.561,0.894-1.13,1.339-1.696
		c2.445-3.113,4.815-6.279,7.049-9.539c0.026-0.038,0.051-0.077,0.076-0.115c2.355-3.44,4.586-6.966,6.716-10.555
		c0.132-0.224,0.271-0.443,0.403-0.667c2.146-3.647,4.181-7.365,6.104-11.15c0.025-0.049,0.055-0.096,0.08-0.145
		c0.051-0.099,0.095-0.203,0.146-0.302c0.243-0.479,0.487-0.958,0.727-1.439c15.592,10.197,29.919,21.16,47.351,28.822l0.221,0.096
		c3.162,1.383,6.53,2.679,9.951,2.275c4.329-0.512,7.874-3.642,10.718-6.947c12.088-14.05,13.909-36.64,16.169-54.232
		c1.323-10.304,2.622-20.706,1.719-31.056c-2.768-31.765-18.95-32.536-45.344-29.111c-4.96,0.644-9.896,1.159-14.797,1.286
		c1.942-14.072,3.124-28.247,3.653-42.275c1.362-34.89-5.734-64.205-18.586-89.912c3.233-2.202,5.348-6.949,3.584-10.995
		c-21.396-49.057-67.542-87.615-108.98-119.644c-44.759-34.597-92.724-65.16-134.966-102.948
		c-43.695-39.085-107.743-106.442-87.357-170.951c16.701-52.849,103.215-76.435,151.265-57.005c0.083,0.034,0.154,0.012,0.235,0.04
		c25.642,15.003,49.59,33.165,71.225,53.751c69.62,66.247,107.188,150.035,142.5,237.539
		c30.493,75.563,70.132,151.511,150.41,182.558c11.27,4.359,16.976-11.706,8.813-18.361c26.199-9.665,33.333-51.208,37.973-92.734
		C1808.075,1312.645,1762.486,1175.878,1719.775,1071.91z"/>
	<path style="fill:#F2C52D;" d="M1719.775,1071.91c-22.52-54.907-50.294-108.719-91.223-151.704
		c-157.755-165.654-387.15-100.193-506.677,56.968c-12.168,16-23.175,32.961-32.874,50.713
		c-5.766,10.554-11.091,21.375-15.876,32.466c-0.105,0.242-0.195,0.491-0.3,0.733c-33.578,45.512-39.544,113.039-34.159,168.672
		c-45.668-55.318-122.921-96.03-193.717-87.355c-3.111,0.381-6.177,0.888-9.222,1.45c-15.029,2.776-29.243,7.696-42.493,14.402
		c-17.664,8.941-33.617,21.023-47.568,35.267c-2.297,2.345-4.543,4.742-6.729,7.199c-10.192,11.46-19.173,24.099-26.792,37.496
		c-0.25-0.011-0.492-0.064-0.75-0.024c-31.656,4.88-59.036,18.733-82.067,38.283c-11.532,3.696-23.136,7.464-34.587,11.848
		c-9.468,3.625-18.581,7.958-27.343,12.876c-2.77,1.555-5.465,3.234-8.163,4.909c-0.006,0.004-0.015,0.009-0.021,0.013
		c-2.492-5.347-4.959-10.703-7.363-16.078c-1.199-2.678-2.368-5.365-3.545-8.05c-2.513-5.734-4.977-11.48-7.392-17.242
		c-1.121-2.675-2.251-5.346-3.351-8.027c-3.345-8.154-6.623-16.324-9.768-24.524c-19.27-50.246-34.712-101.9-46.413-154.389
		c-41.631,7.266-81.975,24.785-116.241,49.653c-63.738,46.256-108.336,114.959-138.472,187.719
		c-73.192,176.715-64.512,385.448,23.1,555.476c10.544,20.461,24.66,42.299,47.136,47.262c17.405,3.844,35.288-3.701,50.475-13.033
		c62.786-38.579,98.568-105.755,118.927-178.195c59.031,170.048,190.109,314.227,354.51,387.883
		c21.005,9.411,45.663,17.668,66.325,7.523c15.999-7.856,25.267-24.911,31.312-41.679c15.802-43.831,16.003-89.857,6.635-135.301
		c-2.561-22.509-7.139-44.519-13.542-65.11c-23.703-76.228-71.649-141.304-114.541-207.527
		c-16.616-25.654-31.883-51.787-45.26-78.63c4.727,5.074,9.481,10.121,14.307,15.093c0.508,0.523,1.029,1.03,1.539,1.55
		c0.457,0.469,0.925,0.927,1.384,1.396c93.03,120.565,260.767,201.774,400.576,234.908c0.542,0.129,1.089,0.265,1.63,0.392
		c1.184,0.278,2.36,0.542,3.54,0.814c0.925,0.213,1.847,0.42,2.77,0.629c1.085,0.244,2.185,0.446,3.272,0.687
		c6.391,1.424,12.802,2.8,19.261,4.042c86.793,16.719,195.33,15.44,276.138-28.641c3.714-2.028,7.261-4.203,10.733-6.442
		c0.703-0.454,1.414-0.899,2.108-1.361c3.25-2.166,6.389-4.426,9.427-6.77c0.699-0.54,1.381-1.093,2.069-1.641
		c3.065-2.444,6.058-4.947,8.906-7.565c0.224-0.205,0.432-0.422,0.653-0.628c2.741-2.547,5.364-5.185,7.909-7.883
		c0.514-0.544,1.039-1.081,1.545-1.632c2.576-2.804,5.049-5.685,7.425-8.636c0.452-0.561,0.894-1.13,1.339-1.696
		c2.445-3.113,4.815-6.279,7.049-9.539c0.026-0.038,0.051-0.077,0.076-0.115c2.355-3.44,4.586-6.966,6.716-10.555
		c0.132-0.224,0.271-0.443,0.403-0.667c2.146-3.647,4.181-7.365,6.104-11.15c0.025-0.049,0.055-0.096,0.08-0.145
		c0.051-0.099,0.095-0.203,0.146-0.302c0.246-0.477,0.462-0.974,0.704-1.453c0.008,0.005,0.016,0.01,0.024,0.015
		c15.592,10.197,29.919,21.16,47.351,28.822l0.221,0.096c3.162,1.383,6.53,2.679,9.951,2.275c4.329-0.512,7.874-3.642,10.718-6.947
		c12.088-14.05,13.909-36.64,16.169-54.232c1.323-10.304,2.622-20.706,1.719-31.056c-2.768-31.765-18.95-32.536-45.344-29.111
		c-4.96,0.644-9.896,1.159-14.797,1.286c1.942-14.072,3.124-28.247,3.653-42.275c1.362-34.89-5.734-64.205-18.586-89.912
		c3.233-2.202,5.348-6.949,3.584-10.995c-21.396-49.057-67.542-87.615-108.98-119.644c-44.759-34.597-92.724-65.16-134.966-102.948
		c-43.695-39.085-107.743-106.442-87.357-170.951c16.701-52.849,103.215-76.435,151.265-57.005c0.083,0.034,0.154,0.012,0.235,0.04
		c25.642,15.003,49.59,33.165,71.225,53.751c69.62,66.247,107.188,150.035,142.5,237.539
		c30.493,75.563,70.132,151.511,150.41,182.558c11.27,4.359,16.976-11.706,8.813-18.361c26.199-9.665,33.333-51.208,37.973-92.734
		C1808.075,1312.645,1762.486,1175.878,1719.775,1071.91z"/>
	<path style="fill:#E6A10D;" d="M1719.775,1071.91c-22.52-54.907-50.294-108.719-91.223-151.704
		c-157.755-165.654-387.15-100.193-506.677,56.968c-12.168,16-23.175,32.961-32.874,50.713
		c-5.766,10.554-11.091,21.375-15.876,32.466c0.212-0.17,0.438-0.321,0.65-0.491c-0.311,0.412-0.643,0.809-0.95,1.224
		c-33.578,45.512-39.544,113.039-34.159,168.672c-45.668-55.318-122.921-96.03-193.717-87.355c-3.111,0.381-6.177,0.888-9.222,1.45
		c-15.029,2.776-29.243,7.696-42.493,14.402c-17.664,8.941-33.617,21.023-47.568,35.267c-2.297,2.345-4.543,4.742-6.729,7.199
		c-10.192,11.46-19.173,24.099-26.792,37.496c-0.25-0.011-0.492-0.064-0.75-0.024c-31.656,4.88-59.036,18.733-82.067,38.283
		c-21.204,17.998-38.689,40.839-52.353,66.078c-0.005,0.009-0.009,0.018-0.014,0.027c-20.774,38.377-32.745,82.221-35.454,122.829
		c-8.473,127.006,52.541,258.421,123.242,360.708c3.183,4.606,9.595,0.683,7.395-4.323
		c-47.802-108.781-112.581-208.586-112.665-331.962c-0.032-46.036,9.916-88.516,28.769-125.713c0.001-0.002,0.001-0.003,0.002-0.005
		c24.734-48.795,64.833-88.469,118.095-115.008c-5.396,10.792-9.954,21.964-13.568,33.327
		c-7.501,23.582-11.655,48.109-13.226,72.984c-4.134,65.439,10.197,133.311,32.587,193.274c0.015,0.039,0.028,0.079,0.043,0.118
		c0.604,1.618,1.175,3.268,1.79,4.875c32.225,84.028,88.7,154.355,133.739,231.397c26.164,44.757,48.063,92.392,56.634,143.874
		c10.352,62.182-2.403,118.722-19.503,178.096c-2.255,7.83,9.366,12.975,13.306,5.611c26.461-49.458,33.468-110.17,26.941-167.543
		c-2.561-22.509-7.139-44.519-13.542-65.11c-23.703-76.228-71.649-141.304-114.541-207.527
		c-16.616-25.654-31.883-51.787-45.26-78.63c4.727,5.074,9.481,10.121,14.307,15.093c0.508,0.523,1.029,1.03,1.539,1.55
		c0.457,0.469,0.925,0.927,1.384,1.396c93.03,120.565,260.767,201.774,400.576,234.908c0.542,0.129,1.089,0.265,1.63,0.392
		c1.184,0.278,2.36,0.542,3.54,0.814c0.925,0.213,1.847,0.42,2.77,0.629c1.085,0.244,2.185,0.446,3.272,0.687
		c6.391,1.424,12.802,2.8,19.261,4.042c86.793,16.719,195.33,15.44,276.138-28.641c3.714-2.028,7.261-4.203,10.733-6.442
		c0.703-0.454,1.414-0.899,2.108-1.361c3.25-2.166,6.389-4.426,9.427-6.77c0.699-0.54,1.381-1.093,2.069-1.641
		c3.065-2.444,6.058-4.947,8.906-7.565c0.224-0.205,0.432-0.422,0.653-0.628c2.741-2.547,5.364-5.185,7.909-7.883
		c0.514-0.544,1.039-1.081,1.545-1.632c2.576-2.804,5.049-5.685,7.425-8.636c0.452-0.561,0.894-1.13,1.339-1.696
		c2.445-3.113,4.815-6.279,7.049-9.539c0.026-0.038,0.051-0.077,0.076-0.115c2.355-3.44,4.586-6.966,6.716-10.555
		c0.132-0.224,0.271-0.443,0.403-0.667c2.146-3.647,4.181-7.365,6.104-11.15c0.025-0.049,0.055-0.096,0.08-0.145
		c-0.003,0.001-0.005,0.001-0.007,0.002c-95.745,19.595-196.969,5.206-288.555-29.511c-97.619-37-185.417-95.974-267.001-161.068
		c-28.961-23.115-57.284-47.097-83.047-73.682c-50.426-52.25-98.75-117.594-126.277-188.717
		c-4.669-12.064-8.747-24.291-12.126-36.652c-0.605-2.212-1.166-4.431-1.726-6.652c-3.937-15.609-6.788-31.41-8.306-47.342
		c6.572-6.29,13.732-12.162,21.521-17.552c0.757-0.524,1.482-1.073,2.252-1.589c5.813-3.891,11.809-7.244,17.928-10.17
		c2.557-1.223,5.133-2.378,7.736-3.437c36.362-14.787,76.862-13.631,114.517,0.64c39.348,14.913,69.997,41.173,101.97,66.762
		c5.462,4.372,10.968,8.717,16.558,12.99c0.823,0.629,1.637,1.265,2.463,1.891c1.542,1.166,3.295,0.765,4.595-0.295
		c1.615-1.316,2.513-3.671,1.264-5.565c-1.271-1.928-2.587-3.842-3.936-5.744c-0.064-5.999-0.092-12.065-0.058-18.192
		c0.254-46.754,4.131-96.484,24.014-138.482c5.935-12.535,14.141-22.764,23.847-31.168c13.159-11.392,29.121-19.357,46.168-24.882
		c18.827-6.101,38.939-9.268,58.016-10.756c45.952-3.584,90.892,4.151,132.801,20.288c-7.028-0.036-14.346,0.547-22.199,1.884
		c-26.187,4.459-53.295,16.06-72.941,34.234c-26.224,24.259-31.847,54.593-26.493,84.932c5.532,31.347,22.785,62.7,41.254,87.36
		c14.856,19.836,31.676,37.668,49.685,54.244c30.207,27.801,63.763,52.063,97.037,76.284c28.334,20.624,56.655,41.407,82.694,64.919
		c26.88,24.271,47.58,52.229,69.588,80.708c2.649,3.428,6.043,3.326,8.691,1.524c3.233-2.202,5.348-6.949,3.584-10.995
		c-21.396-49.057-67.542-87.615-108.98-119.644c-44.759-34.597-92.724-65.16-134.966-102.948
		c-43.695-39.085-107.743-106.442-87.357-170.951c16.701-52.849,103.215-76.435,151.265-57.005c0.083,0.034,0.154,0.012,0.235,0.04
		c25.642,15.003,49.59,33.165,71.225,53.751c69.62,66.247,107.188,150.035,142.5,237.539
		c30.493,75.563,70.132,151.511,150.41,182.558c11.27,4.359,16.976-11.706,8.813-18.361c26.199-9.665,33.333-51.208,37.973-92.734
		C1808.075,1312.645,1762.486,1175.878,1719.775,1071.91z"/>
	<path style="fill:#FADB51;" d="M1719.775,1071.91c-22.52-54.907-50.294-108.719-91.223-151.704
		c-157.755-165.654-387.15-100.193-506.677,56.968c-12.168,16-23.175,32.961-32.874,50.713
		c-5.766,10.554-11.091,21.375-15.876,32.466c0.212-0.17,0.438-0.321,0.65-0.491c5.49-7.265,11.678-13.967,18.676-19.932
		c3.614-3.08,7.431-5.974,11.474-8.65c10.118-6.694,20.908-12.164,32.115-16.683c54.546-21.997,119.815-19.596,175.026-5.09
		c49.963,13.126,95.981,37.402,135.993,69.487c18.618,13.067,35.05,29.139,49.546,47.1
		c48.763,54.621,82.566,118.898,108.631,186.994c30.154,78.782,61.903,172.75,148.885,204.526c1.277,0.467,2.319,1.128,3.235,1.874
		c26.199-9.665,33.333-51.208,37.973-92.734C1808.075,1312.645,1762.486,1175.878,1719.775,1071.91z"/>
	<path style="fill:#E6A10D;" d="M296.904,1917.923c17.405,3.844,35.288-3.701,50.475-13.033
		c62.786-38.579,98.568-105.755,118.927-178.195c-3.646-10.504-7.046-21.096-10.133-31.787
		c-21.849-75.661-29.866-157.178-8.918-233.094c17.395-63.045,56.945-121.518,111.959-155.691
		c-2.492-5.347-4.959-10.703-7.363-16.078c-1.199-2.678-2.368-5.365-3.545-8.05c-2.513-5.734-4.977-11.48-7.392-17.242
		c-1.121-2.675-2.251-5.346-3.351-8.027c-3.345-8.154-6.623-16.324-9.768-24.524c-19.27-50.246-34.712-101.9-46.413-154.389
		c-41.631,7.266-81.975,24.785-116.241,49.653c-63.738,46.256-108.336,114.959-138.472,187.719
		c-73.192,176.715-64.512,385.448,23.1,555.476C260.311,1891.122,274.427,1912.96,296.904,1917.923z"/>
	<path style="fill:#F2C52D;" d="M1348.429,925.155c105.519-24.505,186.582,46.177,242.792,127.385
		c26.824,38.753,50.981,79.463,72.104,121.589c21.145,42.167,35.883,87.495,57.538,129.264c3.589,6.922,12.847,1.761,11.741-4.95
		c-8.682-52.714-34.838-105.064-59.063-152.202c-24.423-47.525-52.368-93.774-85.338-135.898
		c-55.625-71.066-151.095-140.48-244.311-95.95C1337.661,917.369,1342.173,926.608,1348.429,925.155z"/>
	<path style="fill:#FADB51;" d="M1291.054,1604.331c31.563,27.839,64.264,51.531,95.541,69.465
		c22.956,13.162,47.646,25.031,74.072,26.388c26.425,1.358,55.007-10.036,67.231-33.504c11.876-22.798,6.004-50.806-4.013-74.48
		c-26.89-63.543-79.813-112.001-134.199-154.584c-0.793-0.621-1.582-1.253-2.375-1.871
		c-55.218-43.032-114.074-83.206-157.185-138.361c-41.531-53.134-64.217-120.858-48.358-187.337
		c0.538-2.251,0.998-4.506,1.625-6.754c-1.192,1.129-2.297,2.278-3.458,3.414c-17.935,17.542-32.198,35.942-43.165,54.973
		c-24.596,42.684-32.689,88.509-28.536,134.845C1118.293,1408.773,1199.898,1523.93,1291.054,1604.331z"/>
	<path style="fill:#FEE3BE;" d="M844.949,1142.402c70.796-8.675,148.048,32.036,193.717,87.355
		c-5.385-55.632,0.581-123.159,34.159-168.672c0.104-0.242,0.195-0.491,0.3-0.733c4.785-11.091,10.11-21.912,15.876-32.466
		c-2.468-8.399-5.025-16.766-7.508-25.095c-31.656-106.18-51.351-215.904-58.789-326.448
		c-5.532-82.21,57.503-331.432-71.681-342.602c-166.565-14.397-210.303,406.081-211.309,520.66
		c-0.345,39.259,0.638,86.907,6.312,135.593c4.616,39.609,12.368,79.885,25.005,116.913c6.16,18.05,13.496,35.31,22.203,51.347
		c13.25-6.706,27.464-11.625,42.493-14.402C838.772,1143.29,841.838,1142.784,844.949,1142.402z"/>
	<path style="fill:#462912;" d="M1591.041,1764.132c4.102,5.251,11.48,8.453,17.641,5.917c6.227-2.562,9.08-9.662,10.906-16.144
		c7.039-24.974,11.333-51.545,5.5-77.152c-1.405-6.172-4.472-13.311-10.739-14.208c-17.251-2.472-25.464,25.495-27.637,37.33
		c-2.693,14.663-3.889,30.721-2.056,45.582C1585.471,1752.069,1586.94,1758.882,1591.041,1764.132z"/>
	<path style="fill:#FAD39A;" d="M824.989,159.171c-219.357,58.197-343.287,348.769-364.62,554.011
		c-12.659,121.578-5.593,245.283,21.011,364.631c11.701,52.489,27.143,104.143,46.413,154.389c3.146,8.199,6.423,16.37,9.768,24.524
		c1.1,2.681,2.23,5.352,3.351,8.027c2.415,5.762,4.879,11.509,7.392,17.242c1.177,2.685,2.346,5.371,3.545,8.05
		c2.405,5.373,4.893,10.72,7.384,16.064c2.698-1.675,5.393-3.354,8.163-4.909c8.762-4.918,17.875-9.251,27.343-12.876
		c11.451-4.385,23.055-8.153,34.587-11.848c23.031-19.55,50.411-33.403,82.067-38.283c0.258-0.04,0.5,0.013,0.75,0.024
		c7.619-13.397,16.6-26.035,26.792-37.496c2.186-2.458,4.432-4.854,6.729-7.199c-9.581-25.551-17.926-51.36-25.083-77.368
		c-90.205-327.835,9.502-687.013,230.712-952.826C911.28,149.624,866.01,148.299,824.989,159.171z"/>
	<path style="fill:#D7B787;" d="M568.375,1078.718c13.312,55.748,30.864,112.016,57.716,162.663
		c0.588,1.109,1.392,1.885,2.296,2.423c4.216,2.509,10.828-0.761,10.521-6.043c-0.031-0.536-0.109-1.086-0.294-1.66
		c-16.169-50.264-31.276-99.918-43.616-150.037c-16.398-66.599-27.895-134.025-30.36-204.827
		c-5.181-148.831,24.033-298.338,84.729-434.331c20.772-46.541,48.249-89.645,69.06-135.977c3.157-7.029-5.612-15.79-11.602-8.952
		c-29.391,33.549-49.95,75.367-68.877,115.488c-28.17,59.713-50.748,122.079-66.892,186.108
		c-38.242,151.676-40.327,311.376-5.38,463.851C566.539,1071.183,567.476,1074.953,568.375,1078.718z"/>
	<path style="fill:#E18017;" d="M755.768,1476.156c63.075,99.465,161.129,178.251,264.596,232.788
		c52.142,27.484,107.484,49.328,164.347,64.825c29.256,7.974,58.964,14.251,88.955,18.734c27.264,4.076,56.998,10.326,83.889,2.028
		c8-2.469,6.99-12.442,0-15.279c-25.161-10.213-54.301-9.069-80.93-12.92c-28.66-4.145-57.079-9.977-85.087-17.324
		c-56.425-14.801-110.91-35.946-162.734-62.696c-103.821-53.588-188.419-129.166-265.805-215.735
		C759.522,1466.688,752.971,1471.745,755.768,1476.156z"/>
</g>
</svg>
