<?xml version="1.0" encoding="utf-8"?>
<!-- Generator: Adobe Illustrator 27.5.0, SVG Export Plug-In . SVG Version: 6.00 Build 0)  -->
<svg version="1.1" id="Capa_1" xmlns="http://www.w3.org/2000/svg" xmlns:xlink="http://www.w3.org/1999/xlink" x="0px" y="0px"
	 viewBox="0 0 2122 2122" style="enable-background:new 0 0 2122 2122;" xml:space="preserve">
<g>
	<path style="fill:#649032;" d="M1761.86,405.24c9.412-11.396,19.726-22.634,31.206-31.99c8.983-7.321,29.091-13.556,34.059-23.297
		c-50.759-4.43-79.237,26.38-118.662,50.285c-1.352-21.097,7.06-38.032,18.655-54.436c-27.901,12.12-53.67,21.827-68.349,49.093
		c-7.073,13.137-22.06,43.02-42.318,37.896c-40.721-10.3,15.423-117.511,26.698-134.236c-18.709,5.477-32.941,15.936-45.186,30.816
		c8.067-28.136,13.72-57.008,22.028-85.32c-26.838,20.194-41.702,39.942-58.064,68.509c-4.71-15.871-4.101-35.783,1.209-51.461
		c-17.057,1.523-34.657,35.504-40.754,49.276c-11.566,26.133-11.982,54.093-12.16,82.118c-0.088,14.083-6.008,71.285-31.637,48.31
		c-12.778-11.455-12.788-48.871-14.523-64.35c-2.345-20.936-4.832-41.612-4.671-62.741c-9.246,15.947-17.281,32.477-19.495,51.256
		c-16.795-2.024-35.444-37.829-42.169-52.172c-10.847,36.499-32.545,83.015-7.063,118.32c-9.845-4.01-20.708-8.526-30.505-14.244
		c-2.851,10.539-5.941,21.255-9.25,32.033c12.629,18.396,34.731,29.533,60.513,39.453c16.401,6.311,35.912,18.204,36.439,36.281
		c24.22-5.366,48.562-9.754,73.051-13.413c136.637-33.771,278.636-14.041,417.709-34.947l0.089,0.43
		c-75.788,19.958-150.235,18.743-227.893,20.737c-16.358,0.421-32.631,1.384-48.861,2.629
		c-59.999,8.064-119.706,18.49-178.224,33.986c-12.359,3.273-24.529,6.921-36.581,10.807c-1.995,14.831-16.749,27.165-29.85,34.965
		c-39.511,23.525-68.613,48.537-55.38,98.455c9.317-16.449,28.544-28.503,44.678-38.542c-19.098,39.09,10.214,81.275,27.123,115.419
		c4.185-15.27,16.463-53.699,32.669-58.524c5.38,18.134,16.118,33.07,27.948,47.229c-3.76-20.797-4.833-41.592-6.089-62.621
		c-0.928-15.547-7.294-52.424,3.347-65.867c21.342-26.962,36.924,28.416,39.412,42.28c4.951,27.59,10.125,55.075,25.978,78.881
		c8.354,12.546,31.491,43.069,48.561,41.697c-7.906-14.557-11.899-34.079-9.961-50.515c20.993,25.397,39.007,42.354,68.899,57.733
		c-13.013-26.502-23.503-54.004-36.248-80.374c14.602,12.601,30.412,20.511,49.783,22.755
		c-13.962-14.584-87.563-110.78-49.187-127.795c19.093-8.464,38.955,18.461,48.164,30.216
		c19.114,24.398,46.163,29.622,75.727,36.863c-14.222-14.212-25.399-29.485-27.661-50.504
		c42.927,16.916,76.243,42.48,125.513,29.561c-6.556-8.764-27.435-11.52-37.536-17.221c-12.908-7.285-24.988-16.622-36.205-26.268
		c69.441,4.866,119.7-94.607,177.888-124.335c3.124-1.341,6.144-2.684,8.942-4.03C1898.523,461.825,1832.908,387.902,1761.86,405.24
		z"/>
	<path style="fill:#446E36;" d="M1938.622,476.28c-139.073,20.907-281.073,1.176-417.709,34.947
		c-24.489,3.659-48.831,8.046-73.051,13.413c-8.193,1.815-16.371,3.74-24.536,5.79c-25.956,6.516-51.805,13.593-77.37,21.495
		c-13.586,4.2-27.915,8.055-41.678,13.036c-7.808,15.148-16.219,30.206-25.047,44.9c56.202-21.999,110.58-46.501,167.923-64.992
		c12.052-3.886,24.222-7.534,36.581-10.807c58.517-15.497,118.225-25.922,178.224-33.986c16.23-1.245,32.502-2.209,48.861-2.629
		c77.658-1.995,152.105-0.78,227.893-20.737L1938.622,476.28z"/>
	<path style="fill:#6E3D18;" d="M1378.557,263.307c-13.499-16.091-63.676-12.264-72.461,5.052
		c17.573,92.043-27.599,265.216-92.359,374.816c-14.64,24.778-33.812,49.78-55.384,72.317c0.226,2.427,0.392,4.86,0.508,7.299
		c0.017,0.368,0.045,0.734,0.06,1.102c0.229,5.62,0.185,11.266-0.181,16.92c9.304-4.205,18.981-7.53,28.903-9.946
		c30.307-29.975,63.073-73.543,91.586-121.007c8.829-14.695,17.239-29.752,25.047-44.9c12.922-25.066,24.193-50.355,32.869-74.561
		c4.93-13.756,9.522-27.671,13.765-41.494c3.309-10.778,6.399-21.494,9.25-32.033
		C1380.526,341.585,1388.788,275.501,1378.557,263.307z"/>
	<path style="fill:#764897;" d="M849.737,657.102c-7.646,15.069-12.706,30.761-15.353,46.578
		c-54.344-21.757-114.678-12.376-159.303,21.065c-1.127-8.265-2.905-16.414-5.277-24.388c2.379,7.985,4.073,16.164,5.203,24.441
		c-19.333,14.505-35.724,33.503-47.371,56.458c-12.156,23.959-17.711,49.488-17.474,74.592c-0.009-0.015-0.019-0.029-0.028-0.044
		c0.002,0.193,0.017,0.384,0.025,0.577c0.008,0.615-0.026,1.232-0.011,1.847c-3.23-1.907-6.517-3.754-9.921-5.463
		c-62.172-31.197-134.859-19.13-183.508,24.805c-2.002-1.452-4.009-2.9-5.928-4.43c1.919,1.53,3.888,3.012,5.889,4.464
		c-14.383,12.999-26.688,28.754-35.966,47.04c-12.154,23.955-17.73,49.476-17.486,74.573c15.351,25.824,38.022,47.75,66.953,62.267
		c80.576,40.433,178.855,8.251,219.512-71.879c12.149-23.944,17.732-49.457,17.503-74.547c-0.758-1.276-1.503-2.557-2.297-3.813
		c3.947,2.419,7.988,4.736,12.204,6.851c80.576,40.433,178.855,8.251,219.512-71.88c12.149-23.944,17.732-49.457,17.502-74.547
		c6.817,11.473,12.18,23.72,15.994,36.434c-0.259-0.863-0.515-1.728-0.788-2.586c73.562,20.282,153.692-13.091,189.393-83.454
		c12.149-23.944,17.731-49.458,17.502-74.547c-15.351-25.835-38.03-47.771-66.969-62.292
		c-58.195-29.201-125.611-20.511-173.897,16.747c-0.122-1.846-0.285-3.686-0.471-5.524c0.188,1.85,0.291,3.711,0.415,5.57
		C876.75,616.34,861.019,634.867,849.737,657.102z"/>
	<path style="fill:#764897;" d="M1359.666,982.812c-6.377-4.441-13.131-8.503-20.285-12.092
		c-20.809-10.443-42.798-16.003-64.672-17.184c31.243-14.987,57.969-39.912,74.802-73.088
		c12.149-23.945,17.732-49.457,17.503-74.547c-15.351-25.835-38.029-47.771-66.969-62.293
		c-36.175-18.152-75.906-21.626-112.401-12.739c-9.922,2.417-19.599,5.741-28.903,9.946c0.365-5.654,0.409-11.3,0.181-16.92
		c0.231,5.63,0.114,11.289-0.251,16.952c-32.674,14.784-60.708,40.289-78.138,74.64c-1.778,3.505-3.367,7.053-4.867,10.619
		c-47.551-15.527-98.582-8.063-139.075,17.736l-0.058,0.038c-23.769,15.158-43.914,36.613-57.555,63.497
		c-11.611,22.883-17.244,47.2-17.523,71.209c-1.484-0.802-2.951-1.623-4.469-2.385c-55.575-27.888-119.566-21.22-167.27,11.888
		l-0.041,0.03c-21.441,14.891-39.595,35.115-52.201,59.961c-11.827,23.309-17.434,48.106-17.515,72.551
		c-2.313-1.303-4.662-2.565-7.061-3.769c-58.568-29.389-126.468-20.383-174.816,17.484l-0.074,0.059
		c-13.644,10.7-25.729,23.691-35.6,38.783c-28.715,11.493-61.888,14.854-88.061,10.628c-37.173-6.003-61.425-38.854-45.254-73.859
		c11.782-25.506,39.665-47.094,73.643-58.22c9.561-3.131,19.057-4.344,28.317-4.176l-2.438-8.339
		c-47.075,0.995-92.064,27.137-114.755,71.857c-9.784,19.283-14.272,39.827-14.072,60.029
		c12.357,20.784,30.604,38.432,53.889,50.116c27.27,13.684,57.052,16.998,84.854,11.492c-1.037,5.622-1.78,11.26-2.21,16.898
		c-29.372-0.383-58.178,9.063-81.557,26.752l-0.034,0.024c-15.363,11.631-28.384,26.812-37.667,45.107
		c-9.784,19.283-14.272,39.827-14.073,60.028c12.355,20.784,30.604,38.432,53.89,50.117c27.425,13.762,57.388,17.036,85.324,11.397
		c-0.323,0.616-0.672,1.207-0.987,1.828c-5.276,10.398-9.296,21.094-12.166,31.921c-6.346-4.809-13.196-9.136-20.576-12.839
		c-26.935-13.516-56.322-16.921-83.829-11.697l-0.056,0.011c-38.705,7.367-73.679,31.849-92.805,69.543
		c-9.784,19.283-14.272,39.827-14.073,60.029c12.357,20.784,30.604,38.431,53.889,50.116
		c64.857,32.544,143.963,6.641,176.689-57.857c9.779-19.274,14.273-39.809,14.089-60.005c11.045,18.588,17.315,39.696,18.221,61.329
		l0.088,0.811c3.247,1.921,6.57,3.76,9.995,5.479c80.577,40.433,178.855,8.251,219.512-71.879
		c12.149-23.945,17.732-49.458,17.503-74.548c4.912,8.265,9.037,16.943,12.403,25.896c-0.403-1.075-0.779-2.161-1.206-3.227
		c2.943,1.713,5.92,3.389,9.007,4.937c4.651,2.334,9.366,4.398,14.12,6.253c-5.4,4.585-10.467,9.609-15.108,15.089
		c-0.176-0.819-0.435-1.615-0.624-2.431c0.189,0.83,0.395,1.655,0.574,2.487c-8.425,9.959-15.493,21.34-20.789,33.993
		c-8.353,19.958-11.283,40.785-9.598,60.938c-0.017-0.024-0.038-0.047-0.055-0.072c0.075,0.909,0.211,1.809,0.318,2.713
		c0.124,1.192,0.2,2.392,0.356,3.579c-60.15-18.393-126.639,8.378-155.943,66.133c-1.455,2.869-2.754,5.775-3.979,8.694
		c-10.823-12.303-24.135-22.801-39.712-30.618c-64.857-32.544-143.964-6.641-176.689,57.857c-3.789,7.468-6.756,15.13-9,22.884
		c-3.562,12.305-5.128,24.842-5.001,37.255c12.356,20.735,30.576,38.343,53.819,50.006c64.857,32.545,143.963,6.641,176.689-57.857
		c9.78-19.273,14.272-39.809,14.089-60.005c0.77,1.297,1.431,2.647,2.156,3.967c1.155,2.108,2.289,4.225,3.325,6.389
		c0.615,1.284,1.173,2.592,1.745,3.895c0.914,2.081,1.789,4.177,2.593,6.301c6.493,17.144,9.441,35.584,8.314,54.131
		c-0.044,0.734-0.016,0.655-0.016,0.655c3.696,2.344,7.489,4.585,11.486,6.592c64.857,32.544,143.964,6.641,176.69-57.857
		c9.779-19.273,14.272-39.809,14.088-60.004c-3.332-5.609-7.094-10.985-11.272-16.08c61.968,21.89,130.612-5.34,160.652-63.068
		c0.682,1.023,1.362,2.045,2.073,3.05c-9.505-13.44-16.331-28.517-20.226-44.354c-0.139-0.565-0.252-1.138-0.384-1.705
		c-0.56-2.416-1.053-4.849-1.475-7.296c-0.115-0.662-0.236-1.324-0.339-1.989c-0.468-2.984-0.86-5.982-1.12-9
		c-0.005-0.05-0.005-0.102-0.01-0.152c-0.253-2.977-0.379-5.97-0.426-8.969c-0.004-0.265-0.005-0.532-0.008-0.797
		c12.356,20.772,30.597,38.411,53.872,50.09c64.857,32.545,143.964,6.641,176.69-57.857c9.766-19.248,14.258-39.755,14.087-59.925
		c-4.558-7.682-9.883-14.956-16.015-21.638c-10.485-11.425-23.176-21.199-37.888-28.582c-33.981-17.051-71.865-18.033-104.949-5.85
		l-0.064,0.022c-13.562,5.002-26.302,12.225-37.644,21.463c0.036-0.072,0.077-0.139,0.113-0.211
		c12.149-23.944,17.732-49.457,17.503-74.547c-2.566-4.318-5.335-8.522-8.306-12.605c6.002,4.101,12.312,7.891,18.995,11.244
		c80.576,40.433,178.855,8.251,219.512-71.879c12.149-23.944,17.731-49.457,17.502-74.547c3.294,5.544,6.231,11.276,8.835,17.147
		c-0.167-0.378-0.301-0.768-0.471-1.145c78.179,31.964,169.146-0.808,207.864-77.118c12.147-23.939,17.729-49.446,17.502-74.532
		C1394.799,1013.576,1379.088,996.339,1359.666,982.812z"/>
	<path style="fill:#764897;" d="M416.708,810.063c80.576,40.433,178.855,8.251,219.512-71.879
		c12.15-23.944,17.732-49.457,17.503-74.547c5.064,8.521,9.316,17.472,12.735,26.721c-0.342-0.933-0.66-1.875-1.022-2.802
		c73.711,20.6,154.149-12.753,189.939-83.291c12.149-23.944,17.73-49.456,17.503-74.545c-15.339-25.842-38.027-47.772-66.969-62.296
		c-80.576-40.433-178.855-8.251-219.513,71.879c-8.962,17.664-14.366,36.183-16.498,54.755
		c-76.971-28.46-164.795,4.546-202.657,79.165c-12.155,23.957-17.73,49.479-17.483,74.577
		C365.108,773.622,387.779,795.546,416.708,810.063z"/>
	<path style="fill:#82559E;" d="M314.345,1183.816c26.173,4.226,59.346,0.865,88.061-10.628c9.871-15.092,21.956-28.083,35.6-38.783
		c-1.273-0.815-2.506-1.671-3.749-2.517c-0.602-0.409-1.219-0.801-1.815-1.217c-2.805-1.962-5.531-4.001-8.18-6.113
		c-0.545-0.434-1.067-0.888-1.605-1.328c-2.175-1.781-4.294-3.61-6.361-5.488c-0.613-0.558-1.229-1.112-1.833-1.678
		c-4.998-4.685-9.654-9.649-13.965-14.858c-0.438-0.529-0.866-1.062-1.296-1.597c-0.219-0.271-0.442-0.54-0.659-0.812
		c-15.542,15.137-43.034,20.577-62.566,17.423c-18.193-2.938-30.061-19.015-22.147-36.146c5.767-12.483,17.039-19.874,33.668-25.319
		c8.278-2.71,17.06-3.346,25.244-2.3c-0.582-1.625-1.161-3.25-1.692-4.893c-9.26-0.168-18.756,1.045-28.317,4.176
		c-33.979,11.126-61.861,32.714-73.643,58.22C252.92,1144.963,277.172,1177.813,314.345,1183.816z"/>
	<path style="fill:#82559E;" d="M350.702,1265.173c8.256-2.704,17.012-3.339,25.176-2.305c-0.01-1.619-0.025-3.236,0.012-4.858
		c-9.775-0.356-19.83,0.831-29.954,4.146c-33.979,11.127-61.862,32.715-73.644,58.221c-16.171,35.005,8.081,67.856,45.255,73.859
		c31.493,5.085,73.104-0.802,104.887-18.676c-3.246-3.302-6.34-6.721-9.269-10.258c-0.437-0.527-0.863-1.06-1.292-1.592
		c-1.939-2.405-3.812-4.853-5.604-7.353c-0.182-0.254-0.374-0.501-0.554-0.755c-2.032-2.872-3.962-5.804-5.797-8.79
		c-0.139-0.225-0.267-0.455-0.405-0.681c-1.693-2.786-3.292-5.622-4.811-8.497c-0.177-0.334-0.357-0.666-0.531-1.001
		c-2.879-5.543-5.458-11.227-7.676-17.047c-14.928,7.105-33.2,9.334-47.315,7.055c-18.193-2.938-30.061-19.015-22.147-36.146
		C322.8,1278.01,334.072,1270.618,350.702,1265.173z"/>
	<path style="fill:#82559E;" d="M661.542,629.668c59.67,9.635,148.774-12.198,178.813-70.696
		c16.523-32.178-5.325-53.901-30.13-71.095c-29.845-20.685-71.2-36.123-113.413-22.3c-42.214,13.823-76.855,40.644-91.492,72.331
		C585.229,581.397,615.359,622.211,661.542,629.668z"/>
	<path style="fill:#82559E;" d="M924.883,747.467c59.671,9.635,148.774-12.198,178.813-70.696
		c16.523-32.178-5.324-53.901-30.13-71.095c-29.844-20.685-71.199-36.123-113.413-22.3c-42.214,13.823-76.854,40.643-91.492,72.331
		C848.571,699.196,878.701,740.009,924.883,747.467z"/>
	<path style="fill:#82559E;" d="M1093.729,833.257c1.589,0.736,3.184,1.449,4.76,2.241c32.528,16.322,57.184,41.989,72.365,72.06
		c58.67,4.096,136.051-18.683,163.637-72.402c16.523-32.178-5.325-53.901-30.13-71.095c-29.845-20.686-71.199-36.123-113.414-22.301
		c-42.214,13.823-76.854,40.644-91.492,72.331C1096.46,820.574,1094.604,826.994,1093.729,833.257z"/>
	<path style="fill:#82559E;" d="M442.387,763.587c59.671,9.636,148.774-12.198,178.813-70.695
		c16.523-32.178-5.324-53.901-30.13-71.095c-29.845-20.686-71.199-36.124-113.413-22.301
		c-42.215,13.823-76.854,40.644-91.493,72.331C366.075,715.317,396.204,756.13,442.387,763.587z"/>
	<path style="fill:#82559E;" d="M738.052,707.53c-42.214,13.823-76.854,40.643-91.492,72.33
		c-20.089,43.489,10.039,84.302,56.223,91.76c59.671,9.635,148.774-12.199,178.813-70.696c16.524-32.178-5.324-53.901-30.13-71.095
		C821.62,709.145,780.265,693.707,738.052,707.53z"/>
	<path style="fill:#82559E;" d="M634.675,944.313c16.523-32.178-5.325-53.901-30.13-71.095
		c-29.845-20.685-71.199-36.123-113.414-22.3c-42.214,13.823-76.854,40.644-91.492,72.331c-20.09,43.489,10.039,84.303,56.222,91.76
		C515.532,1024.644,604.636,1002.81,634.675,944.313z"/>
	<path style="fill:#82559E;" d="M954.122,997.741c59.671,9.635,148.774-12.199,178.813-70.696
		c16.523-32.178-5.324-53.901-30.13-71.095c-29.845-20.685-71.199-36.122-113.413-22.299c-42.214,13.823-76.855,40.643-91.493,72.33
		C877.809,949.471,907.939,990.284,954.122,997.741z"/>
	<path style="fill:#82559E;" d="M1343.697,991.173c-29.844-20.686-71.199-36.123-113.413-22.3
		c-42.214,13.823-76.855,40.643-91.493,72.331c-20.089,43.489,10.04,84.302,56.223,91.759
		c59.671,9.636,148.774-12.198,178.813-70.696C1390.35,1030.09,1368.503,1008.366,1343.697,991.173z"/>
	<path style="fill:#82559E;" d="M712.618,1138.444c59.671,9.635,148.774-12.198,178.813-70.696
		c16.524-32.177-5.324-53.901-30.13-71.094c-29.844-20.686-71.199-36.123-113.413-22.3c-42.214,13.823-76.854,40.644-91.493,72.331
		C636.305,1090.174,666.435,1130.987,712.618,1138.444z"/>
	<path style="fill:#82559E;" d="M617.212,1137.314c-29.845-20.686-71.199-36.123-113.413-22.3
		c-42.215,13.823-76.854,40.643-91.493,72.331c-20.089,43.489,10.039,84.302,56.223,91.759
		c59.671,9.636,148.774-12.198,178.813-70.696C663.866,1176.232,642.018,1154.508,617.212,1137.314z"/>
	<path style="fill:#82559E;" d="M1109.967,1126.836c-29.845-20.686-71.199-36.123-113.414-22.3
		c-42.214,13.823-76.854,40.643-91.492,72.331c-20.09,43.489,10.039,84.302,56.223,91.76c59.67,9.635,148.774-12.199,178.813-70.696
		C1156.62,1165.753,1134.772,1144.03,1109.967,1126.836z"/>
	<path style="fill:#82559E;" d="M862.263,1274.623c-29.844-20.686-71.199-36.123-113.413-22.3
		c-42.214,13.823-76.854,40.643-91.492,72.331c-20.089,43.489,10.039,84.302,56.223,91.759
		c59.671,9.636,148.774-12.198,178.813-70.696C908.917,1313.54,887.069,1291.816,862.263,1274.623z"/>
	<path style="fill:#82559E;" d="M456.362,1535.234c59.671,9.635,148.774-12.199,178.813-70.696
		c16.523-32.178-5.324-53.901-30.13-71.095c-29.844-20.686-71.199-36.123-113.413-22.301
		c-42.214,13.823-76.855,40.644-91.492,72.331C380.049,1486.964,410.179,1527.777,456.362,1535.234z"/>
	<path style="fill:#82559E;" d="M860.154,1476.233c-5.129-4.555-11.174-8.599-17.428-12.292
		c-25.179-14.865-59.287-24.846-92.36-11.287c-33.073,13.559-59.3,37.11-69.182,63.402c-13.563,36.083,13.031,67.09,50.546,70.383
		c44.475,3.904,107.249-14.924,133.266-55.682C859.602,1513.301,857.843,1494.726,860.154,1476.233z"/>
	<path style="fill:#82559E;" d="M1053.431,1392.049c-24.022-16.65-57.309-29.076-91.288-17.95
		c-33.979,11.126-61.861,32.715-73.644,58.22c-16.171,35.005,8.081,67.856,45.254,73.859c48.03,7.755,119.751-9.819,143.929-56.904
		C1090.984,1423.374,1073.398,1405.888,1053.431,1392.049z"/>
	<path style="fill:#82559E;" d="M681.316,1610.178c-24.023-16.65-57.31-29.076-91.288-17.949
		c-33.978,11.126-61.862,32.714-73.644,58.22c-4.912,10.633-6.048,21.054-4.272,30.597c3.931,6.787,7.228,13.899,9.874,21.243
		c8.995,11.236,23.007,19.331,39.652,22.019c48.03,7.756,119.751-9.818,143.929-56.904
		C718.868,1641.503,701.282,1624.017,681.316,1610.178z"/>
	<path style="fill:#82559E;" d="M376.2,1537.64c13.3-25.901-4.286-43.386-24.252-57.225c-24.022-16.65-57.309-29.076-91.288-17.95
		c-33.979,11.126-61.861,32.714-73.644,58.22c-16.17,35.005,8.081,67.856,45.255,73.859
		C280.301,1602.299,352.021,1584.725,376.2,1537.64z"/>
	<path style="fill:#82559E;" d="M460.936,1646.111c-24.023-16.65-57.309-29.076-91.288-17.95
		c-33.978,11.126-61.861,32.715-73.644,58.22c-16.171,35.005,8.081,67.856,45.254,73.859c48.03,7.756,119.751-9.818,143.93-56.904
		C498.488,1677.436,480.902,1659.95,460.936,1646.111z"/>
	<path style="fill:#9978B4;" d="M335.979,1116.22c19.531,3.154,47.024-2.286,62.566-17.423c-1.704-2.141-3.354-4.318-4.941-6.535
		c-0.182-0.255-0.376-0.503-0.556-0.759c-2.033-2.873-3.964-5.806-5.799-8.792c-0.136-0.222-0.263-0.448-0.398-0.67
		c-1.694-2.788-3.294-5.625-4.814-8.502c-0.177-0.336-0.358-0.669-0.533-1.006c-3.257-6.271-6.093-12.737-8.503-19.359
		c-0.071-0.198-0.141-0.395-0.211-0.593c-0.016-0.042-0.03-0.084-0.045-0.127c-8.184-1.046-16.966-0.411-25.244,2.3
		c-16.629,5.446-27.901,12.837-33.668,25.319C305.918,1097.205,317.786,1113.282,335.979,1116.22z"/>
	<path style="fill:#9978B4;" d="M375.878,1262.868c-8.164-1.034-16.92-0.398-25.176,2.305
		c-16.629,5.445-27.902,12.837-33.668,25.319c-7.914,17.131,3.955,33.208,22.147,36.146c14.115,2.279,32.387,0.05,47.315-7.055
		c-0.292-0.766-0.548-1.545-0.829-2.316c-0.071-0.195-0.139-0.391-0.21-0.586C379.277,1299.492,375.999,1281.298,375.878,1262.868z"
		/>
	<path style="fill:#9978B4;" d="M775.93,511.09c8.087-15.748-2.606-26.38-14.746-34.793c-14.605-10.123-37.793-13.736-58.452-6.971
		c-20.66,6.765-34.664,15.948-41.827,31.456c-9.832,21.283,4.913,41.257,27.515,44.907
		C717.623,550.404,761.229,539.718,775.93,511.09z"/>
	<path style="fill:#9978B4;" d="M1039.271,628.889c8.086-15.747-2.606-26.379-14.746-34.793
		c-14.606-10.123-37.793-13.736-58.453-6.971c-20.659,6.765-34.663,15.948-41.827,31.455c-9.832,21.284,4.914,41.257,27.516,44.907
		C980.963,668.202,1024.57,657.517,1039.271,628.889z"/>
	<path style="fill:#9978B4;" d="M1270.065,787.273c8.087-15.748-2.605-26.38-14.745-34.794
		c-14.606-10.124-37.793-13.736-58.452-6.971c-20.659,6.765-34.663,15.948-41.827,31.456c-9.832,21.283,4.914,41.257,27.515,44.907
		C1211.758,826.587,1255.365,815.902,1270.065,787.273z"/>
	<path style="fill:#9978B4;" d="M556.775,645.01c8.086-15.747-2.606-26.379-14.745-34.793
		c-14.606-10.124-37.793-13.736-58.452-6.971c-20.66,6.765-34.664,15.948-41.827,31.456c-9.832,21.283,4.913,41.257,27.514,44.906
		C498.467,684.323,542.074,673.638,556.775,645.01z"/>
	<path style="fill:#9978B4;" d="M817.17,753.043c8.087-15.747-2.606-26.378-14.745-34.793
		c-14.606-10.124-37.793-13.736-58.453-6.971c-20.659,6.765-34.663,15.948-41.827,31.456c-9.832,21.283,4.913,41.257,27.514,44.906
		C758.862,792.356,802.469,781.671,817.17,753.043z"/>
	<path style="fill:#9978B4;" d="M482.739,931.029c29.202,4.716,72.809-5.97,87.51-34.598c8.087-15.748-2.605-26.379-14.745-34.794
		c-14.606-10.123-37.793-13.735-58.453-6.971c-20.659,6.765-34.663,15.948-41.827,31.455
		C445.392,907.405,460.138,927.38,482.739,931.029z"/>
	<path style="fill:#9978B4;" d="M995.312,837.399c-20.659,6.765-34.664,15.948-41.828,31.456
		c-9.832,21.283,4.914,41.257,27.516,44.906c29.202,4.716,72.809-5.969,87.51-34.598c8.086-15.747-2.606-26.379-14.746-34.793
		C1039.159,834.247,1015.971,830.635,995.312,837.399z"/>
	<path style="fill:#9978B4;" d="M1294.656,979.593c-14.605-10.124-37.793-13.736-58.452-6.971
		c-20.66,6.765-34.664,15.948-41.828,31.456c-9.831,21.283,4.914,41.257,27.516,44.906c29.202,4.716,72.809-5.97,87.51-34.598
		C1317.488,998.638,1306.796,988.007,1294.656,979.593z"/>
	<path style="fill:#9978B4;" d="M739.495,1054.465c29.203,4.716,72.809-5.97,87.511-34.598c8.086-15.747-2.606-26.379-14.746-34.793
		c-14.606-10.123-37.793-13.735-58.453-6.971c-20.659,6.765-34.663,15.948-41.827,31.455
		C702.149,1030.842,716.894,1050.815,739.495,1054.465z"/>
	<path style="fill:#9978B4;" d="M509.72,1118.763c-20.66,6.765-34.664,15.948-41.827,31.456
		c-9.832,21.283,4.913,41.257,27.514,44.906c29.203,4.716,72.809-5.97,87.51-34.598c8.087-15.747-2.606-26.379-14.745-34.793
		C553.566,1115.611,530.379,1111.998,509.72,1118.763z"/>
	<path style="fill:#9978B4;" d="M1060.926,1115.255c-14.605-10.123-37.793-13.736-58.451-6.971
		c-20.66,6.765-34.664,15.948-41.828,31.455c-9.832,21.284,4.913,41.257,27.515,44.907c29.203,4.716,72.81-5.97,87.51-34.598
		C1083.758,1134.302,1073.066,1123.67,1060.926,1115.255z"/>
	<path style="fill:#9978B4;" d="M813.222,1263.043c-14.606-10.124-37.793-13.736-58.452-6.971
		c-20.659,6.765-34.663,15.948-41.827,31.456c-9.832,21.283,4.913,41.257,27.515,44.906c29.202,4.716,72.809-5.97,87.51-34.598
		C836.054,1282.089,825.362,1271.457,813.222,1263.043z"/>
	<path style="fill:#9978B4;" d="M570.75,1416.657c8.086-15.748-2.606-26.38-14.746-34.793
		c-14.605-10.124-37.793-13.736-58.452-6.971c-20.659,6.765-34.664,15.948-41.827,31.456c-9.832,21.283,4.914,41.257,27.516,44.907
		C512.442,1455.97,556.048,1445.285,570.75,1416.657z"/>
	<path style="fill:#9978B4;" d="M802.675,1457.505c-12.322-7.274-31.149-8.822-47.335-2.187
		c-16.185,6.636-26.886,14.824-31.723,27.692c-6.637,17.659,6.378,32.833,24.738,34.445c23.721,2.082,58.097-9.039,68.21-32.879
		C822.127,1471.464,812.917,1463.553,802.675,1457.505z"/>
	<path style="fill:#9978B4;" d="M1013.958,1382.727c-11.756-8.149-30.42-11.056-47.049-5.611
		c-16.629,5.446-27.901,12.837-33.667,25.319c-7.914,17.131,3.954,33.208,22.147,36.146c23.506,3.795,58.606-4.805,70.438-27.849
		C1032.336,1398.058,1023.73,1389.5,1013.958,1382.727z"/>
	<path style="fill:#9978B4;" d="M641.842,1600.857c-11.756-8.149-30.42-11.056-47.049-5.611
		c-16.629,5.445-27.901,12.837-33.667,25.319c-7.914,17.131,3.954,33.208,22.147,36.146c23.506,3.796,58.606-4.805,70.438-27.848
		C660.22,1616.187,651.614,1607.63,641.842,1600.857z"/>
	<path style="fill:#9978B4;" d="M312.474,1471.093c-11.756-8.148-30.42-11.056-47.049-5.611
		c-16.629,5.445-27.901,12.837-33.667,25.319c-7.914,17.131,3.954,33.208,22.147,36.146c23.505,3.796,58.605-4.805,70.438-27.848
		C330.852,1486.423,322.245,1477.866,312.474,1471.093z"/>
	<path style="fill:#9978B4;" d="M421.462,1636.79c-11.757-8.149-30.42-11.056-47.049-5.611
		c-16.629,5.445-27.901,12.837-33.667,25.319c-7.914,17.131,3.954,33.208,22.147,36.146c23.505,3.796,58.605-4.805,70.438-27.848
		C439.84,1652.12,431.233,1643.562,421.462,1636.79z"/>
	<g>
		<path style="fill:#68398E;" d="M247.652,1214.545c1.935,5.325,4.222,10.524,6.837,15.567c0.143,0.276,0.292,0.549,0.438,0.825
			c1.219,2.31,2.507,4.587,3.865,6.826c0.111,0.183,0.216,0.369,0.328,0.551c1.475,2.404,3.03,4.762,4.665,7.073
			c0.146,0.206,0.301,0.406,0.449,0.612c1.439,2.011,2.948,3.978,4.506,5.912c0.347,0.431,0.692,0.862,1.046,1.289
			c3.467,4.191,7.217,8.185,11.237,11.955c0.486,0.457,0.984,0.904,1.479,1.354c1.661,1.512,3.369,2.984,5.119,4.418
			c0.433,0.354,0.852,0.719,1.29,1.067c1.894,1.511,3.858,2.958,5.851,4.373c23.379-17.689,52.185-27.135,81.557-26.752
			c0.43-5.638,1.173-11.276,2.21-16.898c-27.802,5.506-57.583,2.192-84.854-11.492c-23.294-11.689-41.548-29.346-53.904-50.14
			c0.135,14.711,2.775,29.238,7.703,42.964C247.534,1214.214,247.592,1214.38,247.652,1214.545z"/>
		<path style="fill:#68398E;" d="M296.878,1431.644c-23.295-11.689-41.549-29.345-53.905-50.14
			c0.134,14.718,2.777,29.251,7.709,42.981c0.056,0.155,0.11,0.31,0.167,0.464c1.938,5.334,4.228,10.542,6.849,15.594
			c0.137,0.266,0.281,0.53,0.421,0.795c1.227,2.324,2.521,4.614,3.888,6.866c0.105,0.172,0.203,0.348,0.308,0.52
			c0.736,1.199,1.553,2.353,2.329,3.53c27.507-5.224,56.894-1.818,83.829,11.697c7.38,3.703,14.23,8.03,20.576,12.839
			c2.871-10.827,6.89-21.523,12.166-31.921c0.315-0.621,0.664-1.213,0.987-1.828C354.266,1448.68,324.302,1445.406,296.878,1431.644
			z"/>
		<path style="fill:#68398E;" d="M677.103,918.096c-4.216-2.115-8.257-4.432-12.204-6.851c0.794,1.256,1.54,2.537,2.297,3.813
			c0.229,25.089-5.353,50.602-17.503,74.547c-40.658,80.13-138.936,112.312-219.512,71.879
			c-28.94-14.522-51.618-36.458-66.969-62.293c0.167,18.282,3.45,36.334,9.575,53.39c0.071,0.198,0.141,0.395,0.211,0.593
			c2.407,6.621,5.25,13.088,8.503,19.359c0.175,0.337,0.357,0.671,0.533,1.006c1.519,2.878,3.122,5.714,4.814,8.502
			c0.135,0.222,0.262,0.448,0.398,0.67c1.834,2.987,3.767,5.919,5.799,8.792c0.18,0.256,0.374,0.504,0.556,0.759
			c1.789,2.499,3.663,4.944,5.6,7.347c0.43,0.534,0.858,1.068,1.296,1.597c4.309,5.209,8.97,10.172,13.965,14.858
			c0.604,0.566,1.22,1.121,1.833,1.678c2.066,1.878,4.186,3.707,6.361,5.488c0.538,0.44,1.06,0.894,1.605,1.328
			c2.649,2.112,5.376,4.151,8.18,6.113c0.595,0.416,1.213,0.808,1.815,1.217c1.247,0.848,2.547,1.64,3.823,2.458
			c48.348-37.868,116.248-46.874,174.816-17.484c2.399,1.203,4.748,2.466,7.061,3.769c0.081-24.445,5.688-49.241,17.515-72.551
			c12.606-24.846,30.76-45.07,52.201-59.961c-0.13-2.11-0.259-4.22-0.471-6.32c0.211,2.092,0.384,4.187,0.513,6.29
			c47.704-33.108,111.695-39.776,167.27-11.888c1.518,0.762,2.985,1.583,4.469,2.385c0.279-24.01,5.912-48.327,17.523-71.209
			c13.641-26.884,33.786-48.339,57.555-63.497c-0.123-1.828-0.224-3.659-0.409-5.48c0.183,1.811,0.345,3.624,0.467,5.443
			c40.493-25.8,91.524-33.263,139.075-17.736c1.501-3.566,3.089-7.114,4.867-10.619c17.43-34.351,45.464-59.855,78.138-74.64
			c0.365-5.664,0.483-11.323,0.251-16.952c-0.015-0.368-0.043-0.734-0.06-1.102c-0.138-2.855-0.349-5.702-0.637-8.54
			c-0.045-0.452-0.091-0.905-0.14-1.357c-1.069-9.719-2.999-19.309-5.78-28.646c-0.031-0.106-0.065-0.212-0.097-0.318
			c-3.814-12.707-9.172-24.947-15.986-36.415c-0.001,0-0.001-0.001-0.002-0.001c0.229,25.089-5.353,50.603-17.502,74.547
			c-35.702,70.363-115.831,103.736-189.393,83.454c0.273,0.859,0.529,1.723,0.788,2.586c-3.814-12.714-9.177-24.961-15.994-36.434
			c0.23,25.09-5.353,50.603-17.502,74.547C855.958,926.347,757.679,958.529,677.103,918.096z"/>
		<path style="fill:#68398E;" d="M1359.666,982.812c4.667-6.551,8.91-13.522,12.658-20.907c0.011-0.023,0.021-0.046,0.032-0.069
			c1.466-2.893,2.81-5.813,4.087-8.747c0.397-0.912,0.761-1.831,1.14-2.747c0.878-2.123,1.713-4.255,2.495-6.396
			c0.356-0.976,0.709-1.952,1.045-2.932c0.807-2.35,1.55-4.709,2.243-7.075c0.197-0.674,0.418-1.343,0.606-2.018
			c0.855-3.073,1.619-6.157,2.286-9.249c0.111-0.516,0.195-1.032,0.301-1.548c0.532-2.596,1.002-5.197,1.403-7.801
			c0.128-0.83,0.241-1.659,0.356-2.491c0.339-2.452,0.621-4.906,0.845-7.36c0.062-0.686,0.137-1.372,0.19-2.058
			c0.499-6.392,0.624-12.779,0.363-19.131c-0.016-0.373-0.044-0.745-0.061-1.118c-0.137-2.85-0.349-5.693-0.636-8.525
			c-0.046-0.456-0.092-0.912-0.142-1.367c-1.068-9.717-2.998-19.305-5.779-28.64c-0.032-0.106-0.065-0.211-0.096-0.317
			c-3.814-12.706-9.172-24.944-15.985-36.41c-0.001-0.002-0.002-0.004-0.003-0.006v0c0.229,25.09-5.353,50.602-17.503,74.547
			c-16.833,33.177-43.559,58.102-74.802,73.088c21.873,1.181,43.863,6.742,64.672,17.184
			C1346.535,974.309,1353.289,978.371,1359.666,982.812z"/>
		<path style="fill:#68398E;" d="M1194.669,969.51c-2.264-0.122-4.529-0.301-6.794-0.519c0.094,1.286,0.15,2.576,0.213,3.865
			C1190.259,971.693,1192.45,970.575,1194.669,969.51z"/>
		<path style="fill:#68398E;" d="M359.525,801.747c2.407,6.625,5.251,13.093,8.506,19.367c0.173,0.335,0.354,0.665,0.53,0.999
			c1.519,2.879,3.122,5.716,4.816,8.506c0.135,0.223,0.262,0.45,0.398,0.672c1.835,2.988,3.769,5.921,5.8,8.795
			c0.179,0.252,0.369,0.496,0.548,0.747c1.792,2.503,3.669,4.952,5.609,7.359c0.429,0.532,0.855,1.065,1.292,1.592
			c4.308,5.208,8.967,10.171,13.963,14.856c0.606,0.569,1.225,1.125,1.841,1.686c2.061,1.874,4.178,3.7,6.349,5.477
			c0.541,0.444,1.067,0.9,1.615,1.337c1.919,1.53,3.926,2.977,5.928,4.43c48.649-43.935,121.336-56.002,183.508-24.805
			c3.404,1.709,6.69,3.556,9.921,5.463c-0.015-0.615,0.019-1.232,0.011-1.847c0.026,0.635,0.067,1.268,0.082,1.903
			c0.81,0.479,1.617,0.96,2.416,1.451c-0.824-1.3-1.708-2.567-2.495-3.886c-0.237-25.104,5.317-50.633,17.474-74.592
			c11.647-22.955,28.037-41.953,47.371-56.458c-1.13-8.277-2.824-16.456-5.203-24.441c2.372,7.973,4.15,16.123,5.277,24.388
			c44.625-33.441,104.96-42.821,159.303-21.065c2.647-15.816,7.707-31.508,15.353-46.578c11.282-22.236,27.013-40.762,45.559-55.086
			c-0.124-1.859-0.227-3.719-0.415-5.57c-0.045-0.449-0.09-0.897-0.139-1.346c-1.068-9.723-2.998-19.317-5.782-28.656
			c-0.03-0.101-0.062-0.202-0.093-0.302c-3.814-12.711-9.174-24.955-15.99-36.425c0.229,25.09-5.353,50.603-17.503,74.548
			c-35.791,70.538-116.228,103.891-189.939,83.291c0.362,0.926,0.679,1.868,1.022,2.802c-3.419-9.249-7.671-18.2-12.735-26.721
			c0.23,25.09-5.353,50.603-17.503,74.547c-40.657,80.131-138.936,112.313-219.512,71.879
			c-28.94-14.522-51.618-36.458-66.969-62.293c0.167,18.285,3.45,36.339,9.577,53.397
			C359.386,801.361,359.455,801.554,359.525,801.747z"/>
		<path style="fill:#68398E;" d="M1429.051,1109.381c-0.015-0.358-0.042-0.714-0.059-1.073c-0.137-2.868-0.35-5.727-0.639-8.577
			c-0.045-0.443-0.089-0.885-0.138-1.327c-1.068-9.729-3-19.328-5.785-28.673c-0.028-0.095-0.058-0.189-0.087-0.284
			c-3.814-12.714-9.176-24.962-15.994-36.436c0.229,25.09-5.353,50.603-17.502,74.547c-38.718,76.31-129.685,109.082-207.864,77.118
			c0.171,0.377,0.305,0.767,0.471,1.145c-2.603-5.87-5.541-11.603-8.835-17.147c0.229,25.09-5.353,50.603-17.502,74.547
			c-40.658,80.13-138.936,112.312-219.512,71.879c-6.683-3.354-12.993-7.143-18.995-11.244c2.971,4.083,5.74,8.287,8.306,12.605
			c0.229,25.09-5.353,50.603-17.503,74.547c-0.036,0.072-0.077,0.139-0.113,0.211c11.342-9.238,24.082-16.461,37.644-21.463
			l0.064-0.022c33.084-12.183,70.969-11.201,104.949,5.85c14.712,7.383,27.403,17.157,37.888,28.582
			c37.749-13.637,70.564-41.015,90.084-79.486c1.481-2.919,2.835-5.867,4.124-8.828c0.393-0.903,0.753-1.811,1.128-2.717
			c0.882-2.133,1.722-4.275,2.506-6.426c0.353-0.968,0.704-1.935,1.037-2.906c0.811-2.363,1.56-4.735,2.255-7.115
			c0.194-0.662,0.413-1.322,0.598-1.986c0.857-3.079,1.623-6.168,2.289-9.266c0.107-0.497,0.188-0.996,0.29-1.494
			c0.537-2.615,1.009-5.235,1.414-7.858c0.126-0.821,0.238-1.64,0.351-2.462c0.34-2.462,0.624-4.925,0.849-7.389
			c0.061-0.68,0.136-1.358,0.188-2.038c0.235-3.002,0.371-6.002,0.439-8.999c-0.047,2.365-0.112,4.731-0.27,7.1
			c21.789,10.4,44.78,15.617,67.532,16.03c5.286,0.096,10.558-0.064,15.799-0.476c13.101-1.027,26.002-3.62,38.416-7.685
			c7.448-2.439,14.721-5.408,21.756-8.886c4.691-2.319,9.276-4.864,13.736-7.63c4.461-2.766,8.798-5.752,12.993-8.952
			c4.194-3.2,8.246-6.615,12.137-10.239c1.946-1.812,3.852-3.675,5.714-5.59c11.178-11.491,20.828-24.83,28.45-39.854
			c1.482-2.919,2.838-5.869,4.125-8.832c0.391-0.898,0.749-1.801,1.122-2.702c0.885-2.14,1.727-4.289,2.514-6.447
			c0.351-0.963,0.7-1.926,1.032-2.892c0.814-2.37,1.564-4.75,2.262-7.137c0.191-0.655,0.407-1.306,0.589-1.962
			c0.858-3.081,1.624-6.172,2.292-9.273c0.107-0.497,0.188-0.996,0.289-1.493c0.538-2.616,1.011-5.237,1.415-7.861
			c0.125-0.818,0.237-1.635,0.349-2.453c0.341-2.468,0.626-4.938,0.851-7.409c0.061-0.673,0.134-1.344,0.187-2.017
			C1429.189,1122.141,1429.313,1115.743,1429.051,1109.381z"/>
		<path style="fill:#68398E;" d="M928.443,1044.217c-0.597-0.3-1.151-0.65-1.744-0.956c0.505,0.919,0.952,1.867,1.44,2.795
			c-1.338-2.55-2.711-5.082-4.185-7.563c0.229,25.09-5.353,50.603-17.503,74.547c-40.658,80.13-138.936,112.312-219.512,71.879
			c-1.854-0.93-3.608-1.975-5.41-2.965c0.912,1.608,1.739,3.258,2.594,4.894c-1.358-2.595-2.758-5.171-4.258-7.694
			c0.229,25.09-5.353,50.603-17.503,74.547c-40.657,80.13-138.936,112.312-219.512,71.88c-28.94-14.522-51.618-36.458-66.969-62.293
			c0.167,18.283,3.45,36.337,9.576,53.394c0.071,0.195,0.139,0.391,0.21,0.586c2.408,6.623,5.25,13.091,8.505,19.363
			c0.175,0.335,0.355,0.667,0.531,1.001c1.517,2.876,3.119,5.711,4.811,8.497c0.137,0.226,0.266,0.456,0.405,0.681
			c1.833,2.986,3.766,5.918,5.797,8.79c0.18,0.254,0.372,0.501,0.554,0.755c1.79,2.5,3.666,4.949,5.604,7.353
			c0.429,0.532,0.855,1.065,1.292,1.592c5.923,7.16,12.555,13.815,19.766,19.959c47.76-33.429,112.013-40.261,167.797-12.27
			c7.337,3.681,14.262,7.85,20.781,12.425c1.722-20.113,7.22-40.241,16.925-59.367c14.889-29.344,37.524-52.225,64.169-67.498
			c-0.022-1.009,0.005-2.021-0.037-3.027c0.042,0.997,0.077,1.993,0.099,2.991c46.104-26.399,104.236-29.959,155.282-4.345
			c3.623,1.818,7.114,3.791,10.539,5.834c0.121-0.073,0.244-0.141,0.364-0.214c-0.067-1.295-0.044-2.597-0.081-3.895
			c0.064,1.464,0.109,2.93,0.19,4.393c2.788,1.675,5.514,3.417,8.168,5.233c-2.984-4.094-5.841-8.269-8.421-12.598
			c-0.254-25.128,5.262-50.678,17.431-74.661c14.183-27.952,35.389-50.047,60.398-65.283c-0.137-2.592-0.317-5.179-0.578-7.755
			c0.26,2.575,0.457,5.156,0.593,7.746c45.803-27.898,104.375-32.687,156.121-7.99c1.407-21.114,7.007-42.302,17.196-62.382
			c15.637-30.819,39.816-54.51,68.215-69.74c-1.305-26.482-9.094-52.297-22.625-75.069c0.229,25.09-5.353,50.603-17.503,74.547
			C1107.297,1052.468,1009.019,1084.649,928.443,1044.217z"/>
		<path style="fill:#68398E;" d="M862.924,1461.369c1.893-7.687,4.497-15.299,7.88-22.749c-6.292,5.626-12.977,10.72-19.989,15.261
			C855.026,1456.174,859.058,1458.683,862.924,1461.369z"/>
		<path style="fill:#68398E;" d="M1122.085,1486.319c-0.109-2.299-0.28-4.59-0.512-6.874c-0.037-0.366-0.074-0.731-0.114-1.096
			c-0.859-7.825-2.413-15.545-4.653-23.062c-0.024-0.08-0.049-0.16-0.073-0.241c-3.071-10.231-7.386-20.087-12.872-29.321
			c0.185,20.196-4.309,40.731-14.088,60.005c-32.726,64.498-111.832,90.402-176.69,57.857
			c-23.294-11.689-41.548-29.345-53.904-50.14c0.243,26.591,8.654,52.583,24.019,74.311c-0.711-1.005-1.392-2.028-2.073-3.05
			c-30.039,57.729-98.683,84.959-160.652,63.068c4.177,5.095,7.94,10.471,11.272,16.08c0.184,20.195-4.309,40.731-14.088,60.004
			c-32.726,64.498-111.832,90.401-176.69,57.857c-3.998-2.006-7.79-4.248-11.486-6.592c-0.034,0.516-0.096,1.031-0.137,1.547
			c2.108-26.968-4.297-53.858-17.979-76.884c0.184,20.196-4.309,40.731-14.089,60.005c-32.726,64.498-111.832,90.402-176.689,57.857
			c-23.294-11.689-41.548-29.345-53.905-50.14c0.135,14.718,2.778,29.251,7.71,42.981c0.056,0.155,0.11,0.31,0.167,0.465
			c1.938,5.334,4.228,10.542,6.849,15.593c0.138,0.266,0.281,0.53,0.421,0.795c1.227,2.324,2.521,4.614,3.888,6.866
			c0.105,0.172,0.203,0.348,0.308,0.52c1.479,2.409,3.038,4.774,4.677,7.091c0.139,0.196,0.287,0.386,0.427,0.582
			c1.447,2.022,2.965,4.001,4.533,5.946c0.341,0.424,0.681,0.848,1.028,1.268c3.471,4.197,7.227,8.195,11.252,11.971
			c0.482,0.451,0.973,0.893,1.462,1.338c1.667,1.517,3.38,2.994,5.136,4.432c0.43,0.351,0.846,0.713,1.28,1.059
			c2.133,1.702,4.33,3.344,6.589,4.924c0.477,0.333,0.969,0.647,1.451,0.974c1.853,1.259,3.747,2.476,5.68,3.65
			c0.658,0.4,1.314,0.8,1.982,1.19c2.423,1.414,4.884,2.786,7.428,4.062h0.001c13.901,6.976,28.457,11.247,43.071,13.048
			c4.562,0.562,9.129,0.901,13.685,0.983c15.645,0.284,31.129-2.255,45.742-7.313c2.46-0.851,4.891-1.776,7.297-2.771
			c3.757-1.554,7.442-3.28,11.046-5.176c3.397-1.787,6.72-3.72,9.958-5.803c4.367-2.809,8.583-5.875,12.613-9.208
			c0.51-0.422,1.023-0.842,1.529-1.272c12.791-10.91,23.682-24.448,31.748-40.344c1.191-2.348,2.282-4.72,3.319-7.103
			c0.228-0.525,0.449-1.052,0.67-1.579c0.007-0.018,0.014-0.036,0.022-0.054c2.744,3.123,5.609,6.156,8.674,9.031
			c0.481,0.451,0.972,0.893,1.461,1.338c1.667,1.517,3.38,2.995,5.137,4.433c0.429,0.351,0.845,0.713,1.28,1.059
			c2.133,1.702,4.33,3.344,6.589,4.924c0.475,0.333,0.969,0.647,1.451,0.974c1.851,1.259,3.745,2.476,5.679,3.65
			c0.659,0.4,1.315,0.8,1.983,1.19c2.423,1.414,4.884,2.786,7.428,4.062c13.901,6.975,28.456,11.247,43.07,13.047
			c4.563,0.562,9.129,0.901,13.685,0.984c15.644,0.284,31.13-2.255,45.743-7.313c2.459-0.852,4.891-1.777,7.297-2.771
			c3.757-1.554,7.442-3.28,11.046-5.177c3.397-1.786,6.719-3.719,9.958-5.803c4.366-2.809,8.582-5.875,12.613-9.208
			c0.511-0.423,1.024-0.842,1.528-1.272c12.792-10.91,23.683-24.449,31.749-40.344c1.192-2.348,2.282-4.721,3.319-7.103
			c0.316-0.729,0.608-1.462,0.911-2.194c0.708-1.713,1.382-3.433,2.013-5.16c0.286-0.785,0.57-1.57,0.84-2.357
			c0.651-1.894,1.25-3.796,1.808-5.703c0.157-0.539,0.335-1.075,0.486-1.614c0.689-2.475,1.304-4.959,1.841-7.45
			c0.089-0.411,0.155-0.823,0.24-1.234c0.429-2.093,0.809-4.19,1.132-6.29c0.103-0.667,0.193-1.334,0.286-2.001
			c0.272-1.976,0.5-3.953,0.68-5.931c0.05-0.55,0.11-1.1,0.153-1.65c0.402-5.145,0.502-10.287,0.292-15.4
			c-0.012-0.303-0.035-0.604-0.05-0.906c-0.11-2.289-0.28-4.572-0.51-6.847c-0.037-0.373-0.075-0.745-0.116-1.118
			c-0.174-1.588-0.397-3.166-0.646-4.741c0.103,0.632,0.244,1.257,0.328,1.892c12.967,3.963,26.164,5.838,39.189,5.763
			c6.408-0.036,12.773-0.542,19.047-1.495c6.274-0.953,12.457-2.355,18.5-4.185c6.043-1.83,11.947-4.089,17.662-6.755
			c1.905-0.889,3.79-1.823,5.651-2.802c26.061-13.706,47.668-36.161,59.88-65.342c0.01-0.025,0.018-0.049,0.029-0.074
			c1.003-2.402,1.908-4.82,2.758-7.245c0.265-0.755,0.503-1.513,0.753-2.271c0.58-1.756,1.125-3.516,1.626-5.281
			c0.228-0.804,0.454-1.606,0.666-2.411c0.174-0.66,0.309-1.323,0.472-1.983c0.017,0.012,0.034,0.026,0.051,0.038
			c0.336,0.233,0.701,0.437,1.04,0.668c1.857,1.263,3.756,2.482,5.693,3.66c0.657,0.399,1.311,0.798,1.977,1.186
			c2.423,1.415,4.886,2.786,7.43,4.063c18.24,9.153,37.608,13.683,56.755,14.031c2.127,0.039,4.252,0.026,6.372-0.038
			c14.84-0.448,29.456-3.395,43.212-8.635c3.93-1.497,7.79-3.181,11.566-5.048c3.775-1.866,7.466-3.915,11.056-6.141
			c19.748-12.244,36.477-29.855,47.727-52.026c1.191-2.348,2.282-4.72,3.318-7.103c0.317-0.728,0.608-1.461,0.909-2.192
			c0.71-1.716,1.385-3.439,2.016-5.17c0.284-0.78,0.567-1.56,0.836-2.342c0.653-1.903,1.256-3.813,1.815-5.729
			c0.156-0.53,0.33-1.058,0.479-1.59c0.69-2.479,1.307-4.966,1.844-7.461c0.087-0.402,0.151-0.805,0.234-1.206
			c0.432-2.104,0.812-4.211,1.137-6.321c0.102-0.661,0.192-1.32,0.283-1.981c0.274-1.984,0.503-3.97,0.683-5.957
			c0.05-0.543,0.109-1.085,0.151-1.628c0.403-5.15,0.503-10.297,0.292-15.415C1122.122,1486.908,1122.1,1486.614,1122.085,1486.319z
			"/>
		<path style="fill:#68398E;" d="M280.772,1687.504c32.726-64.498,111.833-90.401,176.689-57.857
			c15.578,7.817,28.889,18.315,39.712,30.618c1.225-2.92,2.523-5.825,3.979-8.694c29.305-57.754,95.793-84.526,155.943-66.133
			c-0.157-1.187-0.232-2.387-0.356-3.579c0.141,1.199,0.263,2.402,0.422,3.598c1.823,0.558,3.638,1.163,5.45,1.805
			c-2.144-2.614-4.206-5.286-6.134-8.045c-1.685-20.153,1.246-40.98,9.598-60.938c5.295-12.653,12.364-24.034,20.789-33.993
			c-0.179-0.832-0.385-1.657-0.574-2.487c0.189,0.816,0.447,1.612,0.624,2.431c4.641-5.479,9.709-10.504,15.108-15.089
			c-4.754-1.855-9.47-3.919-14.12-6.253c-3.087-1.549-6.065-3.224-9.007-4.937c0.427,1.067,0.803,2.152,1.206,3.227
			c-3.366-8.953-7.491-17.631-12.403-25.896c0.229,25.09-5.353,50.603-17.503,74.548c-40.658,80.13-138.936,112.312-219.512,71.879
			c-3.425-1.719-6.748-3.558-9.995-5.479c0,0-0.034,0.359-0.106-1.225c-0.968-21.488-7.228-42.446-18.203-60.915
			c0.184,20.196-4.31,40.731-14.089,60.005c-32.726,64.498-111.832,90.401-176.689,57.857
			c-23.294-11.689-41.548-29.346-53.905-50.14c0.135,14.717,2.778,29.25,7.71,42.979c0.056,0.156,0.111,0.312,0.167,0.468
			c1.939,5.333,4.228,10.541,6.849,15.592c0.138,0.266,0.281,0.529,0.422,0.795c1.227,2.326,2.522,4.619,3.891,6.872
			c0.102,0.17,0.2,0.342,0.303,0.511c1.479,2.41,3.039,4.776,4.678,7.093c0.14,0.197,0.288,0.388,0.428,0.584
			c1.447,2.023,2.965,4.001,4.533,5.946c0.34,0.422,0.679,0.845,1.024,1.263c3.473,4.199,7.23,8.2,11.257,11.977
			c0.48,0.45,0.97,0.89,1.457,1.333c1.668,1.517,3.382,2.995,5.139,4.434c0.429,0.351,0.846,0.713,1.28,1.06
			c2.135,1.703,4.333,3.346,6.594,4.927c0.471,0.33,0.96,0.64,1.436,0.964c1.857,1.263,3.756,2.482,5.694,3.659
			c0.656,0.399,1.311,0.798,1.977,1.186c2.423,1.415,4.886,2.786,7.43,4.063c13.5,6.775,27.619,10.981,41.808,12.869
			C274.016,1702.635,276.982,1694.972,280.772,1687.504z"/>
	</g>
</g>
</svg>
