<?xml version="1.0" encoding="utf-8"?>
<!-- Generator: Adobe Illustrator 27.5.0, SVG Export Plug-In . SVG Version: 6.00 Build 0)  -->
<svg version="1.1" id="Capa_1" xmlns="http://www.w3.org/2000/svg" xmlns:xlink="http://www.w3.org/1999/xlink" x="0px" y="0px"
	 viewBox="0 0 2122 2122" style="enable-background:new 0 0 2122 2122;" xml:space="preserve">
<g>
	<path style="fill:#CFC900;" d="M1823.128,1381.86c-16.69-193.261-107.277-429.914-193.561-563.114
		c-85.068-131.316-233.557-248.771-316.304-293.617c-210.767-114.219-425.909-195.648-555.957-261.735
		C649.997,208.86,573.461,120.387,507.735,151.381c-54.299,25.605-41.245,81.73-84.763,113.868
		c-49.652,36.667-87.145,0.479-114.781,48.716c-36.123,63.051,15.239,149.923,39.236,267.878
		c29.084,142.948,52.601,374.51,106.593,608.074c21.198,91.702,94.889,266.1,198.824,383.056
		c105.421,118.63,309.42,268.945,491.264,336.477c199.664,74.153,468.887,91.804,548.053,26.821
		C1771.326,1871.287,1839.653,1573.226,1823.128,1381.86z"/>
	<path style="fill:#FFE15D;" d="M1779.225,1361.472c-16.989-180.19-103.282-401.347-184.805-526.082
		c-80.374-122.972-219.856-233.49-297.435-275.876C1099.385,451.556,897.94,374.12,776.048,311.597
		c-100.58-51.592-172.676-134.583-233.811-106.184c-50.506,23.462-37.911,75.851-78.304,105.478
		c-46.087,33.803-81.353-0.188-106.803,44.555c-33.265,58.483,15.318,139.799,38.581,249.877
		c28.193,133.401,51.833,349.326,103.94,567.34c20.458,85.596,90.525,248.626,188.408,358.354
		c99.284,111.299,290.827,252.839,461.086,317.085c186.943,70.545,438.414,88.951,511.848,28.98
		C1734.428,1817.111,1796.047,1539.895,1779.225,1361.472z"/>
	<path style="fill:#F6A140;" d="M426.465,383.589c0.661-0.387,1.33-0.744,2.003-1.083
		C427.795,382.845,427.125,383.202,426.465,383.589z"/>
	<path style="fill:#F6A140;" d="M420.856,387.646c1.723-1.496,3.489-2.785,5.304-3.868
		C424.345,384.864,422.577,386.147,420.856,387.646z"/>
	<g>
		<path style="fill:#F6A140;" d="M1697.956,1660.399c0.046-0.175,0.095-0.345,0.142-0.519c-0.001,0.001-0.004,0.002-0.006,0.004
			C1698.046,1660.054,1698.001,1660.228,1697.956,1660.399z"/>
		<path style="fill:#F6A140;" d="M1729.515,1350.434c-15.484-164.23-94.134-365.798-168.437-479.485
			c-73.255-112.08-200.382-212.809-271.089-251.441c-180.099-98.395-363.701-168.972-474.797-225.957
			c-91.67-47.022-183.776-149.111-239.495-123.227c-46.032,21.383-28.757,63.271-65.573,90.274
			c-24.279,17.808-46.107,14.956-64.693,17.235c229.376,496.111,314.119,1206.343,942.51,1324.888
			c106.889,28.277,214.711,8.307,310.15-42.839C1724.048,1562.55,1738.165,1442.178,1729.515,1350.434z"/>
	</g>
	<path style="fill:#F18825;" d="M1672.813,1737.453c0.007-0.017,0.014-0.035,0.021-0.053c9.238-23.071,17.748-49.33,25.263-77.521
		c-95.44,51.148-203.264,71.12-310.156,42.842C759.55,1584.176,674.807,873.945,445.432,377.834
		c-5.898,0.72-11.472,1.957-16.694,4.534c-0.09,0.044-0.18,0.092-0.269,0.138c-0.673,0.339-1.342,0.697-2.003,1.083
		c-0.103,0.059-0.203,0.127-0.305,0.189c-1.815,1.084-3.581,2.372-5.304,3.868c-0.352,0.306-0.706,0.604-1.054,0.929
		c-0.366,0.341-0.726,0.712-1.088,1.075c-0.402,0.403-0.803,0.814-1.199,1.245c-0.329,0.359-0.656,0.733-0.982,1.112
		c-0.429,0.499-0.854,1.019-1.276,1.553c-0.294,0.371-0.587,0.742-0.877,1.131c-0.472,0.633-0.938,1.303-1.402,1.984
		c-0.234,0.344-0.471,0.673-0.703,1.03c-0.693,1.067-1.379,2.179-2.053,3.364c-10.21,17.951-9.309,41.957-2.845,69.715
		c0.967,4.156,2.065,8.401,3.264,12.719c0.747,2.689,1.534,5.407,2.359,8.154c15.286,50.853,43.22,111.272,55.548,169.604
		c17.383,82.256,32.878,198.954,55.782,327.359c0.724,4.061,1.456,8.132,2.196,12.215c1.323,7.306,2.673,14.647,4.047,22.02
		c5.495,29.48,11.414,59.45,17.861,89.663c4.663,21.857,9.587,43.829,14.846,65.832c18.647,78.014,82.507,226.605,171.721,326.612
		c76.35,85.592,212.566,190.804,346.479,256.767c24.799,12.215,49.519,23.085,73.765,32.235
		c47.922,18.083,100.494,32.407,152.801,42.44c5.812,1.115,11.621,2.177,17.419,3.185c127.568,22.179,250.279,18.364,296.294-19.215
		c1.675-1.368,3.342-2.893,5.003-4.505c0.23-0.224,0.462-0.435,0.691-0.663c1.587-1.574,3.166-3.267,4.738-5.055
		c0.271-0.309,0.543-0.622,0.815-0.937c1.58-1.836,3.151-3.763,4.714-5.807c0.191-0.251,0.382-0.515,0.573-0.769
		c3.3-4.375,6.559-9.198,9.767-14.441c0.155-0.252,0.31-0.498,0.464-0.753c1.574-2.594,3.135-5.291,4.683-8.079
		c0.165-0.297,0.329-0.595,0.493-0.895c1.584-2.877,3.156-5.839,4.711-8.909c0.036-0.07,0.071-0.143,0.106-0.213
		c3.271-6.469,6.477-13.352,9.607-20.609c0.01-0.024,0.021-0.047,0.032-0.071C1669.726,1745.021,1671.28,1741.281,1672.813,1737.453
		z"/>
	<path style="fill:#FFE15D;" d="M1167.137,1447.419c-0.139,0.828-0.263,1.658-0.448,2.48c0.605-0.385,1.209-0.77,1.831-1.123
		C1168.047,1448.334,1167.591,1447.878,1167.137,1447.419z"/>
	<path style="fill:#FFE15D;" d="M1452.329,1198.369c-79.763-149.092-240.698-240.901-383.29-335.539
		c-127.424-84.57-225.493-151.974-322.321-271.423c-85.335-105.272-136.863-191.821-161.804-163.515
		c-24.94,28.306,65.257,116.158,119.304,228.597c42.95,89.352,103.238,230.198,142.22,349.605
		c32.356,99.11,74.563,333.863,251.477,489.739c76.976,67.822,242.534,164.571,338.004,96.689
		C1525.663,1528.714,1539.342,1361.011,1452.329,1198.369z"/>
	<path style="fill:#FFE15D;" d="M1327.885,1497.831c0.186,0.577,0.371,1.155,0.531,1.741c0.214-0.198,0.42-0.401,0.637-0.595
		C1328.659,1498.599,1328.264,1498.222,1327.885,1497.831z"/>
	<path style="fill:#FFE15D;" d="M1235.582,1327.879c-0.233-0.06-0.468-0.106-0.7-0.169c-0.038,0.292-0.044,0.582-0.088,0.875
		C1235.042,1328.335,1235.328,1328.123,1235.582,1327.879z"/>
	<path style="fill:#FAB961;" d="M1483.903,835.318C1314.231,601.749,856.03,453.076,756.283,390.33
		c-99.748-62.746-25.926,53.525,67.335,113.799c134.131,86.688,312.466,190.095,438.338,288.517
		c113.955,89.104,201.17,211.401,284.116,328.111c27.42,38.581,67.404,82.897,72.553,14.561
		C1624.683,1054.909,1538.186,910.043,1483.903,835.318z"/>
	<path style="fill:#43150A;" d="M988.321,987.917c-0.773-2.458-1.249-5.062-1.387-7.739c-0.293-5.724,2.737-12.903,5.657-17.166
		c5.354-7.814,14.363-10.276,22.597-6.276c6.994,3.399,11.768,10.2,12.415,18.011c0.672,8.103-1.756,17.172-7.69,22.957
		c-1.103,1.077-2.383,1.922-3.733,2.637c5.354,5.077,9.708,11.378,12.791,18.395c4.067-2.049,7.736-4.925,10.518-8.609
		c8.282-10.967,10.408-26.015,7.82-38.574c-0.427-2.074-1.102-4.025-1.883-5.914c-6.828-3.503-12.395-9.543-15.785-16.571
		c-1.706-0.804-3.469-1.517-5.336-2.024c-13.76-3.735-28.476,2.792-34.851,16.838c-0.65,1.432-2.775,7-3.411,9.947
		c-0.982,4.544-1.813,9.362-2.003,14.041C985.488,987.803,986.909,987.84,988.321,987.917z"/>
	<path style="fill:#5B1A0F;" d="M1027.603,974.747c-0.646-7.811-5.421-14.613-12.415-18.011c-8.233-4-17.243-1.538-22.597,6.276
		c-2.92,4.263-5.949,11.442-5.657,17.166c0.137,2.677,0.614,5.281,1.387,7.739c10.732,0.586,20.279,5.236,27.858,12.425
		c1.351-0.716,2.63-1.561,3.733-2.637C1025.847,991.919,1028.275,982.851,1027.603,974.747z"/>
	<path style="fill:#2B0B00;" d="M1455.662,1323.244c7.474-23.101,0.693-49.943-21.028-60.926c5.91-22.91-1.828-48.408-23.885-58.263
		c8.312-20.345,1.298-46.085-22.075-51.637c-5.975-1.419-11.945-1.119-17.545,0.489c1.38-16.928-6.855-33.838-25.269-38.212
		c-3.304-0.785-6.6-0.998-9.839-0.803c2.33-17.651-5.845-35.885-25.072-40.452c-7.376-1.752-14.748-0.89-21.419,1.83
		c-5.153-11.839-14.925-21.305-29.573-24.784c-8.72-2.071-17.412-1.329-25.474,1.38c6.371-20.992-1.703-45.519-25.145-51.088
		c-5.529-1.313-11.039-1.19-16.307-0.041c5.11-20.442-3.21-43.395-25.79-48.758c-9.248-2.197-18.477-0.532-26.513,3.647
		c5.987-18.765-1.134-40.951-22.166-45.947c-9.082-2.157-18.133-0.11-25.761,4.511c-3.617-8.695-10.665-15.678-21.337-18.213
		c-22.545-5.354-45.061,14.915-45.459,37.272c-0.015,0.856,0.062,1.716,0.117,2.575c-2.813,0.258-5.668,0.701-8.597,1.546
		c-22.233,6.409-35.531,28.501-36.215,50.746c-2.558,0.282-5.149,0.71-7.801,1.474c-31.566,9.099-45.241,49.815-30.153,77.695
		c0.685,1.268,1.491,2.474,2.301,3.676c-18.299,16.214-24.213,45.904-12.382,67.766c8.625,15.937,27.486,26.903,45.857,26.46
		c0.72,6.626,2.552,13.107,5.743,19.005c2.557,4.724,6.042,8.994,10.118,12.687c-11.518,5.201-20.234,17.182-20.461,30.001
		c-0.263,14.762,11.885,30.376,27.445,30.574c-2.444,5.04-3.905,10.53-4.006,16.16c-0.285,16.069,11.432,32.886,27.402,36.674
		c-7.716,8.44-12.708,19.412-12.912,30.868c-0.461,25.881,25.865,53.599,55.064,39.931c4.564-2.136,10.442-5.957,15.64-10.833
		c-0.296,2.023-0.483,4.066-0.519,6.124c-0.289,16.21,8.631,32.995,22.212,42.371c-6.275,7.174-10.313,16.323-10.482,25.87
		c-0.397,22.308,22.293,46.2,47.462,34.419c1.818-0.852,3.886-2.014,6.025-3.424c-0.678,2.714-1.081,5.498-1.131,8.318
		c-0.397,22.308,22.294,46.199,47.463,34.419c3.378-1.581,7.601-4.233,11.565-7.603c-0.431,1.971-0.72,3.974-0.757,6.007
		c-0.332,18.64,18.628,38.603,39.658,28.759c3.634-1.7,8.439-4.86,12.442-8.92c8.584,15.102,26.199,25.245,45.18,16.361
		c3.96-1.854,9.006-5.077,13.581-9.199c6.415,18.881,26.59,34.04,48.548,23.763c5.29-2.476,12.5-7.388,17.94-13.657
		c9.363,10.457,23.83,15.969,39.213,8.768c7.474-3.498,18.917-11.863,23.374-22.152c5.731-13.229,5.177-28.789-1.846-40.227
		c4.922-2.195,9.487-5.713,13.239-10.977c4.789-6.72,10.643-19.629,9.467-30.78c-1.821-17.261-13.222-32.995-28.985-37.204
		c4.089-7.134,7.975-17.57,6.998-26.842c-0.272-2.583-0.793-5.122-1.476-7.604c3.577-0.009,7.321-0.788,11.138-2.575
		c5.94-2.78,15.036-9.429,18.579-17.608C1479.239,1350.062,1474.005,1328.864,1455.662,1323.244z"/>
	<path style="fill:#43150A;" d="M935.357,1087.546c-0.651,1.432-2.775,7-3.413,9.948c-1.333,6.161-2.401,12.829-1.947,18.967
		c1.002,13.542,9.265,24.754,22.137,28.464c10.408,3,23.371-0.444,31.342-9.002c2.011-4.779,4.595-9.287,7.803-13.294
		c3.19-8.889,3.719-18.732,1.931-27.412c-0.121-0.584-0.323-1.126-0.472-1.696c-7.168,0.764-14.484-0.305-21.367-2.812
		c1.152,2.38,1.908,4.973,2.134,7.702c0.671,8.103-1.757,17.172-7.69,22.957c-5.497,5.362-14.67,6.221-21.392,2.831
		c-7.687-3.876-11.15-11.842-11.586-20.358c-0.293-5.724,2.736-12.904,5.656-17.166c3.413-4.981,8.315-7.762,13.55-8.106
		c-1.544-1.511-2.98-3.103-4.304-4.783C942.557,1076.824,938.138,1081.418,935.357,1087.546z"/>
	<path style="fill:#5B1A0F;" d="M938.495,1086.675c-2.92,4.263-5.949,11.442-5.656,17.166c0.436,8.516,3.898,16.481,11.586,20.358
		c6.722,3.39,15.895,2.531,21.392-2.831c5.933-5.785,8.362-14.854,7.69-22.957c-0.226-2.729-0.982-5.321-2.134-7.702
		c-7.216-2.628-13.884-6.814-19.327-12.14C946.809,1078.913,941.908,1081.694,938.495,1086.675z"/>
	<path style="fill:#43150A;" d="M1045.875,1234.338c7.551,1.793,13.386,5.702,17.57,10.843c1.277-0.322,2.536-0.735,3.755-1.266
		c10.868-4.726,18.843-15.125,22.222-25.653c3.259-10.149,0.544-20.819-6.887-28.156c-8.75-8.636-22.568-9.972-33.309-2.126
		c-1.095,0.8-5.05,4.081-6.779,6.024c-3.613,4.063-7.241,8.617-9.502,13.419c-0.453,0.963-0.793,1.946-1.14,2.926
		c2.814,6.647,3.254,14.47,1.366,21.871c0.274,0.509,0.58,1.004,0.891,1.498C1037.928,1233.264,1041.896,1233.393,1045.875,1234.338
		z M1040.427,1199.149c2.206-4.423,7.524-8.53,11.524-10.494c7.332-3.599,15.142-1.629,19.629,4.864
		c3.812,5.516,4.514,12.648,1.689,18.788c-2.929,6.37-8.597,12.151-15.504,13.981c-6.401,1.697-13.655-1.546-17.265-6.941
		C1036.369,1213.179,1037.145,1205.729,1040.427,1199.149z"/>
	<path style="fill:#5B1A0F;" d="M1057.764,1226.289c6.907-1.83,12.575-7.611,15.504-13.981c2.825-6.14,2.123-13.271-1.689-18.788
		c-4.488-6.494-12.297-8.463-19.629-4.864c-4,1.963-9.318,6.071-11.524,10.494c-3.282,6.58-4.057,14.03,0.072,20.199
		C1044.11,1224.743,1051.363,1227.986,1057.764,1226.289z"/>
	<path style="fill:#43150A;" d="M1063.083,1301.461c-1.585-0.845-3.225-1.548-4.938-2.035c-1.923,1.732-3.92,3.273-5.891,4.622
		c2.236,1.119,4.24,2.809,5.818,5.094c3.812,5.517,4.514,12.648,1.689,18.788c-2.93,6.37-8.598,12.151-15.505,13.981
		c-6.401,1.696-13.653-1.546-17.265-6.941c-4.13-6.169-3.354-13.619-0.072-20.199c0.657-1.317,1.609-2.596,2.701-3.809
		c-0.567-0.048-1.141-0.069-1.7-0.15c-3.262,3.76-6.436,7.884-8.483,12.232c-4.987,10.594-3.534,22.516,4.561,30.759
		c7.078,7.209,19.623,10.116,29.694,5.734c10.867-4.726,18.842-15.125,22.222-25.654c0.42-1.309,0.732-2.625,0.956-3.943
		C1069.521,1322.113,1064.559,1311.907,1063.083,1301.461z"/>
	<path style="fill:#5B1A0F;" d="M1026.991,1334.969c3.611,5.395,10.863,8.637,17.265,6.941c6.908-1.83,12.575-7.611,15.505-13.981
		c2.825-6.14,2.123-13.271-1.689-18.788c-1.578-2.285-3.583-3.975-5.818-5.094c-2.419,1.653-4.778,3.028-6.82,3.984
		c-5.465,2.558-10.793,3.354-15.814,2.929c-1.092,1.213-2.044,2.493-2.701,3.809
		C1023.637,1321.35,1022.862,1328.8,1026.991,1334.969z"/>
	<path style="fill:#43150A;" d="M1129.877,1397.434c12.449-5.414,21.584-17.326,25.455-29.387c0.569-1.774,0.927-3.561,1.183-5.346
		c-4.831-4.012-8.948-8.789-11.859-14.168c-2.867-5.299-4.685-11.064-5.548-16.984c-2.369,1.882-4.737,3.55-7.045,4.987
		c1.023,0.932,1.994,1.955,2.833,3.169c4.366,6.32,5.171,14.489,1.934,21.522c-3.357,7.297-9.848,13.919-17.761,16.016
		c-7.333,1.944-15.641-1.771-19.777-7.951c-4.731-7.067-3.843-15.601-0.082-23.138c0.442-0.886,1.023-1.754,1.656-2.607
		c-0.608-0.113-1.195-0.291-1.794-0.432c-3.271,3.899-6.359,8.108-8.434,12.515c-5.712,12.136-4.049,25.793,5.224,35.235
		C1103.97,1399.122,1118.341,1402.453,1129.877,1397.434z"/>
	<path style="fill:#5B1A0F;" d="M1099.292,1369.291c4.137,6.18,12.445,9.895,19.777,7.951c7.913-2.096,14.405-8.719,17.761-16.016
		c3.236-7.033,2.432-15.202-1.934-21.522c-0.839-1.214-1.81-2.236-2.833-3.169c-2.263,1.409-4.458,2.646-6.414,3.562
		c-8.644,4.046-17.052,4.88-24.784,3.449c-0.633,0.853-1.214,1.72-1.656,2.607
		C1095.449,1353.691,1094.56,1362.224,1099.292,1369.291z"/>
	<path style="fill:#43150A;" d="M1127.367,1253.772c-10.024-9.893-25.853-11.423-38.156-2.436c-1.255,0.917-5.786,4.675-7.765,6.9
		c-3.83,4.308-7.623,9.11-10.226,14.161c-0.378,4.951-1.536,9.909-3.551,14.561c-0.113,0.261-0.278,0.505-0.402,0.763
		c-0.061,7.75,2.754,15.251,8.519,21.121c8.108,8.257,22.479,11.588,34.015,6.569c12.449-5.414,21.585-17.326,25.455-29.387
		C1138.989,1274.4,1135.88,1262.177,1127.367,1253.772z"/>
	<path style="fill:#5B1A0F;" d="M1079.215,1287.269c4.137,6.18,12.445,9.895,19.778,7.951c7.913-2.096,14.405-8.719,17.761-16.015
		c3.236-7.034,2.432-15.203-1.934-21.522c-5.141-7.439-14.087-9.695-22.487-5.572c-4.582,2.249-10.673,6.954-13.2,12.021
		C1075.373,1271.669,1074.485,1280.202,1079.215,1287.269z"/>
	<path style="fill:#43150A;" d="M1263.034,1149.073c4.366,6.319,5.171,14.488,1.935,21.522c-3.357,7.297-9.849,13.92-17.762,16.016
		c-7.333,1.944-15.641-1.771-19.777-7.951c-4.731-7.067-3.843-15.601-0.083-23.138c0.794-1.593,1.965-3.138,3.306-4.594
		c-0.558-0.164-1.109-0.338-1.657-0.526c-3.913,4.46-7.769,9.393-10.22,14.597c-5.712,12.136-4.048,25.793,5.224,35.235
		c8.108,8.257,22.479,11.587,34.015,6.568c3.383-1.471,6.495-3.452,9.349-5.756c3.156-5.137,7.098-9.798,11.651-13.743
		c1.852-3.199,3.377-6.529,4.455-9.888c3.732-11.626,0.624-23.847-7.89-32.253c-1.458-1.439-3.066-2.646-4.742-3.724
		c-3.218,2.387-6.387,4.34-9.274,5.854C1262.071,1147.862,1262.584,1148.422,1263.034,1149.073z"/>
	<path style="fill:#5B1A0F;" d="M1227.43,1178.659c4.136,6.18,12.444,9.895,19.777,7.951c7.913-2.096,14.405-8.719,17.762-16.016
		c3.235-7.034,2.431-15.203-1.935-21.522c-0.45-0.651-0.964-1.21-1.469-1.782c-0.738,0.388-1.502,0.811-2.193,1.134
		c-10.134,4.744-19.951,5.085-28.719,2.501c-1.341,1.457-2.512,3.001-3.306,4.594
		C1223.588,1163.058,1222.699,1171.592,1227.43,1178.659z"/>
	<path style="fill:#43150A;" d="M1231.771,1058.653c6.525-1.011,12.791,1.596,16.772,7.357c4.366,6.32,5.171,14.488,1.934,21.522
		c-3.356,7.297-9.848,13.92-17.761,16.016c-7.333,1.944-15.641-1.771-19.778-7.951c-3.463-5.175-3.893-11.134-2.411-16.914
		c-0.556,0.29-1.137,0.614-1.66,0.858c-1.392,0.652-2.772,1.141-4.146,1.594c-0.135,0.269-0.308,0.53-0.436,0.801
		c-5.712,12.136-4.048,25.793,5.224,35.235c8.109,8.257,22.48,11.588,34.015,6.569c8.782-3.819,15.866-10.895,20.665-18.953
		c1.05-4.431,2.861-8.673,5.311-12.539c2.74-10.979-0.408-22.248-8.41-30.148c-7.313-7.218-17.713-9.921-27.582-7.399
		c-0.288,0.774-0.548,1.557-0.878,2.318C1232.389,1057.577,1232.053,1058.106,1231.771,1058.653z"/>
	<path style="fill:#5B1A0F;" d="M1212.939,1095.597c4.137,6.18,12.445,9.895,19.778,7.951c7.913-2.096,14.405-8.719,17.761-16.016
		c3.236-7.034,2.432-15.202-1.934-21.522c-3.981-5.761-10.248-8.369-16.772-7.357c-4.616,8.992-14.133,16.322-21.244,20.029
		C1209.045,1084.463,1209.475,1090.422,1212.939,1095.597z"/>
	<path style="fill:#43150A;" d="M1094.355,916.786c5.998-2.944,12.386-1.333,16.057,3.979c3.118,4.513,3.692,10.346,1.381,15.368
		c-2.397,5.211-7.032,9.94-12.683,11.436c-2.492,0.661-5.136,0.384-7.548-0.541c-1.984,4.01-5.056,7.665-8.476,10.74
		c5.869,5.526,15.743,7.699,23.742,4.219c8.89-3.865,15.413-12.372,18.177-20.984c2.665-8.301,0.445-17.029-5.634-23.031
		c-6.835-6.745-17.426-7.966-26.018-2.483c0.191,0.518,0.336,1.057,0.503,1.585C1094.019,916.99,1094.198,916.863,1094.355,916.786z
		"/>
	<path style="fill:#5B1A0F;" d="M1099.11,947.569c5.651-1.497,10.286-6.226,12.683-11.436c2.311-5.022,1.737-10.855-1.381-15.368
		c-3.672-5.311-10.059-6.923-16.057-3.979c-0.157,0.077-0.336,0.204-0.498,0.289c2.875,9.076,2.3,19.586-1.709,28.84
		c-0.165,0.381-0.4,0.739-0.585,1.114C1093.974,947.953,1096.617,948.23,1099.11,947.569z"/>
	<path style="fill:#43150A;" d="M1327.532,1190.964c-8.016-1.274-15.045-5.885-20.247-12.129
		c-7.173-0.883-14.751,0.826-21.334,5.635c-1.254,0.917-5.785,4.675-7.765,6.901c-4.138,4.654-8.295,9.87-10.884,15.371
		c-3.32,7.053-4.068,14.601-2.359,21.556c8.771,4.615,15.974,12.208,20.971,21.294c6.694,1.885,14.1,1.793,20.627-1.046
		c12.449-5.414,21.585-17.326,25.456-29.386C1335.168,1209.282,1333.358,1198.996,1327.532,1190.964z"/>
	<path style="fill:#5B1A0F;" d="M1275.873,1197.266c-3.759,7.537-4.648,16.071,0.082,23.138c4.137,6.18,12.445,9.895,19.778,7.951
		c7.913-2.096,14.405-8.718,17.761-16.015c3.236-7.034,2.432-15.203-1.934-21.522c-5.141-7.439-14.087-9.695-22.487-5.572
		C1284.492,1187.494,1278.4,1192.199,1275.873,1197.266z"/>
	<path style="fill:#43150A;" d="M1202.223,1268.046c-0.293-5.724,2.736-12.903,5.657-17.166c5.354-7.814,14.363-10.276,22.597-6.276
		c6.993,3.399,11.767,10.2,12.414,18.011c0.671,8.103-1.757,17.172-7.69,22.957c-2.77,2.702-6.473,4.254-10.325,4.702
		c4.009,5.837,6.996,12.503,8.753,19.578c8.084-1.079,16.073-5.132,21.149-11.857c8.281-10.967,10.408-26.015,7.819-38.574
		c-2.494-12.107-11.316-21.335-23.005-24.509c-13.759-3.735-28.475,2.793-34.851,16.838c-0.65,1.433-2.774,7-3.411,9.948
		c-0.652,3.014-1.234,6.149-1.613,9.284c0.997,0.312,1.998,0.611,2.966,0.994
		C1202.462,1270.686,1202.291,1269.378,1202.223,1268.046z"/>
	<path style="fill:#5B1A0F;" d="M1242.891,1262.615c-0.647-7.811-5.421-14.612-12.414-18.011c-8.234-4-17.244-1.538-22.597,6.276
		c-2.921,4.263-5.949,11.442-5.657,17.166c0.068,1.332,0.239,2.64,0.46,3.931c8.956,3.545,16.554,10.085,22.193,18.298
		c3.853-0.448,7.555-2.001,10.325-4.702C1241.135,1279.787,1243.563,1270.719,1242.891,1262.615z"/>
	<path style="fill:#43150A;" d="M1204.592,1305.023c-2.494-12.107-11.317-21.335-23.004-24.509
		c-13.76-3.735-28.476,2.793-34.851,16.838c-0.65,1.432-2.775,7-3.411,9.947c-1.333,6.162-2.402,12.83-1.948,18.967
		c1.002,13.542,9.265,24.754,22.137,28.464c11.258,3.245,25.584-0.97,33.257-11.134
		C1205.054,1332.629,1207.18,1317.582,1204.592,1305.023z"/>
	<path style="fill:#5B1A0F;" d="M1155.805,1334.005c6.722,3.39,15.895,2.531,21.392-2.831c5.933-5.785,8.362-14.854,7.69-22.958
		c-0.647-7.811-5.421-14.612-12.415-18.011c-8.233-4-17.243-1.538-22.597,6.276c-2.92,4.263-5.949,11.442-5.656,17.166
		C1144.655,1322.162,1148.118,1330.128,1155.805,1334.005z"/>
	<path style="fill:#43150A;" d="M1218.979,1393.21c-2.493-12.107-11.316-21.335-23.004-24.509
		c-13.76-3.735-28.476,2.793-34.85,16.838c-0.651,1.432-2.775,7-3.412,9.948c-1.162,5.373-2.059,11.111-1.985,16.568
		c7.467,6.283,11.46,15.657,11.999,25.597c2.954,2.311,6.329,4.157,10.177,5.266c2.096,0.604,4.312,0.866,6.558,0.963
		c1.21-0.084,2.429-0.09,3.654-0.044c7.792-0.579,15.632-4.017,21.131-9.921c2.01-4.778,4.595-9.287,7.803-13.294
		C1220.239,1411.734,1220.769,1401.889,1218.979,1393.21z"/>
	<path style="fill:#5B1A0F;" d="M1186.86,1378.392c-8.234-4-17.243-1.538-22.597,6.276c-2.921,4.263-5.95,11.442-5.657,17.166
		c0.436,8.516,3.898,16.481,11.586,20.357c6.722,3.391,15.895,2.531,21.391-2.831c5.934-5.785,8.362-14.854,7.69-22.958
		C1198.628,1388.592,1193.854,1381.791,1186.86,1378.392z"/>
	<path style="fill:#43150A;" d="M1262.761,1477.249c5.995-7.938,8.724-18.01,8.816-27.733c-1.34-4.72-1.984-9.617-2.027-14.542
		c-2.102-6.365-6.042-11.711-11.227-15.553c-5.129-1.238-10.091-3.25-14.668-5.953c-12.547-1.647-25.157,4.82-30.928,17.538
		c-0.651,1.432-2.775,7-3.412,9.947c-0.704,3.258-1.316,6.654-1.687,10.041c1.396,1.129,2.691,2.347,3.85,3.674
		c-0.702-2.35-1.139-4.825-1.269-7.367c-0.293-5.724,2.736-12.904,5.656-17.166c5.354-7.814,14.363-10.276,22.597-6.276
		c6.994,3.398,11.767,10.2,12.414,18.011c0.672,8.103-1.757,17.172-7.69,22.958c-5.497,5.362-14.67,6.221-21.392,2.831
		c-1.66-0.837-3.087-1.897-4.365-3.081c2.296,5.878,3.104,12.445,2.475,19.008c1.513,1.124,3.11,2.151,4.856,2.986
		c6.176-3.096,13.213-4.309,20.269-2.634c2.312,0.549,4.415,1.356,6.347,2.342
		C1255.79,1484.214,1259.782,1481.194,1262.761,1477.249z"/>
	<path style="fill:#5B1A0F;" d="M1243.185,1464.826c5.933-5.785,8.361-14.854,7.69-22.958c-0.647-7.811-5.42-14.613-12.414-18.011
		c-8.234-4-17.243-1.538-22.597,6.276c-2.921,4.262-5.95,11.442-5.656,17.166c0.13,2.542,0.568,5.017,1.269,7.367
		c2.553,2.922,4.532,6.277,5.951,9.909c1.279,1.183,2.705,2.244,4.365,3.081C1228.515,1471.047,1237.688,1470.188,1243.185,1464.826
		z"/>
	<path style="fill:#43150A;" d="M1302.477,1482.634c-3.473-1.358-6.798-3.079-9.926-5.116c-6.435-1.491-13.51-0.268-19.539,4.136
		c-1.008,0.736-4.647,3.755-6.237,5.543c-2.062,2.319-4.093,4.826-5.863,7.44c0.713,1.026,1.368,2.089,1.94,3.204
		c0.425-2.007,1.113-3.999,2.065-5.909c2.03-4.07,6.923-7.849,10.603-9.656c6.748-3.311,13.933-1.499,18.062,4.476
		c3.507,5.076,4.153,11.638,1.554,17.288c-2.696,5.862-7.911,11.181-14.267,12.865c-5.191,1.376-10.982-0.783-14.56-4.711
		c0.104,5.29-0.904,10.71-3.07,15.71c-0.083,0.192-0.205,0.371-0.294,0.56c6.613,6.149,17.652,8.555,26.607,4.659
		c10-4.349,17.338-13.917,20.447-23.605c2.998-9.339,0.501-19.156-6.338-25.908
		C1303.292,1483.247,1302.866,1482.97,1302.477,1482.634z"/>
	<path style="fill:#5B1A0F;" d="M1280.87,1516.905c6.356-1.684,11.571-7.003,14.267-12.865c2.599-5.65,1.953-12.212-1.554-17.288
		c-4.129-5.975-11.315-7.787-18.062-4.476c-3.68,1.807-8.574,5.586-10.603,9.656c-0.953,1.91-1.641,3.902-2.065,5.909
		c2.223,4.34,3.358,9.282,3.457,14.353C1269.887,1516.123,1275.679,1518.281,1280.87,1516.905z"/>
	<path style="fill:#43150A;" d="M1284.634,1350.794c-2.494-12.107-11.317-21.335-23.004-24.509
		c-13.759-3.735-28.476,2.792-34.851,16.838c-0.65,1.432-2.774,7-3.412,9.947c-1.333,6.162-2.401,12.829-1.947,18.967
		c1.003,13.542,9.265,24.754,22.138,28.464c11.258,3.245,25.584-0.97,33.257-11.134
		C1285.095,1378.4,1287.222,1363.352,1284.634,1350.794z"/>
	<path style="fill:#5B1A0F;" d="M1257.238,1376.944c5.933-5.785,8.361-14.854,7.69-22.957c-0.647-7.812-5.421-14.613-12.414-18.012
		c-8.233-4-17.243-1.538-22.597,6.276c-2.921,4.263-5.95,11.442-5.656,17.166c0.436,8.516,3.899,16.481,11.586,20.358
		C1242.568,1383.165,1251.741,1382.307,1257.238,1376.944z"/>
	<path style="fill:#43150A;" d="M1335.563,1416.122c-0.224-1.087-0.556-2.122-0.88-3.161c-9.471-4.693-17.642-12.066-22.514-21.068
		c-0.067-0.124-0.111-0.257-0.177-0.381c-13.596-3.407-27.996,3.086-34.284,16.939c-0.649,1.432-2.775,7-3.412,9.948
		c-1.333,6.162-2.401,12.829-1.947,18.967c1.002,13.542,9.265,24.754,22.137,28.464c6.2,1.787,13.305,1.237,19.743-1.249
		c-0.55-17.842,7.349-36.067,21.637-46.504C1335.759,1417.427,1335.694,1416.76,1335.563,1416.122z"/>
	<path style="fill:#5B1A0F;" d="M1303.443,1401.304c-8.233-4.001-17.243-1.538-22.597,6.276c-2.92,4.262-5.949,11.442-5.656,17.166
		c0.436,8.516,3.899,16.481,11.586,20.358c6.722,3.39,15.895,2.531,21.392-2.831c5.933-5.785,8.362-14.854,7.69-22.958
		C1315.211,1411.504,1310.437,1404.703,1303.443,1401.304z"/>
	<path style="fill:#43150A;" d="M1379.243,1444.751c-2.456-11.922-11.144-21.009-22.653-24.134
		c-13.549-3.678-28.042,2.75-34.318,16.581c-0.64,1.41-2.733,6.893-3.36,9.795c-1.313,6.068-2.364,12.633-1.918,18.677
		c0.944,12.758,8.483,23.342,20.231,27.44c8.294-4.637,17.967-6.564,27.656-4.263c0.065,0.016,0.122,0.041,0.187,0.057
		c2.444-1.71,4.656-3.759,6.474-6.168C1379.697,1471.936,1381.791,1457.118,1379.243,1444.751z"/>
	<path style="fill:#5B1A0F;" d="M1359.838,1447.896c-0.637-7.692-5.338-14.389-12.225-17.736c-8.108-3.939-16.98-1.515-22.252,6.18
		c-2.876,4.197-5.859,11.267-5.57,16.904c0.429,8.385,3.839,16.229,11.408,20.047c6.62,3.338,15.653,2.492,21.066-2.788
		C1358.108,1464.805,1360.499,1455.875,1359.838,1447.896z"/>
	<path style="fill:#43150A;" d="M1365.791,1498.175c-8.051-7.947-20.766-9.176-30.649-1.957c-1.008,0.736-4.648,3.755-6.238,5.543
		c-3.324,3.739-6.662,7.929-8.742,12.347c-4.589,9.749-3.252,20.718,4.196,28.303c6.513,6.633,18.056,9.309,27.323,5.277
		c9.684-4.211,16.835-13.321,20.104-22.691c0.172-3.032,0.694-6.015,1.547-8.914
		C1373.306,1509.412,1370.683,1503.006,1365.791,1498.175z"/>
	<path style="fill:#5B1A0F;" d="M1355.712,1501.317c-4.129-5.975-11.315-7.788-18.062-4.476c-3.681,1.807-8.574,5.586-10.604,9.656
		c-3.02,6.055-3.734,12.91,0.066,18.586c3.323,4.964,9.996,7.948,15.886,6.387c6.357-1.683,11.571-7.003,14.268-12.865
		C1359.866,1512.954,1359.219,1506.392,1355.712,1501.317z"/>
	<path style="fill:#43150A;" d="M1414.212,1499.495c2.345,4.638,2.538,10.14,0.317,14.968c-2.655,5.772-7.79,11.01-14.049,12.669
		c-5.8,1.537-12.372-1.401-15.644-6.289c-3.743-5.59-3.039-12.34-0.066-18.302c1.999-4.008,6.817-7.729,10.442-9.509
		c2.341-1.149,4.732-1.639,7.03-1.576c-0.866-0.827-1.706-1.671-2.489-2.567c-2.421,0.776-4.792,1.91-7.011,3.531
		c-0.993,0.725-4.577,3.697-6.142,5.458c-3.273,3.682-6.561,7.808-8.61,12.159c-4.519,9.599-3.202,20.402,4.132,27.871
		c6.414,6.532,17.781,9.166,26.906,5.196c9.847-4.282,17.073-13.705,20.135-23.245c1.839-5.728,1.574-11.637-0.511-16.888
		C1423.714,1502.768,1418.797,1501.543,1414.212,1499.495z"/>
	<path style="fill:#5B1A0F;" d="M1395.212,1493.031c-3.625,1.779-8.443,5.501-10.442,9.509c-2.973,5.962-3.677,12.712,0.066,18.302
		c3.272,4.888,9.843,7.826,15.644,6.289c6.259-1.658,11.394-6.897,14.049-12.669c2.222-4.828,2.028-10.33-0.317-14.968
		c-4.425-1.978-8.497-4.725-11.97-8.04C1399.944,1491.392,1397.553,1491.882,1395.212,1493.031z"/>
	<path style="fill:#43150A;" d="M1338.697,1287.17c-2.494-12.107-11.317-21.335-23.004-24.509
		c-13.759-3.735-28.476,2.793-34.85,16.838c-0.65,1.432-2.775,7-3.412,9.948c-1.333,6.162-2.401,12.829-1.947,18.967
		c1.002,13.542,9.265,24.754,22.137,28.464c5.208,1.501,11.061,1.339,16.619-0.203c5.122-8.671,12.5-15.869,21.826-20.125
		C1339.925,1307.174,1340.617,1296.49,1338.697,1287.17z"/>
	<path style="fill:#5B1A0F;" d="M1306.577,1272.353c-8.233-4-17.243-1.538-22.597,6.276c-2.92,4.262-5.949,11.442-5.656,17.166
		c0.436,8.516,3.899,16.481,11.586,20.358c6.722,3.39,15.895,2.531,21.392-2.831c5.933-5.785,8.361-14.854,7.69-22.957
		C1318.345,1282.553,1313.571,1275.751,1306.577,1272.353z"/>
	<path style="fill:#43150A;" d="M1372.104,1348.382c-2.494-12.107-11.317-21.335-23.004-24.509
		c-13.759-3.735-28.476,2.792-34.851,16.837c-0.65,1.432-2.774,7-3.412,9.948c-1.333,6.162-2.401,12.829-1.947,18.967
		c1.002,13.542,9.265,24.754,22.138,28.464c11.257,3.245,25.584-0.969,33.257-11.134
		C1372.566,1375.989,1374.693,1360.941,1372.104,1348.382z"/>
	<path style="fill:#5B1A0F;" d="M1339.984,1333.564c-8.233-4-17.243-1.538-22.597,6.276c-2.921,4.262-5.949,11.442-5.656,17.166
		c0.436,8.516,3.899,16.481,11.586,20.357c6.723,3.391,15.895,2.531,21.392-2.831c5.933-5.785,8.362-14.854,7.69-22.958
		C1351.752,1343.765,1346.978,1336.963,1339.984,1333.564z"/>
	<path style="fill:#43150A;" d="M1419.938,1384.242c-1.948-9.46-8.843-16.67-17.974-19.15c-10.751-2.919-22.25,2.182-27.231,13.156
		c-0.508,1.119-2.168,5.469-2.667,7.772c-1.041,4.814-1.875,10.024-1.521,14.82c0.783,10.581,7.239,19.342,17.298,22.241
		c8.796,2.535,19.99-0.758,25.985-8.7C1420.3,1405.813,1421.961,1394.055,1419.938,1384.242z"/>
	<path style="fill:#5B1A0F;" d="M1377.185,1377.568c-2.282,3.331-4.649,8.94-4.42,13.413c0.341,6.653,3.046,12.877,9.053,15.906
		c5.252,2.649,12.419,1.978,16.715-2.212c4.636-4.521,6.533-11.607,6.008-17.938c-0.505-6.104-4.236-11.417-9.7-14.073
		C1388.408,1369.538,1381.368,1371.462,1377.185,1377.568z"/>
	<path style="fill:#43150A;" d="M1441.926,1448.288c-1.949-9.46-8.843-16.67-17.975-19.15c-10.751-2.918-22.25,2.182-27.231,13.157
		c-0.508,1.119-2.168,5.469-2.666,7.772c-1.041,4.814-1.876,10.024-1.521,14.82c0.783,10.581,7.239,19.342,17.297,22.241
		c8.796,2.535,19.991-0.758,25.985-8.7C1442.286,1469.859,1443.947,1458.101,1441.926,1448.288z"/>
	<path style="fill:#5B1A0F;" d="M1416.828,1436.71c-6.433-3.126-13.473-1.202-17.656,4.904c-2.282,3.331-4.649,8.94-4.42,13.413
		c0.341,6.654,3.046,12.878,9.053,15.906c5.252,2.649,12.419,1.978,16.715-2.212c4.636-4.521,6.533-11.606,6.009-17.938
		C1426.023,1444.68,1422.293,1439.366,1416.828,1436.71z"/>
	<path style="fill:#43150A;" d="M1394.111,1222.629c1.62,5.082,1.402,10.657-0.903,15.667c-3.357,7.297-9.849,13.919-17.762,16.015
		c-7.333,1.944-15.641-1.771-19.777-7.951c-4.731-7.067-3.842-15.6-0.082-23.138c0.147-0.294,0.343-0.582,0.513-0.873
		c-0.5-0.385-1.006-0.757-1.487-1.168c-2.955,3.616-5.7,7.487-7.597,11.517c-5.713,12.136-4.048,25.793,5.224,35.235
		c5.531,5.633,13.976,8.889,22.448,8.85c7.947-9.211,18.672-15.947,30.422-18.327c2.887-4.194,5.128-8.754,6.6-13.34
		c3.616-11.262,0.763-23.052-7.155-31.422C1401.386,1217.23,1397.662,1220.301,1394.111,1222.629z"/>
	<path style="fill:#5B1A0F;" d="M1355.669,1246.36c4.137,6.18,12.444,9.895,19.777,7.951c7.913-2.096,14.405-8.718,17.762-16.015
		c2.304-5.01,2.522-10.584,0.903-15.667c-2.086,1.367-4.1,2.489-5.877,3.321c-12.048,5.639-23.496,3.04-32.135-3.6
		c-0.17,0.291-0.366,0.578-0.513,0.873C1351.827,1230.76,1350.938,1239.293,1355.669,1246.36z"/>
	<path style="fill:#43150A;" d="M1380.104,1164.074c3.278,4.744,3.882,10.878,1.452,16.158c-2.52,5.479-7.394,10.45-13.335,12.024
		c-5.505,1.459-11.743-1.329-14.849-5.969c-0.445-0.664-0.823-1.345-1.139-2.041c-2.415,1.652-4.773,3.026-6.813,3.981
		c-0.301,0.141-0.596,0.214-0.895,0.344c0.391,5.116,2.43,10,6.271,13.912c6.088,6.2,16.878,8.7,25.538,4.932
		c9.347-4.065,16.205-13.008,19.112-22.063c2.802-8.728,0.467-17.905-5.924-24.215c-4.971-4.906-11.84-7.003-18.595-5.964
		c-0.143,1.075-0.354,2.145-0.574,3.213C1374.186,1158.629,1377.7,1160.594,1380.104,1164.074z"/>
	<path style="fill:#5B1A0F;" d="M1368.222,1192.256c5.941-1.574,10.815-6.546,13.335-12.024c2.43-5.281,1.826-11.414-1.452-16.158
		c-2.404-3.479-5.918-5.445-9.749-5.687c-0.621,3.003-1.516,5.968-2.748,8.814c-3.015,6.958-9.388,12.952-15.373,17.046
		c0.316,0.695,0.694,1.376,1.139,2.041C1356.479,1190.927,1362.716,1193.715,1368.222,1192.256z"/>
	<path style="fill:#43150A;" d="M1277.322,1085.512c-3.107,3.494-6.227,7.411-8.172,11.54c-4.288,9.112-3.04,19.365,3.922,26.454
		c6.088,6.199,16.877,8.7,25.538,4.932c9.347-4.065,16.205-13.008,19.111-22.064c2.803-8.728,0.468-17.905-5.923-24.215
		c-7.526-7.428-19.41-8.577-28.647-1.829C1282.21,1081.019,1278.808,1083.84,1277.322,1085.512z M1302.38,1085.096
		c3.278,4.744,3.882,10.877,1.452,16.158c-2.52,5.479-7.394,10.451-13.335,12.025c-5.506,1.459-11.743-1.33-14.848-5.97
		c-3.552-5.305-2.885-11.712-0.062-17.372c1.897-3.804,6.471-7.336,9.911-9.025
		C1291.803,1077.817,1298.52,1079.511,1302.38,1085.096z"/>
	<path style="fill:#5B1A0F;" d="M1275.586,1089.937c-2.823,5.659-3.49,12.066,0.062,17.372c3.105,4.64,9.342,7.429,14.848,5.97
		c5.941-1.574,10.815-6.546,13.335-12.025c2.43-5.281,1.826-11.414-1.452-16.158c-3.86-5.585-10.577-7.279-16.883-4.184
		C1282.057,1082.601,1277.483,1086.133,1275.586,1089.937z"/>
	<path style="fill:#43150A;" d="M1425.82,1270.274c-10.023-9.894-25.853-11.423-38.155-2.436c-1.255,0.917-5.786,4.675-7.766,6.901
		c-4.138,4.654-8.294,9.871-10.884,15.371c-5.713,12.137-4.049,25.793,5.224,35.235c8.108,8.258,22.479,11.588,34.015,6.569
		c12.449-5.413,21.584-17.326,25.456-29.387C1437.443,1290.901,1434.333,1278.679,1425.82,1270.274z"/>
	<path style="fill:#5B1A0F;" d="M1413.273,1274.185c-5.141-7.439-14.087-9.695-22.487-5.572
		c-4.582,2.249-10.673,6.955-13.201,12.021c-3.759,7.537-4.648,16.071,0.083,23.138c4.137,6.181,12.445,9.895,19.777,7.952
		c7.914-2.096,14.406-8.719,17.762-16.016C1418.444,1288.673,1417.64,1280.504,1413.273,1274.185z"/>
	<path style="fill:#43150A;" d="M1346.71,1123.415c-7.525-7.428-19.41-8.577-28.646-1.829c-0.942,0.688-4.344,3.509-5.83,5.181
		c-3.107,3.494-6.227,7.411-8.172,11.541c-4.289,9.112-3.04,19.365,3.922,26.454c6.088,6.199,16.877,8.7,25.538,4.932
		c9.347-4.064,16.205-13.008,19.112-22.063C1355.437,1138.901,1353.103,1129.725,1346.71,1123.415z"/>
	<path style="fill:#5B1A0F;" d="M1320.408,1122.167c-3.439,1.688-8.013,5.221-9.91,9.025c-2.823,5.659-3.49,12.066,0.062,17.371
		c3.106,4.641,9.343,7.429,14.849,5.97c5.941-1.574,10.816-6.546,13.335-12.025c2.43-5.28,1.826-11.414-1.453-16.158
		C1333.431,1120.766,1326.714,1119.072,1320.408,1122.167z"/>
	<path style="fill:#43150A;" d="M1046.727,1243.076c-7.542-7.444-19.453-8.596-28.71-1.833c-0.944,0.69-4.353,3.517-5.843,5.193
		c-3.114,3.501-6.241,7.427-8.19,11.566c-4.299,9.132-3.046,19.408,3.931,26.513c6.101,6.213,16.914,8.719,25.594,4.943
		c9.367-4.073,16.241-13.037,19.154-22.112C1055.472,1258.597,1053.132,1249.401,1046.727,1243.076z"/>
	<path style="fill:#5B1A0F;" d="M1037.286,1246.019c-3.868-5.597-10.6-7.295-16.919-4.193c-3.448,1.692-8.032,5.233-9.933,9.045
		c-2.829,5.672-3.497,12.092,0.062,17.41c3.113,4.651,9.363,7.446,14.881,5.983c5.954-1.578,10.839-6.561,13.365-12.051
		C1041.176,1256.92,1040.571,1250.774,1037.286,1246.019z"/>
	<path style="fill:#43150A;" d="M1143.131,1414.081c-7.542-7.445-19.453-8.596-28.71-1.833c-0.944,0.69-4.354,3.517-5.843,5.193
		c-3.114,3.501-6.241,7.427-8.19,11.566c-4.298,9.132-3.045,19.408,3.931,26.513c6.101,6.213,16.914,8.719,25.594,4.943
		c9.367-4.073,16.241-13.037,19.154-22.112C1151.876,1429.602,1149.536,1420.406,1143.131,1414.081z"/>
	<path style="fill:#5B1A0F;" d="M1133.69,1417.023c-3.869-5.597-10.599-7.295-16.92-4.192c-3.447,1.692-8.031,5.232-9.933,9.045
		c-2.829,5.672-3.498,12.093,0.062,17.41c3.113,4.65,9.364,7.445,14.881,5.983c5.954-1.578,10.839-6.561,13.365-12.051
		C1137.581,1427.926,1136.976,1421.779,1133.69,1417.023z"/>
	<path style="fill:#43150A;" d="M1195.487,1453.394c-7.542-7.444-19.453-8.596-28.71-1.833c-0.944,0.689-4.353,3.517-5.843,5.192
		c-3.114,3.502-6.241,7.427-8.189,11.566c-4.299,9.132-3.046,19.408,3.93,26.512c6.101,6.213,16.915,8.719,25.595,4.943
		c9.367-4.074,16.241-13.037,19.153-22.112C1204.232,1468.915,1201.893,1459.718,1195.487,1453.394z"/>
	<path style="fill:#5B1A0F;" d="M1186.046,1456.337c-3.867-5.597-10.599-7.295-16.919-4.193c-3.448,1.692-8.031,5.233-9.933,9.045
		c-2.828,5.671-3.497,12.092,0.063,17.41c3.113,4.65,9.363,7.446,14.881,5.983c5.953-1.578,10.839-6.561,13.365-12.051
		C1189.937,1467.238,1189.332,1461.092,1186.046,1456.337z"/>
	<path style="fill:#43150A;" d="M1245.74,1491.238c-6.301-6.22-16.254-7.182-23.989-1.531c-0.789,0.576-3.638,2.939-4.882,4.339
		c-2.602,2.926-5.215,6.206-6.844,9.664c-3.592,7.63-2.545,16.217,3.284,22.153c5.098,5.191,14.133,7.285,21.386,4.13
		c7.827-3.404,13.57-10.894,16.004-18.476C1253.048,1504.207,1251.093,1496.523,1245.74,1491.238z"/>
	<path style="fill:#5B1A0F;" d="M1237.853,1493.697c-3.232-4.677-8.857-6.095-14.138-3.503c-2.881,1.414-6.711,4.372-8.299,7.558
		c-2.364,4.739-2.923,10.104,0.051,14.547c2.601,3.885,7.824,6.221,12.434,4.998c4.975-1.318,9.057-5.481,11.167-10.069
		C1241.104,1502.806,1240.597,1497.67,1237.853,1493.697z"/>
	<path style="fill:#43150A;" d="M1430.562,1328.459c-0.789,0.577-3.638,2.939-4.882,4.339c-2.601,2.926-5.214,6.206-6.843,9.664
		c-3.592,7.63-2.546,16.217,3.284,22.153c5.098,5.192,14.133,7.286,21.386,4.13c7.827-3.403,13.571-10.894,16.004-18.476
		c2.347-7.309,0.392-14.994-4.961-20.278C1448.249,1323.771,1438.297,1322.809,1430.562,1328.459z M1447.879,1345.981
		c-2.11,4.588-6.192,8.752-11.167,10.069c-4.61,1.222-9.833-1.113-12.435-4.999c-2.974-4.443-2.415-9.808-0.052-14.547
		c1.589-3.186,5.419-6.144,8.3-7.558c5.281-2.592,10.906-1.173,14.138,3.503C1449.408,1336.423,1449.914,1341.559,1447.879,1345.981
		z"/>
	<path style="fill:#5B1A0F;" d="M1446.663,1332.449c-3.232-4.677-8.857-6.095-14.138-3.503c-2.881,1.414-6.711,4.372-8.3,7.558
		c-2.363,4.739-2.922,10.104,0.052,14.547c2.601,3.885,7.824,6.221,12.435,4.999c4.975-1.318,9.057-5.482,11.167-10.069
		C1449.914,1341.559,1449.408,1336.423,1446.663,1332.449z"/>
	<g>
		<path style="fill:#43150A;" d="M1044.812,1140.682c-2.494-12.107-11.317-21.335-23.004-24.509
			c-13.759-3.735-28.476,2.793-34.851,16.838c-0.65,1.432-2.774,7-3.412,9.947c-1.333,6.162-2.401,12.829-1.947,18.967
			c1.003,13.542,9.265,24.754,22.138,28.464c11.258,3.245,25.584-0.969,33.257-11.134
			C1045.274,1168.288,1047.401,1153.24,1044.812,1140.682z"/>
		<path style="fill:#43150A;" d="M990.864,1200.508c-0.769,0.562-3.547,2.866-4.76,4.23c-2.536,2.853-5.084,6.051-6.672,9.423
			c-3.502,7.44-2.481,15.812,3.203,21.6c4.971,5.062,13.781,7.103,20.852,4.027c7.632-3.319,13.232-10.622,15.606-18.015
			c2.288-7.127,0.382-14.619-4.837-19.771C1008.109,1195.936,998.406,1194.998,990.864,1200.508z"/>
	</g>
	<path style="fill:#5B1A0F;" d="M1017.417,1166.832c5.933-5.785,8.361-14.854,7.69-22.957c-0.647-7.811-5.421-14.613-12.414-18.011
		c-8.234-4-17.243-1.538-22.597,6.276c-2.921,4.263-5.95,11.442-5.657,17.166c0.436,8.516,3.899,16.481,11.586,20.358
		C1002.747,1173.053,1011.92,1172.195,1017.417,1166.832z"/>
	<path style="fill:#5B1A0F;" d="M1006.562,1204.398c-3.151-4.56-8.635-5.943-13.784-3.416c-2.809,1.379-6.543,4.263-8.093,7.369
		c-2.304,4.621-2.849,9.852,0.051,14.184c2.536,3.789,7.629,6.066,12.124,4.874c4.851-1.285,8.831-5.345,10.889-9.818
		C1009.732,1213.28,1009.239,1208.272,1006.562,1204.398z"/>
	<g>
		<path style="fill:#43150A;" d="M980.287,999.266c-13.759-3.735-28.476,2.792-34.85,16.837c-0.65,1.432-2.775,7-3.412,9.947
			c-1.333,6.162-2.401,12.83-1.947,18.967c1.003,13.542,9.265,24.754,22.138,28.464c11.258,3.245,25.584-0.97,33.257-11.134
			c8.281-10.967,10.408-26.015,7.82-38.574C1000.798,1011.668,991.975,1002.44,980.287,999.266z"/>
		<path style="fill:#43150A;" d="M1062.949,1101.862c8.281-10.966,10.408-26.014,7.819-38.573
			c-2.494-12.107-11.317-21.335-23.004-24.509c-13.76-3.735-28.476,2.792-34.851,16.837c-0.649,1.432-2.774,7-3.412,9.948
			c-1.332,6.162-2.401,12.829-1.947,18.967c0.629,8.493,4.117,16.065,9.802,21.449c12.285-2.888,23.574-0.455,32.891,5.439
			C1055.179,1109.367,1059.681,1106.191,1062.949,1101.862z"/>
		<path style="fill:#43150A;" d="M1055.073,981.506c-0.65,1.432-2.774,7-3.412,9.947c-1.333,6.161-2.401,12.829-1.947,18.967
			c1.003,13.542,9.265,24.754,22.138,28.464c5.208,1.501,11.061,1.34,16.62-0.203c5.122-8.67,12.499-15.869,21.825-20.125
			c3.861-9.376,4.552-20.06,2.632-29.38c-0.521-2.53-1.377-4.898-2.419-7.148c-14.227,2.623-26.729-6.05-33.039-17.905
			C1068.056,965.671,1059.522,971.704,1055.073,981.506z"/>
		<path style="fill:#43150A;" d="M1088.481,1042.718c-0.65,1.432-2.774,7-3.412,9.947c-1.333,6.161-2.401,12.829-1.947,18.967
			c0.722,9.757,5.259,18.254,12.527,23.657c10.253-1.947,19.781-0.234,27.965,4.115c3.742-1.258,7.249-3.226,10.306-5.768
			c2.024-7.948,6.137-15.31,11.989-20.883c1.783-7.468,1.882-15.303,0.427-22.365c-2.494-12.107-11.317-21.335-23.004-24.509
			C1109.572,1022.146,1094.855,1028.673,1088.481,1042.718z"/>
		<path style="fill:#43150A;" d="M1121.762,1134.639c-0.168-1.423-0.37-2.834-0.653-4.206
			c-2.494-12.107-11.317-21.335-23.004-24.509c-13.759-3.735-28.476,2.793-34.85,16.838c-0.65,1.432-2.774,7-3.412,9.947
			c-1.333,6.162-2.401,12.829-1.947,18.967c0.947,12.788,8.422,23.415,20.085,27.692c1.187,0.168,2.374,0.317,3.564,0.599
			c1.229,0.292,2.372,0.687,3.523,1.072c5.871,0.554,12.124-0.622,17.646-3.39
			C1102.636,1161.388,1109.479,1144.996,1121.762,1134.639z"/>
		<path style="fill:#43150A;" d="M1110.745,1151.753c-0.64,1.41-2.733,6.893-3.36,9.795c-1.313,6.068-2.364,12.633-1.918,18.677
			c0.423,5.723,2.233,10.971,5.083,15.446c8.493-5.018,18.512-7.205,28.562-4.818c7.337,1.743,13.123,5.385,17.478,10.157
			c1.24-1.137,2.402-2.363,3.425-3.719c3.763-4.982,6.18-10.831,7.502-16.888c-3.405-8.44-3.794-17.962-1.621-26.838
			c-1.675-4.085-4.135-7.682-7.227-10.653c-4.56-1.725-8.843-4.225-12.54-7.37c-0.362-0.112-0.699-0.27-1.067-0.37
			C1131.514,1131.494,1117.022,1137.922,1110.745,1151.753z"/>
		<path style="fill:#43150A;" d="M1151.997,1129.626c8.796,2.535,19.99-0.758,25.985-8.7c6.471-8.569,8.133-20.327,6.11-30.14
			c-1.205-5.85-4.309-10.831-8.656-14.374c-0.252-0.181-0.502-0.364-0.749-0.55c-2.519-1.9-5.397-3.364-8.57-4.226
			c-10.751-2.918-22.25,2.182-27.231,13.156c-0.508,1.119-2.167,5.47-2.666,7.772c-1.041,4.814-1.876,10.024-1.521,14.82
			C1135.483,1117.967,1141.939,1126.727,1151.997,1129.626z"/>
		<path style="fill:#43150A;" d="M1184.062,1189.135c8.796,2.535,19.99-0.757,25.985-8.7c0.577-0.764,1.071-1.581,1.573-2.393
			c0.931-5.192,2.618-10.23,5.035-14.935c0.503-4.362,0.339-8.751-0.498-12.811c-1.948-9.46-8.842-16.67-17.974-19.15
			c-10.751-2.919-22.25,2.182-27.231,13.156c-0.508,1.12-2.168,5.469-2.666,7.772c-1.041,4.815-1.876,10.024-1.521,14.82
			C1167.547,1177.475,1174.003,1186.235,1184.062,1189.135z"/>
		<path style="fill:#43150A;" d="M1140.022,1200.182c-8.051-7.947-20.766-9.176-30.649-1.957c-1.008,0.736-4.647,3.755-6.237,5.543
			c-3.324,3.738-6.663,7.929-8.742,12.347c-4.569,9.708-3.254,20.623,4.112,28.203c8.676-3.373,18.193-4.425,27.728-2.16
			c2.708,0.643,5.189,1.556,7.568,2.583c5.946-4.937,10.342-11.746,12.558-18.652
			C1149.358,1216.751,1146.861,1206.933,1140.022,1200.182z"/>
		<path style="fill:#43150A;" d="M1169.393,1205.477c-1.255,0.917-5.785,4.675-7.766,6.901c-4.137,4.654-8.294,9.871-10.884,15.371
			c-5.713,12.136-4.049,25.793,5.224,35.235c4.376,4.456,10.587,7.408,17.181,8.456c0.563-0.187,1.087-0.436,1.661-0.602
			c5.496-1.584,10.794-2.031,15.843-1.63c2.613-1.198,5.072-2.679,7.366-4.391c2.717-12.166,9.144-23.463,18.725-31.175
			c1.005-9.518-2.267-18.888-9.196-25.729C1197.525,1198.019,1181.696,1196.489,1169.393,1205.477z"/>
		<path style="fill:#43150A;" d="M1059.73,948.286c8.889-3.866,15.413-12.372,18.177-20.984c2.666-8.302,0.446-17.029-5.634-23.031
			c-7.157-7.065-18.46-8.157-27.246-1.74c-0.896,0.655-4.131,3.338-5.545,4.928c-2.954,3.323-5.922,7.048-7.771,10.976
			c-4.079,8.666-2.891,18.418,3.73,25.16C1041.231,949.491,1051.493,951.869,1059.73,948.286z"/>
		<path style="fill:#43150A;" d="M1154.026,1010.889c10.011-4.353,17.358-13.933,20.471-23.632
			c3.002-9.349,0.502-19.178-6.345-25.938c-8.061-7.956-20.79-9.186-30.684-1.959c-1.009,0.737-4.653,3.76-6.245,5.549
			c-3.327,3.743-6.67,7.938-8.752,12.362c-4.594,9.76-3.256,20.742,4.201,28.336
			C1133.192,1012.247,1144.749,1014.925,1154.026,1010.889z"/>
		<path style="fill:#43150A;" d="M1173.319,1013.709c-3.328,3.742-6.67,7.938-8.753,12.361c-4.594,9.76-3.256,20.742,4.201,28.336
			c6.521,6.641,18.078,9.319,27.355,5.282c10.011-4.353,17.358-13.933,20.471-23.632c3.002-9.349,0.502-19.178-6.344-25.938
			c-8.061-7.956-20.79-9.186-30.685-1.959C1178.555,1008.896,1174.911,1011.919,1173.319,1013.709z"/>
	</g>
	<path style="fill:#5B1A0F;" d="M975.896,1049.925c5.933-5.785,8.362-14.854,7.69-22.958c-0.647-7.811-5.421-14.612-12.415-18.011
		c-8.233-4-17.243-1.538-22.597,6.276c-2.92,4.263-5.949,11.442-5.657,17.166c0.436,8.516,3.899,16.481,11.586,20.358
		C961.227,1056.146,970.399,1055.287,975.896,1049.925z"/>
	<path style="fill:#5B1A0F;" d="M1038.649,1048.471c-8.233-4.001-17.242-1.538-22.597,6.276c-2.921,4.262-5.949,11.442-5.656,17.166
		c0.436,8.516,3.899,16.481,11.586,20.358c6.722,3.39,15.894,2.531,21.393-2.831c5.933-5.785,8.361-14.854,7.689-22.958
		C1050.417,1058.671,1045.643,1051.869,1038.649,1048.471z"/>
	<path style="fill:#5B1A0F;" d="M1058.212,980.635c-2.921,4.263-5.95,11.442-5.656,17.166c0.436,8.516,3.899,16.481,11.585,20.358
		c6.723,3.39,15.895,2.531,21.393-2.831c5.933-5.785,8.361-14.854,7.69-22.957c-0.647-7.811-5.421-14.613-12.414-18.012
		C1072.575,970.359,1063.566,972.821,1058.212,980.635z"/>
	<path style="fill:#5B1A0F;" d="M1101.403,1133.626c-0.647-7.811-5.42-14.613-12.414-18.011c-8.234-4-17.243-1.538-22.597,6.276
		c-2.921,4.263-5.95,11.442-5.656,17.166c0.436,8.516,3.898,16.481,11.585,20.358c6.722,3.39,15.895,2.531,21.393-2.831
		C1099.647,1150.798,1102.075,1141.73,1101.403,1133.626z"/>
	<path style="fill:#5B1A0F;" d="M1136.087,1144.715c-8.108-3.939-16.979-1.515-22.252,6.181c-2.876,4.197-5.859,11.267-5.57,16.904
		c0.429,8.385,3.839,16.229,11.408,20.046c6.62,3.339,15.653,2.492,21.066-2.788c5.843-5.697,8.234-14.627,7.573-22.606
		C1147.675,1154.759,1142.974,1148.061,1136.087,1144.715z"/>
	<path style="fill:#5B1A0F;" d="M1141.34,1084.112c-2.282,3.331-4.649,8.94-4.42,13.413c0.341,6.654,3.046,12.878,9.053,15.906
		c5.252,2.649,12.42,1.978,16.715-2.212c4.636-4.521,6.534-11.607,6.009-17.939c-0.506-6.103-4.236-11.417-9.701-14.073
		C1152.562,1076.083,1145.523,1078.006,1141.34,1084.112z"/>
	<path style="fill:#5B1A0F;" d="M1191.06,1138.717c-6.433-3.126-13.473-1.202-17.656,4.904c-2.282,3.331-4.649,8.94-4.42,13.413
		c0.341,6.654,3.046,12.878,9.053,15.906c5.252,2.649,12.419,1.978,16.715-2.212c4.636-4.521,6.533-11.606,6.009-17.938
		C1200.255,1146.687,1196.525,1141.373,1191.06,1138.717z"/>
	<path style="fill:#5B1A0F;" d="M1131.498,1220.611c2.599-5.65,1.953-12.211-1.554-17.287c-4.129-5.975-11.316-7.788-18.062-4.476
		c-3.681,1.806-8.574,5.586-10.603,9.656c-3.02,6.054-3.734,12.909,0.066,18.586c3.323,4.965,9.995,7.948,15.886,6.387
		C1123.587,1231.792,1128.802,1226.472,1131.498,1220.611z"/>
	<path style="fill:#5B1A0F;" d="M1195.002,1211.823c-5.141-7.438-14.087-9.695-22.486-5.572
		c-4.582,2.249-10.673,6.954-13.201,12.021c-3.76,7.537-4.648,16.071,0.083,23.138c4.137,6.18,12.445,9.895,19.777,7.951
		c7.914-2.096,14.406-8.719,17.762-16.016C1200.173,1226.312,1199.368,1218.143,1195.002,1211.823z"/>
	<path style="fill:#5B1A0F;" d="M1052.012,933.868c5.651-1.497,10.286-6.226,12.684-11.436c2.31-5.023,1.736-10.856-1.382-15.368
		c-3.67-5.312-10.058-6.923-16.057-3.979c-3.272,1.606-7.622,4.966-9.426,8.584c-2.685,5.382-3.319,11.476,0.059,16.522
		C1040.844,932.603,1046.776,935.256,1052.012,933.868z"/>
	<path style="fill:#5B1A0F;" d="M1129.362,969.65c-3.023,6.062-3.738,12.924,0.067,18.607c3.327,4.97,10.007,7.958,15.905,6.394
		c6.364-1.686,11.585-7.012,14.284-12.88c2.602-5.656,1.955-12.226-1.556-17.307c-4.134-5.982-11.328-7.797-18.083-4.481
		C1136.294,961.791,1131.395,965.575,1129.362,969.65z"/>
	<path style="fill:#5B1A0F;" d="M1171.459,1018.449c-3.024,6.062-3.738,12.924,0.066,18.607c3.327,4.97,10.008,7.958,15.904,6.394
		c6.364-1.685,11.585-7.012,14.284-12.879c2.603-5.656,1.956-12.226-1.555-17.308c-4.134-5.982-11.329-7.797-18.084-4.481
		C1178.39,1010.591,1173.492,1014.375,1171.459,1018.449z"/>
	<path style="fill:#5B1A0F;" d="M1091.619,1041.847c-2.92,4.263-5.949,11.442-5.656,17.166c0.436,8.516,3.898,16.481,11.586,20.358
		c6.722,3.39,15.895,2.531,21.392-2.831c5.933-5.785,8.362-14.854,7.69-22.957c-0.647-7.811-5.421-14.613-12.415-18.012
		C1105.983,1031.571,1096.973,1034.033,1091.619,1041.847z"/>
</g>
</svg>
