<?xml version="1.0" encoding="utf-8"?>
<!-- Generator: Adobe Illustrator 27.5.0, SVG Export Plug-In . SVG Version: 6.00 Build 0)  -->
<svg version="1.1" id="Capa_1" xmlns="http://www.w3.org/2000/svg" xmlns:xlink="http://www.w3.org/1999/xlink" x="0px" y="0px"
	 viewBox="0 0 1749 2574" style="enable-background:new 0 0 1749 2574;" xml:space="preserve">
<g>
	<path style="fill:#FEC82B;" d="M1057.631,1130.299c17.843-24.652,121.863-172.692,132.061-287.313
		c-10.099,4.623-19.682,10.184-28.684,16.166c32.999-95.989,57.316-187.386,42.419-215.725c-4.464-4.603-10.499-4.021-17.45,0.08
		c17.102-93.295,19.469-181.744,10.001-185.661c-4.347-1.798-22.661,18.321-47.005,50.355c0.992-40.257-2.792-80.039-14.346-115.405
		c-20.724,7.231-40.086,24.275-57.902,47.253c-10.921-110.417-34.053-213.201-43.763-214.815
		c-8.182-1.361-49.593,83.399-88.311,181.746c-9.842-58.614-26.188-113.619-52.455-154.951
		c-29.409,39.83-49.363,100.874-62.894,167.339c-47.045-116.378-114.776-232.046-125.77-230.344
		c-8.733,1.352-22.691,107.354-28.07,221.099c-21.51-32.996-46.556-64.589-75.739-92.86
		c-20.392,53.172-26.273,117.19-24.403,181.174c-84.708-93.573-189.535-179.745-199.322-174.308
		c-11.401,6.334,45.437,230.447,104.293,364.739c-14.547-7.827-29.874-15.105-45.926-21.408
		c5.893,57.596,31.383,125.356,63.662,191.328c-10.401-3.439-21.436-6.606-33.192-9.363
		c18.875,110.194,208.329,291.352,208.463,291.481l0.006,0.007l0.058-0.002h0.047c-229.454,130.599-366.735,473.36-314.575,781.421
		c54.932,324.452,229.392,461.786,515.717,461.786c286.321,0,479.94-120.164,521.141-461.786
		C1428.294,1651.987,1311.87,1260.477,1057.631,1130.299z"/>
	<path style="fill:#F8A91F;" d="M1398.286,1758.783c-0.019-0.243-0.029-0.48-0.048-0.723c-0.004-0.002-0.008-0.003-0.013-0.005
		c-8.377-3.262-16.765-6.492-25.095-9.879c7.184-9.504,14.212-19.124,21.285-28.708c-1.981-16.892-4.504-33.882-7.373-50.906
		c-10.092,14.065-20.316,28.03-30.627,41.93c0.002,0.035,0.006,0.069,0.008,0.103c-5.791,7.807-11.624,15.578-17.513,23.311
		c-17.437-7.424-34.784-15.04-52.04-22.769c-32.025-14.343-63.745-29.076-95.19-43.71c-30.47-14.177-60.79-28.913-90.929-44.043
		c50.49-52.481,100.005-105.907,148.52-160.217c11.188-12.525,22.318-25.09,33.4-37.709c-0.006-0.012-0.012-0.023-0.018-0.035
		c1.587-1.808,3.202-3.592,4.787-5.401c7.846,3.796,15.639,7.715,23.516,11.45c2.381,1.13,4.784,2.23,7.169,3.357
		c-10.073-23.027-21.062-45.466-32.939-67.198c-2.261,2.613-4.469,5.266-6.738,7.877c-11.37-5.637-22.705-11.352-34.001-17.15
		c0.001,0.002,0.002,0.004,0.004,0.006c-78.083-40.071-154.173-84.174-225.2-135.425c8.762-9.546,17.731-18.893,26.419-28.508
		c5.463-6.047,10.852-12.153,16.215-18.285c-0.013-0.008-0.027-0.013-0.04-0.021c8.439-9.651,16.843-19.334,25.318-28.961
		c-10.465-6.466-21.208-12.419-32.185-17.942c-9.067,10.22-18.18,20.399-27.311,30.563c0.009,0.003,0.016,0.006,0.024,0.009
		c-12.41,13.813-24.887,27.564-37.457,41.233c-23.054-17.65-45.72-35.819-67.455-55.228c-1.564-1.397-3.123-2.798-4.677-4.205
		c0.053-0.004,0.105-0.005,0.158-0.01c-19.42-17.567-38.183-35.811-56.181-54.76c-15.246,0.48-30.305,1.72-45.097,3.907
		c18.348,20.39,37.556,40.001,57.445,58.921c-0.001,0-0.001,0-0.002,0c-0.015,0.004-0.044,0.013-0.059,0.018
		c29.021,27.607,59.578,53.658,91.365,78.184c-60.594,64.94-122.918,128.253-186.869,189.888
		c-6.962-5.911-14.12-11.558-20.939-17.65c-32.452-28.98-63.081-59.864-91.388-92.726c0.001-0.002,0.003-0.005,0.004-0.006
		c-28.452-33.033-54.556-68.057-77.784-105.148c-0.023-0.037-0.048-0.072-0.071-0.109c-4.907,4.377-9.727,8.896-14.498,13.499
		c-1.819,1.754-3.606,3.563-5.408,5.345c-2.211,2.186-4.444,4.335-6.634,6.557c0.016,0.024,0.033,0.047,0.048,0.071
		c25.102,39.222,53.295,76.064,83.887,110.764c-0.015,0.024-0.031,0.048-0.046,0.071c32.847,37.255,68.525,71.975,106.338,104.336
		c-63.094,59.93-127.734,118.216-193.884,174.775c0.003-0.05,0.009-0.101,0.012-0.151c-5.515,4.715-10.969,9.499-16.505,14.191
		c-50.055-40.859-98.709-83.413-145.826-127.63c-4.315,12.462-8.366,25.054-12.131,37.782
		c42.312,39.119,85.744,76.994,130.318,113.463c-1.466,1.219-2.881,2.493-4.346,3.715c-53.001,44.148-107.233,86.767-162.03,128.653
		c-0.019,14.854,0.369,29.696,1.146,44.532c65.64-49.79,130.057-101.156,193.235-154.007c5.5,4.383,11.061,8.686,16.595,13.027
		c0.002,0.031,0.003,0.064,0.005,0.097c78.412,61.499,160.148,118.689,244.57,171.599c-39.405,36.033-79.283,71.547-119.64,106.512
		c-0.02-0.02-0.038-0.041-0.058-0.06c-22.873,19.817-45.844,39.519-69.025,58.975c-9.512,7.984-19.162,15.8-28.723,23.72
		c-45.482-26.963-90.263-55.183-134.076-85.04c-33.043-22.52-65.182-46.263-96.925-70.522c0.392,2.924,0.792,5.846,1.192,8.767
		c0.74,5.403,1.507,10.801,2.401,16.176c0.055,0.333,0.097,0.671,0.154,1.003c1.465,8.647,3.061,17.093,4.693,25.474
		c0.001,0.001,0.001,0.001,0.002,0.002c62.431,45.754,127.005,88.453,193.379,128.243c-37.928,31.008-76.23,61.55-114.904,91.62
		c-0.015,0.011-0.03,0.024-0.044,0.035c0.354,0.6,0.73,1.169,1.086,1.766c2.501,4.191,5.036,8.333,7.623,12.397
		c0.52,0.816,1.04,1.632,1.564,2.443c2.99,4.633,6.025,9.202,9.135,13.665c0.004,0.006,0.008,0.012,0.012,0.018l0,0
		c43.247-33.585,86.067-67.717,128.399-102.448c85.613,49.663,174.03,94.609,264.413,135.368
		c-55.596,44.577-113.018,86.814-171.845,127.01c-0.027,0.017-0.052,0.036-0.078,0.054c0.663,0.205,1.356,0.37,2.02,0.572
		c6.805,2.071,13.683,4.047,20.688,5.855c0.021,0.005,0.042,0.01,0.062,0.015c7.259,1.872,14.641,3.584,22.108,5.188
		c0.427,0.091,0.837,0.206,1.265,0.297c0.016-0.011,0.031-0.022,0.047-0.033c55.566-38.977,109.786-79.846,162.473-122.604
		c77.816,33.922,157.006,64.693,236.993,92.82c0.011,0.005,0.023,0.009,0.034,0.013c3.916-1.645,7.799-3.337,11.648-5.074
		c4.039-1.822,8.039-3.699,11.999-5.63c2.188-1.068,4.337-2.187,6.5-3.289c4.833-2.464,9.618-4.996,14.316-7.645
		c0.475-0.268,0.964-0.517,1.437-0.786c-0.022-0.008-0.044-0.016-0.066-0.024c-85.074-28.964-169.197-60.74-251.731-96.086
		c47.048-39.277,92.735-80.155,137.195-122.331c0.09-0.005,0.18-0.007,0.271-0.013c21.814-20.696,43.305-41.736,64.457-63.114
		c26.017,11.985,52.193,23.622,78.545,34.864c0.019-0.009,0.036-0.017,0.055-0.025c30.327,12.938,60.863,25.394,91.662,37.212
		c16.108,6.182,32.365,11.93,48.585,17.807l0.001,0c0.01-0.022,0.019-0.045,0.03-0.068c2.253-5.051,4.477-10.145,6.611-15.366
		c2.351-5.667,4.633-11.432,6.819-17.333c0.085-0.229,0.18-0.446,0.264-0.675c-0.008-0.003-0.016-0.006-0.024-0.009
		c-38.301-13.848-76.284-28.568-113.961-44.03c-0.028,0.02-0.054,0.042-0.082,0.062c-30.864-12.667-61.502-25.887-91.88-39.678
		c69.717-72.352,135.703-148.319,197.435-227.682c1.046-1.346,2.05-2.719,3.092-4.068c2.045,0.834,4.091,1.67,6.136,2.505
		c0-0.002,0.001-0.005,0.001-0.008c13.021,5.318,26.045,10.627,39.156,15.683c1.316,0.508,2.646,0.969,3.962,1.474
		C1399.924,1784.207,1399.266,1771.553,1398.286,1758.783z M994.596,1249.547c14.1,10.276,28.39,20.286,42.848,30.033
		c12.4,8.359,24.924,16.524,37.552,24.491c39.099,24.667,79.229,47.604,120.027,69.308c19.502,10.375,39.159,20.47,58.927,30.336
		c-7.375,8.384-14.776,16.749-22.198,25.092c-47.48,53.367-95.917,105.878-145.301,157.485c-6.408,6.693-12.916,13.285-19.354,19.95
		c-74.256-38.652-146.583-81.089-214.263-130.037c-15.719-11.369-31.19-23.09-46.373-35.194
		C870.889,1378.915,933.587,1315.044,994.596,1249.547z M594.657,1673.706c-8.13-6.312-16.054-12.893-24.116-19.297
		c71.674-60.846,141.826-123.479,209.989-188.239c20.873,16.798,42.296,32.936,64.16,48.438
		c21.426,15.191,43.275,29.77,65.446,43.76c42.516,26.817,86.321,51.463,130.799,74.839
		c-43.198,44.163-87.093,87.627-131.659,130.403c-26.01,24.965-52.251,49.701-78.707,74.194
		C749.187,1787.238,670.397,1732.468,594.657,1673.706z M1005.911,2100.07c-0.085-0.002-0.169-0.01-0.255-0.012
		c-39.223,36.269-79.346,71.574-120.567,105.597c-90.875-40.278-179.7-84.971-265.917-134.411
		c30.716-25.532,61.113-51.444,91.307-77.589c0.024,0.021,0.048,0.043,0.072,0.063c42.091-36.446,83.662-73.483,124.706-111.116
		c82.206,50.032,166.965,95.878,253.858,137.341C1061.926,2047.208,1034.186,2073.922,1005.911,2100.07z M1116.06,1992.708
		c-86.678-40.785-171.246-86.002-253.293-135.464c24.302-22.569,48.413-45.34,72.333-68.314
		c47.221-45.35,93.693-91.484,139.383-138.375c23.735,12.02,47.586,23.808,71.613,35.212c43.987,20.879,88.295,41.32,132.985,60.873
		c12.437,5.442,24.906,10.815,37.403,16.109C1253.805,1842.893,1186.927,1919.718,1116.06,1992.708z"/>
	<path style="fill:#FFD654;" d="M1356.423,1710.596c-0.002-0.034-0.006-0.068-0.008-0.103c-1.944-33.549-6.048-68.429-12.224-104.25
		c-10.135-58.783-31.598-121.29-61.52-180.782c-0.006-0.012-0.012-0.023-0.018-0.035c-11.533-22.928-24.322-45.411-38.203-67.058
		c-0.001-0.002-0.002-0.004-0.004-0.006c-23.491-36.633-50.086-70.858-79.028-100.844c-0.208,0.142-0.422,0.277-0.642,0.407
		c-1.85,1.069-3.843,1.607-5.981,1.616c-2.142-0.009-4.135-0.547-5.981-1.616c-1.785-1.054-3.2-2.473-4.254-4.254l-1.212-2.055
		c-2.22-3.771-2.376-8.52-0.497-12.441c-26.777-25.188-55.298-46.651-84.968-63.025c-0.013-0.008-0.027-0.013-0.04-0.021
		c-11.236-6.199-22.615-11.662-34.153-16.331c-0.008-0.003-0.016-0.005-0.024-0.009c-30.034-12.152-60.992-18.881-92.304-18.878
		c-5.682,0.001-11.399,0.225-17.103,0.677c-0.053,0.004-0.105,0.006-0.158,0.01c-14.521,1.159-29.096,3.802-43.676,8.059
		c-0.001,0-0.001,0-0.002,0c-0.015,0.004-0.044,0.013-0.059,0.018c-82.901,24.217-154.051,82.068-207.826,157.69
		c-0.001,0.001-0.003,0.004-0.004,0.006c-7.125,10.02-13.954,20.367-20.455,30.973c-0.015,0.024-0.031,0.048-0.046,0.071
		c-17.971,29.33-33.509,60.764-46.327,93.509c0.273,10.046-3.057,20.213-9.983,27.387c-17.259,51.042-28.001,104.679-31.224,158.065
		c-0.003,0.05-0.009,0.1-0.012,0.151c-1.483,24.676-1.359,49.272,0.467,73.575c0.002,0.031,0.003,0.064,0.005,0.097
		c4.594,60.969,19.915,119.918,47.513,172.457c21.348,40.642,47.501,75.775,77.359,105.594c0.02,0.019,0.038,0.04,0.058,0.06
		c8.567,8.552,17.437,16.661,26.59,24.346c0.024,0.021,0.048,0.043,0.072,0.063c34.409,28.875,72.769,51.651,113.748,68.617
		c-1.788-3.81-2.715-6.51-2.715-11.253c0-5.385,1.196-8.135,3.492-12.873l0.192-0.396l0.4-0.827
		c2.485-4.2,5.827-7.543,10.023-10.027c4.361-2.524,9.058-3.796,14.104-3.812c0.296-0.011,0.59-0.017,0.883-0.017
		c3.511,0,6.808,0.809,9.879,2.421c3.461,1.127,6.461,3.054,8.992,5.78c3.462,3.486,5.858,7.593,7.185,12.323
		c0.331,2.477,0.666,4.954,0.996,7.427c-0.015,5.046-1.285,9.747-3.811,14.104c-2.485,4.196-5.827,7.539-10.027,10.022
		c-0.666,0.283-1.333,0.564-1.999,0.846c45.911,14.603,94.399,22.487,143.762,24.003c0.085,0.002,0.17,0.01,0.255,0.012
		c5.816,0.176,11.646,0.264,17.484,0.264c11.926,0,23.877-0.37,35.856-1.098c0.09-0.005,0.18-0.007,0.271-0.013
		c34.291-2.102,68.733-7.169,102.704-15.086c14.26-3.324,27.678-7.73,40.298-13.164c0.019-0.009,0.036-0.017,0.055-0.025
		c14.342-6.18,27.638-13.676,39.904-22.399c0.028-0.02,0.054-0.042,0.082-0.062c26.142-18.612,47.635-42.802,64.66-71.597
		c-7.24-2.768-11.303-10.001-9.988-19.498c0.123-0.87,0.242-1.739,0.361-2.612c1.223-8.828,9.332-13.236,17.442-13.236
		c3.155,0,6.311,0.668,9.062,2.003c20.056-46.564,30.889-102.178,33.165-163.922c0-0.002,0.001-0.005,0.001-0.008
		C1358.087,1757.359,1357.794,1734.317,1356.423,1710.596z"/>
	<path style="fill:#FFE17B;" d="M1288.619,1616.548c-0.917,0.098-1.848,0.149-2.79,0.153c-0.881-0.047-1.758-0.093-2.639-0.139
		l-1.289-0.065l-0.611-0.031c-2.054-0.277-4.108-0.554-6.162-0.831c-3.016-0.715-5.642-2.099-7.881-4.145
		c-0.908-0.49-1.7-1.104-2.373-1.847c-1.204-1.554-2.404-3.108-3.604-4.662c-1.927-2.989-3.315-8.161-3.154-11.692
		c0.273-2.054,0.55-4.108,0.827-6.162c0.447-2.046,1.234-3.904,2.369-5.581l0.319-0.481l0.673-1c0.45-0.669,0.901-1.339,1.346-2.008
		c2.285-3.857,5.358-6.927,9.215-9.212c2.839-1.647,5.836-2.714,8.994-3.2c-0.249-1.422-0.504-2.849-0.763-4.277
		c-5.779-31.806-16.806-65.541-31.827-98.199c-5.354-11.641-11.207-23.13-17.518-34.362c-10.978-19.534-23.327-38.261-36.729-55.428
		c-40.798-21.705-80.927-44.641-120.027-69.308c-12.628-7.967-25.152-16.133-37.552-24.491c-8.433,0.47-16.902,1.888-25.333,4.337
		c-77.19,22.429-134.933,101.119-159.277,192.289c-3.364,12.6-6.092,25.441-8.144,38.402
		c-10.388,65.628-3.477,134.404,25.518,191.317c11.088,21.761,24.247,40.959,39.067,57.686c8.133,9.181,16.763,17.617,25.823,25.319
		c50.267,42.736,113.71,62.938,178.368,62.938c23.759,0,47.695-2.729,71.186-8.07c48.427-11.013,79.198-46.368,94.427-97.157
		c3.335-11.124,5.924-22.99,7.79-35.502C1291.127,1682.603,1291.621,1650.712,1288.619,1616.548z"/>
	<path style="fill:#FCC141;" d="M1356.423,1710.596c-5.791,7.807-11.624,15.578-17.513,23.311
		c-17.437-7.424-34.784-15.04-52.04-22.769c-32.025-14.343-63.745-29.076-95.19-43.71c-30.47-14.177-60.79-28.913-90.929-44.043
		c50.49-52.481,100.005-105.907,148.52-160.217c11.188-12.525,22.318-25.09,33.4-37.709c-0.006-0.012-0.012-0.023-0.018-0.035
		c-11.533-22.928-24.322-45.411-38.203-67.058c-78.083-40.071-154.173-84.174-225.2-135.425
		c8.762-9.546,17.731-18.893,26.419-28.508c5.463-6.047,10.852-12.153,16.215-18.285c-0.013-0.008-0.027-0.013-0.04-0.021
		c-11.236-6.199-22.615-11.662-34.153-16.331c-12.41,13.813-24.887,27.564-37.457,41.233c-23.054-17.65-45.72-35.819-67.455-55.228
		c-1.564-1.397-3.123-2.798-4.677-4.205c-14.521,1.159-29.096,3.802-43.676,8.059c-0.001,0-0.001,0-0.002,0
		c-0.015,0.004-0.044,0.013-0.059,0.018c29.021,27.607,59.578,53.658,91.365,78.184c-60.594,64.94-122.918,128.253-186.869,189.888
		c-6.962-5.911-14.12-11.558-20.939-17.65c-32.452-28.98-63.081-59.864-91.388-92.726c-7.125,10.02-13.954,20.367-20.455,30.973
		c-0.015,0.024-0.031,0.048-0.046,0.071c32.847,37.255,68.525,71.975,106.338,104.336
		c-63.094,59.93-127.734,118.216-193.884,174.775c-1.483,24.676-1.359,49.272,0.467,73.575c0.002,0.031,0.003,0.064,0.005,0.097
		c78.412,61.499,160.148,118.689,244.57,171.599c-39.405,36.033-79.283,71.547-119.64,106.512
		c8.567,8.552,17.437,16.661,26.59,24.346c0.024,0.021,0.048,0.043,0.072,0.063c42.091-36.446,83.662-73.483,124.706-111.116
		c82.206,50.032,166.965,95.878,253.858,137.341c-27.191,27.265-54.931,53.979-83.205,80.127c5.816,0.176,11.646,0.264,17.484,0.264
		c11.926,0,23.877-0.37,35.856-1.098c0.09-0.005,0.18-0.007,0.271-0.013c21.814-20.696,43.305-41.736,64.457-63.114
		c26.017,11.985,52.193,23.622,78.545,34.864c0.019-0.009,0.036-0.017,0.055-0.025c14.342-6.18,27.638-13.676,39.904-22.399
		c-30.864-12.667-61.502-25.887-91.88-39.678c69.717-72.352,135.703-148.319,197.435-227.682c1.046-1.346,2.05-2.719,3.092-4.068
		c2.045,0.834,4.091,1.67,6.136,2.505c0-0.002,0.001-0.005,0.001-0.008C1358.087,1757.359,1357.794,1734.317,1356.423,1710.596z
		 M994.596,1249.547c14.1,10.276,28.39,20.286,42.848,30.033c12.4,8.359,24.924,16.524,37.552,24.491
		c39.099,24.667,79.229,47.604,120.027,69.308c19.502,10.375,39.159,20.47,58.927,30.336c-7.375,8.384-14.776,16.749-22.198,25.092
		c-47.48,53.367-95.917,105.878-145.301,157.485c-6.408,6.693-12.916,13.285-19.354,19.95
		c-74.256-38.652-146.583-81.089-214.263-130.037c-15.719-11.369-31.19-23.09-46.373-35.194
		C870.889,1378.915,933.587,1315.044,994.596,1249.547z M830.569,1837.805c-81.382-50.567-160.172-105.337-235.912-164.099
		c-8.13-6.312-16.054-12.893-24.116-19.297c71.674-60.846,141.826-123.479,209.989-188.239
		c20.873,16.798,42.296,32.936,64.16,48.438c21.426,15.191,43.275,29.77,65.446,43.76c42.516,26.817,86.321,51.463,130.799,74.839
		c-43.198,44.163-87.093,87.627-131.659,130.403C883.266,1788.576,857.025,1813.311,830.569,1837.805z M1116.06,1992.708
		c-86.678-40.785-171.246-86.002-253.293-135.464c24.302-22.569,48.413-45.34,72.333-68.314
		c47.221-45.35,93.693-91.484,139.383-138.375c23.735,12.02,47.586,23.808,71.613,35.212c43.987,20.879,88.295,41.32,132.985,60.873
		c12.437,5.442,24.906,10.815,37.403,16.109C1253.805,1842.893,1186.927,1919.718,1116.06,1992.708z"/>
	<path style="fill:#FFD269;" d="M1100.751,1623.386c50.49-52.481,100.005-105.907,148.52-160.217
		c-5.354-11.641-11.207-23.13-17.518-34.362c-47.48,53.367-95.917,105.878-145.301,157.485c-6.408,6.693-12.916,13.285-19.354,19.95
		c-74.256-38.652-146.583-81.089-214.263-130.037c-3.364,12.6-6.092,25.441-8.144,38.402c21.426,15.191,43.275,29.77,65.446,43.76
		c42.516,26.817,86.321,51.463,130.799,74.839c-43.198,44.163-87.093,87.627-131.659,130.403
		c8.133,9.181,16.763,17.617,25.823,25.319c47.221-45.35,93.693-91.484,139.383-138.375c23.735,12.02,47.586,23.808,71.613,35.212
		c43.987,20.879,88.295,41.32,132.985,60.873c3.335-11.124,5.924-22.99,7.79-35.502c-32.025-14.343-63.745-29.076-95.19-43.71
		C1161.211,1653.251,1130.891,1638.516,1100.751,1623.386z"/>
	<path style="fill:#00803D;" d="M1203.427,643.426c-4.464-4.603-10.498-4.021-17.449,0.08c17.101-93.296,19.469-181.744,10-185.661
		c-4.347-1.799-22.661,18.321-47.005,50.355c0.992-40.257-2.792-80.039-14.346-115.405c-20.724,7.23-40.086,24.275-57.902,47.252
		c-10.92-110.418-34.053-213.2-43.763-214.814c-8.182-1.361-49.593,83.398-88.312,181.746
		c-9.841-58.615-26.188-113.62-52.455-154.951c-29.409,39.83-49.363,100.874-62.893,167.339
		C782.258,302.99,714.526,187.32,703.532,189.023c-8.732,1.351-22.691,107.353-28.07,221.098
		c-21.509-32.996-46.556-64.588-75.739-92.859c-20.392,53.172-26.272,117.19-24.403,181.176
		c-84.707-93.573-189.535-179.746-199.322-174.31c-11.401,6.334,45.437,230.447,104.293,364.739
		c-14.547-7.828-29.875-15.105-45.927-21.408c5.893,57.594,31.383,125.356,63.662,191.327c-10.401-3.439-21.435-6.606-33.191-9.362
		c18.873,110.185,208.298,291.322,208.462,291.479l0.006,0.008l0.057-0.002h0.048c61.126-34.791,128.768-54.584,201.142-54.584
		c67.343,0,128.385,15.97,183.08,43.975c17.843-24.652,121.863-172.693,132.061-287.314c-10.098,4.623-19.681,10.185-28.684,16.166
		C1194.006,763.163,1218.323,671.765,1203.427,643.426z"/>
	<path style="fill:#F8A91F;" d="M529.286,1884.92c2,1.543,3.998,3.089,5.996,4.633c4.623,2.682,9.609,4.029,14.957,4.046
		c4.08,0.154,7.884-0.698,11.415-2.554c3.676-1.194,6.854-3.234,9.537-6.125c2.891-2.682,4.933-5.862,6.127-9.536
		c1.855-3.531,2.706-7.337,2.552-11.414c-0.353-2.627-0.706-5.253-1.058-7.877c-1.407-5.019-3.947-9.379-7.621-13.077
		c-1.998-1.544-3.998-3.088-5.997-4.631c-4.621-2.681-9.607-4.03-14.955-4.046c-4.079-0.156-7.883,0.695-11.416,2.55
		c-3.674,1.196-6.852,3.238-9.537,6.127c-2.889,2.684-4.931,5.863-6.127,9.537c-1.854,3.531-2.706,7.335-2.55,11.417
		c0.353,2.624,0.706,5.25,1.058,7.876C523.074,1876.865,525.614,1881.224,529.286,1884.92z"/>
	<path style="fill:#F8A91F;" d="M1151.137,2178.771c-1.575-1.218-3.15-2.434-4.727-3.651c-3.64-2.113-7.57-3.175-11.785-3.189
		c-3.214-0.12-6.212,0.55-8.995,2.012c-2.896,0.942-5.4,2.552-7.515,4.827c-2.277,2.117-3.886,4.621-4.827,7.515
		c-1.464,2.784-2.134,5.782-2.011,8.997c0.277,2.07,0.554,4.138,0.833,6.208c1.109,3.955,3.112,7.39,6.005,10.304
		c1.575,1.217,3.152,2.434,4.725,3.651c3.644,2.111,7.57,3.175,11.785,3.187c3.218,0.122,6.216-0.549,8.999-2.011
		c2.893-0.942,5.399-2.553,7.514-4.827c2.277-2.117,3.887-4.621,4.829-7.517c1.46-2.782,2.131-5.782,2.011-8.996
		c-0.279-2.07-0.557-4.137-0.834-6.208C1156.033,2185.121,1154.032,2181.685,1151.137,2178.771z"/>
	<path style="fill:#F8A91F;" d="M648.373,2227.966c-0.908-3.242-2.547-6.055-4.919-8.441c-1.29-0.999-2.58-1.995-3.872-2.992
		c-2.984-1.73-6.201-2.601-9.655-2.612c-2.633-0.098-5.09,0.45-7.368,1.648c-2.372,0.771-4.424,2.09-6.156,3.957
		c-1.866,1.731-3.186,3.784-3.956,6.155c-1.198,2.279-1.748,4.737-1.648,7.368c0.227,1.697,0.455,3.39,0.683,5.087
		c0.91,3.24,2.549,6.053,4.921,8.441c1.29,0.997,2.579,1.993,3.87,2.991c2.984,1.728,6.201,2.6,9.654,2.61
		c2.635,0.099,5.09-0.45,7.371-1.647c2.372-0.773,4.424-2.09,6.156-3.954c1.866-1.734,3.183-3.785,3.956-6.157
		c1.196-2.28,1.746-4.736,1.647-7.371C648.829,2231.355,648.603,2229.659,648.373,2227.966z"/>
	<path style="fill:#F8A91F;" d="M897.099,2353.048c1.608,2.485,3.745,4.446,6.406,5.88c3.561,2.065,7.402,3.104,11.524,3.116
		c4.121-0.013,7.961-1.051,11.525-3.116c3.429-2.03,6.159-4.761,8.19-8.191c2.064-3.561,3.104-7.402,3.117-11.523
		c-0.271-2.024-0.543-4.049-0.816-6.07c-1.083-3.869-3.041-7.228-5.87-10.076c-2.007-2.006-3.022-2.72-4.833-3.681l-0.42-0.224
		l-0.451-0.238l-0.208-0.113l-0.122-0.063c-3.124-1.813-6.496-2.723-10.112-2.735c-3.618,0.012-6.988,0.922-10.113,2.735
		l-0.902,0.478l-0.42,0.224c-1.76,0.934-2.695,1.602-4.711,3.618c-2.829,2.848-4.787,6.207-5.873,10.076
		c-1.087,4.046-1.087,8.092,0,12.138C893.719,2348.254,895.081,2350.842,897.099,2353.048z"/>
	<path style="fill:#F8A91F;" d="M434.365,2051.037c-22.152,0-22.191,34.427,0,34.427
		C456.518,2085.464,456.553,2051.037,434.365,2051.037z"/>
	<path style="fill:#F8A91F;" d="M403.465,1674.033c22.879,0,22.918-35.557,0-35.557
		C380.585,1638.476,380.547,1674.033,403.465,1674.033z"/>
	<path style="fill:#F8A91F;" d="M1169.03,1253.671c0.4-0.684,0.804-1.37,1.208-2.055c2.404-4.077,2.389-9.296,0-13.376
		c-1.177-1.992-2.765-3.573-4.754-4.754c-2.069-1.2-4.296-1.8-6.688-1.808c-2.393,0.008-4.623,0.608-6.693,1.808
		c-1.989,1.181-3.573,2.762-4.754,4.754c-0.186,0.318-0.263,0.68-0.42,1.011c6.242,5.874,12.393,11.955,18.439,18.216
		C1166.849,1256.464,1168.103,1255.232,1169.03,1253.671z"/>
	<path style="fill:#F8A91F;" d="M952.918,1137.699c0.969,0.75,1.943,1.504,2.911,2.25c2.246,1.304,4.666,1.958,7.266,1.965
		c1.981,0.077,3.831-0.338,5.546-1.238c1.785-0.58,3.327-1.573,4.631-2.977c1.403-1.303,2.392-2.846,2.976-4.631
		c0.9-1.715,1.312-3.565,1.239-5.546c-0.174-1.273-0.343-2.55-0.516-3.823c-0.685-2.438-1.915-4.557-3.699-6.354
		c-0.969-0.746-1.943-1.5-2.916-2.249c-2.242-1.3-4.665-1.954-7.261-1.966c-1.984-0.073-3.831,0.343-5.546,1.243
		c-1.785,0.58-3.327,1.569-4.631,2.973c-1.404,1.304-2.396,2.851-2.977,4.634c-0.9,1.716-1.311,3.563-1.238,5.543
		c0.173,1.278,0.343,2.55,0.515,3.828C949.903,1133.787,951.134,1135.907,952.918,1137.699z"/>
	<path style="fill:#F8A91F;" d="M599.707,1431.923c-0.01,0.025-0.018,0.05-0.028,0.075c-0.449-17.691-12.037-35.033-34.849-35.033
		c-46.485,0-46.559,72.243,0,72.243c10.852,0,19.141-3.964,24.931-10c-0.012,0.035-0.025,0.068-0.037,0.102
		C596.651,1452.136,599.98,1441.97,599.707,1431.923z"/>
	<path style="fill:#FCC141;" d="M774.261,1265.609c36.32,0,36.377-56.44,0-56.44C737.945,1209.17,737.887,1265.609,774.261,1265.609
		z"/>
	<path style="fill:#FCC141;" d="M791.431,1641.671c-27.605,0-27.647,42.897,0,42.897
		C819.031,1684.567,819.073,1641.671,791.431,1641.671z"/>
	<path style="fill:#F8A91F;" d="M876.736,2043.654c-1.327-4.73-3.723-8.838-7.185-12.323c-2.531-2.726-5.531-4.654-8.992-5.78
		c-3.071-1.612-6.368-2.421-9.879-2.421c-0.293,0-0.587,0.006-0.883,0.017c-5.046,0.016-9.742,1.288-14.104,3.812
		c-4.196,2.484-7.538,5.827-10.023,10.027l-0.4,0.827l-0.192,0.396c-2.296,4.738-3.492,7.488-3.492,12.873
		c0,4.743,0.927,7.443,2.715,11.253c0.008,0.004,0.017,0.007,0.025,0.01c0.25,0.536,0.467,1.027,0.752,1.615l0.104,0.216
		l0.389,0.795l0.1,0.216c1.758,3.254,4.158,5.865,7.197,7.839c2.7,2.47,5.869,4.135,9.504,5c4.95,1.326,9.904,1.326,14.854,0
		c1.556-0.658,3.113-1.314,4.669-1.972c0,0,0.001,0.001,0.001,0.001c0.666-0.281,1.333-0.563,1.999-0.846
		c4.2-2.484,7.542-5.827,10.027-10.022c2.527-4.358,3.796-9.058,3.811-14.104C877.402,2048.609,877.067,2046.131,876.736,2043.654z"
		/>
	<path style="fill:#F8A91F;" d="M1328.483,1946.625c-1.261-1.26-2.764-2.26-4.395-3.051c0.004-0.009,0.009-0.018,0.013-0.028
		c-2.75-1.334-5.906-2.003-9.062-2.003c-8.11,0-16.219,4.408-17.442,13.236c-0.119,0.873-0.238,1.743-0.361,2.612
		c-1.316,9.497,2.748,16.73,9.988,19.498c0.019-0.031,0.035-0.067,0.054-0.1c3.007,1.153,6.493,1.63,10.44,1.083l2.612-0.362
		C1334.629,1975.53,1337.333,1955.477,1328.483,1946.625z"/>
	<path style="fill:#FCC141;" d="M1147.349,1251.616l1.212,2.055c1.054,1.78,2.47,3.199,4.254,4.254
		c1.846,1.069,3.839,1.607,5.981,1.616c2.138-0.009,4.131-0.547,5.981-1.616c0.22-0.13,0.434-0.266,0.642-0.407
		c-0.016-0.017-0.034-0.032-0.051-0.05c-6.046-6.261-12.197-12.342-18.439-18.216c-0.025-0.024-0.051-0.051-0.077-0.076
		C1144.972,1243.096,1145.129,1247.845,1147.349,1251.616z"/>
	<path style="fill:#FFD269;" d="M1021.462,1388.876c-39.22,0-39.285,60.955,0,60.955
		C1060.682,1449.832,1060.747,1388.876,1021.462,1388.876z"/>
	<path style="fill:#FFD269;" d="M1104.717,1806.381c-2.208-3.735-5.181-6.708-8.915-8.915c-3.874-2.251-8.054-3.377-12.539-3.392
		c-4.488,0.015-8.669,1.142-12.546,3.392c-3.731,2.207-6.704,5.18-8.916,8.915l-0.957,1.569c-2.351,4.05-3.531,8.415-3.543,13.1
		c0.011,4.689,1.192,9.054,3.543,13.104c2.307,3.903,5.411,7.008,9.312,9.315c4.05,2.35,8.42,3.527,13.108,3.547
		c4.685-0.02,9.05-1.197,13.101-3.547c3.903-2.307,7.008-5.412,9.315-9.315c2.35-4.05,3.531-8.415,3.546-13.104
		c-0.015-4.685-1.196-9.05-3.546-13.1L1104.717,1806.381z"/>
	<path style="fill:#FCC141;" d="M1308.002,1578.057c-4.573-7.808-13.123-12.716-22.173-12.716c-1.35,0.003-2.672,0.105-3.968,0.304
		c-3.158,0.486-6.155,1.553-8.994,3.2c-3.858,2.285-6.931,5.354-9.215,9.212c-0.446,0.669-0.897,1.339-1.346,2.008l-0.673,1
		l-0.319,0.481c-1.135,1.677-1.923,3.535-2.369,5.581c-0.277,2.054-0.554,4.108-0.827,6.162c-0.162,3.531,1.227,8.703,3.154,11.692
		c1.201,1.553,2.401,3.108,3.604,4.662c0.673,0.742,1.465,1.357,2.373,1.847c2.239,2.046,4.865,3.43,7.881,4.145
		c2.054,0.277,4.108,0.554,6.162,0.831l0.611,0.031l1.289,0.065c0.88,0.047,1.757,0.093,2.639,0.139
		c0.943-0.004,1.873-0.055,2.79-0.153c3.589-0.387,6.978-1.505,10.167-3.356c3.858-2.28,6.931-5.353,9.215-9.212
		C1312.637,1596.058,1312.637,1585.985,1308.002,1578.057z"/>
	<path style="fill:#1D9D59;" d="M1203.427,643.426c-4.464-4.603-10.498-4.021-17.449,0.08c-14.132,8.336-32.094,31.42-48.689,56.38
		c-0.779-5.955-1.717-11.908-2.955-17.833c-4.782,1.449-9.62,3.551-14.481,6.084c13.844-50.604,27.54-115.863,29.12-179.936
		c0.992-40.257-2.792-80.039-14.346-115.405c-20.724,7.23-40.086,24.275-57.902,47.252
		c-65.139,84.012-109.504,247.633-123.386,303.931c-0.507-3.425-1.037-6.849-1.641-10.272c5.313-60.35,13.939-201.735-7.047-326.727
		c-9.841-58.615-26.188-113.62-52.455-154.951c-29.409,39.83-49.363,100.874-62.893,167.339
		c-32.83,161.273-27.78,354.525-27.78,354.525s-18.926-199.418-126.061-363.771c-21.509-32.996-46.556-64.588-75.739-92.859
		c-20.392,53.172-26.272,117.19-24.403,181.176c1.641,56.14,9.247,112.248,18.298,160.991
		c-15.08,28.773-19.716,61.916-18.394,95.156c-24.826-21.255-57.16-45.394-94.933-65.717c-14.547-7.828-29.875-15.105-45.927-21.408
		c5.893,57.594,31.383,125.356,63.662,191.327c-10.401-3.439-21.435-6.606-33.191-9.362
		c18.873,110.185,208.298,291.322,208.462,291.479l0.006,0.008l0.057-0.002h0.048c61.126-34.791,128.768-54.584,201.142-54.584
		c67.343,0,128.385,15.97,183.08,43.975c17.843-24.652,121.863-172.693,132.061-287.314c-10.098,4.623-19.681,10.185-28.684,16.166
		C1194.006,763.163,1218.323,671.765,1203.427,643.426z"/>
	<path style="fill:#51AD71;" d="M1057.631,1130.3c17.843-24.652,121.863-172.693,132.061-287.314
		c-10.098,4.623-19.681,10.185-28.684,16.166c-42.59,28.293-71.384,66.628-71.384,66.628s62.291-114.086,47.664-225.894
		c-0.779-5.955-1.717-11.908-2.955-17.833c-4.782,1.449-9.62,3.551-14.481,6.084c-81.511,42.467-171.157,227.389-171.157,227.389
		s17.397-85.259,4.644-171.548c-0.507-3.425-1.037-6.849-1.641-10.272c-8.165-46.245-25.534-91.829-59.5-123.755
		c-100.767,81.521-90.675,311.729-90.675,311.729s-27.262-171.758-201.8-272.763c-2.203,3.431-4.231,6.938-6.104,10.512
		c-15.08,28.773-19.716,61.916-18.394,95.156c3.717,93.427,54.702,187.603,54.702,187.603s-39.772-52.942-131.9-83.401
		c-10.401-3.439-21.435-6.606-33.191-9.362c18.873,110.185,208.298,291.322,208.462,291.479l0.008,0.007l0.056-0.001h0.048
		c61.126-34.791,128.768-54.584,201.142-54.584C941.895,1086.324,1002.936,1102.294,1057.631,1130.3z"/>
	<path style="fill:#FFD269;" d="M1195.024,1373.38c-42.834-54.867-96.505-93.983-151.257-93.975c-2.107,0-4.212,0.057-6.322,0.175
		c12.4,8.359,24.924,16.524,37.552,24.491C1114.097,1328.738,1154.226,1351.675,1195.024,1373.38z"/>
	<path style="fill:#FFD269;" d="M1263.651,1578.057c-0.446,0.669-0.897,1.339-1.346,2.008l-0.673,1l-0.319,0.481
		c-1.135,1.677-1.923,3.535-2.369,5.581c-0.277,2.054-0.554,4.108-0.827,6.162c-0.162,3.531,1.227,8.703,3.154,11.692
		c1.201,1.553,2.401,3.108,3.604,4.662c0.673,0.742,1.465,1.357,2.373,1.847c2.239,2.046,4.865,3.43,7.881,4.145
		c2.054,0.277,4.108,0.554,6.162,0.831l0.611,0.031l1.289,0.065c0.88,0.047,1.757,0.093,2.639,0.139
		c0.943-0.004,1.873-0.055,2.79-0.153c-1.449-16.483-3.711-33.491-6.758-50.902c-3.158,0.486-6.155,1.553-8.994,3.2
		C1269.009,1571.131,1265.936,1574.2,1263.651,1578.057z"/>
	<path style="fill:#FCC141;" d="M1297.598,1954.78c-0.119,0.873-0.238,1.743-0.361,2.612c-1.316,9.497,2.748,16.73,9.988,19.498
		c0.019-0.031,0.035-0.067,0.054-0.1c6.192-10.481,11.787-21.556,16.81-33.215c0.004-0.009,0.009-0.018,0.013-0.028
		c-2.75-1.334-5.906-2.003-9.062-2.003C1306.929,1941.544,1298.821,1945.952,1297.598,1954.78z"/>
	<path style="fill:#FCC141;" d="M861.893,2076.053c0,0,0.001,0.001,0.001,0.001c0.666-0.281,1.333-0.563,1.999-0.846
		c4.2-2.484,7.542-5.827,10.027-10.022c2.527-4.358,3.796-9.058,3.811-14.104c-0.33-2.473-0.665-4.95-0.996-7.427
		c-1.327-4.73-3.723-8.838-7.185-12.323c-2.531-2.726-5.531-4.654-8.992-5.78c-3.071-1.612-6.368-2.421-9.879-2.421
		c-0.293,0-0.587,0.006-0.883,0.017c-5.046,0.016-9.742,1.288-14.104,3.812c-4.196,2.484-7.538,5.827-10.023,10.027l-0.4,0.827
		l-0.192,0.396c-2.296,4.738-3.492,7.488-3.492,12.873c0,4.743,0.927,7.443,2.715,11.253c0.008,0.004,0.017,0.007,0.025,0.01
		C836.628,2067.438,849.156,2072.002,861.893,2076.053z"/>
	<path style="fill:#FCC141;" d="M599.679,1431.998c-3.515,8.982-6.818,18.047-9.918,27.21c-0.012,0.035-0.025,0.068-0.037,0.102
		c6.927-7.174,10.256-17.341,9.983-27.387C599.698,1431.948,599.689,1431.974,599.679,1431.998z"/>
</g>
</svg>
