<?xml version="1.0" encoding="utf-8"?>
<!-- Generator: Adobe Illustrator 27.5.0, SVG Export Plug-In . SVG Version: 6.00 Build 0)  -->
<svg version="1.1" id="Capa_1" xmlns="http://www.w3.org/2000/svg" xmlns:xlink="http://www.w3.org/1999/xlink" x="0px" y="0px"
	 viewBox="0 0 2122 2122" style="enable-background:new 0 0 2122 2122;" xml:space="preserve">
<g>
	<path style="fill:#C60C0E;" d="M1554.204,983.963c-0.257-10.401-1.13-20.764-2.318-31.158c-0.149-1.138-0.999-5.535-1.391-5.554
		c-44.764-9.995-65.189-96.166-75.008-137.596c-1.011-4.256-1.92-8.095-2.746-11.396c-0.068-0.278-0.319-0.468-0.609-0.468
		c-0.287,0-0.538,0.202-0.604,0.482c-0.251,1.062-0.526,2.154-0.799,3.242l-0.054,0.22c-8.014,32.065-24.743,71.605-44.75,105.768
		c-16.078,27.474-32.981,49.225-48.943,62.998c-0.188-1.89-0.338-3.815-0.484-5.688c-0.102-1.316-0.207-2.631-0.322-3.939
		c-0.09-1.072-0.19-2.141-0.287-3.21c-0.182-1.973-0.363-3.946-0.497-5.944c-0.38-5.423-0.675-11.252-0.95-18.909
		c0,0-0.022-0.429-0.019-0.499c-1.825-52.131,3.288-105.491,14.784-154.309c0.068-0.288-0.112-0.531-0.38-0.656
		c-0.263-0.122-0.619,0.005-0.802,0.236c-0.034,0.046-0.063,0.1-0.085,0.156c-56.903,148.867-50.404,225.249-45.656,281.021
		c2.443,28.708,4.372,51.384-2.305,76.312c-79.315,296.082-259.585,450.672-564.486,632.36
		c-151.174,86.07-333.934,82.589-488.852-9.296c-56.617-37.143-76.984-96.826-84.098-140.353c-0.046-0.28-0.275-0.494-0.558-0.521
		c-0.282-0.041-0.548,0.139-0.643,0.407c-5.82,15.81-9.51,32.536-10.972,49.713l-0.046,0.541c-0.083,0.972-0.166,1.941-0.229,2.913
		c-0.149,2.227-0.258,4.597-0.334,7.25c-0.053,1.934-0.058,3.87-0.053,5.81l0.003,0.711c0.003,1.669,0.005,3.337,0.061,5.004
		c0.141,4.295,0.382,8.159,0.74,11.813l0.032,0.317c0.073,0.757,0.144,1.515,0.232,2.271c0.168,1.503,0.365,3.003,0.572,4.504
		c0.178,1.267,0.368,2.528,0.57,3.79c0.197,1.25,0.407,2.5,0.633,3.744c0.292,1.598,0.621,3.189,0.957,4.78l0.207,0.997
		c0.129,0.633,0.261,1.267,0.407,1.897c0.645,2.814,1.279,5.318,1.939,7.684c0.977,3.491,2.064,6.996,3.228,10.419
		c3.442,10.132,7.768,20.166,12.86,29.825c2.217,4.207,4.619,8.422,7.14,12.526c4.321,7.033,9.196,14.029,14.49,20.792
		c5.096,6.509,10.716,12.977,16.699,19.22c21.32,22.244,47.666,41.595,76.194,55.968c4.319,2.175,8.77,4.283,13.23,6.261
		c4.421,1.961,8.96,3.837,13.486,5.578c43.434,16.716,92.083,24.999,147.469,24.999c21.535,0,44.095-1.255,67.754-3.749
		c4.775-0.504,9.644-1.065,14.472-1.666c10.621-1.323,21.391-2.872,32.012-4.601c5.245-0.855,10.604-1.779,15.924-2.748
		c51.776-9.43,104.095-23.847,155.508-42.853c15.001-5.544,30.17-11.571,45.086-17.917c9.836-4.187,19.792-8.607,29.588-13.143
		c14.553-6.733,29.233-13.936,43.63-21.412c11.53-5.986,23.162-12.292,34.575-18.746c7.019-3.971,14.441-8.304,23.362-13.634
		c25.969-15.522,51.591-32.222,76.159-49.639c2.511-1.781,5.014-3.566,7.51-5.364l0.746-0.538c2.926-2.109,5.849-4.219,8.755-6.355
		c42.139-30.994,83.83-65.851,123.913-103.605c15.43-14.531,30.935-29.788,46.087-45.347c7.452-7.652,14.965-15.527,22.331-23.408
		c7.352-7.866,14.707-15.895,21.863-23.864c14.202-15.807,28.456-32.289,42.37-48.989c6.855-8.231,13.756-16.667,20.516-25.077
		c26.212-32.614,52.39-67.457,77.803-103.559c42.869-60.894,73.308-111.983,95.788-160.779
		c6.971-15.131,13.395-30.518,19.124-46.164c5.401-14.748,10.183-29.725,14.215-44.905c3.849-14.488,7.012-29.16,9.391-43.961
		c2.293-14.269,3.886-28.67,4.643-43.104C1554.296,995.876,1554.351,989.914,1554.204,983.963z"/>
	<path style="fill:#23934D;" d="M1917.841,240.428c-22.387-21.834-55.7-32.955-91.379-30.523
		c-29.198,1.995-59.337,12.338-92.124,31.622c-54.268,31.798-104.132,79.963-156.928,151.585
		c-20.258,27.554-39.535,56.451-58.18,84.397c-21.145,31.695-43.008,64.467-66.336,95.32c-13.422,17.746-28.258,35.766-48.95,44.083
		c-17.854,7.167-37.952,6.86-57.401,6.553l-3.279-0.048c-67.976-0.979-118.369,26.74-151.572,50.479l-3.33,2.616
		c-4.192,5.834-10.199,15.231-14.935,24.975c-2.222,4.57-4.276,8.797-5.937,11.91l-1.5,2.818l3.098,0.775
		c23.64,5.91,82.357,16.83,83.075,16.806c3.192,0.511,6.386,1.021,9.593,1.505c21.809-1.013,37.878-2.801,48.051-5.335
		c-31.301,34.17-53.393,68.368-67.381,104.251c-3.589,9.211-6.658,18.653-9.379,28.867l-1.335,5.006c0,0,3.6-1.452,3.6-1.454
		c0.01-0.04,1.145-0.624,1.145-0.624c53.82-23.559,104.938-57.99,155.997-105.108l-6.109,15.766l-2.65,11.661
		c-9.81,46.027-12.225,93.19-10.527,141.69l0.217,7.803l2.602-2.766c34.835-36.346,77.101-108.675,95.688-144.916l-2.112,8.261
		l0.154,0.611c0.253,1.016,0.531,2.172,0.801,3.287l0.605,2.494c0.424,1.77,0.862,3.618,1.327,5.579
		c10.74,45.308,32.561,131.206,79.311,141.51l0.443-7.756c-0.219-1.973,0.332-5.672,0.677-11.639
		c2.034-35.021,6.794-117.035-33.667-192.777c-4.882-9.152-10.395-18.429-15.724-27.396c-10.232-17.218-19.895-33.481-21.713-43.496
		c-8.097-44.005,34.01-136.063,107.272-234.53c72.95-98.049,153.608-172.073,205.481-188.584
		c57.53-18.295,100.533-8.78,121.094,26.794c12.833,22.205,7.944,40.058,4.373,53.096c-2.066,7.537-3.696,13.491-1.454,18.271
		l0.543,1.159l1.262,0.234c8.114,1.5,14.458-5.715,17.686-12.953C1951.371,302.932,1943.069,265.151,1917.841,240.428z"/>
	<path style="fill:#008246;" d="M1236.378,734.169c4.161-0.053,8.297-0.141,12.397-0.256l0.619-0.017
		c4.044-0.117,8.029-0.265,11.944-0.448l0.341-0.013c0.339-0.015,0.604-0.297,0.597-0.636c-0.007-0.3-0.224-0.548-0.541-0.607
		c-31.593-4.823-63.079-11.055-91.118-18.034c1.61-3.07,3.559-7.082,5.615-11.311c4.682-9.63,13.449-27.288,13.205-27.111
		c-10.141,7.257-19.83,15.159-28.833,23.792c-4.58,4.392-8.99,8.969-13.174,13.741c-2.537,2.894-7.775,7.916-7.813,12.011
		c-0.068,6.804,51.364,8.424,67.13,8.76l1.778,0.037c1.868,0.034,3.749,0.065,5.642,0.09l3.306,0.034
		c1.323,0.012,2.65,0.022,3.983,0.027l3.778,0.01l1.969-0.005c2.779-0.005,5.554-0.025,8.331-0.056L1236.378,734.169z"/>
	<path style="fill:#E52720;" d="M1388.02,777.594c-7.278,9.915-15.785,19.91-25.291,29.708
		c-28.468,29.366-64.908,55.761-105.381,76.326c-0.241,0.122-0.377,0.388-0.333,0.656c7.59,46.633,4.358,97.773-9.099,143.995
		c-74.083,254.477-170.694,419.734-323.04,552.579c-88.755,77.391-179.349,131.352-269.268,160.38
		c-107.081,34.573-216.984,34.353-309.459-0.609c-17.681-6.684-79.668-67.946-80.889-79.944c-0.095-0.945,0.27-1.174,0.393-1.252
		c1.055-0.665,4.993-0.487,19.447,8.265c69.206,41.905,126.84,22.348,174.09-2.302c69.401-36.202,157.352-141.868,196.487-199.968
		c52.787-78.363,109.437-174.438,164.224-267.349c88.156-149.501,179.313-304.09,259.612-394.667
		c12.777-14.414,53.427-43.179,89.484-44.346c14.577-0.487,26.384,3.746,35.247,12.526c16.823,16.665,30.256,38.114,39.925,63.751
		c0.092,0.243,0.324,0.402,0.582,0.405c0.204,0.031,0.492-0.154,0.584-0.397c14.967-38.395,39.333-74.867,74.492-111.508
		c0.229-0.239,0.232-0.619,0.003-0.86c-0.224-0.239-0.599-0.263-0.86-0.044c-5.233,4.488-25.603,7.771-57.357,9.248
		c-0.034,0.002-0.068,0.007-0.1,0.014l-0.002-0.008l-0.238,0.01c-3.898,0.178-7.871,0.329-11.915,0.445l-0.626,0.017
		c-4.085,0.115-8.212,0.203-12.365,0.256l-0.843,0.01c-2.772,0.031-5.542,0.051-8.319,0.056l-1.966,0.005l-3.773-0.01
		c-1.333-0.005-2.656-0.015-3.978-0.026l-3.301-0.034c-1.888-0.024-3.769-0.056-5.632-0.09l-1.779-0.037
		c-42.847-0.911-65.937-4.543-65.907-7.498c0.002-0.241-0.132-0.461-0.346-0.565c-0.208-0.102-0.468-0.08-0.661,0.066
		c-23.155,17.934-46.346,40.241-72.984,70.202c-97.863,110.061-175.047,239.849-249.69,365.364
		c-94.906,159.591-193.043,324.613-333.983,448.582c-34.497,30.341-72.97,58.616-120.487,60.046
		c-19.137,0.594-37.045-4.253-51.746-13.966c-17.501-11.559-28.573-27.671-33.844-49.259c-3.611-14.779-15.815-25.498-31.097-27.306
		c-15.271-1.815-29.038,5.449-35.973,18.93c-3.359,6.53-6.226,13.387-8.789,20.443l0.438,2.5
		c7.503,43.552,28.268,102.119,84.253,138.845c0.007,0.005,0.014,0.01,0.022,0.015c74.842,44.389,158.977,69.025,243.305,71.242
		c4.149,0.107,8.288,0.163,12.431,0.163c82.078,0,162.867-21.362,234.404-62.09c125.072-74.529,254.882-157.985,356.967-263.094
		c102.662-105.703,168.787-223.281,208.095-370.021c6.733-25.14,4.796-47.91,2.343-76.738
		c-4.738-55.652-11.223-131.871,45.578-280.472c0.112-0.29-0.009-0.619-0.282-0.77C1388.548,777.266,1388.2,777.339,1388.02,777.594
		z"/>
	<path style="fill:#E83E2E;" d="M1260.093,883.784l-0.548-3.372l-3.045,1.547c-8.334,4.234-16.684,8.143-24.852,11.637
		c0.548-3.447,1.208-7.135,2.026-11.311l0.521-2.587c0.872-4.234,1.864-8.426,2.933-12.609l0.3-1.299
		c0.014-0.065,0.026-0.129,0.042-0.195l0.397-1.225c2.675-10.034,5.688-19.306,9.208-28.341l0.348-0.891l-0.339-0.894
		c-9.827-26.061-23.505-47.885-40.648-64.867c-9.499-9.41-22.102-13.917-37.544-13.427c-36.992,1.199-78.636,30.639-91.715,45.394
		c-80.5,90.801-171.734,245.525-259.963,395.152c-54.765,92.872-111.391,188.906-164.124,267.19
		c-38.965,57.847-126.456,163.011-195.344,198.945c-66.775,34.838-116.324,35.525-171.033,2.4
		c-16.046-9.718-20.409-9.701-22.73-8.234c-0.636,0.404-2.088,1.617-1.825,4.204c1.447,14.259,66.078,76.19,82.886,82.544
		c46.87,17.719,98.161,26.582,151.293,26.582c52.453-0.002,106.701-8.641,160.229-25.922
		c90.321-29.157,181.284-83.325,270.358-160.996c152.831-133.266,249.722-298.967,323.985-554.058
		C1264.493,982.491,1267.755,930.866,1260.093,883.784z M1123.377,935.984c-48.629,253.393-235.174,445.429-383.098,561.873
		c-11.591,9.123-22.207,16.86-34.789,19.135c-12.129,2.2-27.199-2.75-31.396-14.828c-3.861-11.122,2.706-23.42,9.116-33.988
		c110.65-167.103,213.824-344.267,313.602-515.597l30.37-52.124c13.866-23.781,34.843-50.314,59.398-50.314
		c3.04,0,6.137,0.41,9.277,1.277c14.071,3.888,25.684,17.659,29.589,35.084C1129.136,902.973,1126.313,920.681,1123.377,935.984z"/>
	<path style="fill:#EB5A3F;" d="M1128.488,885.818c-4.153-18.533-16.633-33.216-31.8-37.408
		c-30.443-8.422-56.066,22.806-72.2,50.473c-10.119,17.354-20.241,34.731-30.37,52.126
		c-99.756,171.291-202.908,348.416-313.522,515.466c-6.828,11.26-13.754,24.309-9.447,36.711
		c4.032,11.6,16.711,17.423,28.667,17.423c2.114,0,4.209-0.183,6.229-0.548c13.289-2.404,24.239-10.368,36.161-19.754
		c148.353-116.78,335.437-309.376,384.233-563.736C1129.436,920.959,1132.308,902.875,1128.488,885.818z"/>
	<path style="fill:#008246;" d="M1480.139,767.358c-0.3-0.105-0.638,0.034-0.777,0.321c-0.553,1.177-55.985,118.171-106.009,164.219
		c-0.124,0.124-0.19,0.295-0.183,0.47l0.025,0.502c0.277,7.661,0.57,13.5,0.955,18.935c0.131,2.007,0.314,3.99,0.497,5.973
		c0.097,1.067,0.197,2.132,0.287,3.203c0.09,1.06,0.175,2.124,0.26,3.189c0.203,2.497,0.41,5.077,0.687,7.627
		c0.025,0.229,0.176,0.426,0.39,0.514c0.073,0.029,0.153,0.044,0.231,0.044c0.146,0,0.288-0.051,0.402-0.149
		c16.329-13.815,33.651-35.973,50.097-64.075c20.036-34.239,36.816-73.9,44.882-106.095l0.056-0.216
		c0.275-1.096,0.551-2.193,0.802-3.257l7.79-30.465C1480.612,767.789,1480.441,767.468,1480.139,767.358z"/>
	<path style="fill:#008246;" d="M1389.136,778.106l10.178-26.263c0.105-0.273,0.007-0.582-0.234-0.745
		c-0.246-0.161-0.567-0.132-0.777,0.066c-53.457,50.721-166.506,116.524-166.589,116.927c-2.497,12.078-3.786,23.43-3.781,29.462
		c0,0.224,0.061,0.44,0.236,0.577c0.112,0.088,0.246,0.131,0.383,0.131c0.08,0,0.161-0.014,0.239-0.046
		c0.392-0.163,0.787-0.336,1.182-0.509c0.334-0.149,0.67-0.295,1.004-0.436c8.836-3.722,17.9-7.939,26.938-12.531
		c40.594-20.626,77.15-47.103,105.713-76.57c9.562-9.863,18.119-19.932,25.432-29.922
		C1389.089,778.203,1389.116,778.155,1389.136,778.106z"/>
	<path style="fill:#008246;" d="M1918.326,270.94c-21.371-36.977-65.666-46.994-124.741-28.207
		c-52.455,16.697-133.722,91.157-207.037,189.695c-34.568,46.46-63.037,92.59-82.336,133.398
		c-20.982,44.378-29.8,80.188-25.5,103.557c1.917,10.563,11.72,27.06,22.1,44.524c5.31,8.94,10.804,18.183,15.652,27.274
		c40.051,74.969,35.416,204.233,35.758,202.951c25.929-97.322-5.238-169.558-28.075-222.488
		c-12.799-29.664-22.906-53.094-20.831-73.208c0.146-1.596,0.436-3.155,0.718-4.662c15.879-75.742,103.525-207.437,155.04-272.655
		c38.485-48.819,81.235-83.535,127.067-103.189c35.732-15.323,66.209-17.722,81.466-15.123c15.71,2.738,31.072,12.697,40.085,25.993
		c7.248,10.69,9.832,22.277,7.479,33.508l-0.146,0.67c-1.886,8.675-2.849,19.797-0.39,26.643c0.741,2.063,3.2,5.16,4.451,5.406
		c0.466,0.091,2.025-11.688,3.917-18.607C1926.721,312.852,1931.809,294.27,1918.326,270.94z"/>
	<path style="fill:#74A760;" d="M1417.36,624.64c0.066-0.227,0-0.475-0.173-0.636c-0.173-0.161-0.439-0.207-0.665-0.127
		c-20.854,7.724-28.014,9.992-53.807,10.906c-4.007,0.144-8.275,0.085-12.787,0.022c-6.687-0.097-13.593-0.188-19.683,0.417
		c-9.63,0.952-19.608,2.39-29.661,4.273c-16.97,3.182-35.116,9.773-55.481,20.156c-15.983,8.149-33.922,18.629-45.791,34.551
		c-0.319,0.426-0.309,0.999,0.022,1.393c0.21,0.248,0.505,0.38,0.814,0.38c0.176,0,0.356-0.041,0.526-0.127
		c4.818-2.434,9.612-4.994,14.251-7.472c12.427-6.638,25.276-13.5,39.147-18.132c17.583-5.87,35.732-9.215,57.571-12.431
		c7.383-1.084,14.899-2.01,22.165-2.906c11.274-1.388,22.933-2.823,34.368-4.892C1386.344,646.732,1417.075,625.609,1417.36,624.64z
		"/>
	<path style="fill:#74A760;" d="M1366.161,702.433c-32.495,7.581-56.073,35.106-67.235,50.84
		c-17.43,24.567-29.386,50.894-35.537,78.243c-0.068,0.305,0.1,0.612,0.392,0.721l0.575,0.214c0.071,0.027,0.144,0.039,0.217,0.039
		c0.209,0,0.412-0.107,0.528-0.292c16.332-26.134,32.799-48.026,50.348-66.93c2.626-2.828,5.289-5.625,7.954-8.422
		c6.441-6.762,13.103-13.756,19.113-21.135c2.855-3.508,5.927-6.996,8.896-10.368c5.749-6.526,11.696-13.277,16.502-20.636
		c0.329-0.504,0.319-1.099-0.025-1.59C1367.506,702.566,1366.794,702.276,1366.161,702.433z"/>
	<path style="fill:#74A760;" d="M1425.944,737.572l-1.316,1.121c-5.152,4.389-10.482,8.928-14.229,14.643
		c-3.579,5.452-6.046,11.779-8.432,17.895l-0.063,0.163c-4.806,12.314-8.991,25.752-12.796,41.082
		c-6.419,25.849-7.586,53.579-3.569,84.777c0.07,0.546,0.526,0.957,1.084,0.979c0.014,0,0.029,0,0.043,0
		c0.507,0,0.916-0.339,1.021-0.853c4.867-23.956,11.639-47.895,18.19-71.047l2.276-8.054c3.201-11.357,7.264-23.174,13.172-38.314
		c0.721-1.841,1.496-3.688,2.275-5.542c1.788-4.254,3.635-8.651,4.828-13.106c1.343-5.006,1.708-10.331,2.061-15.481
		c0.129-1.89,0.258-3.771,0.434-5.62c0.129-1.364-0.477-2.57-1.588-3.147C1428.266,736.511,1426.963,736.705,1425.944,737.572z"/>
	<path style="fill:#74A760;" d="M1526.814,887.95l-2.326-4.731c-5.223-10.57-10.154-20.553-13.825-31.617
		c-3.883-11.703-7.047-23.576-9.403-35.291c-0.297-1.469-0.585-2.938-0.872-4.404c-0.896-4.555-1.82-9.267-2.958-13.888
		c-1.605-6.512-3.413-11.366-6.243-16.76c-0.249-0.472-0.663-0.731-1.224-0.701c-0.585,0.041-1.132,0.458-1.333,1.016
		c-2.18,6.066-3.108,11.23-3.306,18.414c-0.199,7.384,0.565,14.434,1.252,19.752c1.944,14.989,4.5,27.266,8.046,38.638
		c3.133,10.054,7.591,23.04,14.322,34.319c5.776,9.679,14.251,18.943,25.907,28.322c0.894,0.721,1.912,1.023,2.899,1.023
		c1.289,0,2.529-0.514,3.379-1.289c1.581-1.437,1.815-3.559,0.597-5.406C1535.99,906.647,1531.326,897.141,1526.814,887.95z"/>
	<path style="fill:#74A760;" d="M1506.4,517.39c-0.146-0.482-0.422-0.713-0.629-0.823c-0.743-0.39-2.008-1.062-13.018,14.509
		c-5.403,7.64-12.282,17.988-18.402,27.681c-13.508,21.39-40.475,52.901-52.689,59.176c-0.207,0.107-0.341,0.324-0.341,0.558
		c0,0.234,0.134,0.451,0.341,0.558c0.058,0.029,0.373,0.051,0.896,0.051c3.897,0,19.518-1.208,30.436-9.011
		c12.343-8.819,27.764-36.248,32.195-44.443C1499.352,539.468,1507.479,520.979,1506.4,517.39z"/>
	<path style="fill:#74A760;" d="M1828.821,219.515c-32.297-2.902-70.087,10.947-112.309,41.157
		c-17.296,12.378-34.584,27.288-51.464,44.407c-8.156,8.27-16.589,16.821-24.309,25.707c-5.99,6.892-10.577,14.112-15.432,21.754
		c-1.328,2.087-2.66,4.185-4.032,6.29c-0.166,0.254-0.127,0.59,0.095,0.797l0.219,0.204c0.12,0.112,0.273,0.168,0.427,0.168
		c0.127,0,0.256-0.039,0.365-0.119c2.458-1.776,4.928-3.489,7.386-5.194c5.727-3.971,11.652-8.078,17.14-12.857
		c4.758-4.139,9.383-8.595,13.861-12.906c3.483-3.355,7.086-6.823,10.718-10.112c13.837-12.531,32.297-28.77,52.39-43.244
		c14.377-10.361,29.272-18.602,45.04-27.325l3.713-2.056c12.044-6.675,24.945-11.6,37.422-16.36
		c6.312-2.409,12.841-4.901,19.211-7.598c0.634-0.265,0.994-0.874,0.894-1.513C1830.056,220.061,1829.52,219.578,1828.821,219.515z"
		/>
</g>
</svg>
