<?xml version="1.0" encoding="utf-8"?>
<!-- Generator: Adobe Illustrator 27.5.0, SVG Export Plug-In . SVG Version: 6.00 Build 0)  -->
<svg version="1.1" id="Capa_1" xmlns="http://www.w3.org/2000/svg" xmlns:xlink="http://www.w3.org/1999/xlink" x="0px" y="0px"
	 viewBox="0 0 2122 2122" style="enable-background:new 0 0 2122 2122;" xml:space="preserve">
<path style="fill:#607F46;" d="M1898.652,1026.575c-5.512-5.866-11.333-11.303-17.317-16.498
	c-4.791-6.259-9.83-12.372-15.314-18.206c-11.372-12.122-23.798-22.772-37.104-32l-0.012-0.044
	c-19.781-13.763-41.521-24.306-64.567-31.826c1.541-1.972,3.087-3.943,4.606-5.919c3.208-4.102,6.378-8.224,9.508-12.375
	c1.966-2.612,3.936-5.194,5.902-7.81c10.355-13.754,20.429-27.561,30.249-41.417c64.328-90.909,119.569-194.757,116.124-304.214
	c-0.153-5.013-0.441-10.007-0.889-14.933l-0.049-0.658l-0.036-0.19c-0.205-2.65-0.485-5.32-0.823-7.946
	c-0.599-5.199-1.388-10.3-2.309-15.372c-0.409-2.251-0.843-4.458-1.313-6.665l-0.185-0.828c-0.117-0.643-0.265-1.277-0.417-1.915
	c-0.363-1.627-0.721-3.22-1.113-4.809c-0.427-1.778-0.88-3.523-1.333-5.262c-0.317-1.174-0.631-2.343-0.987-3.537
	c-1.766-6.319-3.739-12.463-5.968-18.494c-1.593-4.419-3.347-8.78-5.223-13.052l-0.005-0.029l-0.176-0.4l-6.804-14.192
	l-7.863-13.968l-0.003-0.016l0.003-0.004c-0.001-0.003-0.003-0.004-0.005-0.007l0-0.003c-2.102-3.435-4.297-6.821-6.546-10.124
	c-0.047-0.071-0.097-0.137-0.144-0.207c-0.108-0.158-0.22-0.312-0.328-0.47c-0.381-0.555-0.762-1.109-1.152-1.651
	c-1.581-2.266-3.228-4.522-4.896-6.709c-0.254-0.341-0.503-0.663-0.754-0.99c-0.178-0.232-0.352-0.467-0.531-0.698
	c-0.023-0.03-0.046-0.061-0.069-0.091c-2.156-2.792-4.368-5.51-6.641-8.181c-0.149-0.183-0.313-0.352-0.464-0.533
	c-0.356-0.416-0.718-0.826-1.077-1.239c-0.27-0.304-0.524-0.622-0.802-0.922c-1.128-1.291-2.251-2.548-3.364-3.771
	c-0.724-0.788-1.484-1.539-2.219-2.316c-0.793-0.838-1.587-1.674-2.393-2.498c-1.881-1.927-3.808-3.801-5.754-5.654
	c-0.861-0.819-1.704-1.658-2.577-2.463c-0.024-0.022-0.046-0.045-0.07-0.067c-0.999-0.945-2.027-1.886-3.126-2.816
	c-1.393-1.268-2.856-2.499-4.33-3.728c-0.534-0.448-1.06-0.905-1.598-1.348c-1.233-1.018-2.466-2.037-3.721-3.025
	c-1.325-1.052-2.645-2.075-3.993-3.055c-0.295-0.24-0.61-0.456-0.917-0.683c-0.269-0.201-0.538-0.403-0.808-0.601
	c-0.047-0.035-0.093-0.071-0.14-0.105c-1.157-0.882-2.341-1.73-3.559-2.572c-0.711-0.502-1.454-0.994-2.163-1.496
	c-0.898-0.613-1.815-1.196-2.719-1.8c-0.638-0.423-1.272-0.85-1.914-1.267c-0.282-0.18-0.551-0.376-0.835-0.553
	c-0.506-0.341-1.055-0.702-1.595-1.038c-1.822-1.13-3.642-2.256-5.522-3.343c-0.402-0.238-0.8-0.461-1.2-0.692
	c-0.327-0.19-0.655-0.379-0.984-0.567c-0.422-0.242-0.847-0.493-1.27-0.733c-0.77-0.458-1.535-0.887-2.295-1.276
	c-0.645-0.346-1.293-0.697-1.941-1.043c-1.285-0.711-2.566-1.357-3.86-1.989c-0.724-0.368-1.452-0.726-2.181-1.087
	c-0.972-0.48-1.942-0.963-2.922-1.436c-1.323-0.653-2.707-1.267-4.054-1.886c-0.408-0.182-0.833-0.327-1.242-0.506
	c-3.556-1.573-7.167-3.038-10.821-4.419c-0.54-0.204-1.056-0.453-1.599-0.653c-0.172-0.068-0.352-0.124-0.525-0.19
	c-0.232-0.085-0.463-0.169-0.695-0.253c-0.123-0.041-0.239-0.094-0.364-0.132c-1.398-0.511-2.828-1.013-4.217-1.461
	c-1.352-0.449-2.707-0.902-4.054-1.321l-0.329-0.102c-0.755-0.252-1.52-0.478-2.282-0.708c-0.118-0.035-0.234-0.074-0.352-0.109
	c-0.225-0.069-0.455-0.142-0.678-0.21c-1.742-0.512-3.478-0.994-5.25-1.467c-1.559-0.448-3.14-0.823-4.76-1.228l-0.499-0.107
	c-0.141-0.034-0.288-0.062-0.43-0.096c-0.465-0.111-0.936-0.206-1.402-0.314c-1.509-0.351-3.019-0.705-4.545-1.018
	c-2.176-0.439-4.351-0.872-6.553-1.267c-0.004,0-0.009-0.001-0.012-0.003c-0.38-0.067-0.766-0.121-1.147-0.186
	c-1.827-0.316-3.662-0.624-5.499-0.893c-2.117-0.312-4.231-0.594-6.37-0.833c-12.782-1.496-25.947-1.89-39.381-1.111
	c-7.859,0.429-15.844,1.315-23.898,2.577c-12.495,1.973-25.148,4.965-37.954,9.013c-23.562,7.464-46.382,16.916-68.767,27.45
	c-1.174,0.545-2.312,1.082-3.479,1.661c-9.111,4.341-18.124,8.828-27.081,13.442c-24.843,12.702-49.274,26.163-73.778,39.04
	c-126.219,66.309-241.332,148.55-357.279,230.182c-181.79,128.019-362.45,257.529-541.95,388.516
	c-128.614,93.817-271.154,176.794-376.516,298.172c-19.072,21.973-35.249,45.681-48.002,70.09
	c-3.705,7.045-7.12,14.168-10.219,21.33c-20.268,46.611-27.975,94.82-20.022,138.07c1.118,5.969,2.49,11.82,4.222,17.578
	c8.719,29.471,25.498,56.019,51.44,77.383c2.248,1.852,4.564,3.665,6.95,5.437c16.701,12.403,36.801,22.81,60.585,30.743
	c4.017,1.34,8.136,2.607,12.36,3.805c0.007-0.003,0.016-0.005,0.023-0.008l0.028,0.018l0.034-0.005c1.961,0.575,3.981,1.101,6,1.632
	c1.014,0.283,2.022,0.526,3.062,0.77c2.127,0.546,4.319,1.077,6.507,1.574c0.928,0.195,1.898,0.419,2.86,0.609
	c0.862,0.209,1.685,0.39,2.543,0.565l0.032-0.005c0.646,0.151,1.286,0.263,1.924,0.38c4.212,0.862,8.48,1.647,12.872,2.373
	c39.566,6.49,80.37,6.543,120.424,3.985c8.731-0.555,17.476-1.218,26.212-1.939c8.969-0.765,17.953-1.632,26.952-2.602
	c4.285-0.448,8.529-0.921,12.767-1.422c3.639-0.395,7.235-0.848,10.836-1.272c5.542-0.706,11.118-1.422,16.682-2.197
	c4.059-0.541,8.115-1.111,12.163-1.71c6.833-0.979,13.683-2.056,20.5-3.128c3.306-0.531,6.606-1.097,9.905-1.666
	c2.068-0.341,4.136-0.682,6.234-1.062c1.902-0.312,3.832-0.662,5.761-1.013c1.902-0.312,3.832-0.663,5.727-1.009
	c4.492-0.814,8.977-1.661,13.464-2.509c5.377-1.043,10.755-2.085,16.156-3.201c3.976-0.819,7.922-1.603,11.89-2.456
	c3.971-0.853,7.939-1.705,11.903-2.592c3.508-0.736,7.04-1.545,10.536-2.344c3.372-0.745,6.736-1.52,10.095-2.329
	c4.716-1.091,9.389-2.236,14.092-3.391c4.773-1.164,9.577-2.333,14.37-3.571c4.334-1.116,8.699-2.241,13.062-3.396
	c7.674-2.027,15.369-4.122,23.055-6.276c2.261-0.614,4.548-1.257,6.831-1.939c5.756-1.608,11.535-3.289,17.271-4.994
	c4.892-1.452,9.813-2.943,14.724-4.463c5.213-1.578,10.387-3.182,15.581-4.853c2.309-0.721,4.614-1.466,6.919-2.217
	c2.57-0.799,5.101-1.627,7.659-2.49c4.675-1.51,9.31-3.05,13.939-4.618c4.923-1.657,9.812-3.308,14.692-5.023
	c4.882-1.681,9.761-3.396,14.633-5.145c4.65-1.642,9.296-3.313,13.934-5.018l0.677-0.254c4.329-1.582,8.678-3.205,13.005-4.843
	c25.779,51.006,60.795,93.896,101.499,125.286c56.855,43.874,124.787,65.335,194.048,55.342c7.96-1.151,15.746-2.801,23.427-4.724
	c7.879-0.334,15.782-0.956,23.71-2.102c115.709-16.726,202.922-116.748,230.177-246.373
	c113.942,86.896,298.432,63.172,431.43-61.812C1979.123,1347.573,2007.966,1142.896,1898.652,1026.575z"/>
<path style="fill:#426437;" d="M1898.652,1026.575c-5.512-5.866-11.333-11.303-17.317-16.498
	c-4.791-6.259-9.83-12.372-15.314-18.206c-11.372-12.122-23.798-22.772-37.104-32l-0.012-0.044
	c-19.781-13.763-41.521-24.306-64.567-31.826c1.541-1.972,3.087-3.943,4.606-5.919c3.208-4.102,6.378-8.224,9.508-12.375
	c1.966-2.612,3.936-5.194,5.902-7.81c10.355-13.754,20.429-27.561,30.249-41.417c64.328-90.909,119.569-194.757,116.124-304.214
	c-0.153-5.013-0.441-10.007-0.889-14.933l-0.049-0.658l-0.036-0.19c-0.205-2.65-0.485-5.32-0.823-7.946
	c-0.599-5.199-1.388-10.3-2.309-15.372c-0.409-2.251-0.843-4.458-1.313-6.665l-0.185-0.828c-0.117-0.643-0.265-1.277-0.417-1.915
	c-0.363-1.627-0.721-3.22-1.113-4.809c-0.427-1.778-0.88-3.523-1.333-5.262c-0.317-1.174-0.631-2.343-0.987-3.537
	c-1.766-6.319-3.739-12.463-5.968-18.494c-1.593-4.419-3.347-8.78-5.223-13.052l-0.005-0.029l-0.176-0.4l-6.804-14.192
	l-7.863-13.968l-0.003-0.016l0.003-0.004c-0.001-0.003-0.003-0.004-0.005-0.007l0-0.003c-2.102-3.435-4.297-6.821-6.546-10.124
	c-0.047-0.071-0.097-0.137-0.144-0.207c-0.108-0.158-0.22-0.312-0.328-0.47c-0.381-0.555-0.762-1.109-1.152-1.651
	c-1.581-2.266-3.228-4.522-4.896-6.709c-0.254-0.341-0.503-0.663-0.754-0.99c-0.178-0.232-0.352-0.467-0.531-0.698
	c-0.023-0.03-0.046-0.061-0.069-0.091c-2.156-2.792-4.368-5.51-6.641-8.181c-0.149-0.183-0.313-0.352-0.464-0.533
	c-0.356-0.416-0.718-0.826-1.077-1.239c-0.27-0.304-0.524-0.622-0.802-0.922c-1.128-1.291-2.251-2.548-3.364-3.771
	c-0.724-0.788-1.484-1.539-2.219-2.316c-0.793-0.838-1.587-1.674-2.393-2.498c-1.881-1.927-3.808-3.801-5.754-5.654
	c-0.861-0.819-1.704-1.658-2.577-2.463c-0.024-0.022-0.046-0.045-0.07-0.067c-0.999-0.945-2.027-1.886-3.126-2.816
	c-1.393-1.268-2.856-2.499-4.33-3.728c-0.534-0.448-1.06-0.905-1.598-1.348c-1.233-1.018-2.466-2.037-3.721-3.025
	c-1.325-1.052-2.645-2.075-3.993-3.055c-0.295-0.24-0.61-0.456-0.917-0.683c-0.269-0.201-0.538-0.403-0.808-0.601
	c-0.047-0.035-0.093-0.071-0.14-0.105c-1.157-0.882-2.341-1.73-3.559-2.572c-0.711-0.502-1.454-0.994-2.163-1.496
	c-0.898-0.613-1.815-1.196-2.719-1.8c-0.638-0.423-1.272-0.85-1.914-1.267c-0.282-0.18-0.551-0.376-0.835-0.553
	c-0.506-0.341-1.055-0.702-1.595-1.038c-1.822-1.13-3.642-2.256-5.522-3.343c-0.402-0.238-0.8-0.461-1.2-0.692
	c-0.327-0.19-0.655-0.379-0.984-0.567c-0.422-0.242-0.847-0.493-1.27-0.733c-0.77-0.458-1.535-0.887-2.295-1.276
	c-0.645-0.346-1.293-0.697-1.941-1.043c-1.285-0.711-2.566-1.357-3.86-1.989c-0.724-0.368-1.452-0.726-2.181-1.087
	c-0.972-0.48-1.942-0.963-2.922-1.436c-1.323-0.653-2.707-1.267-4.054-1.886c-0.408-0.182-0.833-0.327-1.242-0.506
	c-3.556-1.573-7.167-3.038-10.821-4.419c-0.54-0.204-1.056-0.453-1.599-0.653c-0.172-0.068-0.352-0.124-0.525-0.19
	c-0.232-0.085-0.463-0.169-0.695-0.253c-0.123-0.041-0.239-0.094-0.364-0.132c-1.398-0.511-2.828-1.013-4.217-1.461
	c-1.352-0.449-2.707-0.902-4.054-1.321l-0.329-0.102c-0.755-0.252-1.52-0.478-2.282-0.708c-0.118-0.035-0.234-0.074-0.352-0.109
	c-0.225-0.069-0.455-0.142-0.678-0.21c-1.742-0.512-3.478-0.994-5.25-1.467c-1.559-0.448-3.14-0.823-4.76-1.228l-0.499-0.107
	c-0.141-0.034-0.288-0.062-0.43-0.096c-0.465-0.111-0.936-0.206-1.402-0.314c-1.509-0.351-3.019-0.705-4.545-1.018
	c-2.176-0.439-4.351-0.872-6.553-1.267c-0.004,0-0.009-0.001-0.012-0.003c-0.38-0.067-0.766-0.121-1.147-0.186
	c-1.827-0.316-3.662-0.624-5.499-0.893c-2.117-0.312-4.231-0.594-6.37-0.833c3.493,84.365-7.047,166.962-43.822,252.136
	c-25.209,58.392-59.605,112.741-96.258,165.276c-97.184,139.384-211.907,266.949-340.139,380.31
	c-19.504-13.875-40.193-25.132-61.702-33.498c-9.985-3.884-20.14-7.142-30.442-9.73c-26.178-6.576-53.24-8.869-80.61-6.284
	c-3.858,0.364-7.716,0.744-11.583,1.303c-7.955,1.15-15.736,2.797-23.412,4.717c-0.008,0.001-0.016,0.004-0.025,0.006
	c-7.879,0.335-15.782,0.957-23.71,2.103c-16.448,2.363-32.3,6.436-47.491,12.039l-0.044-0.015
	c-20.678,7.598-40.116,18.036-58.106,30.899c-16.943,12.113-32.572,26.409-46.738,42.525
	c-29.489,33.546-52.529,75.056-67.441,121.626c-3.907,12.202-7.246,24.749-10.003,37.592c-7.969,37.117-11.023,76.673-8.386,117.443
	c-195.582,100.805-405.943,174.134-622.752,214.946c2.248,1.852,4.564,3.665,6.95,5.437c16.701,12.403,36.801,22.81,60.585,30.743
	c4.017,1.34,8.136,2.607,12.36,3.805c0.007-0.003,0.016-0.005,0.023-0.008l0.028,0.018l0.034-0.005c1.961,0.575,3.981,1.101,6,1.632
	c1.014,0.283,2.022,0.526,3.062,0.77c2.127,0.546,4.319,1.077,6.507,1.574c0.928,0.195,1.898,0.419,2.86,0.609
	c0.862,0.209,1.685,0.39,2.543,0.565l0.032-0.005c0.646,0.151,1.286,0.263,1.924,0.38c4.212,0.862,8.48,1.647,12.872,2.373
	c39.566,6.49,80.37,6.543,120.424,3.985c8.731-0.555,17.476-1.218,26.212-1.939c8.969-0.765,17.953-1.632,26.952-2.602
	c4.285-0.448,8.529-0.921,12.767-1.422c3.639-0.395,7.235-0.848,10.836-1.272c5.542-0.706,11.118-1.422,16.682-2.197
	c4.059-0.541,8.115-1.111,12.163-1.71c6.833-0.979,13.683-2.056,20.5-3.128c3.306-0.531,6.606-1.097,9.905-1.666
	c2.068-0.341,4.136-0.682,6.234-1.062c1.902-0.312,3.832-0.662,5.761-1.013c1.902-0.312,3.832-0.663,5.727-1.009
	c4.492-0.814,8.977-1.661,13.464-2.509c5.377-1.043,10.755-2.085,16.156-3.201c3.976-0.819,7.922-1.603,11.89-2.456
	c3.971-0.853,7.939-1.705,11.903-2.592c3.508-0.736,7.04-1.545,10.536-2.344c3.372-0.745,6.736-1.52,10.095-2.329
	c4.716-1.091,9.389-2.236,14.092-3.391c4.773-1.164,9.577-2.333,14.37-3.571c4.334-1.116,8.699-2.241,13.062-3.396
	c7.674-2.027,15.369-4.122,23.055-6.276c2.261-0.614,4.548-1.257,6.831-1.939c5.756-1.608,11.535-3.289,17.271-4.994
	c4.892-1.452,9.813-2.943,14.724-4.463c5.213-1.578,10.387-3.182,15.581-4.853c2.309-0.721,4.614-1.466,6.919-2.217
	c2.57-0.799,5.101-1.627,7.659-2.49c4.675-1.51,9.31-3.05,13.939-4.618c4.923-1.657,9.812-3.308,14.692-5.023
	c4.882-1.681,9.761-3.396,14.633-5.145c4.65-1.642,9.296-3.313,13.934-5.018l0.677-0.254c4.329-1.582,8.678-3.205,13.005-4.843
	c25.779,51.006,60.795,93.896,101.499,125.286c56.855,43.874,124.787,65.335,194.048,55.342c7.96-1.151,15.746-2.801,23.427-4.724
	c7.879-0.334,15.782-0.956,23.71-2.102c115.709-16.726,202.922-116.748,230.177-246.373
	c113.942,86.896,298.432,63.172,431.43-61.812C1979.123,1347.573,2007.966,1142.896,1898.652,1026.575z"/>
<path style="fill:#FAF6C6;" d="M1898.652,1026.575c-5.512-5.866-11.333-11.303-17.317-16.498
	c-4.791-6.259-9.83-12.372-15.314-18.206c-11.372-12.122-23.798-22.772-37.104-32l-0.012-0.044
	c-19.781-13.763-41.521-24.306-64.567-31.826c-49.546-16.167-105.25-18.017-161.349-5.999c-15.577,3.337-31.176,7.73-46.684,13.196
	c-52.964,18.664-104.805,49.623-150.549,92.605c-45.58,42.84-79.663,92.47-101.584,143.99
	c-15.566-16.741-32.385-31.598-50.219-44.284c-19.504-13.875-40.193-25.132-61.702-33.498c-9.985-3.884-20.14-7.142-30.442-9.73
	c-26.178-6.576-53.24-8.869-80.61-6.284c-3.858,0.364-7.716,0.744-11.583,1.303c-7.955,1.15-15.736,2.797-23.412,4.717
	c-0.008,0.001-0.016,0.004-0.025,0.006c-7.879,0.335-15.782,0.957-23.71,2.103c-16.448,2.363-32.3,6.436-47.491,12.039l-0.044-0.015
	c-20.678,7.598-40.116,18.036-58.106,30.899c-16.943,12.113-32.572,26.409-46.738,42.525
	c-29.489,33.546-52.529,75.056-67.441,121.626c-3.907,12.202-7.246,24.749-10.003,37.592c-7.969,37.117-11.023,76.673-8.386,117.443
	c0.761,11.761,1.952,23.612,3.676,35.541c1.701,11.762,3.93,23.279,6.484,34.62c1.907,8.469,3.965,16.858,6.323,25.07
	c7.571,26.37,17.424,51.352,29.197,74.648c25.779,51.006,60.795,93.896,101.499,125.286
	c56.855,43.874,124.787,65.335,194.048,55.342c7.96-1.151,15.746-2.801,23.427-4.724c7.879-0.334,15.782-0.956,23.71-2.102
	c115.709-16.726,202.922-116.748,230.177-246.373c113.942,86.896,298.432,63.172,431.43-61.812
	C1979.123,1347.573,2007.966,1142.896,1898.652,1026.575z"/>
<path style="fill:#819969;" d="M709.731,1397.809c29.136-20.611,56.289-43.509,82.914-67.016
	c2.757-12.843,6.096-25.39,10.003-37.592c-21.453,19.415-42.993,38.733-65.392,57.077c-31.535,25.832-64.789,49.749-101.257,68.643
	c-43.099,22.324-89.727,36.76-137.118,47.357c-125.361,28.068-279.888,34.056-393.035,101.944c1.118,5.969,2.49,11.82,4.222,17.578
	c103.15-61.623,240.282-72.185,355.388-93.315C553.727,1476.294,636.364,1449.712,709.731,1397.809z"/>
<path style="fill:#819969;" d="M1590.96,629.791c-44.692,53.866-108.409,90.017-164.677,131.055
	c-28.007,20.443-54.587,42.523-77.703,68.151c-24.748,27.42-42.468,58.738-57.442,91.912
	c-16.119,35.771-29.752,73.315-53.842,105.125c-19.755,26.073-46.274,44.243-75.488,58.247c10.302,2.587,20.457,5.846,30.442,9.73
	c7.413-4.153,14.681-8.576,21.669-13.507c30.945-21.87,52.458-51.79,69.391-84.589c17.822-34.524,30.394-71.474,50.092-105.14
	c17.995-30.738,42.453-56.546,70.068-79.542c53.586-44.628,115.445-79.084,167.505-125.491
	c27.596-24.619,51.934-52.594,68.809-85.15c20.88-40.219,27.674-85.145,31.683-129.306c4.336-47.863,7.776-97.822,23.323-142.611
	c-7.859,0.429-15.844,1.315-23.898,2.577c-7.505,23.391-12.068,47.678-15.05,70.25
	C1645.323,481.543,1646.017,563.365,1590.96,629.791z"/>
<path style="fill:#819969;" d="M568.521,1248.469c51.118-53.305,98.986-114.484,165.291-151.137
	c78.141-43.215,173.973-32.711,251.488-77.471c58.538-33.822,99.067-88.093,135.72-142.319
	c38.787-57.437,75.04-118.791,129.459-164.141c57.686-48.161,131.16-72.979,192.867-115.469
	c34.975-24.098,64.12-54.368,82.94-91.927c19.267-38.499,26.76-81.262,32.631-123.137c0.628-4.492,1.223-8.979,1.778-13.491
	c-9.111,4.341-18.124,8.828-27.081,13.442c-8.49,58.87-22.146,117.286-66.176,161.939
	c-53.729,54.441-130.092,79.985-193.999,120.584c-61.262,38.889-103.723,93.876-142.785,152.823
	c-37.568,56.75-73.108,117.876-127.737,161.306c-32.857,26.1-70.857,40.93-111.958,50.017
	c-45.732,10.095-92.899,15.308-136.628,32.833c-69.16,27.751-120.017,82.865-168.385,136.171
	c-54.558,60.102-109.264,117.11-187.457,147.732c-84.16,32.959-175.663,38.923-262.402,62.597
	c-3.705,7.045-7.12,14.168-10.219,21.33c82.076-24.39,168.636-30.115,250.46-55.689
	C454.021,1350.175,513.473,1305.873,568.521,1248.469z"/>
<path style="fill:#557548;" d="M262.56,1708.308l0.032-0.01c1.9-0.511,3.769-1.013,5.674-1.491c2.694-0.692,5.386-1.379,8.085-2.032
	c7.705-1.866,15.433-3.601,23.176-5.237c1.586-0.356,3.177-0.678,4.768-0.999c4.702-0.984,9.374-1.934,14.054-2.85
	c6.904-1.354,13.812-2.675,20.752-4c2.99-0.575,5.944-1.145,8.938-1.691c8.906-1.681,17.837-3.4,26.731-5.15
	c44.382-8.819,88.282-19.342,131.758-31.815c100.77-28.861,198.723-66.568,294.214-109.567c-2.357-8.212-4.416-16.6-6.323-25.07
	c-88.111,40.211-178.354,75.877-270.705,104.541c-5.856,1.827-11.722,3.591-17.561,5.311c-1.727,0.516-3.465,1.015-5.202,1.521
	c-1.967,0.575-3.933,1.157-5.892,1.724c-1.652,0.47-3.302,0.941-4.952,1.413c-0.792,0.226-1.586,0.453-2.378,0.678
	c-0.106,0.03-0.211,0.06-0.317,0.091c-2.582,0.735-5.135,1.432-7.684,2.158c-1.586,0.44-3.182,0.868-4.77,1.304
	c-3.062,0.841-6.128,1.68-9.201,2.516c-1.25,0.339-2.491,0.683-3.744,1.023c-1.138,0.307-2.283,0.603-3.422,0.907
	c-5.461,1.46-10.928,2.904-16.413,4.354c-0.515,0.136-1.026,0.273-1.542,0.409c-0.358,0.094-0.714,0.185-1.071,0.279
	c-5.719,1.497-11.416,2.989-17.144,4.461c-0.12,0.031-0.24,0.063-0.36,0.094c-0.04,0.01-0.08,0.02-0.121,0.031
	c-3.047,0.784-6.127,1.573-9.172,2.351c-4.3,1.111-8.6,2.227-12.899,3.338c-5.946,1.51-11.854,3.05-17.795,4.589
	c-2.953,0.77-5.939,1.544-8.891,2.314c-2.221,0.581-4.44,1.172-6.66,1.755c-1.363,0.358-2.726,0.717-4.089,1.078
	c-1.796,0.474-3.594,0.94-5.388,1.42c-1.09,0.29-2.174,0.594-3.263,0.884c-6.321,1.688-12.63,3.405-18.93,5.134
	c-1.989,0.546-3.991,1.071-5.977,1.621c-4.475,1.277-8.957,2.519-13.428,3.83c-0.133,0.038-0.265,0.078-0.398,0.116
	c-2.867,0.809-5.724,1.656-8.584,2.498c-1.347,0.397-2.697,0.777-4.044,1.177l-0.78,0.243c-0.612,0.182-1.219,0.372-1.831,0.553
	c-3.219,0.956-6.43,1.924-9.642,2.911c-0.758,0.233-1.517,0.451-2.276,0.687c-2.276,0.693-4.536,1.424-6.799,2.14
	c-2.016,0.636-4.036,1.26-6.055,1.905c-0.288,0.092-0.576,0.18-0.865,0.272c-3.05,0.984-6.071,1.963-9.116,2.981
	c-1.054,0.347-2.109,0.717-3.166,1.07c-1.925,0.642-3.847,1.288-5.766,1.948c-0.626,0.215-1.257,0.419-1.881,0.636
	c-2.46,0.848-4.884,1.686-7.337,2.563c-1.035,0.351-2.07,0.707-3.101,1.092c-0.814,0.249-1.583,0.555-2.392,0.833l0.01,0.006
	l0.028,0.018l0.034-0.005c1.961,0.575,3.981,1.101,6,1.632c1.014,0.283,2.022,0.526,3.062,0.77c2.127,0.546,4.319,1.077,6.507,1.574
	c0.928,0.195,1.898,0.419,2.86,0.609c0.862,0.209,1.685,0.39,2.543,0.565l0.032-0.005L262.56,1708.308z"/>
<path style="fill:#557548;" d="M1894.516,434.975c-0.796,1.106-1.585,2.246-2.343,3.377l-0.246,0.346l-0.302,0.419
	c-0.911,1.338-1.758,2.7-2.626,4.055c-0.44,0.686-0.9,1.365-1.331,2.053c-0.162,0.259-0.338,0.512-0.499,0.771
	c-1.07,1.691-2.132,3.405-3.121,5.145c-0.658,1.086-1.274,2.198-1.895,3.306c-0.243,0.433-0.503,0.854-0.74,1.29
	c-0.034,0.062-0.072,0.122-0.105,0.184c-0.602,1.038-1.167,2.1-1.762,3.172c-0.641,1.213-1.308,2.46-1.941,3.703
	c-0.391,0.746-0.748,1.521-1.128,2.275c-0.525,1.042-1.046,2.089-1.559,3.143c-0.448,0.921-0.918,1.82-1.362,2.748
	c-0.573,1.203-1.141,2.431-1.674,3.659c-0.107,0.232-0.193,0.469-0.299,0.701c-2.148,4.693-4.185,9.42-6.037,14.183
	c-1.506,3.825-2.933,7.698-4.266,11.523c-0.201,0.572-0.389,1.141-0.587,1.713c-0.317,0.915-0.64,1.833-0.94,2.745
	c-0.353,1.092-0.704,2.183-1.055,3.279c-0.075,0.228-0.136,0.453-0.21,0.68c-0.782,2.383-1.498,4.756-2.204,7.128
	c-0.198,0.664-0.422,1.332-0.616,1.994c-0.446,1.487-0.852,2.963-1.257,4.44c-0.122,0.443-0.259,0.89-0.378,1.333
	c-8.455,30.946-14.497,62.536-22.959,92.993c-11.975,43.1-28.804,83.927-64.244,117.419c-27.898,26.368-60.336,47.581-90.765,70.986
	c-31.452,24.19-59.109,51.874-83.876,82.412c-12.452,15.363-24.299,31.121-35.885,47.049c15.509-5.466,31.107-9.859,46.684-13.196
	c14.012-18.322,28.767-36.106,45.054-52.552c26.921-27.181,58.122-49.169,88.909-71.912c33.764-24.906,67.286-51.893,89.764-87.294
	c21.769-34.173,32.682-72.882,41.271-111.698c1.577-7.22,3.167-14.543,4.814-21.944c1.069-4.906,2.158-9.881,3.32-14.835
	c0.962-4.356,1.998-8.692,3.065-13.033c0.171-0.76,0.348-1.486,0.553-2.256c0.709-2.914,1.449-5.837,2.224-8.765
	c1.225-4.799,2.555-9.588,3.951-14.387c0.502-1.779,1.035-3.571,1.576-5.325c2.3-7.586,4.818-15.108,7.603-22.48
	c0.653-1.715,1.303-3.425,1.995-5.106c0.326-0.858,0.658-1.681,1.016-2.543c0.445-1.14,0.931-2.26,1.415-3.376
	c0.833-2.042,1.703-4.059,2.648-6.051l0.168-0.4c1.181-2.567,2.37-5.106,3.667-7.63c1.276-2.621,2.66-5.228,4.08-7.81l-0.005-0.029
	l-0.176-0.4l-6.804-14.192l-7.863-13.968l-0.144,0.192L1894.516,434.975z"/>
<path style="fill:#819969;" d="M467.887,1170.429c4.955-7.46-3.199-15.255-10.67-13.876c-20.911,3.854-39.5,21.549-56.441,33.866
	c-15.578,11.328-30.765,23.177-45.692,35.347c-32.375,26.402-68.875,54.445-91.929,89.637c-4.21,6.426,4.122,14.557,10.511,10.509
	c34.648-21.934,64.124-53.427,96.224-78.962c18.051-14.364,36.541-28.219,55.255-41.705
	C440.197,1194.399,457.515,1186.048,467.887,1170.429z"/>
<path style="fill:#819969;" d="M531.156,1113.781c26.821-16.015,49.445-37.856,70.755-60.346c4.121-4.346-1.335-12.341-6.668-8.644
	c-25.5,17.681-50.545,36.57-70.504,60.673C521.1,1109.858,525.668,1117.059,531.156,1113.781z"/>
<path style="fill:#819969;" d="M183.335,1453.683c-13.153,12.263-19.869,29.174-15.209,46.875c2.505,9.5,15.941,6.991,16.526-2.237
	c0.714-11.264,4.331-22.855,12.193-31.133C205.332,1458.253,192.334,1445.288,183.335,1453.683z"/>
<path style="fill:#819969;" d="M690.296,996.636c58.202-28.443,111.488-73.12,164.382-110.363
	c25.669-18.071,51.515-35.859,77.279-53.793c25.476-17.74,56.399-35.001,77.376-57.958c6.98-7.635-1.712-17.252-10.443-13.535
	c-29.194,12.443-56.49,36.628-82.19,55.186c-26.821,19.362-53.693,38.646-80.612,57.881c-50.672,36.209-108,70.163-152.46,113.939
	C678.996,992.558,684.849,999.301,690.296,996.636z"/>
<path style="fill:#819969;" d="M1063.923,727.038c54.378-40.146,110.967-77.087,166.458-115.629c2.351-1.637,0.351-4.858-2.2-3.766
	c-63.104,26.918-118.782,67.074-168.158,114.343C1057.453,724.446,1060.927,729.25,1063.923,727.038z"/>
<path style="fill:#819969;" d="M912.754,1129.089c-76.207,15.06-128.582,76.526-177.965,131.776
	c-26.926,30.124-54.835,60.117-88.19,83.269c-16.804,11.669-34.801,21.842-54.229,28.443c-17.245,5.856-37.873,4.044-53.03,13.954
	c-5.32,3.479-5.817,11.513,0,14.879c27.113,15.713,73.001-6.626,97.805-20.058c34.151-18.499,64.066-44.76,90.982-72.497
	c46.299-47.706,87.196-100.737,141.964-137.28c14.166-16.116,29.796-30.412,46.738-42.525
	C915.61,1128.81,914.254,1128.792,912.754,1129.089z"/>
<path style="fill:#819969;" d="M472.123,1416.299c-16.45-3.323-32.173-2.412-48.614,0.858c-13.654,2.709-31.474,5.768-37.851,19.654
	c-1.752,3.81-0.212,7.113,3.537,8.692c12.397,5.223,25.637-1.325,37.975-4.19c14.901-3.464,30.061-5.306,44.952-8.794
	C479.99,1430.676,480.294,1417.95,472.123,1416.299z"/>
<path style="fill:#819969;" d="M1230.398,939.291c13.291-23.664,35.625-56.458,33.888-84.487c-0.344-5.554-6.331-7.746-10.455-4.331
	c-19.537,16.18-27.25,47.494-38.994,69.617c-13.774,25.954-29.574,51.06-49.179,73.033c-17.308,19.401-37.328,36.18-59.939,49.082
	c-24.689,14.085-50.066,17.325-76.11,26.694c-5.966,2.148-7.42,12.18,0,13.618c5.467,1.06,11.013,1.516,16.596,1.501
	c7.676-1.92,15.457-3.567,23.412-4.717c3.867-0.559,7.725-0.939,11.583-1.303c35.446-11.532,69.379-37.616,92.334-60.831
	C1196.172,994.273,1214.673,967.281,1230.398,939.291z"/>
<path style="fill:#819969;" d="M1319.426,769.537c14.234-10.046,28.604-20.458,43.581-29.374
	c15.016-8.94,32.063-15.24,46.204-25.461c3.579-2.587,2.597-8.692-2.358-8.707c-35.691-0.097-73.752,26.646-95.478,53.106
	C1306.985,764.446,1312.763,774.239,1319.426,769.537z"/>
<path style="fill:#426437;" d="M1881.335,1010.077c90.737,118.542,57.893,309.621-79.713,438.967
	c-120.085,112.842-282.136,143.095-396.361,83.985c-0.748,4.206-1.588,8.368-2.46,12.515
	c113.942,86.896,298.432,63.172,431.43-61.812c144.891-136.161,173.734-340.838,64.421-457.159
	C1893.14,1020.709,1887.32,1015.272,1881.335,1010.077z"/>
<path style="fill:#D2E2A1;" d="M1787.437,1087.666c-6.696-15.908-15.554-31.128-27.802-43.284
	c-33.438-33.188-86.19-38.061-132.595-29.934c-104.202,18.251-193.108,91.747-248.472,181.895
	c-6.893,11.224-15.891,27.691-23.014,45.693c18.802,32.992,33.555,69.865,43.263,109.568c4.436,2.007,8.67,4.348,12.448,7.38
	c24.21,19.44,36.775,49.267,59.135,70.475c34.709,32.926,88.575,40.092,134.44,26.494c45.866-13.603,84.502-45.227,115.903-81.32
	c33.975-39.05,61.201-84.677,74.555-134.684C1808.653,1189.936,1807.517,1135.374,1787.437,1087.666z"/>
<path style="fill:#BCC97B;" d="M1677.006,1150.161c-18.86,32.375-20.417,74.197-4.01,107.888
	c8.445,17.339,31.106,35.936,49.819,20.76c20.509-16.638,27.849-42.563,26.894-68.239c-0.441-11.859-2.65-23.669-6.151-34.48
	c-4.402-13.608-13.927-38.607-27.717-45.661C1700.103,1122.37,1684.266,1137.703,1677.006,1150.161z"/>
<path style="fill:#BCC97B;" d="M1642.738,1298.243c-4.404-13.613-13.929-38.607-27.72-45.666
	c-15.739-8.054-31.574,7.274-38.833,19.737c-18.863,32.375-20.417,74.197-4.012,107.883c8.445,17.344,31.108,35.942,49.819,20.76
	c20.511-16.633,27.849-42.563,26.894-68.234C1648.446,1320.859,1646.236,1309.054,1642.738,1298.243z"/>
<path style="fill:#BCC97B;" d="M1453.331,1312.07c37.172-4.731,71.303-28.95,88.053-62.465c6.446-12.902,10.592-34.548-4.77-43.298
	c-13.461-7.669-39.588-1.944-53.386,1.832c-10.962,2.996-22.052,7.615-32.215,13.744c-22,13.272-39.666,33.618-42.346,59.888
	C1406.222,1305.741,1434.198,1314.506,1453.331,1312.07z"/>
<path style="fill:#BCC97B;" d="M1543.966,1174.287c37.339,3.104,75.766-13.476,99.122-42.777
	c8.989-11.274,17.552-31.586,4.346-43.342c-11.571-10.304-38.319-10.139-52.599-9.32c-11.345,0.653-23.153,2.865-34.368,6.748
	c-24.28,8.4-45.795,24.618-53.883,49.759C1499.206,1158.292,1524.743,1172.689,1543.966,1174.287z"/>
<path style="fill:#FFFDF1;" d="M1728.275,950.473c-50.724-15.002-106.74-10.957-154.979,10.636
	c-12.767,5.715-57.701,33.043-24.068,41.734c21.756,5.623,52.239-14.631,73.588-18.665c30.974-5.851,63.352-4.604,93.654,4.2
	c14.648,4.258,30.326,10.193,44.631,4.892c2.331-0.867,4.616-2.066,6.224-3.961c5.198-6.144,0.845-15.722-4.965-21.296
	C1753.05,959.082,1740.65,954.132,1728.275,950.473z"/>
<path style="fill:#FFFDF1;" d="M1588.975,1519.763c5.283-3.084,10.95-7.825,10.324-13.91c-0.685-6.645-8.302-10.003-14.86-11.274
	c-16.923-3.274-34.399-1.632-51.549-3.372c-26.989-2.728-53.04-14.08-73.418-31.985c-11.047-9.71-20.719-21.452-33.9-27.99
	c-4.556-2.259-9.739-3.592-14.906-3.893c1.84,26.193,1.36,51.902-1.291,76.798c22.241,20.429,60.51,28.568,88.257,32.021
	C1528.882,1540.05,1561.779,1535.641,1588.975,1519.763z"/>
<path style="fill:#8BAC57;" d="M1409.375,1504.137c2.651-24.896,3.131-50.606,1.291-76.798c-0.77-10.953-1.89-21.979-3.494-33.076
	c-2.104-14.554-4.956-28.759-8.355-42.659c-9.708-39.703-24.461-76.576-43.263-109.568c-14.814-25.996-32.134-49.544-51.381-70.243
	c-15.566-16.741-32.385-31.598-50.219-44.284c-19.504-13.875-40.193-25.132-61.702-33.498c-9.985-3.884-20.14-7.142-30.442-9.73
	c-26.178-6.576-53.24-8.869-80.61-6.284c-3.858,0.364-7.716,0.744-11.583,1.303c-7.955,1.15-15.736,2.797-23.412,4.717
	c-0.008,0.001-0.016,0.004-0.025,0.006c149.146-6.338,286.831,130.151,313.87,317.055
	c27.008,186.873-66.389,356.718-211.135,392.942c7.879-0.334,15.782-0.956,23.71-2.102
	c115.709-16.726,202.922-116.748,230.177-246.373c0.872-4.148,1.712-8.309,2.46-12.515
	C1406.95,1523.535,1408.335,1513.903,1409.375,1504.137z"/>
<path style="fill:#D2E2A1;" d="M1252.707,1424.66c-12.504-50.232-34.266-98.699-67.573-138.324
	c-33.308-39.62-78.658-69.983-129.257-80.892c-16.872-3.64-34.419-5.116-51.405-2.051c-46.36,8.361-80.609,48.779-100.565,91.454
	c-44.811,95.825-35.591,210.811,6.504,307.863c14.716,33.929,53.659,105.184,100.752,94.339
	c18.349-4.229,32.304-22.324,51.235-27.844c29.807-8.682,61.449-1.871,91.646-8.019c46.877-9.555,83.644-49.569,98.806-94.943
	C1268.015,1520.869,1264.266,1471.081,1252.707,1424.66z"/>
<path style="fill:#BCC97B;" d="M1049.845,1288.616c-15.628,8.273-12.151,30.042-6.108,43.133
	c15.706,34.017,49.075,59.279,86.08,65.16c19.05,3.025,47.281-4.872,45.579-28.906c-1.866-26.343-18.896-47.225-40.475-61.164
	c-9.968-6.441-20.909-11.406-31.774-14.738C1089.475,1287.9,1063.536,1281.366,1049.845,1288.616z"/>
<path style="fill:#BCC97B;" d="M1177.163,1459.485c-9.969-6.441-20.909-11.401-31.771-14.738
	c-13.676-4.195-39.615-10.728-53.305-3.483c-15.625,8.278-12.149,30.042-6.105,43.133c15.705,34.022,49.072,59.279,86.078,65.16
	c19.05,3.03,47.281-4.867,45.579-28.906C1215.772,1494.306,1198.741,1473.429,1177.163,1459.485z"/>
<path style="fill:#BCC97B;" d="M1047.418,1499.88c-6.869-12.677-22.224-28.487-38.207-20.925c-14,6.631-24.292,31.318-29.115,44.789
	c-3.832,10.695-6.407,22.431-7.213,34.271c-1.747,25.632,4.787,51.771,24.772,69.038c18.234,15.751,41.459-2.139,50.439-19.211
	C1065.531,1574.676,1065.27,1532.825,1047.418,1499.88z"/>
<path style="fill:#BCC97B;" d="M975.994,1320.421c-15.074,3.567-30.28,25.574-37.8,37.744c-5.973,9.666-10.933,20.604-14.188,32.02
	c-7.042,24.707-6.093,51.635,9.864,72.682c14.557,19.201,40.998,6.533,53.332-8.297c23.959-28.809,32.412-69.793,21.805-105.735
	C1004.927,1335.008,993.2,1316.343,975.994,1320.421z"/>
<path style="fill:#FFFDF1;" d="M849.775,1351.933c17.081-14.597,17.974-51.186,26.913-70.986
	c12.97-28.731,32.56-54.538,57.152-74.314c11.888-9.559,25.742-18.996,29.6-33.754c0.631-2.407,0.96-4.965,0.326-7.372
	c-2.051-7.785-12.394-9.71-20.289-8.146c-12.66,2.505-23.827,9.822-33.92,17.861c-41.378,32.95-70.192,81.159-80.173,133.057
	C826.744,1322.019,823.363,1374.501,849.775,1351.933z"/>
<path style="fill:#FFFDF1;" d="M1290.553,1599.402c-5.837-3.25-12.957,1.062-17.758,5.71c-12.39,11.981-21.067,27.24-32.324,40.292
	c-17.717,20.541-41.956,35.376-68.311,41.798c-14.29,3.483-29.457,4.667-42.37,11.717c-14.992,8.19-25.727,27.991-13.342,42.904
	c11.289,13.598,37.793,14.568,53.99,13.627c32.838-1.9,65.822-32.346,86.633-55.381c21.111-23.372,36.363-52.848,38.955-84.234
	C1296.529,1609.741,1295.898,1602.379,1290.553,1599.402z"/>
</svg>
