<?xml version="1.0" encoding="utf-8"?>
<!-- Generator: Adobe Illustrator 27.5.0, SVG Export Plug-In . SVG Version: 6.00 Build 0)  -->
<svg version="1.1" id="Capa_1" xmlns="http://www.w3.org/2000/svg" xmlns:xlink="http://www.w3.org/1999/xlink" x="0px" y="0px"
	 viewBox="0 0 2122 2122" style="enable-background:new 0 0 2122 2122;" xml:space="preserve">
<g>
	<path style="fill:#A2529A;" d="M1141.328,1979.301c2.652-0.109,5.293-0.258,7.934-0.426c1.227-0.07,2.457-0.129,3.672-0.219
		c3.852-0.277,7.688-0.598,11.52-0.988c0.184-0.02,0.371-0.047,0.563-0.066c3.637-0.383,7.27-0.813,10.895-1.297
		c1.258-0.168,2.516-0.363,3.781-0.543c2.543-0.363,5.098-0.738,7.629-1.152c1.465-0.238,2.906-0.5,4.355-0.75
		c2.359-0.41,4.707-0.844,7.047-1.297c1.5-0.293,3-0.59,4.492-0.898c2.328-0.477,4.637-0.984,6.949-1.5
		c1.449-0.332,2.902-0.648,4.344-0.992c2.496-0.59,4.98-1.215,7.465-1.855c1.227-0.313,2.453-0.609,3.684-0.941
		c3.664-0.977,7.309-2,10.934-3.078c0.484-0.145,0.965-0.305,1.441-0.449c3.164-0.957,6.313-1.941,9.449-2.973
		c1.336-0.438,2.66-0.906,3.988-1.355c2.289-0.777,4.57-1.559,6.84-2.375c1.488-0.539,2.973-1.094,4.453-1.645
		c2.105-0.781,4.207-1.582,6.293-2.402c1.531-0.594,3.051-1.195,4.57-1.805c2.055-0.84,4.113-1.691,6.168-2.559
		c1.48-0.633,2.973-1.258,4.453-1.906c2.164-0.945,4.316-1.918,6.461-2.898c1.336-0.609,2.668-1.199,3.996-1.82
		c3.117-1.465,6.215-2.965,9.305-4.5c1.238-0.621,2.477-1.262,3.711-1.891c2.379-1.211,4.746-2.43,7.094-3.688
		c1.484-0.789,2.953-1.605,4.426-2.41c1.859-1.023,3.73-2.047,5.582-3.105c1.57-0.887,3.129-1.793,4.68-2.699
		c1.742-1.012,3.477-2.035,5.203-3.074c1.578-0.949,3.156-1.914,4.734-2.887c1.676-1.035,3.344-2.09,5-3.148
		c1.578-1.004,3.164-2.008,4.734-3.035c1.648-1.082,3.285-2.184,4.91-3.285c1.551-1.035,3.098-2.059,4.629-3.121
		c1.863-1.285,3.695-2.602,5.543-3.922c2.621-1.871,5.234-3.777,7.828-5.699c1.5-1.125,3.008-2.238,4.508-3.379
		c1.641-1.258,3.258-2.531,4.883-3.809c1.363-1.07,2.73-2.145,4.074-3.23c1.648-1.32,3.273-2.66,4.902-4
		c1.293-1.07,2.602-2.152,3.887-3.246c1.637-1.383,3.273-2.777,4.891-4.184c1.219-1.063,2.438-2.141,3.645-3.211
		c1.656-1.465,3.313-2.938,4.949-4.43c1.082-0.988,2.156-2,3.238-3c1.723-1.609,3.457-3.207,5.164-4.84
		c0.242-0.227,0.477-0.465,0.711-0.695c4.207-4.047,8.34-8.184,12.402-12.391c0.711-0.738,1.441-1.469,2.145-2.215
		c1.727-1.805,3.41-3.629,5.105-5.461c0.879-0.945,1.754-1.895,2.633-2.852c1.645-1.813,3.262-3.641,4.891-5.477
		c0.867-0.988,1.734-1.977,2.602-2.973c1.617-1.871,3.227-3.754,4.824-5.648c0.777-0.941,1.559-1.883,2.336-2.828
		c1.648-1.992,3.293-3.988,4.914-6.012c0.555-0.703,1.109-1.414,1.664-2.121c6.012-7.605,11.801-15.395,17.336-23.355
		c0.137-0.195,0.273-0.383,0.41-0.574c1.645-2.371,3.254-4.766,4.852-7.168c0.488-0.738,0.984-1.477,1.48-2.219
		c1.512-2.301,2.992-4.617,4.473-6.945c0.516-0.824,1.043-1.645,1.559-2.473c1.461-2.352,2.902-4.703,4.328-7.07
		c0.457-0.754,0.895-1.512,1.344-2.266c1.48-2.5,2.953-5.008,4.383-7.531c0.195-0.348,0.383-0.688,0.578-1.031
		c6.586-11.695,12.676-23.676,18.211-35.906c0.254-0.539,0.508-1.086,0.75-1.637c1.207-2.703,2.387-5.422,3.547-8.148
		c0.293-0.684,0.586-1.371,0.875-2.059c1.141-2.727,2.262-5.469,3.355-8.227c0.23-0.582,0.457-1.172,0.68-1.754
		c1.141-2.91,2.262-5.84,3.344-8.77c0.008-0.039,0.02-0.078,0.039-0.109c4.734-12.945,8.855-26.117,12.355-39.473
		c0.125-0.484,0.254-0.969,0.379-1.457c0.762-2.941,1.48-5.887,2.172-8.844c0.156-0.668,0.313-1.328,0.469-1.992
		c0.672-2.941,1.324-5.887,1.93-8.844c0.125-0.563,0.234-1.133,0.352-1.703c10.336-50.969,11.293-104.215,0.691-157.539
		c-23.504-118.266-121.422-216.582-162.941-329.254c-50.602-137.328-28.141-316.137-0.031-453.566
		c6.688-32.664,7.992-64.219,4.738-93.981c21.883-23.723-12.844-148.262-36.629-179.766c-23.016-30.496-51.633-52.043-83.344-65.82
		c53.43-92.289,83.918-114.609,138.535-134.633c-7.766-34.598-22.734-58.508-54.258-62.852
		c-51.789,47.07-100.93,106.492-130.082,183.254c-6.918-1.379-13.914-2.426-20.969-3.215c-0.293-0.031-0.574-0.066-0.859-0.094
		c-12.246-1.332-24.672-1.793-37.164-1.422c-0.672,0.02-1.344,0.043-2.016,0.066c-8.723,0.32-17.473,1.039-26.211,2.145
		c-0.84,0.105-1.668,0.195-2.496,0.309c-2.555,0.344-5.098,0.727-7.641,1.133c-1.227,0.199-2.453,0.41-3.684,0.621
		c-2.465,0.426-4.93,0.852-7.395,1.336c-0.77,0.152-1.551,0.332-2.32,0.488c-4.559,0.934-9.098,1.969-13.629,3.102
		c-1.668,0.418-3.324,0.828-4.98,1.27c-2.055,0.547-4.113,1.117-6.16,1.707c-1.859,0.535-3.711,1.098-5.57,1.664
		c-1.863,0.57-3.734,1.125-5.586,1.73c-3.379,1.102-6.75,2.254-10.094,3.461c-1.59,0.57-3.156,1.18-4.727,1.773
		c-2.223,0.84-4.441,1.691-6.645,2.574c-1.578,0.641-3.168,1.281-4.734,1.941c-2.477,1.035-4.934,2.109-7.379,3.203
		c-1.199,0.531-2.395,1.039-3.574,1.586c-3.48,1.598-6.93,3.266-10.348,4.98c-1.191,0.598-2.359,1.215-3.539,1.824
		c-2.496,1.289-4.98,2.605-7.445,3.953c-1.207,0.664-2.414,1.324-3.625,2.004c-2.941,1.66-5.856,3.355-8.738,5.102
		c-0.555,0.336-1.121,0.652-1.676,0.992c-3.402,2.074-6.746,4.227-10.059,6.418c-0.973,0.645-1.938,1.305-2.902,1.957
		c-2.484,1.688-4.949,3.398-7.387,5.148c-0.973,0.695-1.938,1.383-2.902,2.086c-3.234,2.379-6.441,4.793-9.578,7.281
		c-26.582,21.086-36.785,38.785-36.277,52.836c-2.367,2.125-4.746,4.227-7.113,6.438
		c-99.508,77.051-214.352,315.832-261.902,428.199c-60.746,143.527-97.707,292.41-104.77,447.352
		c-15.086,331.172,176.953,617.152,525.453,651.004c3.934,0.387,7.863,0.688,11.777,0.945c1.258,0.082,2.523,0.133,3.781,0.199
		c2.672,0.152,5.332,0.285,7.992,0.371c1.48,0.055,2.953,0.078,4.434,0.113c2.453,0.051,4.918,0.086,7.367,0.09
		c1.52,0.008,3.039,0,4.559-0.012c2.457-0.027,4.902-0.078,7.348-0.152C1138.406,1979.398,1139.867,1979.359,1141.328,1979.301z"/>
	<path style="fill:#6BB869;" d="M1272.152,339.164c53.43-92.289,83.918-114.609,138.535-134.633
		c-7.766-34.598-22.734-58.508-54.258-62.852c-51.793,47.07-100.93,106.492-130.082,183.254c-31.75-6.34-65.18-6.324-98.293-0.918
		c-0.098,0.012-0.195,0.031-0.289,0.047c-5.34,0.879-10.66,1.887-15.969,3.043c-0.215,0.043-0.426,0.086-0.641,0.133
		c-10.859,2.383-21.641,5.313-32.281,8.805c-0.211,0.07-0.418,0.148-0.633,0.219c-4.762,1.57-9.488,3.262-14.18,5.051
		c-1.023,0.387-2.035,0.785-3.055,1.184c-4.047,1.582-8.066,3.246-12.051,4.984c-1.023,0.445-2.055,0.879-3.074,1.332
		c-9.691,4.336-19.188,9.113-28.426,14.32c-1.16,0.656-2.293,1.344-3.449,2.012c-3.356,1.949-6.688,3.945-9.973,6.004
		c-1.453,0.906-2.883,1.828-4.32,2.754c-3.102,2.008-6.156,4.074-9.176,6.18c-1.289,0.898-2.59,1.777-3.867,2.695
		c-4.195,3.012-8.332,6.086-12.356,9.281c-2.516,1.992-4.84,3.949-7.066,5.883c-0.418,0.363-0.848,0.727-1.25,1.09
		c-2.051,1.813-3.973,3.598-5.781,5.355c-0.441,0.43-0.859,0.855-1.289,1.285c-1.688,1.688-3.289,3.352-4.754,4.988
		c-0.344,0.379-0.648,0.75-0.981,1.129c-1.18,1.355-2.281,2.695-3.313,4.016c-0.445,0.566-0.902,1.141-1.32,1.699
		c-1.023,1.375-1.961,2.727-2.82,4.063c-0.469,0.719-0.902,1.426-1.32,2.133c-0.504,0.84-0.961,1.668-1.398,2.496
		c-0.648,1.207-1.223,2.395-1.742,3.566c-0.223,0.512-0.441,1.02-0.641,1.527c-1.941,4.871-2.758,9.422-2.602,13.641
		c0,0.008,0,0.02,0,0.027c0,0.004,0,0.008,0,0.012c0.402,10.371,6.66,18.723,16.621,24.934c0.012,0.008,0.016,0.012,0.02,0.012
		c2.926,1.824,6.148,3.461,9.648,4.906c0.117,0.051,0.223,0.098,0.34,0.145c1.101,0.453,2.226,0.883,3.379,1.297
		c0.238,0.086,0.48,0.164,0.719,0.25c2.145,0.75,4.356,1.434,6.645,2.055c0.266,0.074,0.523,0.152,0.785,0.223
		c1.059,0.277,2.129,0.535,3.215,0.785c0.625,0.145,1.258,0.285,1.898,0.422c1.027,0.223,2.051,0.441,3.102,0.637
		c1.473,0.277,2.969,0.535,4.48,0.766c0.902,0.133,1.82,0.25,2.731,0.367c0.98,0.129,1.965,0.254,2.957,0.363
		c0.871,0.094,1.746,0.188,2.625,0.266c1.422,0.133,2.867,0.242,4.313,0.332c0.844,0.055,1.688,0.098,2.539,0.137
		c1.434,0.066,2.871,0.117,4.316,0.145c0.731,0.012,1.461,0.02,2.203,0.027c1.48,0.004,2.973-0.008,4.461-0.039
		c0.508-0.012,1.016-0.012,1.527-0.027c1.941-0.059,3.891-0.16,5.844-0.293c0.594-0.039,1.183-0.09,1.773-0.133
		c1.551-0.121,3.094-0.266,4.633-0.43c0.559-0.055,1.102-0.109,1.656-0.172c1.988-0.234,3.977-0.5,5.957-0.805
		c0.402-0.063,0.801-0.137,1.203-0.199c1.652-0.27,3.297-0.566,4.934-0.887c0.555-0.109,1.105-0.215,1.656-0.332
		c1.992-0.414,3.973-0.848,5.926-1.34c36.863-9.262,76.891-30.133,104.867,4.867c1.023,1.281,1.895,2.734,2.664,4.301
		c0.055,0.102,0.113,0.199,0.164,0.305c0.746,1.563,1.375,3.262,1.914,5.059c0.035,0.109,0.07,0.211,0.105,0.316
		c1.105,3.793,1.813,8.043,2.293,12.609c3.785,35.676-6.059,90.219,55.875,86.441c26.074-1.59,46.93-47.184,68.539-59.832
		c36.293-21.238,46.207,21.219,68.023,40.566c19.004,16.855,30.883,18.949,37.535,11.738
		c21.883-23.723-12.844-148.262-36.629-179.766C1332.477,374.488,1303.855,352.941,1272.152,339.164z"/>
	<path style="fill:#6B4C99;" d="M1449.359,1579.309c-72.18,24.891-100.754,97.422-150.043,149.047
		c-36.355,38.078-86.051,67.789-140.316,64.859c-56.766-3.063-108.191-34.945-143.988-78.016
		c-39.219-47.18-66.598-103.223-57.977-165.816c8.48-61.59,41.086-115.633,55.512-175.465c10.113-41.945,8.164-85-10.074-124.461
		c-16.137-34.906-40.602-64.785-64.481-94.59c-24.34-30.375-48.793-61.426-65.141-97.012
		c-18.441-40.137-25.957-83.914-21.672-127.937c6.41-65.93,32.121-129.254,67.352-184.949
		c32.754-51.785,72.34-97.781,122.039-133.82c36.43-26.418,78.941-49.105,107.813-84.398c5.504-6.719,9.996-13.727,13.77-20.914
		c-0.973-9.234-2.855-17.227-7.141-22.59c-27.977-35-68.004-14.129-104.867-4.867c-49.313,12.387-110.832-0.23-112.105-33.422
		c-2.367,2.125-4.75,4.164-7.113,6.375c-99.508,77.051-214.356,315.832-261.91,428.199
		c-60.738,143.527-97.703,292.41-104.762,447.352c-15.09,331.172,176.953,617.152,525.453,651.004
		c3.93,0.387,7.852,0.688,11.773,0.945c1.262,0.082,2.52,0.133,3.781,0.199c2.664,0.152,5.336,0.285,7.996,0.371
		c1.477,0.055,2.953,0.078,4.434,0.113c2.453,0.051,4.91,0.086,7.367,0.09c1.52,0.008,3.039,0,4.555-0.012
		c2.453-0.027,4.906-0.078,7.352-0.152c1.461-0.043,2.922-0.082,4.379-0.141c2.652-0.109,5.297-0.258,7.938-0.426
		c1.227-0.07,2.449-0.129,3.672-0.219c3.852-0.277,7.684-0.598,11.516-0.988c0.188-0.02,0.375-0.047,0.563-0.066
		c3.641-0.383,7.27-0.813,10.891-1.297c1.266-0.168,2.523-0.363,3.785-0.543c2.547-0.363,5.098-0.738,7.633-1.152
		c1.457-0.238,2.906-0.5,4.355-0.75c2.355-0.41,4.703-0.844,7.047-1.297c1.5-0.293,2.996-0.59,4.492-0.898
		c2.32-0.477,4.637-0.984,6.945-1.5c1.453-0.332,2.906-0.648,4.348-0.992c2.496-0.59,4.98-1.215,7.465-1.855
		c1.227-0.313,2.453-0.609,3.684-0.941c3.652-0.977,7.301-2,10.926-3.078c0.484-0.145,0.965-0.305,1.449-0.449
		c3.16-0.957,6.313-1.941,9.449-2.973c1.336-0.438,2.66-0.906,3.988-1.355c2.285-0.777,4.563-1.559,6.836-2.375
		c1.488-0.539,2.969-1.094,4.457-1.645c2.105-0.781,4.203-1.582,6.293-2.402c1.527-0.594,3.047-1.195,4.566-1.805
		c2.059-0.84,4.117-1.691,6.164-2.559c1.488-0.633,2.98-1.258,4.461-1.906c2.164-0.945,4.313-1.918,6.461-2.898
		c1.328-0.609,2.668-1.199,3.988-1.82c3.125-1.465,6.223-2.965,9.309-4.5c1.242-0.621,2.473-1.262,3.711-1.891
		c2.375-1.211,4.75-2.43,7.098-3.688c1.484-0.789,2.949-1.605,4.422-2.41c1.863-1.023,3.73-2.047,5.586-3.105
		c1.566-0.887,3.125-1.793,4.68-2.699c1.738-1.012,3.469-2.035,5.191-3.074c1.59-0.949,3.168-1.914,4.742-2.887
		c1.676-1.035,3.34-2.09,5.004-3.148c1.578-1.004,3.16-2.008,4.73-3.035c1.645-1.082,3.277-2.184,4.914-3.285
		c1.547-1.035,3.094-2.059,4.625-3.121c1.859-1.285,3.695-2.602,5.543-3.922c2.625-1.871,5.234-3.777,7.82-5.699
		c1.512-1.125,3.02-2.238,4.516-3.379c1.637-1.258,3.262-2.531,4.883-3.809c1.359-1.07,2.727-2.145,4.078-3.23
		c1.641-1.32,3.273-2.66,4.902-4c1.293-1.07,2.59-2.152,3.883-3.246c1.641-1.383,3.27-2.777,4.891-4.184
		c1.223-1.063,2.441-2.141,3.648-3.211c1.656-1.465,3.313-2.938,4.945-4.43c1.086-0.988,2.16-2,3.242-3
		c1.723-1.609,3.457-3.207,5.164-4.84c0.238-0.227,0.473-0.465,0.711-0.695c4.207-4.047,8.336-8.184,12.398-12.391
		c0.715-0.738,1.438-1.469,2.148-2.215c1.719-1.805,3.41-3.629,5.102-5.461c0.875-0.945,1.758-1.895,2.629-2.852
		c1.645-1.813,3.27-3.645,4.887-5.477c0.875-0.988,1.746-1.977,2.602-2.973c1.625-1.871,3.238-3.754,4.824-5.648
		c0.789-0.941,1.57-1.883,2.348-2.828c1.648-1.992,3.289-3.988,4.906-6.012c0.563-0.703,1.105-1.414,1.668-2.121
		c6.012-7.605,11.805-15.395,17.34-23.355c0.137-0.195,0.273-0.383,0.41-0.574c1.641-2.371,3.242-4.766,4.84-7.168
		c0.5-0.738,0.996-1.477,1.488-2.219c1.508-2.301,2.996-4.617,4.465-6.945c0.527-0.824,1.043-1.645,1.566-2.473
		c1.461-2.352,2.906-4.703,4.332-7.07c0.445-0.754,0.895-1.512,1.34-2.266c1.48-2.5,2.949-5.008,4.383-7.531
		c0.195-0.348,0.379-0.688,0.57-1.031c6.598-11.695,12.684-23.676,18.223-35.906c0.246-0.539,0.5-1.086,0.746-1.637
		c1.211-2.703,2.391-5.422,3.551-8.148c0.293-0.684,0.586-1.371,0.867-2.059c1.148-2.727,2.27-5.469,3.355-8.227
		c0.234-0.582,0.457-1.172,0.688-1.754c1.141-2.91,2.262-5.84,3.336-8.77c0.012-0.039,0.027-0.078,0.035-0.109
		c4.746-12.945,8.867-26.117,12.359-39.473c0.129-0.484,0.262-0.969,0.387-1.457c0.762-2.941,1.477-5.887,2.172-8.844
		c0.156-0.668,0.313-1.328,0.465-1.992c0.676-2.938,1.32-5.887,1.934-8.844c0.117-0.563,0.23-1.133,0.344-1.703
		c1.332-6.57,2.496-13.172,3.516-19.805c0.363-2.383,0.609-4.785,0.934-7.172c0.574-4.273,1.172-8.551,1.613-12.844
		c0.043-0.43,0.117-0.848,0.16-1.277c-0.02-0.004-0.039-0.004-0.051-0.008C1520.621,1569.711,1484.207,1567.293,1449.359,1579.309z"
		/>
	<path style="fill:#1CAA6B;" d="M1356.43,141.68c-51.809,47.086-100.957,106.523-130.113,183.32
		c-84.734-16.938-181.504,11.137-252,67.059c-89.484,70.98,5.637,103.953,75.828,86.32c36.863-9.262,76.891-30.133,104.867,4.867
		c18.543,23.191-7.633,95.02,41.094,107.352c15.883-25.094,27.719-52.106,30.387-83.5c3.176-37.32-4.695-76.637,5.32-113.262
		c2.551-9.316,6.375-17.758,11.105-25.535c7.039,0.32,15.426-4.938,24.809-21.434c56.211-98.797,86.848-121.762,142.961-142.336
		C1402.922,169.934,1387.953,146.023,1356.43,141.68z"/>
	<g>
		<path style="fill:#B47CB4;" d="M1330.809,634.961c-32.813,140.43-41.77,285.16-16.398,427.574
			c25.422,142.73,87.391,276.172,171.316,393.695c4.52,6.328,21.398-4.27,17.109-10.281
			c-83.793-117.332-143.836-248.758-170.43-390.824c-26.332-140.676-16.395-285.555,16.031-424.293
			C1350.637,621.398,1332.371,628.277,1330.809,634.961z"/>
		<path style="fill:#B47CB4;" d="M1255.789,806.227c-18.949,167.617,7.484,333.043,80.266,485.367
			c3.168,6.617,20.473-3.234,17.113-10.281c-72.41-151.531-98.219-315.863-79.383-482.496
			C1274.613,791.5,1256.609,798.988,1255.789,806.227z"/>
		<path style="fill:#B47CB4;" d="M1260.777,686.492c0,8.313,0,16.629,0,24.945c0,7.863,17.996-0.117,17.996-7.41
			c0-8.316,0-16.633,0-24.945C1278.773,671.219,1260.777,679.195,1260.777,686.492z"/>
		<path style="fill:#B47CB4;" d="M1351.023,1356.449c16.469,22.293,30.66,46.109,44.902,69.848
			c3.914,6.52,21.02-3.758,17.109-10.281c-14.246-23.734-28.438-47.555-44.902-69.844
			C1363.492,1339.891,1346.668,1350.551,1351.023,1356.449z"/>
		<path style="fill:#B47CB4;" d="M1440.344,1478.004c6.957,0,19.688-13.918,8.098-13.918
			C1441.484,1464.086,1428.754,1478.004,1440.344,1478.004z"/>
		<path style="fill:#B47CB4;" d="M1236.277,1186.824c26.117,82.613,59.281,162.859,99.777,239.473
			c3.488,6.59,20.723-3.445,17.113-10.281c-40.504-76.609-73.668-156.859-99.781-239.473
			C1251.332,1170.039,1233.875,1179.219,1236.277,1186.824z"/>
	</g>
	<path style="fill:#5C2F0D;" d="M624.438,1349.098c-8.441,256.699,162.43,533.176,426.344,581.055
		c5.035,0.914,15.91-8.953,8.938-10.215c-261.699-47.48-430.145-322.223-421.785-576.395
		C638.125,1337.75,624.617,1343.629,624.438,1349.098z"/>
	<path style="fill:#5C2F0D;" d="M644.535,1143.324c-4.48,28.574-5.125,57.16-5.129,86.039c-0.008,5.898,13.496-0.09,13.496-5.555
		c0.008-28.043,0.488-55.813,4.848-83.586C658.898,1132.922,645.328,1138.234,644.535,1143.324z"/>
	<path style="fill:#5C2F0D;" d="M714.383,1043.539c-37.004,118.676-42.426,248.176-23.324,370.578
		c18.516,118.594,66.469,240.746,164,316.02c4.238,3.273,16.246-5.445,11.242-9.305c-98.621-76.117-144.129-199.43-162.766-318.832
		c-18.605-119.172-11.906-246.191,24.059-361.555C729.707,1033.664,715.902,1038.652,714.383,1043.539z"/>
	<path style="fill:#5C2F0D;" d="M889.98,1765.063c29.457,20.074,55.355,44.777,84.813,64.855c4.473,3.051,16.359-5.824,11.246-9.305
		c-29.457-20.082-55.359-44.781-84.813-64.859C896.754,1752.707,884.863,1761.574,889.98,1765.063z"/>
	<path style="fill:#5C2F0D;" d="M1122.063,1925.273c59.895,4.395,118.125-11.625,169.789-41.602
		c7.848-4.555,3.566-11.586-4.238-7.055c-48.684,28.246-103.184,42.348-159.48,38.219
		C1122.871,1914.453,1113.328,1924.637,1122.063,1925.273z"/>
	<path style="fill:#B1D182;" d="M1269.766,382.168c37.02,35.051,67.793,74.625,80.813,124.719c2.168,8.344,19.758-0.652,18-7.41
		c-13.598-52.297-45.141-93.094-83.824-129.723C1279.711,364.98,1263.48,376.223,1269.766,382.168z"/>
	<path style="fill:#B1D182;" d="M1278.684,448.453c5.813,5.977,10.363,13.047,14.965,19.957c4.285,6.418,21.258-4.055,17.113-10.281
		c-4.609-6.906-9.16-13.977-14.969-19.953c-3.109-3.199-7.984-1.605-11.379,0.434
		C1282.426,439.805,1275.676,445.359,1278.684,448.453z"/>
	<path style="fill:#5C2F0D;" d="M999.133,418.254c40.77-36.879,91.258-63.664,144.512-77.211c5.691-1.449,12.316-12.398,2.816-9.984
		c-56.91,14.477-111.234,43.008-154.832,82.438C984.215,420.203,993.617,423.242,999.133,418.254z"/>
	<path style="fill:#5C2F0D;" d="M1021.586,433.219c19.352-16.668,40.281-30.563,63.938-40.355c6.793-2.816,8.602-12.695-0.68-8.855
		c-26.063,10.793-49.422,26.082-70.762,44.457C1006.484,435.004,1015.981,438.043,1021.586,433.219z"/>
	<path style="fill:#5C2F0D;" d="M1116.375,380.836c1.934-1.773-0.859,0.332,0.969-0.82c1.082-0.688,2.145-1.398,3.148-2.199
		c2.34-1.859,3.59-4.207,3.867-7.129c0.336-3.48-5.547-2.277-7.09-1.645c-3.078,1.27-6.07,3.727-6.406,7.203
		c0.258-2.699,4.602-4.781,1.629-2.902c-1.281,0.809-2.5,1.711-3.621,2.734c-1.563,1.438-4.824,5.16-1.871,7.035
		C1109.742,384.855,1114.293,382.738,1116.375,380.836z"/>
	<path style="fill:#AC5FA2;" d="M1014.715,739.539c-24.02,45.269-52.781,110.156-27.5,160.269
		c19.402,38.461,76.273,65.277,117.371,69.902c49.707,5.598,77.031-20.871,99.715-62.355
		c28.664-52.414,25.039-123.965,28.059-182.281c2.754-53.172-12.117-115.086-80.609-107.945
		C1098.781,622.644,1037.754,696.117,1014.715,739.539z"/>
	<path style="fill:#AC5FA2;" d="M1101.582,1121.633c58.434-5.293,78.723-116.035,8.395-121.992
		c-60.914-5.164-83.051,112.602-18.938,121.801C1094.52,1121.938,1098.086,1121.949,1101.582,1121.633z"/>
</g>
</svg>
